<?xml version="1.0" encoding="UTF-8"?>
<svg id="Capa_1" data-name="Capa 1" xmlns="http://www.w3.org/2000/svg" version="1.1" xmlns:xlink="http://www.w3.org/1999/xlink" viewBox="0 0 1095 1095">
  <defs>
    <style>
      .cls-1 {
        fill: url(#linear-gradient);
      }

      .cls-1, .cls-2, .cls-3 {
        stroke-width: 0px;
      }

      .cls-2 {
        fill: #8a4381;
      }

      .cls-3 {
        fill: url(#linear-gradient-2);
      }
    </style>
    <linearGradient id="linear-gradient" x1="293.2" y1="335.9" x2="512.3" y2="335.9" gradientTransform="translate(0 1083.6) scale(1 -1)" gradientUnits="userSpaceOnUse">
      <stop offset="0" stop-color="#8d7459"/>
      <stop offset=".2" stop-color="#90775d"/>
      <stop offset=".4" stop-color="#9b8369"/>
      <stop offset=".6" stop-color="#ac967e"/>
      <stop offset=".8" stop-color="#c5b19b"/>
      <stop offset="1" stop-color="#e5d3bf"/>
      <stop offset="1" stop-color="#ecdbc8"/>
    </linearGradient>
    <linearGradient id="linear-gradient-2" x1="7.5" y1="536.1" x2="1087.5" y2="536.1" gradientTransform="translate(0 1083.6) scale(1 -1)" gradientUnits="userSpaceOnUse">
      <stop offset="0" stop-color="#8d7459"/>
      <stop offset=".2" stop-color="#90775d"/>
      <stop offset=".4" stop-color="#9b8369"/>
      <stop offset=".6" stop-color="#ac967e"/>
      <stop offset=".8" stop-color="#c5b19b"/>
      <stop offset="1" stop-color="#e5d3bf"/>
      <stop offset="1" stop-color="#ecdbc8"/>
    </linearGradient>
  </defs>
  <path class="cls-1" d="M383.9,842.8h-71.3l51.9-142.6h-71.3l17.2-47.6c67.3,0,134.6,0,201.9.3l-17.2,47.6-59.3-.3-51.9,142.6h0Z"/>
  <path class="cls-2" d="M288.3,653.4l-17,47.2h-141.6l-34.1,94.1h70.7l17.1-46.9h70.7l-22.8,63c-7,19.2-24.1,31.1-44.5,31.1H7.5l57.2-157.4c7-18.9,24.1-31.1,44.5-31.1h179.1Z"/>
  <g>
    <path class="cls-2" d="M555.2,400.2l4.2,184.6C360,465.3,142.3,361,7.5,330.8h0c371.8,121.8,657.3,434.7,657.3,434.7l-109.6-365.2h0Z"/>
    <path class="cls-3" d="M1087.5,416.1h-407L561.5,2.2l-116.9,401.4C291.8,318.9,143.8,272.7,7.5,251.2h0c283.2,59.1,478.2,235.4,478.2,235.4l73.8-214.1,77.9,232.2,219.9-3-185.8,144,68.2,226.1-180.2-138.7-282.4,345.4,282.4-246.3,331.3,260.6-126.8-421.2,323.5-255.5h0Z"/>
  </g>
</svg>