<?xml version="1.0" encoding="utf-8"?>
<!-- Generator: Adobe Illustrator 28.0.0, SVG Export Plug-In . SVG Version: 6.00 Build 0)  -->
<svg version="1.1" id="Layer_1" xmlns:xodm="http://www.corel.com/coreldraw/odm/2003"
	 xmlns="http://www.w3.org/2000/svg" xmlns:xlink="http://www.w3.org/1999/xlink" x="0px" y="0px" viewBox="0 0 2090.8 540"
	 style="enable-background:new 0 0 2090.8 540;" xml:space="preserve">
<style type="text/css">
	.st0{fill-rule:evenodd;clip-rule:evenodd;fill:url(#SVGID_1_);}
	.st1{fill-rule:evenodd;clip-rule:evenodd;fill:url(#SVGID_00000144337695411355491340000016166817976629331370_);}
	.st2{fill-rule:evenodd;clip-rule:evenodd;fill:url(#SVGID_00000150785468113571132040000015095699167079724464_);}
	.st3{fill-rule:evenodd;clip-rule:evenodd;fill:url(#SVGID_00000114047226864174242100000018243047904618002864_);}
	.st4{fill-rule:evenodd;clip-rule:evenodd;fill:url(#SVGID_00000114074847347703203750000008340634935597752201_);}
	.st5{fill-rule:evenodd;clip-rule:evenodd;fill:url(#SVGID_00000083774600130304561340000008046735347959559810_);}
	.st6{fill-rule:evenodd;clip-rule:evenodd;fill:url(#SVGID_00000106842783043523797990000010530567354092733358_);}
	.st7{fill-rule:evenodd;clip-rule:evenodd;fill:url(#SVGID_00000069393246157238092870000016881542304897107099_);}
	.st8{fill-rule:evenodd;clip-rule:evenodd;fill:url(#SVGID_00000027566986803561118600000016596788148331396999_);}
	.st9{fill-rule:evenodd;clip-rule:evenodd;fill:url(#SVGID_00000169523420918034692630000016540426596085441453_);}
	.st10{fill-rule:evenodd;clip-rule:evenodd;fill:#47245A;}
	.st11{fill-rule:evenodd;clip-rule:evenodd;fill:url(#SVGID_00000029732285402335394590000013690071440725277838_);}
	.st12{fill-rule:evenodd;clip-rule:evenodd;fill:url(#SVGID_00000140706831511256602710000003847804803543883656_);}
	.st13{fill-rule:evenodd;clip-rule:evenodd;fill:url(#SVGID_00000155129812241908080600000014786450736603437749_);}
	.st14{fill-rule:evenodd;clip-rule:evenodd;fill:url(#SVGID_00000091014396110775036720000002193099504335910801_);}
	.st15{fill-rule:evenodd;clip-rule:evenodd;fill:url(#SVGID_00000067219296710578992250000010776878361204495008_);}
	.st16{fill-rule:evenodd;clip-rule:evenodd;fill:#00A859;}
	.st17{fill:#4A245E;}
	.st18{fill:none;stroke:#FFFFFF;stroke-width:2.8346;stroke-miterlimit:10;}
</style>
<g id="Capa_x0020_1">
	<g>
		
			<linearGradient id="SVGID_1_" gradientUnits="userSpaceOnUse" x1="-3741.6375" y1="3053.2542" x2="-287.4604" y2="3053.2542" gradientTransform="matrix(0.2256 0 0 0.2256 844.1134 -418.7987)">
			<stop  offset="0" style="stop-color:#F4DE8C"/>
			<stop  offset="0.1608" style="stop-color:#B67E31"/>
			<stop  offset="0.4588" style="stop-color:#F0D786"/>
			<stop  offset="0.6235" style="stop-color:#D4AC59"/>
			<stop  offset="0.7098" style="stop-color:#B8812C"/>
			<stop  offset="0.8902" style="stop-color:#DBBF95"/>
			<stop  offset="1" style="stop-color:#FEFEFE"/>
		</linearGradient>
		<path class="st0" d="M437.8,180.2C438,180.2,437.4,180.2,437.8,180.2z M314.4,331.1c1.4,0,2.5,1.1,2.5,2.5s-1.1,2.5-2.5,2.5
			s-2.5-1.1-2.5-2.5C311.9,332.3,313,331.1,314.4,331.1z M323.7,312c1.7,0,3,1.3,3,3s-1.3,3-3,3s-3-1.3-3-3S322.1,312,323.7,312z
			 M437.1,237.5c1.7,0,3,1.3,3,3s-1.3,3-3,3s-3-1.3-3-3S435.5,237.5,437.1,237.5z M470.6,313.1c1,0,1.8,0.8,1.8,1.8
			s-0.8,1.8-1.8,1.8s-1.8-0.8-1.8-1.8C468.7,314,469.5,313.1,470.6,313.1z M443.7,448.2c1,0,1.8,0.8,1.8,1.8s-0.8,1.8-1.8,1.8
			s-1.8-0.8-1.8-1.8C441.8,449.1,442.6,448.2,443.7,448.2z M510.3,393.2c1.6,7.2,0.5,14.1,15.6,16.7c-16.1,1.3-15.4,16.7-15.5,16.7
			c-1.4-12.9-10.4-16.7-18.3-16.7C509,409.9,509,396.6,510.3,393.2z M392.9,452.3c1.1,5,0.3,9.8,10.8,11.6
			c-11.2,0.9-10.7,11.6-10.8,11.6c-0.9-9-7.2-11.6-12.7-11.6C391.9,463.9,391.9,454.6,392.9,452.3L392.9,452.3z M287.6,326.4
			c1.1,5,0.3,9.8,10.8,11.6c-11.2,0.9-10.7,11.6-10.8,11.6c-0.9-9-7.2-11.6-12.7-11.6C286.7,338,286.7,328.7,287.6,326.4
			L287.6,326.4z M361.6,369.6c2.4,10.7,0.7,21.2,23.3,25c-24.1,2-23,25-23.3,25c-2-19.3-15.5-25-27.3-25
			C359.6,394.6,359.6,374.6,361.6,369.6L361.6,369.6z M361.2,281.7c1.9,8.7,0.6,17.2,19,20.3c-19.6,1.6-18.7,20.3-18.9,20.3
			c-1.7-15.7-12.6-20.3-22.2-20.3C359.6,302,359.6,285.7,361.2,281.7L361.2,281.7z M402.4,261.4c1.9,8.7,0.6,17.2,19,20.3
			c-19.6,1.6-18.7,20.3-18.9,20.3c-1.7-15.7-12.6-20.3-22.2-20.3C400.8,281.7,400.8,265.4,402.4,261.4z M592.5,96.7
			c1.9-1.3,18.4-14.3,18.9-15.2c-82.2-23.1-182.6,23.5-251,69c-15.5,10.3-30.8,20.3-46.2,30.8c-32.4,22.2-106.6,73.1-137.9,80.6
			c-6.1-7.4-1.8-3.6-10.9-8.1c3.3-140,156.9-253.3,295.7-233.4c24.1,3.5,48.3,11,68.7,20.1c7.1,3.2,24.1,14.4,30.5,12.5
			c5.4-1.6,15.2-11.9-8.4-23.3C363.7-61.4,147.7,67.2,145,276.5C131.3,287,35.7,317.2,12.1,320l-5.4,0.6c1.6,1.1-2.6,1.3,3.4,1.2
			c3,0,2.8-0.8,3.6-1.4c14.7,1.6,63.5-9.7,79-13.8c56.4-15,115.5-39.2,166.1-67c33.3-18.7,107.1-70.1,130.8-82.7
			c0.1,0-160.1,166.3-389.6,185.1c10.9,3.7,75.6,2,90.6,0.8c71.4-5.7,122.3-23,185.2-51.2c61-27.3,111.2-67,165.2-105
			c27.1-19,63.4-46.5,94.5-56.6c17.3-4.9,5.2-19.8-19.4-11.4c-48.8,14.2-106.9,56.4-106.9,56.3c14-15.2,50.3-49.6,83.2-61.7
			C536.5,92,591.9,97.1,592.5,96.7L592.5,96.7z M564.1,284.5c9.2-10,50.2-70.1,23.7-70.1c-4.1,2.5-17.3,22.2-18.6,25.1
			c-11.9,13.6-24.8,29.7-39.4,40c12.7-17.8,55.3-60,52.3-79.1c-0.7-4.7-4.9-10.6-11.3-8.2c-2.4,0.9-19.7,22.7-23.8,27.9
			c-9.4,13-40.2,43.9-52.2,54.7C383.3,374.7,241.9,425,75.2,392.9c-8.4-1.6-16.6-3.1-25-4.9c-7.6-1.6-16.8-5.6-23.5-6.4
			c8.6,6.4,68.4,27,81.7,30.7c199.9,56,296.7,23.5,429.1-94.4C541.3,313.3,563.4,286.6,564.1,284.5L564.1,284.5z M428.1,264.2
			c-10.1,10.3,42-31.9,53-38.9c14.2-14.5,32.2-26.8,46.7-41.8c14.6-15.2,19.5,5.1,14.7,11.6c-36.8,40.5-112.7,113.7-193,148.3
			C295,366.9,240.6,378,195.9,380.7c-33.8,2.1-64.4,0.4-98.1-3c-13.4-1.3-76.7-12-85.8-16.6c34.9-0.1,65.7,3.1,101.3-0.8
			c31.8-3.5,57.2-8.7,86.4-16.9c49.3-14.4,98.4-37.5,142.5-62.2c51.1-28.7,92.3-60.5,120.7-82.1c23.3-17.7,36.9-32.7,42.5-24.8
			C521.5,190.6,437.2,255,428.1,264.2L428.1,264.2z M652.8,155.4l-1.3,156.8c-3-31.8-8.8-73.6-25-101.2
			c-6.1-10.4-12.4-18.2-19.8-24.5l0.3,0.3L652.8,155.4l42.5-32.9c-0.1-0.1-0.3-0.3-0.4-0.4c16.7,15.6,40.7,25.7,76.1,30.2
			c3.5,0.7,3.2,0.2,5.3,1.9l1.2-0.5c1.7,1.1,2.1-1.5,1.5,1.4l-2.8,0.6L652.8,155.4L604,130.5c15.6-5.5,35.7-46.9,35.7-65.3
			c-10.1,32.7-17.6,48-40.9,63.6c-24.6,16.4-51.6,20.1-75.6,27.3L652.8,155.4L652.8,155.4z M694.6,121.7c-0.6-0.6-1.2-1.1-1.8-1.7
			C693.4,120.6,694,121.2,694.6,121.7z M692.7,119.9c-0.5-0.5-1.1-1.1-1.6-1.7C691.6,118.8,692.1,119.3,692.7,119.9z M690.8,117.9
			c-0.5-0.6-1.1-1.2-1.6-1.8C689.7,116.8,690.2,117.4,690.8,117.9z M688.9,115.8c-1.1-1.2-2.1-2.5-3.1-3.8
			C686.7,113.3,687.8,114.6,688.9,115.8z M685.5,111.7c-0.5-0.6-1-1.3-1.4-1.9C684.5,110.4,685,111.1,685.5,111.7z M683.8,109.5
			c-0.4-0.6-0.9-1.2-1.3-1.9C682.9,108.2,683.3,108.9,683.8,109.5z M682.3,107.4c-0.5-0.7-0.9-1.3-1.3-2
			C681.4,106.1,681.9,106.8,682.3,107.4z M680.7,105c-0.4-0.7-0.9-1.4-1.3-2C679.9,103.6,680.3,104.3,680.7,105z M679.3,102.7
			c-0.4-0.7-0.8-1.3-1.2-2C678.5,101.4,678.9,102.1,679.3,102.7z M677.9,100.4c-0.4-0.7-0.8-1.4-1.2-2.1
			C677.1,99,677.5,99.7,677.9,100.4z M676.5,97.8c-0.4-0.7-0.8-1.5-1.2-2.2C675.8,96.4,676.1,97.1,676.5,97.8z M675.4,95.6
			c-0.4-0.7-0.7-1.5-1.1-2.3C674.6,94.1,675,94.8,675.4,95.6z M674.1,92.9c-0.3-0.7-0.7-1.5-1-2.3C673.4,91.4,673.7,92.1,674.1,92.9
			z M672.8,90.2c-0.3-0.7-0.6-1.5-1-2.2C672.2,88.7,672.5,89.5,672.8,90.2z M671.8,87.8c-0.3-0.8-0.7-1.6-1-2.4
			C671.2,86.2,671.5,87,671.8,87.8z M670.7,84.9c-0.3-0.8-0.6-1.6-0.9-2.4C670,83.3,670.3,84.1,670.7,84.9z M669.6,82.2
			c-0.3-0.8-0.5-1.5-0.8-2.3C669.1,80.7,669.3,81.4,669.6,82.2z M668.7,79.5c-0.3-0.8-0.6-1.6-0.8-2.5
			C668.1,77.8,668.4,78.7,668.7,79.5z M667.7,76.5c-0.3-0.8-0.5-1.7-0.8-2.6C667.1,74.8,667.4,75.6,667.7,76.5z M666.8,73.7
			c-0.3-0.8-0.5-1.7-0.7-2.5C666.3,72.1,666.6,72.9,666.8,73.7z M665.9,70.8c-0.2-0.9-0.5-1.7-0.7-2.6
			C665.5,69,665.7,69.9,665.9,70.8z M665.1,67.6c-0.2-0.9-0.5-1.8-0.7-2.7C664.6,65.8,664.8,66.7,665.1,67.6z M664.4,64.9
			c-0.2-0.9-0.5-1.8-0.7-2.8C663.9,63,664.1,63.9,664.4,64.9z M663.6,61.5c-0.2-0.9-0.4-1.8-0.6-2.7
			C663.1,59.7,663.3,60.6,663.6,61.5z M662.8,58.3c-0.2-0.9-0.4-1.7-0.6-2.6C662.5,56.6,662.6,57.5,662.8,58.3z M662.2,55.3
			c-0.2-0.9-0.4-1.9-0.6-2.9C661.8,53.4,662,54.3,662.2,55.3z M661.5,51.9c-0.2-1-0.4-2-0.6-3C661.1,49.9,661.3,50.9,661.5,51.9z
			 M660.9,48.7c-0.2-0.9-0.3-1.9-0.5-2.9C660.6,46.8,660.7,47.7,660.9,48.7z M660.3,45.3c-0.2-1-0.3-2-0.5-3
			C660,43.3,660.1,44.3,660.3,45.3z M659.7,41.7c-0.2-1-0.3-2-0.5-3C659.4,39.7,659.6,40.7,659.7,41.7z M659.2,38.5
			c-0.2-1-0.3-2.1-0.5-3.1C658.9,36.5,659.1,37.5,659.2,38.5z M658.7,34.8c-0.1-1-0.3-2.1-0.4-3.1C658.4,32.8,658.5,33.8,658.7,34.8
			z M658.2,31.2c-0.1-1-0.3-2-0.4-3C657.9,29.2,658,30.2,658.2,31.2z M657.7,27.8c-0.1-1.1-0.3-2.2-0.4-3.3
			C657.5,25.7,657.6,26.7,657.7,27.8z M657.2,23.9c-0.1-1.1-0.3-2.2-0.4-3.3C657,21.7,657.1,22.8,657.2,23.9z M656.8,20.2
			c-0.1-1-0.2-2.1-0.4-3.1C656.6,18.1,656.7,19.2,656.8,20.2z M656.4,16.6c-0.1-1.1-0.2-2.2-0.4-3.3
			C656.2,14.4,656.3,15.5,656.4,16.6z M656,12.5c-0.1-1.1-0.2-2.3-0.4-3.5C655.7,10.2,655.9,11.4,656,12.5z M573.6,168.4
			c0.7,0.3,1.5,0.5,2.2,0.8C575,169,574.3,168.7,573.6,168.4z M575.9,169.3c0.4,0.1,0.7,0.3,1.1,0.4
			C576.6,169.5,576.3,169.4,575.9,169.3z M577,169.7c0.4,0.1,0.7,0.3,1.1,0.4C577.7,170,577.4,169.8,577,169.7z M578.2,170.1
			c0.3,0.1,0.7,0.3,1,0.4C578.9,170.4,578.6,170.3,578.2,170.1z M579.3,170.6c0.4,0.1,0.7,0.3,1,0.4L579.3,170.6z M580.4,171
			c0.3,0.1,0.7,0.3,1,0.4C581.1,171.3,580.8,171.2,580.4,171z M581.6,171.5l0.9,0.4C582.2,171.8,581.9,171.6,581.6,171.5z
			 M582.7,172c0.3,0.1,0.6,0.3,1,0.4C583.3,172.2,583,172.1,582.7,172z M583.8,172.4c0.3,0.1,0.6,0.3,1,0.4L583.8,172.4z
			 M584.9,172.9l0.8,0.4C585.4,173.2,585.1,173,584.9,172.9z M585.8,173.3c0.3,0.1,0.6,0.3,0.9,0.4
			C586.4,173.6,586.1,173.5,585.8,173.3z M586.9,173.8c0.3,0.1,0.6,0.3,0.9,0.4C587.5,174.1,587.2,174,586.9,173.8z M588,174.3
			c0.3,0.1,0.6,0.3,0.8,0.4L588,174.3z M588.9,174.8c0.3,0.1,0.6,0.3,0.9,0.4C589.5,175.1,589.2,175,588.9,174.8z M589.9,175.3
			c0.3,0.2,0.6,0.3,0.9,0.5C590.5,175.6,590.2,175.4,589.9,175.3z M590.9,175.8c0.3,0.2,0.6,0.3,0.9,0.5
			C591.5,176.1,591.2,176,590.9,175.8z M591.9,176.3c0.3,0.2,0.6,0.3,0.9,0.5C592.5,176.6,592.2,176.5,591.9,176.3z M592.8,176.8
			c0.3,0.1,0.5,0.3,0.8,0.4C593.4,177.1,593.1,177,592.8,176.8z M593.8,177.4c0.3,0.1,0.5,0.3,0.8,0.5
			C594.3,177.7,594.1,177.5,593.8,177.4z M594.8,177.9c0.3,0.2,0.5,0.3,0.8,0.5C595.3,178.2,595,178.1,594.8,177.9z M595.7,178.5
			c0.3,0.2,0.6,0.3,0.8,0.5C596.2,178.8,596,178.6,595.7,178.5z M596.6,179c0.3,0.2,0.6,0.4,0.9,0.5
			C597.1,179.3,596.9,179.2,596.6,179z M597.4,179.5c0.3,0.2,0.5,0.3,0.8,0.5C598,179.9,597.7,179.7,597.4,179.5z M598.4,180.1
			c0.3,0.2,0.5,0.3,0.8,0.5C598.9,180.5,598.6,180.3,598.4,180.1z M599.3,180.7c0.3,0.2,0.5,0.3,0.8,0.5
			C599.8,181.1,599.6,180.9,599.3,180.7z M600.1,181.3c0.3,0.2,0.5,0.4,0.8,0.5C600.6,181.6,600.4,181.5,600.1,181.3z M601,181.9
			c0.3,0.2,0.5,0.4,0.8,0.6C601.5,182.2,601.2,182,601,181.9z M601.8,182.5c0.3,0.2,0.5,0.4,0.8,0.6
			C602.3,182.8,602.1,182.7,601.8,182.5z M602.7,183.1c0.2,0.2,0.5,0.4,0.7,0.6C603.2,183.5,603,183.3,602.7,183.1z M603.5,183.7
			c0.2,0.2,0.5,0.4,0.7,0.6C604,184.1,603.8,183.9,603.5,183.7z M604.3,184.4c0.2,0.2,0.5,0.4,0.7,0.6
			C604.8,184.7,604.6,184.6,604.3,184.4z M605.2,185c0.2,0.2,0.5,0.4,0.7,0.6C605.6,185.4,605.4,185.2,605.2,185z M606,185.7
			c0.2,0.2,0.5,0.4,0.7,0.6C606.5,186.1,606.2,185.9,606,185.7z M612.4,249.1c-0.7-1.3-2.7-1.1-3.8,1.3c-7,16.2-23.7,44.4-38.7,61.4
			c-27.1,30.8-57.8,58-68.2,66.4c-74.4,60.3-163,91.3-275,77.1l-50.9-9.2c-18.8-4.4-48.3-14.4-66.4-22.4c-5.7-2.5-15.6-7.3-21-8.9
			c27.6,19.1,109.7,51.6,145.2,63.1c6.7,2.2,16.9,4.5,22.8,6.9c0.1,6.9,2.5,7.9,7.4,10.4l34.5,17.1
			c129.4,59.9,285.3,21.1,360.9-100.7c3.6-5.7,13-15.5,7.8-23.5c-1.9-2.8-6.8-5.9-11.8-3.3C634,406.2,568.5,550.5,367.8,515
			c-9.6-2.1-18-5.3-25.4-8.6l11.4-2c117.3-5.2,227.2-94.8,258.5-181.1C618.1,302.7,624.6,272,612.4,249.1L612.4,249.1z"/>
		
			<linearGradient id="SVGID_00000002366626439651325930000015436572967277971366_" gradientUnits="userSpaceOnUse" x1="-2417.6125" y1="2343.1279" x2="-2195.5378" y2="2343.1279" gradientTransform="matrix(0.2256 0 0 0.2256 844.1134 -418.7987)">
			<stop  offset="0" style="stop-color:#F4DE8C"/>
			<stop  offset="0.1608" style="stop-color:#B67E31"/>
			<stop  offset="0.4588" style="stop-color:#F0D786"/>
			<stop  offset="0.6235" style="stop-color:#D4AC59"/>
			<stop  offset="0.7098" style="stop-color:#B8812C"/>
			<stop  offset="0.8902" style="stop-color:#DBBF95"/>
			<stop  offset="1" style="stop-color:#FEFEFE"/>
		</linearGradient>
		<path style="fill-rule:evenodd;clip-rule:evenodd;fill:url(#SVGID_00000002366626439651325930000015436572967277971366_);" d="
			M325.7,77.6c2.4,13.8,0.7,27.3,23.1,32.2c-23.9,2.6-22.8,32.2-23,32.2c-2-24.9-15.4-32.2-27.1-32.2
			C323.7,109.8,323.7,84,325.7,77.6z"/>
		
			<linearGradient id="SVGID_00000170266943717677199000000013056506541263634576_" gradientUnits="userSpaceOnUse" x1="-2603.6536" y1="2382.3567" x2="-2491.0647" y2="2382.3567" gradientTransform="matrix(0.2256 0 0 0.2256 844.1134 -418.7987)">
			<stop  offset="0" style="stop-color:#F4DE8C"/>
			<stop  offset="0.1608" style="stop-color:#B67E31"/>
			<stop  offset="0.4588" style="stop-color:#F0D786"/>
			<stop  offset="0.6235" style="stop-color:#D4AC59"/>
			<stop  offset="0.7098" style="stop-color:#B8812C"/>
			<stop  offset="0.8902" style="stop-color:#DBBF95"/>
			<stop  offset="1" style="stop-color:#FEFEFE"/>
		</linearGradient>
		<path style="fill-rule:evenodd;clip-rule:evenodd;fill:url(#SVGID_00000170266943717677199000000013056506541263634576_);" d="
			M270.4,106.1c1.2,5.4,0.3,10.6,11.7,12.6c-12.1,1-11.6,12.5-11.7,12.5c-1-9.7-7.8-12.5-13.7-12.5
			C269.5,118.7,269.5,108.7,270.4,106.1z"/>
		
			<linearGradient id="SVGID_00000007421496921438811220000015316978158212687256_" gradientUnits="userSpaceOnUse" x1="-2683.0935" y1="2571.4082" x2="-2538.5901" y2="2571.4082" gradientTransform="matrix(0.2256 0 0 0.2256 844.1134 -418.7987)">
			<stop  offset="0" style="stop-color:#F4DE8C"/>
			<stop  offset="0.1608" style="stop-color:#B67E31"/>
			<stop  offset="0.4588" style="stop-color:#F0D786"/>
			<stop  offset="0.6235" style="stop-color:#D4AC59"/>
			<stop  offset="0.7098" style="stop-color:#B8812C"/>
			<stop  offset="0.8902" style="stop-color:#DBBF95"/>
			<stop  offset="1" style="stop-color:#FEFEFE"/>
		</linearGradient>
		<path style="fill-rule:evenodd;clip-rule:evenodd;fill:url(#SVGID_00000007421496921438811220000015316978158212687256_);" d="
			M256.4,145.2c1.5,6.9,0.5,13.6,15.1,16.1c-15.5,1.3-14.8,16.1-15,16.1c-1.3-12.4-10-16.1-17.6-16.1
			C255.1,161.3,255.1,148.4,256.4,145.2L256.4,145.2z"/>
		
			<linearGradient id="SVGID_00000172417321830399400510000012367145105618307249_" gradientUnits="userSpaceOnUse" x1="-2861.3181" y1="2749.1562" x2="-2716.8147" y2="2749.1562" gradientTransform="matrix(0.2256 0 0 0.2256 844.1134 -418.7987)">
			<stop  offset="0" style="stop-color:#F4DE8C"/>
			<stop  offset="0.1608" style="stop-color:#B67E31"/>
			<stop  offset="0.4588" style="stop-color:#F0D786"/>
			<stop  offset="0.6235" style="stop-color:#D4AC59"/>
			<stop  offset="0.7098" style="stop-color:#B8812C"/>
			<stop  offset="0.8902" style="stop-color:#DBBF95"/>
			<stop  offset="1" style="stop-color:#FEFEFE"/>
		</linearGradient>
		<path style="fill-rule:evenodd;clip-rule:evenodd;fill:url(#SVGID_00000172417321830399400510000012367145105618307249_);" d="
			M216.2,185.3c1.5,6.9,0.5,13.6,15,16.1c-15.5,1.3-14.8,16.1-15,16.1c-1.3-12.4-10-16.1-17.6-16.1
			C214.9,201.4,214.9,188.5,216.2,185.3L216.2,185.3z"/>
		
			<linearGradient id="SVGID_00000183948150519035804840000000084371525742706623_" gradientUnits="userSpaceOnUse" x1="-1413.9835" y1="3938.2078" x2="-1341.7317" y2="3938.2078" gradientTransform="matrix(0.2256 0 0 0.2256 844.1134 -418.7987)">
			<stop  offset="0" style="stop-color:#F4DE8C"/>
			<stop  offset="0.1608" style="stop-color:#B67E31"/>
			<stop  offset="0.4588" style="stop-color:#F0D786"/>
			<stop  offset="0.6235" style="stop-color:#D4AC59"/>
			<stop  offset="0.7098" style="stop-color:#B8812C"/>
			<stop  offset="0.8902" style="stop-color:#DBBF95"/>
			<stop  offset="1" style="stop-color:#FEFEFE"/>
		</linearGradient>
		<path style="fill-rule:evenodd;clip-rule:evenodd;fill:url(#SVGID_00000183948150519035804840000000084371525742706623_);" d="
			M533.9,461.6c0.8,3.5,0.2,6.8,7.5,8.1c-7.8,0.6-7.4,8-7.5,8c-0.7-6.2-5-8.1-8.8-8C533.3,469.6,533.3,463.2,533.9,461.6
			L533.9,461.6z"/>
		
			<linearGradient id="SVGID_00000136406748349902976670000016174257662073072557_" gradientUnits="userSpaceOnUse" x1="-1000.2337" y1="3513.3406" x2="-916.9004" y2="3513.3406" gradientTransform="matrix(0.2256 0 0 0.2256 844.1134 -418.7987)">
			<stop  offset="0" style="stop-color:#F4DE8C"/>
			<stop  offset="0.1608" style="stop-color:#B67E31"/>
			<stop  offset="0.4588" style="stop-color:#F0D786"/>
			<stop  offset="0.6235" style="stop-color:#D4AC59"/>
			<stop  offset="0.7098" style="stop-color:#B8812C"/>
			<stop  offset="0.8902" style="stop-color:#DBBF95"/>
			<stop  offset="1" style="stop-color:#FEFEFE"/>
		</linearGradient>
		<path style="fill-rule:evenodd;clip-rule:evenodd;fill:url(#SVGID_00000136406748349902976670000016174257662073072557_);" d="
			M628.6,364.5c0.9,4,0.3,7.9,8.7,9.3c-9,0.7-8.6,9.3-8.6,9.3c-0.8-7.2-5.8-9.3-10.2-9.3C627.8,373.8,627.8,366.3,628.6,364.5
			L628.6,364.5z"/>
		
			<linearGradient id="SVGID_00000102509166476306189980000010098929244260897970_" gradientUnits="userSpaceOnUse" x1="-761.1408" y1="3104.8745" x2="-478.7826" y2="3104.8745" gradientTransform="matrix(0.2256 0 0 0.2256 844.1134 -418.7987)">
			<stop  offset="0" style="stop-color:#F4DE8C"/>
			<stop  offset="0.1608" style="stop-color:#B67E31"/>
			<stop  offset="0.4588" style="stop-color:#F0D786"/>
			<stop  offset="0.6235" style="stop-color:#D4AC59"/>
			<stop  offset="0.7098" style="stop-color:#B8812C"/>
			<stop  offset="0.8902" style="stop-color:#DBBF95"/>
			<stop  offset="1" style="stop-color:#FEFEFE"/>
		</linearGradient>
		<path style="fill-rule:evenodd;clip-rule:evenodd;fill:url(#SVGID_00000102509166476306189980000010098929244260897970_);" d="
			M706.7,250.2c3,13.5,0.9,26.6,29.4,31.5c-30.3,2.5-29,31.4-29.3,31.4c-2.6-24.3-19.5-31.4-34.4-31.4
			C704.2,281.7,704.2,256.5,706.7,250.2z"/>
		
			<linearGradient id="SVGID_00000154418345800304777680000015935044764875081639_" gradientUnits="userSpaceOnUse" x1="-589.1553" y1="3515.5569" x2="-406.9743" y2="3515.5569" gradientTransform="matrix(0.2256 0 0 0.2256 844.1134 -418.7987)">
			<stop  offset="0" style="stop-color:#F4DE8C"/>
			<stop  offset="0.1608" style="stop-color:#B67E31"/>
			<stop  offset="0.4588" style="stop-color:#F0D786"/>
			<stop  offset="0.6235" style="stop-color:#D4AC59"/>
			<stop  offset="0.7098" style="stop-color:#B8812C"/>
			<stop  offset="0.8902" style="stop-color:#DBBF95"/>
			<stop  offset="1" style="stop-color:#FEFEFE"/>
		</linearGradient>
		<path style="fill-rule:evenodd;clip-rule:evenodd;fill:url(#SVGID_00000154418345800304777680000015935044764875081639_);" d="
			M733.3,354c1.9,8.7,0.6,17.2,19,20.3c-19.6,1.6-18.7,20.3-18.9,20.3c-1.7-15.7-12.6-20.3-22.2-20.3
			C731.8,374.3,731.8,358.1,733.3,354z"/>
		
			<linearGradient id="SVGID_00000174602763678888072470000012543503681226706572_" gradientUnits="userSpaceOnUse" x1="-711.0525" y1="3761.3459" x2="-528.8715" y2="3761.3459" gradientTransform="matrix(0.2256 0 0 0.2256 844.1134 -418.7987)">
			<stop  offset="0" style="stop-color:#F4DE8C"/>
			<stop  offset="0.1608" style="stop-color:#B67E31"/>
			<stop  offset="0.4588" style="stop-color:#F0D786"/>
			<stop  offset="0.6235" style="stop-color:#D4AC59"/>
			<stop  offset="0.7098" style="stop-color:#B8812C"/>
			<stop  offset="0.8902" style="stop-color:#DBBF95"/>
			<stop  offset="1" style="stop-color:#FEFEFE"/>
		</linearGradient>
		<path style="fill-rule:evenodd;clip-rule:evenodd;fill:url(#SVGID_00000174602763678888072470000012543503681226706572_);" d="
			M705.8,407.4c1.9,9.6,0.6,18.9,19,22.4c-19.6,1.8-18.7,22.3-18.9,22.3c-1.7-17.2-12.6-22.3-22.2-22.3
			C704.2,429.7,704.2,411.8,705.8,407.4z"/>
		<path class="st10" d="M653.4,475.5c1.9,11,0.6,21.8,19,25.8c-19.6,2.1-18.7,25.7-18.9,25.7c-1.7-19.9-12.6-25.8-22.2-25.7
			C651.8,501.3,651.8,480.6,653.4,475.5z"/>
		<path class="st10" d="M668.9,323.6c1.7,9.6,0.5,18.9,16.4,22.4c-17,1.8-16.2,22.3-16.4,22.3c-1.4-17.2-10.9-22.3-19.3-22.3
			C667.5,345.9,667.5,328,668.9,323.6z"/>
		<path class="st10" d="M410.9,32.2c2.6,14.6,0.7,28.8,25,34c-25.8,2.7-24.7,33.9-24.9,33.9c-2.2-26.2-16.6-34-29.3-33.9
			C408.8,66.2,408.8,39,410.9,32.2L410.9,32.2z"/>
		
			<linearGradient id="SVGID_00000036210719233821233670000017973482023968394416_" gradientUnits="userSpaceOnUse" x1="-2931.2336" y1="2867.9507" x2="-2902.2737" y2="2867.9507" gradientTransform="matrix(0.2256 0 0 0.2256 844.1134 -418.7987)">
			<stop  offset="0" style="stop-color:#F4DE8C"/>
			<stop  offset="0.1608" style="stop-color:#B67E31"/>
			<stop  offset="0.4588" style="stop-color:#F0D786"/>
			<stop  offset="0.6235" style="stop-color:#D4AC59"/>
			<stop  offset="0.7098" style="stop-color:#B8812C"/>
			<stop  offset="0.8902" style="stop-color:#DBBF95"/>
			<stop  offset="1" style="stop-color:#FEFEFE"/>
		</linearGradient>
		
			<circle style="fill-rule:evenodd;clip-rule:evenodd;fill:url(#SVGID_00000036210719233821233670000017973482023968394416_);" cx="186.1" cy="228.2" r="3.3"/>
		
			<linearGradient id="SVGID_00000011730986864352247030000010978893779314169255_" gradientUnits="userSpaceOnUse" x1="-2195.6536" y1="2134.3513" x2="-2136.2561" y2="2134.3513" gradientTransform="matrix(0.2256 0 0 0.2256 844.1134 -418.7987)">
			<stop  offset="0" style="stop-color:#F4DE8C"/>
			<stop  offset="0.1608" style="stop-color:#B67E31"/>
			<stop  offset="0.4588" style="stop-color:#F0D786"/>
			<stop  offset="0.6235" style="stop-color:#D4AC59"/>
			<stop  offset="0.7098" style="stop-color:#B8812C"/>
			<stop  offset="0.8902" style="stop-color:#DBBF95"/>
			<stop  offset="1" style="stop-color:#FEFEFE"/>
		</linearGradient>
		
			<circle style="fill-rule:evenodd;clip-rule:evenodd;fill:url(#SVGID_00000011730986864352247030000010978893779314169255_);" cx="355.5" cy="62.7" r="6.7"/>
		
			<linearGradient id="SVGID_00000116949271948365769270000000579841489359764103_" gradientUnits="userSpaceOnUse" x1="-1256.4536" y1="3789.0498" x2="-1197.0564" y2="3789.0498" gradientTransform="matrix(0.2256 0 0 0.2256 844.1134 -418.7987)">
			<stop  offset="0" style="stop-color:#F4DE8C"/>
			<stop  offset="0.1608" style="stop-color:#B67E31"/>
			<stop  offset="0.4588" style="stop-color:#F0D786"/>
			<stop  offset="0.6235" style="stop-color:#D4AC59"/>
			<stop  offset="0.7098" style="stop-color:#B8812C"/>
			<stop  offset="0.8902" style="stop-color:#DBBF95"/>
			<stop  offset="1" style="stop-color:#FEFEFE"/>
		</linearGradient>
		
			<circle style="fill-rule:evenodd;clip-rule:evenodd;fill:url(#SVGID_00000116949271948365769270000000579841489359764103_);" cx="567.3" cy="436" r="6.7"/>
		
			<linearGradient id="SVGID_00000096746613778173453890000003878805969102337930_" gradientUnits="userSpaceOnUse" x1="-1559.1035" y1="4028.4116" x2="-1520.7438" y2="4028.4116" gradientTransform="matrix(0.2256 0 0 0.2256 844.1134 -418.7987)">
			<stop  offset="0" style="stop-color:#F4DE8C"/>
			<stop  offset="0.1608" style="stop-color:#B67E31"/>
			<stop  offset="0.4588" style="stop-color:#F0D786"/>
			<stop  offset="0.6235" style="stop-color:#D4AC59"/>
			<stop  offset="0.7098" style="stop-color:#B8812C"/>
			<stop  offset="0.8902" style="stop-color:#DBBF95"/>
			<stop  offset="1" style="stop-color:#FEFEFE"/>
		</linearGradient>
		
			<circle style="fill-rule:evenodd;clip-rule:evenodd;fill:url(#SVGID_00000096746613778173453890000003878805969102337930_);" cx="496.7" cy="490" r="4.3"/>
		<circle class="st10" cx="607.5" cy="509.1" r="4.3"/>
		
			<linearGradient id="SVGID_00000050634216813573030370000017811041577804563092_" gradientUnits="userSpaceOnUse" x1="-801.921" y1="3879.4753" x2="-763.5611" y2="3879.4753" gradientTransform="matrix(0.2256 0 0 0.2256 844.1134 -418.7987)">
			<stop  offset="0" style="stop-color:#F4DE8C"/>
			<stop  offset="0.1608" style="stop-color:#B67E31"/>
			<stop  offset="0.4588" style="stop-color:#F0D786"/>
			<stop  offset="0.6235" style="stop-color:#D4AC59"/>
			<stop  offset="0.7098" style="stop-color:#B8812C"/>
			<stop  offset="0.8902" style="stop-color:#DBBF95"/>
			<stop  offset="1" style="stop-color:#FEFEFE"/>
		</linearGradient>
		
			<circle style="fill-rule:evenodd;clip-rule:evenodd;fill:url(#SVGID_00000050634216813573030370000017811041577804563092_);" cx="667.5" cy="456.4" r="4.3"/>
		<path class="st10" d="M523.3,156.1c10.1,0.4,37.6,7.9,47.7,11.4c15.1,5.2,26.5,10.8,36.1,19.1l45.7-31.3L523.3,156.1L523.3,156.1z
			"/>
		<path class="st16" d="M437.8,180.2C438,180.2,437.4,180.2,437.8,180.2z"/>
		<path class="st10" d="M652.8,155.4l-1.3,156.8l13.8-58.2c9.2-36.7,21.1-65.9,57.1-82.2c11.4-5.2,41.2-15,53.8-16.1L652.8,155.4
			L652.8,155.4z"/>
		<path class="st10" d="M695.3,122.4C668.8,98,660.7,60.1,655.6,9c-0.3-4.8,0.7-0.9-0.6-1.9c-2.1-1.6,0.1-1.6-1.4-0.1
			c0.1,4.6-0.8,9.1,0.5,13c-1.9,3.7-1.3,17.7-1.4,32.5c-0.2,32.6,1.1,71.2,0.1,102.7L695.3,122.4L695.3,122.4z"/>
		<path class="st17" d="M981.8,73.9l4.8,59.1h-5.1c-4.9-14.7-11.2-25.7-18.9-33.1c-11.1-10.7-25.4-16.1-42.8-16.1
			c-23.8,0-41.9,9.4-54.3,28.3C855.2,128,850,147,850,169c0,17.9,3.4,34.1,10.4,48.9c6.9,14.7,15.9,25.5,27.1,32.4
			c11.2,6.8,22.7,10.3,34.5,10.3c6.9,0,13.6-0.9,20-2.6s12.6-4.3,18.6-7.8v-54.4c0-9.4-0.7-15.6-2.1-18.5c-1.5-2.9-3.7-5.1-6.6-6.6
			c-3-1.6-8.3-2.3-15.8-2.3v-5.1h72.4v5.1h-3.4c-7.2,0-12.1,2.4-14.8,7.2c-1.8,3.4-2.7,10.1-2.7,20.2v57.5
			c-10.6,5.8-21,9.9-31.3,12.6c-10.3,2.7-21.8,4-34.4,4c-36.2,0-63.6-11.6-82.4-34.8c-14.1-17.4-21.1-37.5-21.1-60.2
			c0-16.5,4-32.3,11.9-47.4c9.4-18,22.3-31.8,38.6-41.5c13.7-8,29.9-12,48.6-12c6.8,0,13,0.6,18.5,1.6c5.6,1.1,13.4,3.5,23.7,7.3
			c5.1,1.9,8.6,2.9,10.4,2.9c1.7,0,3.2-0.8,4.5-2.4c1.2-1.6,2-4.8,2.3-9.5L981.8,73.9L981.8,73.9z M1234.8,265.6h-50.2l-63.7-87.7
			c-4.6,0.2-8.3,0.3-11.2,0.3c-1.2,0-2.5,0-3.8-0.1c-1.4,0-2.7-0.1-4.2-0.2v54.6c0,11.8,1.3,19.1,3.9,21.9c3.5,4.1,8.7,6.1,15.7,6.1
			h7.3v5.1h-80.3v-5.1h7c7.9,0,13.6-2.6,17-7.7c1.9-2.8,2.9-9.6,2.9-20.3V111.2c0-11.8-1.3-19.1-3.9-21.9c-3.6-4.1-8.9-6.1-16-6.1
			h-7v-5.1h68.3c19.9,0,34.6,1.5,44,4.3c9.5,2.9,17.5,8.3,24,16.1c6.6,7.8,9.9,17.1,9.9,27.9c0,11.5-3.8,21.5-11.3,30
			s-19.1,14.5-34.9,18l38.8,53.7c8.9,12.3,16.5,20.6,22.8,24.7c6.3,4.1,14.6,6.6,24.8,7.8L1234.8,265.6L1234.8,265.6z M1101.8,169.2
			c1.7,0,3.3,0,4.5,0s2.3,0.1,3.1,0.1c17.7,0,31-3.9,40-11.6c9-7.8,13.5-17.6,13.5-29.6c0-11.7-3.6-21.2-10.8-28.6
			c-7.3-7.3-16.9-11-28.8-11c-5.3,0-12.4,0.8-21.4,2.5L1101.8,169.2L1101.8,169.2z M1398.2,83.2v-5.1h65.9v5.1h-7
			c-7.4,0-13,3.1-17,9.2c-1.9,2.9-2.9,9.5-2.9,19.9v76c0,18.8-1.8,33.4-5.6,43.7c-3.7,10.4-11.1,19.3-22,26.7
			c-10.9,7.4-25.7,11.1-44.5,11.1c-20.4,0-35.9-3.5-46.5-10.7c-10.6-7.1-18.1-16.6-22.5-28.6c-3-8.2-4.4-23.6-4.4-46.1v-73.3
			c0-11.5-1.6-19-4.8-22.6s-8.3-5.4-15.4-5.4h-7V78h80.9v5.1h-7.2c-7.7,0-13.2,2.5-16.5,7.3c-2.3,3.3-3.4,10.2-3.4,20.7v81.7
			c0,7.3,0.7,15.6,2,25c1.4,9.4,3.8,16.7,7.3,22c3.5,5.2,8.6,9.6,15.1,13c6.6,3.4,14.7,5.1,24.2,5.1c12.3,0,23.2-2.7,32.9-8
			c9.7-5.3,16.3-12.2,19.8-20.5s5.3-22.5,5.3-42.4v-75.9c0-11.7-1.3-19-3.9-21.9c-3.6-4.1-8.9-6.1-16-6.1L1398.2,83.2L1398.2,83.2z
			 M1556.1,177.7v54.8c0,11.8,1.3,19.1,3.9,21.9c3.5,4.1,8.8,6.1,15.8,6.1h7.2v5.1h-80.3v-5.1h7.1c7.9,0,13.6-2.6,17-7.7
			c1.8-2.8,2.8-9.6,2.8-20.3V111.2c0-11.8-1.2-19.1-3.7-21.9c-3.6-4.1-9-6.1-16.1-6.1h-7.1v-5.1h68.7c16.8,0,30,1.7,39.7,5.2
			c9.7,3.4,17.8,9.3,24.5,17.5s9.9,17.9,9.9,29.1c0,15.3-5,27.8-15.1,37.3c-10.1,9.6-24.3,14.4-42.8,14.4c-4.5,0-9.4-0.3-14.6-1
			C1567.7,180,1562.1,179.1,1556.1,177.7L1556.1,177.7z M1556.1,169.8c4.9,0.9,9.2,1.6,13,2.1c3.7,0.5,7,0.7,9.6,0.7
			c9.6,0,17.8-3.7,24.7-11.1c6.9-7.4,10.4-17,10.4-28.7c0-8.1-1.6-15.6-4.9-22.6s-8-12.1-14-15.6c-6.1-3.4-13-5.2-20.6-5.2
			c-4.7,0-10.7,0.9-18.1,2.6L1556.1,169.8L1556.1,169.8z M1789.6,73.9c24.3,0,45.3,9.2,63.1,27.7c17.8,18.5,26.7,41.5,26.7,69.2
			c0,28.5-9,52.1-26.9,70.9s-39.6,28.2-65.1,28.2c-25.7,0-47.4-9.2-64.9-27.5s-26.3-42-26.3-71.2c0-29.7,10.1-54,30.4-72.8
			C1744.1,82,1765.1,73.9,1789.6,73.9L1789.6,73.9z M1786.9,83.8c-16.7,0-30.1,6.2-40.2,18.7c-12.6,15.5-18.9,38.2-18.9,68.1
			c0,30.6,6.5,54.2,19.6,70.7c10,12.5,23.2,18.8,39.7,18.8c17.6,0,32.1-6.9,43.5-20.6c11.5-13.8,17.2-35.4,17.2-65
			c0-32.1-6.3-56-18.9-71.8C1818.8,90.1,1804.8,83.8,1786.9,83.8L1786.9,83.8z M972.2,290.4l2,44.1H969c-1-7.7-2.4-13.3-4.1-16.6
			c-2.9-5.3-6.6-9.3-11.4-11.8c-4.8-2.5-11-3.8-18.7-3.8h-26.4v143.1c0,11.5,1.2,18.8,3.7,21.6c3.5,3.9,8.9,5.8,16.1,5.8h6.5v5.1
			h-79.8v-5.1h6.7c8,0,13.7-2.4,17.1-7.2c2-3,3.1-9.7,3.1-20.2V302.3h-22.5c-8.8,0-15,0.7-18.7,1.9c-4.8,1.7-8.9,5.1-12.3,10.1
			c-3.4,4.9-5.4,11.7-6.1,20.2H817l2-44.1H972.2L972.2,290.4z M1071.1,300.6v74.1h41.3c10.7,0,17.8-1.6,21.4-4.8
			c4.8-4.2,7.4-11.7,8-22.3h5.1v65.3h-5.1c-1.3-9.1-2.6-15-3.9-17.6c-1.6-3.2-4.4-5.7-8.2-7.6c-3.8-1.8-9.6-2.8-17.4-2.8H1071v61.8
			c0,8.3,0.4,13.3,1.1,15.1c0.8,1.8,2,3.3,3.9,4.3c1.8,1.1,5.4,1.6,10.5,1.6h31.7c10.6,0,18.2-0.8,23.1-2.2
			c4.8-1.5,9.4-4.4,13.8-8.7c5.7-5.7,11.5-14.3,17.5-25.8h5.7l-16.2,46.9h-144.5v-5.1h6.6c4.4,0,8.6-1.1,12.6-3.2c3-1.5,5-3.7,6-6.6
			c1.1-3,1.6-9,1.6-18.1v-122c0-11.9-1.2-19.2-3.6-21.9c-3.3-3.7-8.9-5.5-16.6-5.5h-6.6v-5.1h144.5l2,41.3h-5.4
			c-1.9-9.9-4.1-16.8-6.4-20.5s-5.8-6.6-10.4-8.5c-3.7-1.4-10.2-2.1-19.5-2.1L1071.1,300.6L1071.1,300.6z M1331.3,477.9l-72.4-157.8
			v125.2c0,11.5,1.3,18.8,3.8,21.6c3.4,3.9,8.9,5.8,16.4,5.8h6.7v5.1h-65.9v-5.1h6.7c8,0,13.7-2.4,17.1-7.2c2-3,3.1-9.7,3.1-20.2
			V322.9c0-8.3-0.9-14.3-2.8-18c-1.3-2.7-3.7-4.9-7.2-6.7c-3.5-1.8-9.1-2.7-16.9-2.7v-5.1h53.7l67.6,146.6l67-146.6h53.2v5.1h-6.6
			c-8.2,0-13.9,2.4-17.3,7.2c-2,3-3.1,9.7-3.1,20.2v122.5c0,11.5,1.3,18.8,3.9,21.6c3.4,3.9,8.9,5.8,16.4,5.8h6.6v5.1H1381v-5.1h6.7
			c8.1,0,13.8-2.4,17.1-7.2c2-3,3.1-9.7,3.1-20.2V320.2L1335.8,478L1331.3,477.9L1331.3,477.9z M1555.9,390v54.8
			c0,11.8,1.3,19.1,3.9,21.9c3.5,4.1,8.8,6.1,15.8,6.1h7.2v5.1h-80.3v-5.1h7.1c7.9,0,13.6-2.6,17-7.7c1.8-2.8,2.8-9.6,2.8-20.3
			V323.5c0-11.8-1.2-19.1-3.7-21.9c-3.6-4.1-9-6.1-16.1-6.1h-7.1v-5.1h68.7c16.8,0,30,1.7,39.7,5.2c9.7,3.4,17.8,9.3,24.5,17.5
			c6.6,8.2,9.9,17.9,9.9,29.1c0,15.3-5,27.8-15.1,37.3s-24.3,14.4-42.8,14.4c-4.5,0-9.4-0.3-14.6-1
			C1567.5,392.3,1561.9,391.3,1555.9,390L1555.9,390z M1555.9,382.1c4.9,0.9,9.2,1.6,13,2.1c3.7,0.5,7,0.7,9.6,0.7
			c9.6,0,17.8-3.7,24.7-11.1c6.9-7.4,10.4-17,10.4-28.7c0-8.1-1.6-15.6-4.9-22.6s-8-12.1-14-15.6c-6.1-3.4-13-5.2-20.6-5.2
			c-4.7,0-10.7,0.9-18.1,2.6L1555.9,382.1L1555.9,382.1z M1848.5,426.2l4.5,1l-16.1,50.8h-145.1v-5.1h7c7.9,0,13.6-2.5,17-7.7
			c1.9-2.9,2.9-9.7,2.9-20.3V323.5c0-11.7-1.3-19-3.9-21.9c-3.6-4.1-8.9-6.1-16-6.1h-7v-5.1h84.8v5.1c-9.9-0.1-16.9,0.8-21,2.7
			c-4,1.9-6.7,4.3-8.2,7.2c-1.5,2.9-2.2,9.9-2.2,20.9v118.2c0,7.7,0.8,12.9,2.2,15.8c1.1,2,2.8,3.4,5.1,4.3
			c2.3,0.9,9.5,1.4,21.6,1.4h13.7c14.4,0,24.5-1,30.3-3.2c5.8-2.1,11.1-5.9,15.9-11.3C1838.8,446.2,1843.6,437.8,1848.5,426.2
			L1848.5,426.2z M2019.3,415.4h-72.6l-12.5,29.4c-3.1,7.3-4.7,12.7-4.7,16.3c0,2.8,1.4,5.4,4.1,7.5s8.6,3.5,17.6,4.2v5.1H1892v-5.1
			c7.8-1.4,12.9-3.2,15.2-5.4c4.7-4.4,9.9-13.4,15.6-27l65.9-154.3h4.7l65.2,156c5.2,12.5,10,20.6,14.3,24.4
			c4.3,3.7,10.2,5.8,17.9,6.3v5.1h-73.9v-5.1c7.4-0.4,12.5-1.6,15.1-3.7s3.9-4.7,3.9-7.8c0-4.1-1.8-10.5-5.5-19.2L2019.3,415.4
			L2019.3,415.4z M2015.1,405.2l-31.6-75.7l-32.4,75.7H2015.1z"/>
	</g>
	<g>
		<path class="st18" d="M437.8,180.2C438,180.2,437.4,180.2,437.8,180.2z M314.4,331.1c1.4,0,2.5,1.1,2.5,2.5s-1.1,2.5-2.5,2.5
			s-2.5-1.1-2.5-2.5C311.9,332.3,313,331.1,314.4,331.1z M323.7,312c1.7,0,3,1.3,3,3s-1.3,3-3,3s-3-1.3-3-3S322.1,312,323.7,312z
			 M437.1,237.5c1.7,0,3,1.3,3,3s-1.3,3-3,3s-3-1.3-3-3S435.5,237.5,437.1,237.5z M470.6,313.1c1,0,1.8,0.8,1.8,1.8
			s-0.8,1.8-1.8,1.8s-1.8-0.8-1.8-1.8C468.7,314,469.5,313.1,470.6,313.1z M443.7,448.2c1,0,1.8,0.8,1.8,1.8s-0.8,1.8-1.8,1.8
			s-1.8-0.8-1.8-1.8C441.8,449.1,442.6,448.2,443.7,448.2z M510.3,393.2c1.6,7.2,0.5,14.1,15.6,16.7c-16.1,1.3-15.4,16.7-15.5,16.7
			c-1.4-12.9-10.4-16.7-18.3-16.7C509,409.9,509,396.6,510.3,393.2z M392.9,452.3c1.1,5,0.3,9.8,10.8,11.6
			c-11.2,0.9-10.7,11.6-10.8,11.6c-0.9-9-7.2-11.6-12.7-11.6C391.9,463.9,391.9,454.6,392.9,452.3L392.9,452.3z M287.6,326.4
			c1.1,5,0.3,9.8,10.8,11.6c-11.2,0.9-10.7,11.6-10.8,11.6c-0.9-9-7.2-11.6-12.7-11.6C286.7,338,286.7,328.7,287.6,326.4
			L287.6,326.4z M361.6,369.6c2.4,10.7,0.7,21.2,23.3,25c-24.1,2-23,25-23.3,25c-2-19.3-15.5-25-27.3-25
			C359.6,394.6,359.6,374.6,361.6,369.6L361.6,369.6z M361.2,281.7c1.9,8.7,0.6,17.2,19,20.3c-19.6,1.6-18.7,20.3-18.9,20.3
			c-1.7-15.7-12.6-20.3-22.2-20.3C359.6,302,359.6,285.7,361.2,281.7L361.2,281.7z M402.4,261.4c1.9,8.7,0.6,17.2,19,20.3
			c-19.6,1.6-18.7,20.3-18.9,20.3c-1.7-15.7-12.6-20.3-22.2-20.3C400.8,281.7,400.8,265.4,402.4,261.4z M592.5,96.7
			c1.9-1.3,18.4-14.3,18.9-15.2c-82.2-23.1-182.6,23.5-251,69c-15.5,10.3-30.8,20.3-46.2,30.8c-32.4,22.2-106.6,73.1-137.9,80.6
			c-6.1-7.4-1.8-3.6-10.9-8.1c3.3-140,156.9-253.3,295.7-233.4c24.1,3.5,48.3,11,68.7,20.1c7.1,3.2,24.1,14.4,30.5,12.5
			c5.4-1.6,15.2-11.9-8.4-23.3C363.7-61.4,147.7,67.2,145,276.5C131.3,287,35.7,317.2,12.1,320l-5.4,0.6c1.6,1.1-2.6,1.3,3.4,1.2
			c3,0,2.8-0.8,3.6-1.4c14.7,1.6,63.5-9.7,79-13.8c56.4-15,115.5-39.2,166.1-67c33.3-18.7,107.1-70.1,130.8-82.7
			c0.1,0-160.1,166.3-389.6,185.1c10.9,3.7,75.6,2,90.6,0.8c71.4-5.7,122.3-23,185.2-51.2c61-27.3,111.2-67,165.2-105
			c27.1-19,63.4-46.5,94.5-56.6c17.3-4.9,5.2-19.8-19.4-11.4c-48.8,14.2-106.9,56.4-106.9,56.3c14-15.2,50.3-49.6,83.2-61.7
			C536.5,92,591.9,97.1,592.5,96.7L592.5,96.7z M564.1,284.5c9.2-10,50.2-70.1,23.7-70.1c-4.1,2.5-17.3,22.2-18.6,25.1
			c-11.9,13.6-24.8,29.7-39.4,40c12.7-17.8,55.3-60,52.3-79.1c-0.7-4.7-4.9-10.6-11.3-8.2c-2.4,0.9-19.7,22.7-23.8,27.9
			c-9.4,13-40.2,43.9-52.2,54.7C383.3,374.7,241.9,425,75.2,392.9c-8.4-1.6-16.6-3.1-25-4.9c-7.6-1.6-16.8-5.6-23.5-6.4
			c8.6,6.4,68.4,27,81.7,30.7c199.9,56,296.7,23.5,429.1-94.4C541.3,313.3,563.4,286.6,564.1,284.5L564.1,284.5z M428.1,264.2
			c-10.1,10.3,42-31.9,53-38.9c14.2-14.5,32.2-26.8,46.7-41.8c14.6-15.2,19.5,5.1,14.7,11.6c-36.8,40.5-112.7,113.7-193,148.3
			C295,366.9,240.6,378,195.9,380.7c-33.8,2.1-64.4,0.4-98.1-3c-13.4-1.3-76.7-12-85.8-16.6c34.9-0.1,65.7,3.1,101.3-0.8
			c31.8-3.5,57.2-8.7,86.4-16.9c49.3-14.4,98.4-37.5,142.5-62.2c51.1-28.7,92.3-60.5,120.7-82.1c23.3-17.7,36.9-32.7,42.5-24.8
			C521.5,190.6,437.2,255,428.1,264.2L428.1,264.2z M652.8,155.4l-1.3,156.8c-3-31.8-8.8-73.6-25-101.2
			c-6.1-10.4-12.4-18.2-19.8-24.5l0.3,0.3L652.8,155.4l42.5-32.9c-0.1-0.1-0.3-0.3-0.4-0.4c16.7,15.6,40.7,25.7,76.1,30.2
			c3.5,0.7,3.2,0.2,5.3,1.9l1.2-0.5c1.7,1.1,2.1-1.5,1.5,1.4l-2.8,0.6L652.8,155.4L604,130.5c15.6-5.5,35.7-46.9,35.7-65.3
			c-10.1,32.7-17.6,48-40.9,63.6c-24.6,16.4-51.6,20.1-75.6,27.3L652.8,155.4L652.8,155.4z M694.6,121.7c-0.6-0.6-1.2-1.1-1.8-1.7
			C693.4,120.6,694,121.2,694.6,121.7z M692.7,119.9c-0.5-0.5-1.1-1.1-1.6-1.7C691.6,118.8,692.1,119.3,692.7,119.9z M690.8,117.9
			c-0.5-0.6-1.1-1.2-1.6-1.8C689.7,116.8,690.2,117.4,690.8,117.9z M688.9,115.8c-1.1-1.2-2.1-2.5-3.1-3.8
			C686.7,113.3,687.8,114.6,688.9,115.8z M685.5,111.7c-0.5-0.6-1-1.3-1.4-1.9C684.5,110.4,685,111.1,685.5,111.7z M683.8,109.5
			c-0.4-0.6-0.9-1.2-1.3-1.9C682.9,108.2,683.3,108.9,683.8,109.5z M682.3,107.4c-0.5-0.7-0.9-1.3-1.3-2
			C681.4,106.1,681.9,106.8,682.3,107.4z M680.7,105c-0.4-0.7-0.9-1.4-1.3-2C679.9,103.6,680.3,104.3,680.7,105z M679.3,102.7
			c-0.4-0.7-0.8-1.3-1.2-2C678.5,101.4,678.9,102.1,679.3,102.7z M677.9,100.4c-0.4-0.7-0.8-1.4-1.2-2.1
			C677.1,99,677.5,99.7,677.9,100.4z M676.5,97.8c-0.4-0.7-0.8-1.5-1.2-2.2C675.8,96.4,676.1,97.1,676.5,97.8z M675.4,95.6
			c-0.4-0.7-0.7-1.5-1.1-2.3C674.6,94.1,675,94.8,675.4,95.6z M674.1,92.9c-0.3-0.7-0.7-1.5-1-2.3C673.4,91.4,673.7,92.1,674.1,92.9
			z M672.8,90.2c-0.3-0.7-0.6-1.5-1-2.2C672.2,88.7,672.5,89.5,672.8,90.2z M671.8,87.8c-0.3-0.8-0.7-1.6-1-2.4
			C671.2,86.2,671.5,87,671.8,87.8z M670.7,84.9c-0.3-0.8-0.6-1.6-0.9-2.4C670,83.3,670.3,84.1,670.7,84.9z M669.6,82.2
			c-0.3-0.8-0.5-1.5-0.8-2.3C669.1,80.7,669.3,81.4,669.6,82.2z M668.7,79.5c-0.3-0.8-0.6-1.6-0.8-2.5
			C668.1,77.8,668.4,78.7,668.7,79.5z M667.7,76.5c-0.3-0.8-0.5-1.7-0.8-2.6C667.1,74.8,667.4,75.6,667.7,76.5z M666.8,73.7
			c-0.3-0.8-0.5-1.7-0.7-2.5C666.3,72.1,666.6,72.9,666.8,73.7z M665.9,70.8c-0.2-0.9-0.5-1.7-0.7-2.6
			C665.5,69,665.7,69.9,665.9,70.8z M665.1,67.6c-0.2-0.9-0.5-1.8-0.7-2.7C664.6,65.8,664.8,66.7,665.1,67.6z M664.4,64.9
			c-0.2-0.9-0.5-1.8-0.7-2.8C663.9,63,664.1,63.9,664.4,64.9z M663.6,61.5c-0.2-0.9-0.4-1.8-0.6-2.7
			C663.1,59.7,663.3,60.6,663.6,61.5z M662.8,58.3c-0.2-0.9-0.4-1.7-0.6-2.6C662.5,56.6,662.6,57.5,662.8,58.3z M662.2,55.3
			c-0.2-0.9-0.4-1.9-0.6-2.9C661.8,53.4,662,54.3,662.2,55.3z M661.5,51.9c-0.2-1-0.4-2-0.6-3C661.1,49.9,661.3,50.9,661.5,51.9z
			 M660.9,48.7c-0.2-0.9-0.3-1.9-0.5-2.9C660.6,46.8,660.7,47.7,660.9,48.7z M660.3,45.3c-0.2-1-0.3-2-0.5-3
			C660,43.3,660.1,44.3,660.3,45.3z M659.7,41.7c-0.2-1-0.3-2-0.5-3C659.4,39.7,659.6,40.7,659.7,41.7z M659.2,38.5
			c-0.2-1-0.3-2.1-0.5-3.1C658.9,36.5,659.1,37.5,659.2,38.5z M658.7,34.8c-0.1-1-0.3-2.1-0.4-3.1C658.4,32.8,658.5,33.8,658.7,34.8
			z M658.2,31.2c-0.1-1-0.3-2-0.4-3C657.9,29.2,658,30.2,658.2,31.2z M657.7,27.8c-0.1-1.1-0.3-2.2-0.4-3.3
			C657.5,25.7,657.6,26.7,657.7,27.8z M657.2,23.9c-0.1-1.1-0.3-2.2-0.4-3.3C657,21.7,657.1,22.8,657.2,23.9z M656.8,20.2
			c-0.1-1-0.2-2.1-0.4-3.1C656.6,18.1,656.7,19.2,656.8,20.2z M656.4,16.6c-0.1-1.1-0.2-2.2-0.4-3.3
			C656.2,14.4,656.3,15.5,656.4,16.6z M656,12.5c-0.1-1.1-0.2-2.3-0.4-3.5C655.7,10.2,655.9,11.4,656,12.5z M573.6,168.4
			c0.7,0.3,1.5,0.5,2.2,0.8C575,169,574.3,168.7,573.6,168.4z M575.9,169.3c0.4,0.1,0.7,0.3,1.1,0.4
			C576.6,169.5,576.3,169.4,575.9,169.3z M577,169.7c0.4,0.1,0.7,0.3,1.1,0.4C577.7,170,577.4,169.8,577,169.7z M578.2,170.1
			c0.3,0.1,0.7,0.3,1,0.4C578.9,170.4,578.6,170.3,578.2,170.1z M579.3,170.6c0.4,0.1,0.7,0.3,1,0.4L579.3,170.6z M580.4,171
			c0.3,0.1,0.7,0.3,1,0.4C581.1,171.3,580.8,171.2,580.4,171z M581.6,171.5l0.9,0.4C582.2,171.8,581.9,171.6,581.6,171.5z
			 M582.7,172c0.3,0.1,0.6,0.3,1,0.4C583.3,172.2,583,172.1,582.7,172z M583.8,172.4c0.3,0.1,0.6,0.3,1,0.4L583.8,172.4z
			 M584.9,172.9l0.8,0.4C585.4,173.2,585.1,173,584.9,172.9z M585.8,173.3c0.3,0.1,0.6,0.3,0.9,0.4
			C586.4,173.6,586.1,173.5,585.8,173.3z M586.9,173.8c0.3,0.1,0.6,0.3,0.9,0.4C587.5,174.1,587.2,174,586.9,173.8z M588,174.3
			c0.3,0.1,0.6,0.3,0.8,0.4L588,174.3z M588.9,174.8c0.3,0.1,0.6,0.3,0.9,0.4C589.5,175.1,589.2,175,588.9,174.8z M589.9,175.3
			c0.3,0.2,0.6,0.3,0.9,0.5C590.5,175.6,590.2,175.4,589.9,175.3z M590.9,175.8c0.3,0.2,0.6,0.3,0.9,0.5
			C591.5,176.1,591.2,176,590.9,175.8z M591.9,176.3c0.3,0.2,0.6,0.3,0.9,0.5C592.5,176.6,592.2,176.5,591.9,176.3z M592.8,176.8
			c0.3,0.1,0.5,0.3,0.8,0.4C593.4,177.1,593.1,177,592.8,176.8z M593.8,177.4c0.3,0.1,0.5,0.3,0.8,0.5
			C594.3,177.7,594.1,177.5,593.8,177.4z M594.8,177.9c0.3,0.2,0.5,0.3,0.8,0.5C595.3,178.2,595,178.1,594.8,177.9z M595.7,178.5
			c0.3,0.2,0.6,0.3,0.8,0.5C596.2,178.8,596,178.6,595.7,178.5z M596.6,179c0.3,0.2,0.6,0.4,0.9,0.5
			C597.1,179.3,596.9,179.2,596.6,179z M597.4,179.5c0.3,0.2,0.5,0.3,0.8,0.5C598,179.9,597.7,179.7,597.4,179.5z M598.4,180.1
			c0.3,0.2,0.5,0.3,0.8,0.5C598.9,180.5,598.6,180.3,598.4,180.1z M599.3,180.7c0.3,0.2,0.5,0.3,0.8,0.5
			C599.8,181.1,599.6,180.9,599.3,180.7z M600.1,181.3c0.3,0.2,0.5,0.4,0.8,0.5C600.6,181.6,600.4,181.5,600.1,181.3z M601,181.9
			c0.3,0.2,0.5,0.4,0.8,0.6C601.5,182.2,601.2,182,601,181.9z M601.8,182.5c0.3,0.2,0.5,0.4,0.8,0.6
			C602.3,182.8,602.1,182.7,601.8,182.5z M602.7,183.1c0.2,0.2,0.5,0.4,0.7,0.6C603.2,183.5,603,183.3,602.7,183.1z M603.5,183.7
			c0.2,0.2,0.5,0.4,0.7,0.6C604,184.1,603.8,183.9,603.5,183.7z M604.3,184.4c0.2,0.2,0.5,0.4,0.7,0.6
			C604.8,184.7,604.6,184.6,604.3,184.4z M605.2,185c0.2,0.2,0.5,0.4,0.7,0.6C605.6,185.4,605.4,185.2,605.2,185z M606,185.7
			c0.2,0.2,0.5,0.4,0.7,0.6C606.5,186.1,606.2,185.9,606,185.7z M612.4,249.1c-0.7-1.3-2.7-1.1-3.8,1.3c-7,16.2-23.7,44.4-38.7,61.4
			c-27.1,30.8-57.8,58-68.2,66.4c-74.4,60.3-163,91.3-275,77.1l-50.9-9.2c-18.8-4.4-48.3-14.4-66.4-22.4c-5.7-2.5-15.6-7.3-21-8.9
			c27.6,19.1,109.7,51.6,145.2,63.1c6.7,2.2,16.9,4.5,22.8,6.9c0.1,6.9,2.5,7.9,7.4,10.4l34.5,17.1
			c129.4,59.9,285.3,21.1,360.9-100.7c3.6-5.7,13-15.5,7.8-23.5c-1.9-2.8-6.8-5.9-11.8-3.3C634,406.2,568.5,550.5,367.8,515
			c-9.6-2.1-18-5.3-25.4-8.6l11.4-2c117.3-5.2,227.2-94.8,258.5-181.1C618.1,302.7,624.6,272,612.4,249.1L612.4,249.1z"/>
		<path class="st18" d="M325.7,77.6c2.4,13.8,0.7,27.3,23.1,32.2c-23.9,2.6-22.8,32.2-23,32.2c-2-24.9-15.4-32.2-27.1-32.2
			C323.7,109.8,323.7,84,325.7,77.6z"/>
		<path class="st18" d="M270.4,106.1c1.2,5.4,0.3,10.6,11.7,12.6c-12.1,1-11.6,12.5-11.7,12.5c-1-9.7-7.8-12.5-13.7-12.5
			C269.5,118.7,269.5,108.7,270.4,106.1z"/>
		<path class="st18" d="M256.4,145.2c1.5,6.9,0.5,13.6,15.1,16.1c-15.5,1.3-14.8,16.1-15,16.1c-1.3-12.4-10-16.1-17.6-16.1
			C255.1,161.3,255.1,148.4,256.4,145.2L256.4,145.2z"/>
		<path class="st18" d="M216.2,185.3c1.5,6.9,0.5,13.6,15,16.1c-15.5,1.3-14.8,16.1-15,16.1c-1.3-12.4-10-16.1-17.6-16.1
			C214.9,201.4,214.9,188.5,216.2,185.3L216.2,185.3z"/>
		<path class="st18" d="M533.9,461.6c0.8,3.5,0.2,6.8,7.5,8.1c-7.8,0.6-7.4,8-7.5,8c-0.7-6.2-5-8.1-8.8-8
			C533.3,469.6,533.3,463.2,533.9,461.6L533.9,461.6z"/>
		<path class="st18" d="M628.6,364.5c0.9,4,0.3,7.9,8.7,9.3c-9,0.7-8.6,9.3-8.6,9.3c-0.8-7.2-5.8-9.3-10.2-9.3
			C627.8,373.8,627.8,366.3,628.6,364.5L628.6,364.5z"/>
		<path class="st18" d="M706.7,250.2c3,13.5,0.9,26.6,29.4,31.5c-30.3,2.5-29,31.4-29.3,31.4c-2.6-24.3-19.5-31.4-34.4-31.4
			C704.2,281.7,704.2,256.5,706.7,250.2z"/>
		<path class="st18" d="M733.3,354c1.9,8.7,0.6,17.2,19,20.3c-19.6,1.6-18.7,20.3-18.9,20.3c-1.7-15.7-12.6-20.3-22.2-20.3
			C731.8,374.3,731.8,358.1,733.3,354z"/>
		<path class="st18" d="M705.8,407.4c1.9,9.6,0.6,18.9,19,22.4c-19.6,1.8-18.7,22.3-18.9,22.3c-1.7-17.2-12.6-22.3-22.2-22.3
			C704.2,429.7,704.2,411.8,705.8,407.4z"/>
		<path class="st18" d="M653.4,475.5c1.9,11,0.6,21.8,19,25.8c-19.6,2.1-18.7,25.7-18.9,25.7c-1.7-19.9-12.6-25.8-22.2-25.7
			C651.8,501.3,651.8,480.6,653.4,475.5z"/>
		<path class="st18" d="M668.9,323.6c1.7,9.6,0.5,18.9,16.4,22.4c-17,1.8-16.2,22.3-16.4,22.3c-1.4-17.2-10.9-22.3-19.3-22.3
			C667.5,345.9,667.5,328,668.9,323.6z"/>
		<path class="st18" d="M410.9,32.2c2.6,14.6,0.7,28.8,25,34c-25.8,2.7-24.7,33.9-24.9,33.9c-2.2-26.2-16.6-34-29.3-33.9
			C408.8,66.2,408.8,39,410.9,32.2L410.9,32.2z"/>
		<circle class="st18" cx="186.1" cy="228.2" r="3.3"/>
		<circle class="st18" cx="355.5" cy="62.7" r="6.7"/>
		<circle class="st18" cx="567.3" cy="436" r="6.7"/>
		<circle class="st18" cx="496.7" cy="490" r="4.3"/>
		<circle class="st18" cx="607.5" cy="509.1" r="4.3"/>
		<circle class="st18" cx="667.5" cy="456.4" r="4.3"/>
		<path class="st18" d="M523.3,156.1c10.1,0.4,37.6,7.9,47.7,11.4c15.1,5.2,26.5,10.8,36.1,19.1l45.7-31.3L523.3,156.1L523.3,156.1z
			"/>
		<path class="st18" d="M437.8,180.2C438,180.2,437.4,180.2,437.8,180.2z"/>
		<path class="st18" d="M652.8,155.4l-1.3,156.8l13.8-58.2c9.2-36.7,21.1-65.9,57.1-82.2c11.4-5.2,41.2-15,53.8-16.1L652.8,155.4
			L652.8,155.4z"/>
		<path class="st18" d="M695.3,122.4C668.8,98,660.7,60.1,655.6,9c-0.3-4.8,0.7-0.9-0.6-1.9c-2.1-1.6,0.1-1.6-1.4-0.1
			c0.1,4.6-0.8,9.1,0.5,13c-1.9,3.7-1.3,17.7-1.4,32.5c-0.2,32.6,1.1,71.2,0.1,102.7L695.3,122.4L695.3,122.4z"/>
		<path class="st18" d="M981.8,73.9l4.8,59.1h-5.1c-4.9-14.7-11.2-25.7-18.9-33.1c-11.1-10.7-25.4-16.1-42.8-16.1
			c-23.8,0-41.9,9.4-54.3,28.3C855.2,128,850,147,850,169c0,17.9,3.4,34.1,10.4,48.9c6.9,14.7,15.9,25.5,27.1,32.4
			c11.2,6.8,22.7,10.3,34.5,10.3c6.9,0,13.6-0.9,20-2.6s12.6-4.3,18.6-7.8v-54.4c0-9.4-0.7-15.6-2.1-18.5c-1.5-2.9-3.7-5.1-6.6-6.6
			c-3-1.6-8.3-2.3-15.8-2.3v-5.1h72.4v5.1h-3.4c-7.2,0-12.1,2.4-14.8,7.2c-1.8,3.4-2.7,10.1-2.7,20.2v57.5
			c-10.6,5.8-21,9.9-31.3,12.6c-10.3,2.7-21.8,4-34.4,4c-36.2,0-63.6-11.6-82.4-34.8c-14.1-17.4-21.1-37.5-21.1-60.2
			c0-16.5,4-32.3,11.9-47.4c9.4-18,22.3-31.8,38.6-41.5c13.7-8,29.9-12,48.6-12c6.8,0,13,0.6,18.5,1.6c5.6,1.1,13.4,3.5,23.7,7.3
			c5.1,1.9,8.6,2.9,10.4,2.9c1.7,0,3.2-0.8,4.5-2.4c1.2-1.6,2-4.8,2.3-9.5L981.8,73.9L981.8,73.9z M1234.8,265.6h-50.2l-63.7-87.7
			c-4.6,0.2-8.3,0.3-11.2,0.3c-1.2,0-2.5,0-3.8-0.1c-1.4,0-2.7-0.1-4.2-0.2v54.6c0,11.8,1.3,19.1,3.9,21.9c3.5,4.1,8.7,6.1,15.7,6.1
			h7.3v5.1h-80.3v-5.1h7c7.9,0,13.6-2.6,17-7.7c1.9-2.8,2.9-9.6,2.9-20.3V111.2c0-11.8-1.3-19.1-3.9-21.9c-3.6-4.1-8.9-6.1-16-6.1
			h-7v-5.1h68.3c19.9,0,34.6,1.5,44,4.3c9.5,2.9,17.5,8.3,24,16.1c6.6,7.8,9.9,17.1,9.9,27.9c0,11.5-3.8,21.5-11.3,30
			s-19.1,14.5-34.9,18l38.8,53.7c8.9,12.3,16.5,20.6,22.8,24.7c6.3,4.1,14.6,6.6,24.8,7.8L1234.8,265.6L1234.8,265.6z M1101.8,169.2
			c1.7,0,3.3,0,4.5,0s2.3,0.1,3.1,0.1c17.7,0,31-3.9,40-11.6c9-7.8,13.5-17.6,13.5-29.6c0-11.7-3.6-21.2-10.8-28.6
			c-7.3-7.3-16.9-11-28.8-11c-5.3,0-12.4,0.8-21.4,2.5L1101.8,169.2L1101.8,169.2z M1398.2,83.2v-5.1h65.9v5.1h-7
			c-7.4,0-13,3.1-17,9.2c-1.9,2.9-2.9,9.5-2.9,19.9v76c0,18.8-1.8,33.4-5.6,43.7c-3.7,10.4-11.1,19.3-22,26.7
			c-10.9,7.4-25.7,11.1-44.5,11.1c-20.4,0-35.9-3.5-46.5-10.7c-10.6-7.1-18.1-16.6-22.5-28.6c-3-8.2-4.4-23.6-4.4-46.1v-73.3
			c0-11.5-1.6-19-4.8-22.6s-8.3-5.4-15.4-5.4h-7V78h80.9v5.1h-7.2c-7.7,0-13.2,2.5-16.5,7.3c-2.3,3.3-3.4,10.2-3.4,20.7v81.7
			c0,7.3,0.7,15.6,2,25c1.4,9.4,3.8,16.7,7.3,22c3.5,5.2,8.6,9.6,15.1,13c6.6,3.4,14.7,5.1,24.2,5.1c12.3,0,23.2-2.7,32.9-8
			c9.7-5.3,16.3-12.2,19.8-20.5s5.3-22.5,5.3-42.4v-75.9c0-11.7-1.3-19-3.9-21.9c-3.6-4.1-8.9-6.1-16-6.1L1398.2,83.2L1398.2,83.2z
			 M1556.1,177.7v54.8c0,11.8,1.3,19.1,3.9,21.9c3.5,4.1,8.8,6.1,15.8,6.1h7.2v5.1h-80.3v-5.1h7.1c7.9,0,13.6-2.6,17-7.7
			c1.8-2.8,2.8-9.6,2.8-20.3V111.2c0-11.8-1.2-19.1-3.7-21.9c-3.6-4.1-9-6.1-16.1-6.1h-7.1v-5.1h68.7c16.8,0,30,1.7,39.7,5.2
			c9.7,3.4,17.8,9.3,24.5,17.5s9.9,17.9,9.9,29.1c0,15.3-5,27.8-15.1,37.3c-10.1,9.6-24.3,14.4-42.8,14.4c-4.5,0-9.4-0.3-14.6-1
			C1567.7,180,1562.1,179.1,1556.1,177.7L1556.1,177.7z M1556.1,169.8c4.9,0.9,9.2,1.6,13,2.1c3.7,0.5,7,0.7,9.6,0.7
			c9.6,0,17.8-3.7,24.7-11.1c6.9-7.4,10.4-17,10.4-28.7c0-8.1-1.6-15.6-4.9-22.6s-8-12.1-14-15.6c-6.1-3.4-13-5.2-20.6-5.2
			c-4.7,0-10.7,0.9-18.1,2.6L1556.1,169.8L1556.1,169.8z M1789.6,73.9c24.3,0,45.3,9.2,63.1,27.7c17.8,18.5,26.7,41.5,26.7,69.2
			c0,28.5-9,52.1-26.9,70.9s-39.6,28.2-65.1,28.2c-25.7,0-47.4-9.2-64.9-27.5s-26.3-42-26.3-71.2c0-29.7,10.1-54,30.4-72.8
			C1744.1,82,1765.1,73.9,1789.6,73.9L1789.6,73.9z M1786.9,83.8c-16.7,0-30.1,6.2-40.2,18.7c-12.6,15.5-18.9,38.2-18.9,68.1
			c0,30.6,6.5,54.2,19.6,70.7c10,12.5,23.2,18.8,39.7,18.8c17.6,0,32.1-6.9,43.5-20.6c11.5-13.8,17.2-35.4,17.2-65
			c0-32.1-6.3-56-18.9-71.8C1818.8,90.1,1804.8,83.8,1786.9,83.8L1786.9,83.8z M972.2,290.4l2,44.1H969c-1-7.7-2.4-13.3-4.1-16.6
			c-2.9-5.3-6.6-9.3-11.4-11.8c-4.8-2.5-11-3.8-18.7-3.8h-26.4v143.1c0,11.5,1.2,18.8,3.7,21.6c3.5,3.9,8.9,5.8,16.1,5.8h6.5v5.1
			h-79.8v-5.1h6.7c8,0,13.7-2.4,17.1-7.2c2-3,3.1-9.7,3.1-20.2V302.3h-22.5c-8.8,0-15,0.7-18.7,1.9c-4.8,1.7-8.9,5.1-12.3,10.1
			c-3.4,4.9-5.4,11.7-6.1,20.2H817l2-44.1H972.2L972.2,290.4z M1071.1,300.6v74.1h41.3c10.7,0,17.8-1.6,21.4-4.8
			c4.8-4.2,7.4-11.7,8-22.3h5.1v65.3h-5.1c-1.3-9.1-2.6-15-3.9-17.6c-1.6-3.2-4.4-5.7-8.2-7.6c-3.8-1.8-9.6-2.8-17.4-2.8H1071v61.8
			c0,8.3,0.4,13.3,1.1,15.1c0.8,1.8,2,3.3,3.9,4.3c1.8,1.1,5.4,1.6,10.5,1.6h31.7c10.6,0,18.2-0.8,23.1-2.2
			c4.8-1.5,9.4-4.4,13.8-8.7c5.7-5.7,11.5-14.3,17.5-25.8h5.7l-16.2,46.9h-144.5v-5.1h6.6c4.4,0,8.6-1.1,12.6-3.2c3-1.5,5-3.7,6-6.6
			c1.1-3,1.6-9,1.6-18.1v-122c0-11.9-1.2-19.2-3.6-21.9c-3.3-3.7-8.9-5.5-16.6-5.5h-6.6v-5.1h144.5l2,41.3h-5.4
			c-1.9-9.9-4.1-16.8-6.4-20.5s-5.8-6.6-10.4-8.5c-3.7-1.4-10.2-2.1-19.5-2.1L1071.1,300.6L1071.1,300.6z M1331.3,477.9l-72.4-157.8
			v125.2c0,11.5,1.3,18.8,3.8,21.6c3.4,3.9,8.9,5.8,16.4,5.8h6.7v5.1h-65.9v-5.1h6.7c8,0,13.7-2.4,17.1-7.2c2-3,3.1-9.7,3.1-20.2
			V322.9c0-8.3-0.9-14.3-2.8-18c-1.3-2.7-3.7-4.9-7.2-6.7c-3.5-1.8-9.1-2.7-16.9-2.7v-5.1h53.7l67.6,146.6l67-146.6h53.2v5.1h-6.6
			c-8.2,0-13.9,2.4-17.3,7.2c-2,3-3.1,9.7-3.1,20.2v122.5c0,11.5,1.3,18.8,3.9,21.6c3.4,3.9,8.9,5.8,16.4,5.8h6.6v5.1H1381v-5.1h6.7
			c8.1,0,13.8-2.4,17.1-7.2c2-3,3.1-9.7,3.1-20.2V320.2L1335.8,478L1331.3,477.9L1331.3,477.9z M1555.9,390v54.8
			c0,11.8,1.3,19.1,3.9,21.9c3.5,4.1,8.8,6.1,15.8,6.1h7.2v5.1h-80.3v-5.1h7.1c7.9,0,13.6-2.6,17-7.7c1.8-2.8,2.8-9.6,2.8-20.3
			V323.5c0-11.8-1.2-19.1-3.7-21.9c-3.6-4.1-9-6.1-16.1-6.1h-7.1v-5.1h68.7c16.8,0,30,1.7,39.7,5.2c9.7,3.4,17.8,9.3,24.5,17.5
			c6.6,8.2,9.9,17.9,9.9,29.1c0,15.3-5,27.8-15.1,37.3s-24.3,14.4-42.8,14.4c-4.5,0-9.4-0.3-14.6-1
			C1567.5,392.3,1561.9,391.3,1555.9,390L1555.9,390z M1555.9,382.1c4.9,0.9,9.2,1.6,13,2.1c3.7,0.5,7,0.7,9.6,0.7
			c9.6,0,17.8-3.7,24.7-11.1c6.9-7.4,10.4-17,10.4-28.7c0-8.1-1.6-15.6-4.9-22.6s-8-12.1-14-15.6c-6.1-3.4-13-5.2-20.6-5.2
			c-4.7,0-10.7,0.9-18.1,2.6L1555.9,382.1L1555.9,382.1z M1848.5,426.2l4.5,1l-16.1,50.8h-145.1v-5.1h7c7.9,0,13.6-2.5,17-7.7
			c1.9-2.9,2.9-9.7,2.9-20.3V323.5c0-11.7-1.3-19-3.9-21.9c-3.6-4.1-8.9-6.1-16-6.1h-7v-5.1h84.8v5.1c-9.9-0.1-16.9,0.8-21,2.7
			c-4,1.9-6.7,4.3-8.2,7.2c-1.5,2.9-2.2,9.9-2.2,20.9v118.2c0,7.7,0.8,12.9,2.2,15.8c1.1,2,2.8,3.4,5.1,4.3
			c2.3,0.9,9.5,1.4,21.6,1.4h13.7c14.4,0,24.5-1,30.3-3.2c5.8-2.1,11.1-5.9,15.9-11.3C1838.8,446.2,1843.6,437.8,1848.5,426.2
			L1848.5,426.2z M2019.3,415.4h-72.6l-12.5,29.4c-3.1,7.3-4.7,12.7-4.7,16.3c0,2.8,1.4,5.4,4.1,7.5s8.6,3.5,17.6,4.2v5.1H1892v-5.1
			c7.8-1.4,12.9-3.2,15.2-5.4c4.7-4.4,9.9-13.4,15.6-27l65.9-154.3h4.7l65.2,156c5.2,12.5,10,20.6,14.3,24.4
			c4.3,3.7,10.2,5.8,17.9,6.3v5.1h-73.9v-5.1c7.4-0.4,12.5-1.6,15.1-3.7s3.9-4.7,3.9-7.8c0-4.1-1.8-10.5-5.5-19.2L2019.3,415.4
			L2019.3,415.4z M2015.1,405.2l-31.6-75.7l-32.4,75.7H2015.1z"/>
	</g>
</g>
</svg>
