<?xml version="1.0" encoding="UTF-8"?>
<svg id="Capa_1" data-name="Capa 1" xmlns="http://www.w3.org/2000/svg" version="1.1" xmlns:xlink="http://www.w3.org/1999/xlink" viewBox="0 0 800 350">
  <defs>
    <style>
      .cls-1 {
        fill: url(#linear-gradient);
      }

      .cls-1, .cls-2, .cls-3 {
        stroke-width: 0px;
      }

      .cls-2 {
        fill: #8a4381;
      }

      .cls-3 {
        fill: url(#linear-gradient-2);
      }
    </style>
    <linearGradient id="linear-gradient" x1="79.9" y1="109.7" x2="528" y2="109.7" gradientTransform="translate(0 352) scale(1 -1)" gradientUnits="userSpaceOnUse">
      <stop offset="0" stop-color="#8d7459"/>
      <stop offset=".2" stop-color="#91785d"/>
      <stop offset=".4" stop-color="#9b836a"/>
      <stop offset=".6" stop-color="#ad967e"/>
      <stop offset=".8" stop-color="#c5b19b"/>
      <stop offset="1" stop-color="#e5d3c0"/>
      <stop offset="1" stop-color="#ecdbc8"/>
    </linearGradient>
    <linearGradient id="linear-gradient-2" x1="-222.8" y1="177" x2="326" y2="177" gradientTransform="translate(497.3 352) rotate(-180)" gradientUnits="userSpaceOnUse">
      <stop offset="0" stop-color="#8d7459"/>
      <stop offset=".2" stop-color="#91785d"/>
      <stop offset=".4" stop-color="#9b836a"/>
      <stop offset=".6" stop-color="#ad967e"/>
      <stop offset=".8" stop-color="#c5b19b"/>
      <stop offset="1" stop-color="#e5d3c0"/>
      <stop offset="1" stop-color="#ecdbc8"/>
    </linearGradient>
  </defs>
  <path class="cls-1" d="M108.3,272.1h-22.3l16.3-44.7h-22.4l5.4-14.9c21.1,0,42.2,0,63.3,0l-5.4,14.9h-18.6c0,0-16.3,44.6-16.3,44.6ZM224.9,212.5l-5.4,14.9h-44.8l-2.7,7.7h37.3l-4.9,12.4h-37.3l-3.2,9.6h44.7l-5.4,14.9h-67.2l21.7-59.6h67.2ZM236,212.5h22.4l8.8,17,21.1-17h22.4l-21.7,59.6h-22.3c4.3-12.1,8.1-22.5,12.5-34.6-1,1.1-2.2,2.2-3.4,3.1l-17.9,14.7-6.6-13.9c-.5-1.3-1.5-3.1-1.6-5.2l-12.8,35.9h-22.4l21.7-59.6ZM321.7,212.5h56.5c4.1,0,7.4,3.3,7.4,7.4,0,.9-.2,1.8-.5,2.6l-6.4,17.4c-2.1,5.9-7.7,9.9-14,9.8h-34.3l-8.1,22.3h-22.3l21.6-59.6ZM358.5,236.8l3.4-9.5h-24.1l-3.5,9.5h24.2ZM396.6,212.5h22.4l-16.3,44.7h35.5l-5.4,14.8h-57.9l21.7-59.6ZM457.2,222.3c2.1-5.9,7.8-9.9,14.1-9.8h56.7l-21.7,59.6h-22.5l5.5-14.9h-22.3l-5.5,14.9h-22.4l18.1-49.8ZM472.3,242.3h22.4l5.4-14.9h-22.4l-5.4,14.9Z"/>
  <path class="cls-2" d="M250.7,160.1l-3.4,9.5h-28.4l-6.8,18.9h14.2l3.4-9.4h14.2l-4.6,12.7c-1.3,3.8-4.9,6.3-8.9,6.2h-36l11.5-31.6c1.3-3.8,4.9-6.3,8.9-6.2h36Z"/>
  <path class="cls-2" d="M257.7,160.1h35.8c2.6,0,4.7,2.1,4.7,4.7,0,.6-.1,1.1-.3,1.6l-4,11.1c-1.3,3.8-4.9,6.3-8.9,6.2h-1l7.2,14.2h-14.3l-7.2-14.2h-6.5l-5.1,14.2h-14.2l13.7-37.9ZM265.9,175.5h15.2l2.2-6h-15.2l-2.2,6Z"/>
  <path class="cls-2" d="M305.7,160.1h14.3l-10.3,28.4h13.1l10.3-28.4h14.2l-11.5,31.6c-1.3,3.8-4.9,6.3-8.9,6.2h-28.1c-2.6,0-4.7-2.1-4.8-4.7,0-.6,0-1.1.3-1.7l11.4-31.5Z"/>
  <path class="cls-2" d="M354.3,160.1h35.8c2.6,0,4.7,2.1,4.7,4.7,0,.6-.1,1.1-.3,1.7l-4,11.1c-1.3,3.8-4.9,6.3-8.9,6.2h-21.8l-5.1,14.2h-14.2l13.8-37.9ZM377.7,175.5l2.1-6h-15.3l-2.2,6h15.4Z"/>
  <path class="cls-2" d="M431.5,191.7c-1.3,3.8-4.9,6.3-8.9,6.2h-34.6l11.5-31.6c1.3-3.8,4.9-6.3,8.9-6.2h34.5l-11.5,31.6ZM418.5,188.5l6.9-18.9h-12.8l-6.9,18.9h12.8Z"/>
  <path class="cls-3" d="M560.6,9.6l36.1,125.5h123.4l-98.1,77.5,38.5,127.7-100.5-79-76.8,60.6,76.8-90.6,54.7,42.1-20.7-68.6,56.3-43.7-66.7.9-23.6-70.4-22.4,64.9s-178.9-112.9-366.3-40.2c0,0,164.6-89.8,353.8,15.1l35.4-121.7Z"/>
  <path class="cls-2" d="M558.7,130.3l33.2,110.7S444.8,104.6,284.3,105.6c0,0,97.8-30.2,261.1,67.7l13.3-43Z"/>
</svg>