<?xml version="1.0" encoding="UTF-8"?><svg id="a" xmlns="http://www.w3.org/2000/svg" xmlns:xlink="http://www.w3.org/1999/xlink" viewBox="0 0 1000 1000"><defs><style>.r,.s,.t,.u,.v,.w,.x,.y,.z,.aa,.ab,.ac,.ad,.ae,.af,.ag,.ah{stroke-width:0px;}.r,.s,.t,.u,.v,.w,.y,.aa,.ac,.ad,.ae{fill-rule:evenodd;}.r,.af{fill:#47245a;}.s{fill:url(#d);}.t{fill:url(#k);}.u{fill:url(#e);}.v{fill:url(#c);}.w{fill:url(#j);}.x{fill:url(#q);}.y{fill:url(#h);}.z{fill:url(#n);}.aa{fill:url(#l);}.ab{fill:url(#m);}.ac{fill:url(#f);}.ad{fill:url(#i);}.ae{fill:url(#g);}.ag{fill:url(#p);}.ah{fill:url(#o);}.ai{fill:none;stroke:#fff;stroke-width:1.42px;}</style><linearGradient id="c" x1="-1730.48" y1="3287.66" x2="2414.53" y2="3287.66" gradientTransform="translate(422.84 -240.7) scale(.23)" gradientUnits="userSpaceOnUse"><stop offset="0" stop-color="#f4de8c"/><stop offset=".16" stop-color="#b67e31"/><stop offset=".46" stop-color="#f0d786"/><stop offset=".62" stop-color="#d4ac59"/><stop offset=".71" stop-color="#b8812b"/><stop offset=".89" stop-color="#dabe95"/><stop offset="1" stop-color="#fff"/></linearGradient><linearGradient id="d" x1="-141.65" y1="2435.5" x2="124.84" y2="2435.5" xlink:href="#c"/><linearGradient id="e" x1="-364.9" y1="2482.58" x2="-229.8" y2="2482.58" xlink:href="#c"/><linearGradient id="f" x1="-460.23" y1="2709.44" x2="-286.83" y2="2709.44" xlink:href="#c"/><linearGradient id="g" x1="-674.1" y1="2922.74" x2="-500.7" y2="2922.74" xlink:href="#c"/><linearGradient id="h" x1="1062.7" y1="4349.6" x2="1149.4" y2="4349.6" xlink:href="#c"/><linearGradient id="i" x1="1559.2" y1="3839.76" x2="1659.2" y2="3839.76" xlink:href="#c"/><linearGradient id="j" x1="1846.11" y1="3349.6" x2="2184.94" y2="3349.6" xlink:href="#c"/><linearGradient id="k" x1="2052.49" y1="3842.42" x2="2271.11" y2="3842.42" xlink:href="#c"/><linearGradient id="l" x1="1906.22" y1="4137.37" x2="2124.84" y2="4137.37" xlink:href="#c"/><linearGradient id="m" x1="-758" y1="3065.29" x2="-723.25" y2="3065.29" xlink:href="#c"/><linearGradient id="n" x1="124.7" y1="2184.97" x2="195.97" y2="2184.97" xlink:href="#c"/><linearGradient id="o" x1="1251.74" y1="4170.61" x2="1323.01" y2="4170.61" xlink:href="#c"/><linearGradient id="p" x1="888.56" y1="4457.85" x2="934.59" y2="4457.85" xlink:href="#c"/><linearGradient id="q" x1="1797.18" y1="4279.12" x2="1843.21" y2="4279.12" xlink:href="#c"/></defs><g id="b"><path class="v" d="m557.8,393.23c.24,0-.48,0,0,0Zm-148.08,181.08c1.68,0,3,1.32,3,3s-1.32,3-3,3-3-1.32-3-3c0-1.56,1.32-3,3-3Zm11.16-22.92c2.04,0,3.6,1.56,3.6,3.6s-1.56,3.6-3.6,3.6-3.6-1.56-3.6-3.6,1.68-3.6,3.6-3.6Zm136.08-89.4c2.04,0,3.6,1.56,3.6,3.6s-1.56,3.6-3.6,3.6-3.6-1.56-3.6-3.6,1.68-3.6,3.6-3.6Zm40.2,90.72c1.2,0,2.16.96,2.16,2.16s-.96,2.16-2.16,2.16-2.16-.96-2.16-2.16c-.12-1.08.84-2.16,2.16-2.16Zm-32.28,162.12c1.2,0,2.16.96,2.16,2.16s-.96,2.16-2.16,2.16-2.16-.96-2.16-2.16c-.12-1.08.84-2.16,2.16-2.16Zm79.92-66c1.92,8.64.6,16.92,18.72,20.04-19.32,1.56-18.48,20.04-18.6,20.04-1.68-15.48-12.48-20.04-21.96-20.04,20.28,0,20.28-15.96,21.84-20.04Zm-140.88,70.92c1.32,6,.36,11.76,12.96,13.92-13.44,1.08-12.84,13.92-12.96,13.92-1.08-10.8-8.64-13.92-15.24-13.92,14.04,0,14.04-11.16,15.24-13.92h0Zm-126.36-151.08c1.32,6,.36,11.76,12.96,13.92-13.44,1.08-12.84,13.92-12.96,13.92-1.08-10.8-8.64-13.92-15.24-13.92,14.16,0,14.16-11.16,15.24-13.92h0Zm88.8,51.84c2.88,12.84.84,25.44,27.96,30-28.92,2.4-27.6,30-27.96,30-2.4-23.16-18.6-30-32.76-30,30.36,0,30.36-24,32.76-30h0Zm-.48-105.48c2.28,10.44.72,20.64,22.8,24.36-23.52,1.92-22.44,24.36-22.68,24.36-2.04-18.84-15.12-24.36-26.64-24.36,24.6,0,24.6-19.56,26.52-24.36h0Zm49.44-24.36c2.28,10.44.72,20.64,22.8,24.36-23.52,1.92-22.44,24.36-22.68,24.36-2.04-18.84-15.12-24.36-26.64-24.36,24.6,0,24.6-19.56,26.52-24.36Zm228.12-197.64c2.28-1.56,22.08-17.16,22.68-18.24-98.64-27.72-219.12,28.2-301.2,82.8-18.6,12.36-36.96,24.36-55.44,36.96-38.88,26.64-127.92,87.72-165.48,96.72-7.32-8.88-2.16-4.32-13.08-9.72,3.96-168,188.28-303.96,354.84-280.08,28.92,4.2,57.96,13.2,82.44,24.12,8.52,3.84,28.92,17.28,36.6,15,6.48-1.92,18.24-14.28-10.08-27.96-225.84-109.32-485.04,45-488.28,296.16-16.44,12.6-131.16,48.84-159.48,52.2l-6.48.72c1.92,1.32-3.12,1.56,4.08,1.44,3.6,0,3.36-.96,4.32-1.68,17.64,1.92,76.2-11.64,94.8-16.56,67.68-18,138.6-47.04,199.32-80.4,39.96-22.44,128.52-84.12,156.96-99.24.12,0-192.12,199.56-467.52,222.12,13.08,4.44,90.72,2.4,108.72.96,85.68-6.84,146.76-27.6,222.24-61.44,73.2-32.76,133.44-80.4,198.24-126,32.52-22.8,76.08-55.8,113.4-67.92,20.76-5.88,6.24-23.76-23.28-13.68-58.56,17.04-128.28,67.68-128.28,67.56,16.8-18.24,60.36-59.52,99.84-74.04,52.92-25.44,119.4-19.32,120.12-19.8h0Zm-34.08,225.36c11.04-12,60.24-84.12,28.44-84.12-4.92,3-20.76,26.64-22.32,30.12-14.28,16.32-29.76,35.64-47.28,48,15.24-21.36,66.36-72,62.76-94.92-.84-5.64-5.88-12.72-13.56-9.84-2.88,1.08-23.64,27.24-28.56,33.48-11.28,15.6-48.24,52.68-62.64,65.64-133.8,119.88-303.48,180.24-503.52,141.72-10.08-1.92-19.92-3.72-30-5.88-9.12-1.92-20.16-6.72-28.2-7.68,10.32,7.68,82.08,32.4,98.04,36.84,239.88,67.2,356.04,28.2,514.92-113.28,4.56-5.52,31.08-37.56,31.92-40.08h0Zm-163.2-24.36c-12.12,12.36,50.4-38.28,63.6-46.68,17.04-17.4,38.64-32.16,56.04-50.16,17.52-18.24,23.4,6.12,17.64,13.92-44.16,48.6-135.24,136.44-231.6,177.96-65.4,28.2-130.68,41.52-184.32,44.76-40.56,2.52-77.28.48-117.72-3.6-16.08-1.56-92.04-14.4-102.96-19.92,41.88-.12,78.84,3.72,121.56-.96,38.16-4.2,68.64-10.44,103.68-20.28,59.16-17.28,118.08-45,171-74.64,61.32-34.44,110.76-72.6,144.84-98.52,27.96-21.24,44.28-39.24,51-29.76,19.32,19.56-81.84,96.84-92.76,107.88h0Zm269.64-130.56l-1.56,188.16c-3.6-38.16-10.56-88.32-30-121.44-7.32-12.48-14.88-21.84-23.76-29.4l.36.36,54.96-37.68,51-39.48c-.12-.12-.36-.36-.48-.48,20.04,18.72,48.84,30.84,91.32,36.24,4.2.84,3.84.24,6.36,2.28l1.44-.6c2.04,1.32,2.52-1.8,1.8,1.68l-3.36.72-148.08-.36-58.56-29.88c18.72-6.6,42.84-56.28,42.84-78.36-12.12,39.24-21.12,57.6-49.08,76.32-29.52,19.68-61.92,24.12-90.72,32.76l155.52-.84h0Zm50.16-40.44c-.72-.72-1.44-1.32-2.16-2.04.72.72,1.44,1.44,2.16,2.04Zm-2.28-2.16c-.6-.6-1.32-1.32-1.92-2.04.6.72,1.2,1.32,1.92,2.04Zm-2.28-2.4c-.6-.72-1.32-1.44-1.92-2.16.6.84,1.2,1.56,1.92,2.16Zm-2.28-2.52c-1.32-1.44-2.52-3-3.72-4.56,1.08,1.56,2.4,3.12,3.72,4.56Zm-4.08-4.92c-.6-.72-1.2-1.56-1.68-2.28.48.72,1.08,1.56,1.68,2.28Zm-2.04-2.64c-.48-.72-1.08-1.44-1.56-2.28.48.72.96,1.56,1.56,2.28Zm-1.8-2.52c-.6-.84-1.08-1.56-1.56-2.4.48.84,1.08,1.68,1.56,2.4Zm-1.92-2.88c-.48-.84-1.08-1.68-1.56-2.4.6.72,1.08,1.56,1.56,2.4Zm-1.68-2.76c-.48-.84-.96-1.56-1.44-2.4.48.84.96,1.68,1.44,2.4Zm-1.68-2.76c-.48-.84-.96-1.68-1.44-2.52.48.84.96,1.68,1.44,2.52Zm-1.68-3.12c-.48-.84-.96-1.8-1.44-2.64.6.96.96,1.8,1.44,2.64Zm-1.32-2.64c-.48-.84-.84-1.8-1.32-2.76.36.96.84,1.8,1.32,2.76Zm-1.56-3.24c-.36-.84-.84-1.8-1.2-2.76.36.96.72,1.8,1.2,2.76Zm-1.56-3.24c-.36-.84-.72-1.8-1.2-2.64.48.84.84,1.8,1.2,2.64Zm-1.2-2.88c-.36-.96-.84-1.92-1.2-2.88.48.96.84,1.92,1.2,2.88Zm-1.32-3.48c-.36-.96-.72-1.92-1.08-2.88.24.96.6,1.92,1.08,2.88Zm-1.32-3.24c-.36-.96-.6-1.8-.96-2.76.36.96.6,1.8.96,2.76Zm-1.08-3.24c-.36-.96-.72-1.92-.96-3,.24.96.6,2.04.96,3Zm-1.2-3.6c-.36-.96-.6-2.04-.96-3.12.24,1.08.6,2.04.96,3.12Zm-1.08-3.36c-.36-.96-.6-2.04-.84-3,.24,1.08.6,2.04.84,3Zm-1.08-3.48c-.24-1.08-.6-2.04-.84-3.12.36.96.6,2.04.84,3.12Zm-.96-3.84c-.24-1.08-.6-2.16-.84-3.24.24,1.08.48,2.16.84,3.24Zm-.84-3.24c-.24-1.08-.6-2.16-.84-3.36.24,1.08.48,2.16.84,3.36Zm-.96-4.08c-.24-1.08-.48-2.16-.72-3.24.12,1.08.36,2.16.72,3.24Zm-.96-3.84c-.24-1.08-.48-2.04-.72-3.12.36,1.08.48,2.16.72,3.12Zm-.72-3.6c-.24-1.08-.48-2.28-.72-3.48.24,1.2.48,2.28.72,3.48Zm-.84-4.08c-.24-1.2-.48-2.4-.72-3.6.24,1.2.48,2.4.72,3.6Zm-.72-3.84c-.24-1.08-.36-2.28-.6-3.48.24,1.2.36,2.28.6,3.48Zm-.72-4.08c-.24-1.2-.36-2.4-.6-3.6.24,1.2.36,2.4.6,3.6Zm-.72-4.32c-.24-1.2-.36-2.4-.6-3.6.24,1.2.48,2.4.6,3.6Zm-.6-3.84c-.24-1.2-.36-2.52-.6-3.72.24,1.32.48,2.52.6,3.72Zm-.6-4.44c-.12-1.2-.36-2.52-.48-3.72.12,1.32.24,2.52.48,3.72Zm-.6-4.32c-.12-1.2-.36-2.4-.48-3.6.12,1.2.24,2.4.48,3.6Zm-.6-4.08c-.12-1.32-.36-2.64-.48-3.96.24,1.44.36,2.64.48,3.96Zm-.6-4.68c-.12-1.32-.36-2.64-.48-3.96.24,1.32.36,2.64.48,3.96Zm-.48-4.44c-.12-1.2-.24-2.52-.48-3.72.24,1.2.36,2.52.48,3.72Zm-.48-4.32c-.12-1.32-.24-2.64-.48-3.96.24,1.32.36,2.64.48,3.96Zm-.48-4.92c-.12-1.32-.24-2.76-.48-4.2.12,1.44.36,2.88.48,4.2Zm-98.88,187.08c.84.36,1.8.6,2.64.96-.96-.24-1.8-.6-2.64-.96Zm2.76,1.08c.48.12.84.36,1.32.48-.48-.24-.84-.36-1.32-.48Zm1.32.48c.48.12.84.36,1.32.48-.48-.12-.84-.36-1.32-.48Zm1.44.48c.36.12.84.36,1.2.48-.36-.12-.72-.24-1.2-.48Zm1.32.6c.48.12.84.36,1.2.48l-1.2-.48Zm1.32.48c.36.12.84.36,1.2.48-.36-.12-.72-.24-1.2-.48Zm1.44.6l1.08.48c-.36-.12-.72-.36-1.08-.48Zm1.32.6c.36.12.72.36,1.2.48-.48-.24-.84-.36-1.2-.48Zm1.32.48c.36.12.72.36,1.2.48l-1.2-.48Zm1.32.6l.96.48c-.36-.12-.72-.36-.96-.48Zm1.08.48c.36.12.72.36,1.08.48-.36-.12-.72-.24-1.08-.48Zm1.32.6c.36.12.72.36,1.08.48-.36-.12-.72-.24-1.08-.48Zm1.32.6c.36.12.72.36.96.48l-.96-.48Zm1.08.6c.36.12.72.36,1.08.48-.36-.12-.72-.24-1.08-.48Zm1.2.6c.36.24.72.36,1.08.6-.36-.24-.72-.48-1.08-.6Zm1.2.6c.36.24.72.36,1.08.6-.36-.24-.72-.36-1.08-.6Zm1.2.6c.36.24.72.36,1.08.6-.36-.24-.72-.36-1.08-.6Zm1.08.6c.36.12.6.36.96.48-.24-.12-.6-.24-.96-.48Zm1.2.72c.36.12.6.36.96.6-.36-.24-.6-.48-.96-.6Zm1.2.6c.36.24.6.36.96.6-.36-.24-.72-.36-.96-.6Zm1.08.72c.36.24.72.36.96.6-.36-.24-.6-.48-.96-.6Zm1.08.6c.36.24.72.48,1.08.6-.48-.24-.72-.36-1.08-.6Zm.96.6c.36.24.6.36.96.6-.24-.12-.6-.36-.96-.6Zm1.2.72c.36.24.6.36.96.6-.36-.12-.72-.36-.96-.6Zm1.08.72c.36.24.6.36.96.6-.36-.12-.6-.36-.96-.6Zm.96.72c.36.24.6.48.96.6-.36-.24-.6-.36-.96-.6Zm1.08.72c.36.24.6.48.96.72-.36-.36-.72-.6-.96-.72Zm.96.72c.36.24.6.48.96.72-.36-.36-.6-.48-.96-.72Zm1.08.72c.24.24.6.48.84.72-.24-.24-.48-.48-.84-.72Zm.96.72c.24.24.6.48.84.72-.24-.24-.48-.48-.84-.72Zm.96.84c.24.24.6.48.84.72-.24-.36-.48-.48-.84-.72Zm1.08.72c.24.24.6.48.84.72-.36-.24-.6-.48-.84-.72Zm.96.84c.24.24.6.48.84.72-.24-.24-.6-.48-.84-.72Zm7.68,76.08c-.84-1.56-3.24-1.32-4.56,1.56-8.4,19.44-28.44,53.28-46.44,73.68-32.52,36.96-69.36,69.6-81.84,79.68-89.28,72.36-195.6,109.56-330,92.52l-61.08-11.04c-22.56-5.28-57.96-17.28-79.68-26.88-6.84-3-18.72-8.76-25.2-10.68,33.12,22.92,131.64,61.92,174.24,75.72,8.04,2.64,20.28,5.4,27.36,8.28.12,8.28,3,9.48,8.88,12.48l41.4,20.52c155.28,71.88,342.36,25.32,433.08-120.84,4.32-6.84,15.6-18.6,9.36-28.2-2.28-3.36-8.16-7.08-14.16-3.96-25.44,25.68-104.04,198.84-344.88,156.24-11.52-2.52-21.6-6.36-30.48-10.32l13.68-2.4c140.76-6.24,272.64-113.76,310.2-217.32,6.96-24.72,14.76-61.56.12-89.04h0Z"/><path class="s" d="m423.28,270.11c2.88,16.56.84,32.76,27.72,38.64-28.68,3.12-27.36,38.64-27.6,38.64-2.4-29.88-18.48-38.64-32.52-38.64,30,0,30-30.96,32.4-38.64Z"/><path class="u" d="m356.92,304.31c1.44,6.48.36,12.72,14.04,15.12-14.52,1.2-13.92,15-14.04,15-1.2-11.64-9.36-15-16.44-15,15.36,0,15.36-12,16.44-15.12Z"/><path class="ac" d="m340.12,351.23c1.8,8.28.6,16.32,18.12,19.32-18.6,1.56-17.76,19.32-18,19.32-1.56-14.88-12-19.32-21.12-19.32,19.44,0,19.44-15.48,21-19.32h0Z"/><path class="ae" d="m291.88,399.35c1.8,8.28.6,16.32,18,19.32-18.6,1.56-17.76,19.32-18,19.32-1.56-14.88-12-19.32-21.12-19.32,19.56,0,19.56-15.48,21.12-19.32h0Z"/><path class="y" d="m673.12,730.91c.96,4.2.24,8.16,9,9.72-9.36.72-8.88,9.6-9,9.6-.84-7.44-6-9.72-10.56-9.6,9.84-.12,9.84-7.8,10.56-9.72h0Z"/><path class="ad" d="m786.76,614.39c1.08,4.8.36,9.48,10.44,11.16-10.8.84-10.32,11.16-10.32,11.16-.96-8.64-6.96-11.16-12.24-11.16,11.16,0,11.16-9,12.12-11.16h0Z"/><path class="w" d="m880.48,477.23c3.6,16.2,1.08,31.92,35.28,37.8-36.36,3-34.8,37.68-35.16,37.68-3.12-29.16-23.4-37.68-41.28-37.68,38.16,0,38.16-30.24,41.16-37.8Z"/><path class="t" d="m912.4,601.79c2.28,10.44.72,20.64,22.8,24.36-23.52,1.92-22.44,24.36-22.68,24.36-2.04-18.84-15.12-24.36-26.64-24.36,24.72,0,24.72-19.44,26.52-24.36Z"/><path class="aa" d="m879.4,665.87c2.28,11.52.72,22.68,22.8,26.88-23.52,2.16-22.44,26.76-22.68,26.76-2.04-20.64-15.12-26.76-26.64-26.76,24.6-.12,24.6-21.6,26.52-26.88Z"/><path class="r" d="m816.52,747.59c2.28,13.2.72,26.16,22.8,30.96-23.52,2.52-22.44,30.84-22.68,30.84-2.04-23.88-15.12-30.96-26.64-30.84,24.6,0,24.6-24.84,26.52-30.96Z"/><path class="r" d="m835.12,565.31c2.04,11.52.6,22.68,19.68,26.88-20.4,2.16-19.44,26.76-19.68,26.76-1.68-20.64-13.08-26.76-23.16-26.76,21.48-.12,21.48-21.6,23.16-26.88Z"/><path class="r" d="m525.52,215.63c3.12,17.52.84,34.56,30,40.8-30.96,3.24-29.64,40.68-29.88,40.68-2.64-31.44-19.92-40.8-35.16-40.68,32.52,0,32.52-32.64,35.04-40.8h0Z"/><circle class="ab" cx="255.76" cy="450.83" r="3.96"/><circle class="z" cx="459.04" cy="252.23" r="8.04"/><circle class="ah" cx="713.2" cy="700.19" r="8.04"/><circle class="ag" cx="628.48" cy="764.99" r="5.16"/><circle class="af" cx="761.44" cy="787.91" r="5.16"/><circle class="x" cx="833.44" cy="724.67" r="5.16"/><path class="r" d="m660.4,364.31c12.12.48,45.12,9.48,57.24,13.68,18.12,6.24,31.8,12.96,43.32,22.92l54.84-37.56-155.4.96h0Z"/><path class="r" d="m815.8,363.47l-1.56,188.16,16.56-69.84c11.04-44.04,25.32-79.08,68.52-98.64,13.68-6.24,49.44-18,64.56-19.32l-148.08-.36h0Z"/><path class="r" d="m866.8,323.87c-31.8-29.28-41.52-74.76-47.64-136.08-.36-5.76.84-1.08-.72-2.28-2.52-1.92.12-1.92-1.68-.12.12,5.52-.96,10.92.6,15.6-2.28,4.44-1.56,21.24-1.68,39-.24,39.12,1.32,85.44.12,123.24l51-39.36h0Z"/><path class="ai" d="m557.8,393.23c.24,0-.48,0,0,0Zm-148.08,181.08c1.68,0,3,1.32,3,3s-1.32,3-3,3-3-1.32-3-3c0-1.56,1.32-3,3-3Zm11.16-22.92c2.04,0,3.6,1.56,3.6,3.6s-1.56,3.6-3.6,3.6-3.6-1.56-3.6-3.6,1.68-3.6,3.6-3.6Zm136.08-89.4c2.04,0,3.6,1.56,3.6,3.6s-1.56,3.6-3.6,3.6-3.6-1.56-3.6-3.6,1.68-3.6,3.6-3.6Zm40.2,90.72c1.2,0,2.16.96,2.16,2.16s-.96,2.16-2.16,2.16-2.16-.96-2.16-2.16c-.12-1.08.84-2.16,2.16-2.16Zm-32.28,162.12c1.2,0,2.16.96,2.16,2.16s-.96,2.16-2.16,2.16-2.16-.96-2.16-2.16c-.12-1.08.84-2.16,2.16-2.16Zm79.92-66c1.92,8.64.6,16.92,18.72,20.04-19.32,1.56-18.48,20.04-18.6,20.04-1.68-15.48-12.48-20.04-21.96-20.04,20.28,0,20.28-15.96,21.84-20.04Zm-140.88,70.92c1.32,6,.36,11.76,12.96,13.92-13.44,1.08-12.84,13.92-12.96,13.92-1.08-10.8-8.64-13.92-15.24-13.92,14.04,0,14.04-11.16,15.24-13.92h0Zm-126.36-151.08c1.32,6,.36,11.76,12.96,13.92-13.44,1.08-12.84,13.92-12.96,13.92-1.08-10.8-8.64-13.92-15.24-13.92,14.16,0,14.16-11.16,15.24-13.92h0Zm88.8,51.84c2.88,12.84.84,25.44,27.96,30-28.92,2.4-27.6,30-27.96,30-2.4-23.16-18.6-30-32.76-30,30.36,0,30.36-24,32.76-30h0Zm-.48-105.48c2.28,10.44.72,20.64,22.8,24.36-23.52,1.92-22.44,24.36-22.68,24.36-2.04-18.84-15.12-24.36-26.64-24.36,24.6,0,24.6-19.56,26.52-24.36h0Zm49.44-24.36c2.28,10.44.72,20.64,22.8,24.36-23.52,1.92-22.44,24.36-22.68,24.36-2.04-18.84-15.12-24.36-26.64-24.36,24.6,0,24.6-19.56,26.52-24.36Zm228.12-197.64c2.28-1.56,22.08-17.16,22.68-18.24-98.64-27.72-219.12,28.2-301.2,82.8-18.6,12.36-36.96,24.36-55.44,36.96-38.88,26.64-127.92,87.72-165.48,96.72-7.32-8.88-2.16-4.32-13.08-9.72,3.96-168,188.28-303.96,354.84-280.08,28.92,4.2,57.96,13.2,82.44,24.12,8.52,3.84,28.92,17.28,36.6,15,6.48-1.92,18.24-14.28-10.08-27.96-225.84-109.32-485.04,45-488.28,296.16-16.44,12.6-131.16,48.84-159.48,52.2l-6.48.72c1.92,1.32-3.12,1.56,4.08,1.44,3.6,0,3.36-.96,4.32-1.68,17.64,1.92,76.2-11.64,94.8-16.56,67.68-18,138.6-47.04,199.32-80.4,39.96-22.44,128.52-84.12,156.96-99.24.12,0-192.12,199.56-467.52,222.12,13.08,4.44,90.72,2.4,108.72.96,85.68-6.84,146.76-27.6,222.24-61.44,73.2-32.76,133.44-80.4,198.24-126,32.52-22.8,76.08-55.8,113.4-67.92,20.76-5.88,6.24-23.76-23.28-13.68-58.56,17.04-128.28,67.68-128.28,67.56,16.8-18.24,60.36-59.52,99.84-74.04,52.92-25.44,119.4-19.32,120.12-19.8h0Zm-34.08,225.36c11.04-12,60.24-84.12,28.44-84.12-4.92,3-20.76,26.64-22.32,30.12-14.28,16.32-29.76,35.64-47.28,48,15.24-21.36,66.36-72,62.76-94.92-.84-5.64-5.88-12.72-13.56-9.84-2.88,1.08-23.64,27.24-28.56,33.48-11.28,15.6-48.24,52.68-62.64,65.64-133.8,119.88-303.48,180.24-503.52,141.72-10.08-1.92-19.92-3.72-30-5.88-9.12-1.92-20.16-6.72-28.2-7.68,10.32,7.68,82.08,32.4,98.04,36.84,239.88,67.2,356.04,28.2,514.92-113.28,4.56-5.52,31.08-37.56,31.92-40.08h0Zm-163.2-24.36c-12.12,12.36,50.4-38.28,63.6-46.68,17.04-17.4,38.64-32.16,56.04-50.16,17.52-18.24,23.4,6.12,17.64,13.92-44.16,48.6-135.24,136.44-231.6,177.96-65.4,28.2-130.68,41.52-184.32,44.76-40.56,2.52-77.28.48-117.72-3.6-16.08-1.56-92.04-14.4-102.96-19.92,41.88-.12,78.84,3.72,121.56-.96,38.16-4.2,68.64-10.44,103.68-20.28,59.16-17.28,118.08-45,171-74.64,61.32-34.44,110.76-72.6,144.84-98.52,27.96-21.24,44.28-39.24,51-29.76,19.32,19.56-81.84,96.84-92.76,107.88h0Zm269.64-130.56l-1.56,188.16c-3.6-38.16-10.56-88.32-30-121.44-7.32-12.48-14.88-21.84-23.76-29.4l.36.36,54.96-37.68,51-39.48c-.12-.12-.36-.36-.48-.48,20.04,18.72,48.84,30.84,91.32,36.24,4.2.84,3.84.24,6.36,2.28l1.44-.6c2.04,1.32,2.52-1.8,1.8,1.68l-3.36.72-148.08-.36-58.56-29.88c18.72-6.6,42.84-56.28,42.84-78.36-12.12,39.24-21.12,57.6-49.08,76.32-29.52,19.68-61.92,24.12-90.72,32.76l155.52-.84h0Zm50.16-40.44c-.72-.72-1.44-1.32-2.16-2.04.72.72,1.44,1.44,2.16,2.04Zm-2.28-2.16c-.6-.6-1.32-1.32-1.92-2.04.6.72,1.2,1.32,1.92,2.04Zm-2.28-2.4c-.6-.72-1.32-1.44-1.92-2.16.6.84,1.2,1.56,1.92,2.16Zm-2.28-2.52c-1.32-1.44-2.52-3-3.72-4.56,1.08,1.56,2.4,3.12,3.72,4.56Zm-4.08-4.92c-.6-.72-1.2-1.56-1.68-2.28.48.72,1.08,1.56,1.68,2.28Zm-2.04-2.64c-.48-.72-1.08-1.44-1.56-2.28.48.72.96,1.56,1.56,2.28Zm-1.8-2.52c-.6-.84-1.08-1.56-1.56-2.4.48.84,1.08,1.68,1.56,2.4Zm-1.92-2.88c-.48-.84-1.08-1.68-1.56-2.4.6.72,1.08,1.56,1.56,2.4Zm-1.68-2.76c-.48-.84-.96-1.56-1.44-2.4.48.84.96,1.68,1.44,2.4Zm-1.68-2.76c-.48-.84-.96-1.68-1.44-2.52.48.84.96,1.68,1.44,2.52Zm-1.68-3.12c-.48-.84-.96-1.8-1.44-2.64.6.96.96,1.8,1.44,2.64Zm-1.32-2.64c-.48-.84-.84-1.8-1.32-2.76.36.96.84,1.8,1.32,2.76Zm-1.56-3.24c-.36-.84-.84-1.8-1.2-2.76.36.96.72,1.8,1.2,2.76Zm-1.56-3.24c-.36-.84-.72-1.8-1.2-2.64.48.84.84,1.8,1.2,2.64Zm-1.2-2.88c-.36-.96-.84-1.92-1.2-2.88.48.96.84,1.92,1.2,2.88Zm-1.32-3.48c-.36-.96-.72-1.92-1.08-2.88.24.96.6,1.92,1.08,2.88Zm-1.32-3.24c-.36-.96-.6-1.8-.96-2.76.36.96.6,1.8.96,2.76Zm-1.08-3.24c-.36-.96-.72-1.92-.96-3,.24.96.6,2.04.96,3Zm-1.2-3.6c-.36-.96-.6-2.04-.96-3.12.24,1.08.6,2.04.96,3.12Zm-1.08-3.36c-.36-.96-.6-2.04-.84-3,.24,1.08.6,2.04.84,3Zm-1.08-3.48c-.24-1.08-.6-2.04-.84-3.12.36.96.6,2.04.84,3.12Zm-.96-3.84c-.24-1.08-.6-2.16-.84-3.24.24,1.08.48,2.16.84,3.24Zm-.84-3.24c-.24-1.08-.6-2.16-.84-3.36.24,1.08.48,2.16.84,3.36Zm-.96-4.08c-.24-1.08-.48-2.16-.72-3.24.12,1.08.36,2.16.72,3.24Zm-.96-3.84c-.24-1.08-.48-2.04-.72-3.12.36,1.08.48,2.16.72,3.12Zm-.72-3.6c-.24-1.08-.48-2.28-.72-3.48.24,1.2.48,2.28.72,3.48Zm-.84-4.08c-.24-1.2-.48-2.4-.72-3.6.24,1.2.48,2.4.72,3.6Zm-.72-3.84c-.24-1.08-.36-2.28-.6-3.48.24,1.2.36,2.28.6,3.48Zm-.72-4.08c-.24-1.2-.36-2.4-.6-3.6.24,1.2.36,2.4.6,3.6Zm-.72-4.32c-.24-1.2-.36-2.4-.6-3.6.24,1.2.48,2.4.6,3.6Zm-.6-3.84c-.24-1.2-.36-2.52-.6-3.72.24,1.32.48,2.52.6,3.72Zm-.6-4.44c-.12-1.2-.36-2.52-.48-3.72.12,1.32.24,2.52.48,3.72Zm-.6-4.32c-.12-1.2-.36-2.4-.48-3.6.12,1.2.24,2.4.48,3.6Zm-.6-4.08c-.12-1.32-.36-2.64-.48-3.96.24,1.44.36,2.64.48,3.96Zm-.6-4.68c-.12-1.32-.36-2.64-.48-3.96.24,1.32.36,2.64.48,3.96Zm-.48-4.44c-.12-1.2-.24-2.52-.48-3.72.24,1.2.36,2.52.48,3.72Zm-.48-4.32c-.12-1.32-.24-2.64-.48-3.96.24,1.32.36,2.64.48,3.96Zm-.48-4.92c-.12-1.32-.24-2.76-.48-4.2.12,1.44.36,2.88.48,4.2Zm-98.88,187.08c.84.36,1.8.6,2.64.96-.96-.24-1.8-.6-2.64-.96Zm2.76,1.08c.48.12.84.36,1.32.48-.48-.24-.84-.36-1.32-.48Zm1.32.48c.48.12.84.36,1.32.48-.48-.12-.84-.36-1.32-.48Zm1.44.48c.36.12.84.36,1.2.48-.36-.12-.72-.24-1.2-.48Zm1.32.6c.48.12.84.36,1.2.48l-1.2-.48Zm1.32.48c.36.12.84.36,1.2.48-.36-.12-.72-.24-1.2-.48Zm1.44.6l1.08.48c-.36-.12-.72-.36-1.08-.48Zm1.32.6c.36.12.72.36,1.2.48-.48-.24-.84-.36-1.2-.48Zm1.32.48c.36.12.72.36,1.2.48l-1.2-.48Zm1.32.6l.96.48c-.36-.12-.72-.36-.96-.48Zm1.08.48c.36.12.72.36,1.08.48-.36-.12-.72-.24-1.08-.48Zm1.32.6c.36.12.72.36,1.08.48-.36-.12-.72-.24-1.08-.48Zm1.32.6c.36.12.72.36.96.48l-.96-.48Zm1.08.6c.36.12.72.36,1.08.48-.36-.12-.72-.24-1.08-.48Zm1.2.6c.36.24.72.36,1.08.6-.36-.24-.72-.48-1.08-.6Zm1.2.6c.36.24.72.36,1.08.6-.36-.24-.72-.36-1.08-.6Zm1.2.6c.36.24.72.36,1.08.6-.36-.24-.72-.36-1.08-.6Zm1.08.6c.36.12.6.36.96.48-.24-.12-.6-.24-.96-.48Zm1.2.72c.36.12.6.36.96.6-.36-.24-.6-.48-.96-.6Zm1.2.6c.36.24.6.36.96.6-.36-.24-.72-.36-.96-.6Zm1.08.72c.36.24.72.36.96.6-.36-.24-.6-.48-.96-.6Zm1.08.6c.36.24.72.48,1.08.6-.48-.24-.72-.36-1.08-.6Zm.96.6c.36.24.6.36.96.6-.24-.12-.6-.36-.96-.6Zm1.2.72c.36.24.6.36.96.6-.36-.12-.72-.36-.96-.6Zm1.08.72c.36.24.6.36.96.6-.36-.12-.6-.36-.96-.6Zm.96.72c.36.24.6.48.96.6-.36-.24-.6-.36-.96-.6Zm1.08.72c.36.24.6.48.96.72-.36-.36-.72-.6-.96-.72Zm.96.72c.36.24.6.48.96.72-.36-.36-.6-.48-.96-.72Zm1.08.72c.24.24.6.48.84.72-.24-.24-.48-.48-.84-.72Zm.96.72c.24.24.6.48.84.72-.24-.24-.48-.48-.84-.72Zm.96.84c.24.24.6.48.84.72-.24-.36-.48-.48-.84-.72Zm1.08.72c.24.24.6.48.84.72-.36-.24-.6-.48-.84-.72Zm.96.84c.24.24.6.48.84.72-.24-.24-.6-.48-.84-.72Zm7.68,76.08c-.84-1.56-3.24-1.32-4.56,1.56-8.4,19.44-28.44,53.28-46.44,73.68-32.52,36.96-69.36,69.6-81.84,79.68-89.28,72.36-195.6,109.56-330,92.52l-61.08-11.04c-22.56-5.28-57.96-17.28-79.68-26.88-6.84-3-18.72-8.76-25.2-10.68,33.12,22.92,131.64,61.92,174.24,75.72,8.04,2.64,20.28,5.4,27.36,8.28.12,8.28,3,9.48,8.88,12.48l41.4,20.52c155.28,71.88,342.36,25.32,433.08-120.84,4.32-6.84,15.6-18.6,9.36-28.2-2.28-3.36-8.16-7.08-14.16-3.96-25.44,25.68-104.04,198.84-344.88,156.24-11.52-2.52-21.6-6.36-30.48-10.32l13.68-2.4c140.76-6.24,272.64-113.76,310.2-217.32,6.96-24.72,14.76-61.56.12-89.04h0Z"/><path class="ai" d="m557.8,393.23c.24,0-.48,0,0,0Zm-148.08,181.08c1.68,0,3,1.32,3,3s-1.32,3-3,3-3-1.32-3-3c0-1.56,1.32-3,3-3Zm11.16-22.92c2.04,0,3.6,1.56,3.6,3.6s-1.56,3.6-3.6,3.6-3.6-1.56-3.6-3.6,1.68-3.6,3.6-3.6Zm136.08-89.4c2.04,0,3.6,1.56,3.6,3.6s-1.56,3.6-3.6,3.6-3.6-1.56-3.6-3.6,1.68-3.6,3.6-3.6Zm40.2,90.72c1.2,0,2.16.96,2.16,2.16s-.96,2.16-2.16,2.16-2.16-.96-2.16-2.16c-.12-1.08.84-2.16,2.16-2.16Zm-32.28,162.12c1.2,0,2.16.96,2.16,2.16s-.96,2.16-2.16,2.16-2.16-.96-2.16-2.16c-.12-1.08.84-2.16,2.16-2.16Zm79.92-66c1.92,8.64.6,16.92,18.72,20.04-19.32,1.56-18.48,20.04-18.6,20.04-1.68-15.48-12.48-20.04-21.96-20.04,20.28,0,20.28-15.96,21.84-20.04Zm-140.88,70.92c1.32,6,.36,11.76,12.96,13.92-13.44,1.08-12.84,13.92-12.96,13.92-1.08-10.8-8.64-13.92-15.24-13.92,14.04,0,14.04-11.16,15.24-13.92h0Zm-126.36-151.08c1.32,6,.36,11.76,12.96,13.92-13.44,1.08-12.84,13.92-12.96,13.92-1.08-10.8-8.64-13.92-15.24-13.92,14.16,0,14.16-11.16,15.24-13.92h0Zm88.8,51.84c2.88,12.84.84,25.44,27.96,30-28.92,2.4-27.6,30-27.96,30-2.4-23.16-18.6-30-32.76-30,30.36,0,30.36-24,32.76-30h0Zm-.48-105.48c2.28,10.44.72,20.64,22.8,24.36-23.52,1.92-22.44,24.36-22.68,24.36-2.04-18.84-15.12-24.36-26.64-24.36,24.6,0,24.6-19.56,26.52-24.36h0Zm49.44-24.36c2.28,10.44.72,20.64,22.8,24.36-23.52,1.92-22.44,24.36-22.68,24.36-2.04-18.84-15.12-24.36-26.64-24.36,24.6,0,24.6-19.56,26.52-24.36Zm228.12-197.64c2.28-1.56,22.08-17.16,22.68-18.24-98.64-27.72-219.12,28.2-301.2,82.8-18.6,12.36-36.96,24.36-55.44,36.96-38.88,26.64-127.92,87.72-165.48,96.72-7.32-8.88-2.16-4.32-13.08-9.72,3.96-168,188.28-303.96,354.84-280.08,28.92,4.2,57.96,13.2,82.44,24.12,8.52,3.84,28.92,17.28,36.6,15,6.48-1.92,18.24-14.28-10.08-27.96-225.84-109.32-485.04,45-488.28,296.16-16.44,12.6-131.16,48.84-159.48,52.2l-6.48.72c1.92,1.32-3.12,1.56,4.08,1.44,3.6,0,3.36-.96,4.32-1.68,17.64,1.92,76.2-11.64,94.8-16.56,67.68-18,138.6-47.04,199.32-80.4,39.96-22.44,128.52-84.12,156.96-99.24.12,0-192.12,199.56-467.52,222.12,13.08,4.44,90.72,2.4,108.72.96,85.68-6.84,146.76-27.6,222.24-61.44,73.2-32.76,133.44-80.4,198.24-126,32.52-22.8,76.08-55.8,113.4-67.92,20.76-5.88,6.24-23.76-23.28-13.68-58.56,17.04-128.28,67.68-128.28,67.56,16.8-18.24,60.36-59.52,99.84-74.04,52.92-25.44,119.4-19.32,120.12-19.8h0Zm-34.08,225.36c11.04-12,60.24-84.12,28.44-84.12-4.92,3-20.76,26.64-22.32,30.12-14.28,16.32-29.76,35.64-47.28,48,15.24-21.36,66.36-72,62.76-94.92-.84-5.64-5.88-12.72-13.56-9.84-2.88,1.08-23.64,27.24-28.56,33.48-11.28,15.6-48.24,52.68-62.64,65.64-133.8,119.88-303.48,180.24-503.52,141.72-10.08-1.92-19.92-3.72-30-5.88-9.12-1.92-20.16-6.72-28.2-7.68,10.32,7.68,82.08,32.4,98.04,36.84,239.88,67.2,356.04,28.2,514.92-113.28,4.56-5.52,31.08-37.56,31.92-40.08h0Zm-163.2-24.36c-12.12,12.36,50.4-38.28,63.6-46.68,17.04-17.4,38.64-32.16,56.04-50.16,17.52-18.24,23.4,6.12,17.64,13.92-44.16,48.6-135.24,136.44-231.6,177.96-65.4,28.2-130.68,41.52-184.32,44.76-40.56,2.52-77.28.48-117.72-3.6-16.08-1.56-92.04-14.4-102.96-19.92,41.88-.12,78.84,3.72,121.56-.96,38.16-4.2,68.64-10.44,103.68-20.28,59.16-17.28,118.08-45,171-74.64,61.32-34.44,110.76-72.6,144.84-98.52,27.96-21.24,44.28-39.24,51-29.76,19.32,19.56-81.84,96.84-92.76,107.88h0Zm269.64-130.56l-1.56,188.16c-3.6-38.16-10.56-88.32-30-121.44-7.32-12.48-14.88-21.84-23.76-29.4l.36.36,54.96-37.68,51-39.48c-.12-.12-.36-.36-.48-.48,20.04,18.72,48.84,30.84,91.32,36.24,4.2.84,3.84.24,6.36,2.28l1.44-.6c2.04,1.32,2.52-1.8,1.8,1.68l-3.36.72-148.08-.36-58.56-29.88c18.72-6.6,42.84-56.28,42.84-78.36-12.12,39.24-21.12,57.6-49.08,76.32-29.52,19.68-61.92,24.12-90.72,32.76l155.52-.84h0Zm50.16-40.44c-.72-.72-1.44-1.32-2.16-2.04.72.72,1.44,1.44,2.16,2.04Zm-2.28-2.16c-.6-.6-1.32-1.32-1.92-2.04.6.72,1.2,1.32,1.92,2.04Zm-2.28-2.4c-.6-.72-1.32-1.44-1.92-2.16.6.84,1.2,1.56,1.92,2.16Zm-2.28-2.52c-1.32-1.44-2.52-3-3.72-4.56,1.08,1.56,2.4,3.12,3.72,4.56Zm-4.08-4.92c-.6-.72-1.2-1.56-1.68-2.28.48.72,1.08,1.56,1.68,2.28Zm-2.04-2.64c-.48-.72-1.08-1.44-1.56-2.28.48.72.96,1.56,1.56,2.28Zm-1.8-2.52c-.6-.84-1.08-1.56-1.56-2.4.48.84,1.08,1.68,1.56,2.4Zm-1.92-2.88c-.48-.84-1.08-1.68-1.56-2.4.6.72,1.08,1.56,1.56,2.4Zm-1.68-2.76c-.48-.84-.96-1.56-1.44-2.4.48.84.96,1.68,1.44,2.4Zm-1.68-2.76c-.48-.84-.96-1.68-1.44-2.52.48.84.96,1.68,1.44,2.52Zm-1.68-3.12c-.48-.84-.96-1.8-1.44-2.64.6.96.96,1.8,1.44,2.64Zm-1.32-2.64c-.48-.84-.84-1.8-1.32-2.76.36.96.84,1.8,1.32,2.76Zm-1.56-3.24c-.36-.84-.84-1.8-1.2-2.76.36.96.72,1.8,1.2,2.76Zm-1.56-3.24c-.36-.84-.72-1.8-1.2-2.64.48.84.84,1.8,1.2,2.64Zm-1.2-2.88c-.36-.96-.84-1.92-1.2-2.88.48.96.84,1.92,1.2,2.88Zm-1.32-3.48c-.36-.96-.72-1.92-1.08-2.88.24.96.6,1.92,1.08,2.88Zm-1.32-3.24c-.36-.96-.6-1.8-.96-2.76.36.96.6,1.8.96,2.76Zm-1.08-3.24c-.36-.96-.72-1.92-.96-3,.24.96.6,2.04.96,3Zm-1.2-3.6c-.36-.96-.6-2.04-.96-3.12.24,1.08.6,2.04.96,3.12Zm-1.08-3.36c-.36-.96-.6-2.04-.84-3,.24,1.08.6,2.04.84,3Zm-1.08-3.48c-.24-1.08-.6-2.04-.84-3.12.36.96.6,2.04.84,3.12Zm-.96-3.84c-.24-1.08-.6-2.16-.84-3.24.24,1.08.48,2.16.84,3.24Zm-.84-3.24c-.24-1.08-.6-2.16-.84-3.36.24,1.08.48,2.16.84,3.36Zm-.96-4.08c-.24-1.08-.48-2.16-.72-3.24.12,1.08.36,2.16.72,3.24Zm-.96-3.84c-.24-1.08-.48-2.04-.72-3.12.36,1.08.48,2.16.72,3.12Zm-.72-3.6c-.24-1.08-.48-2.28-.72-3.48.24,1.2.48,2.28.72,3.48Zm-.84-4.08c-.24-1.2-.48-2.4-.72-3.6.24,1.2.48,2.4.72,3.6Zm-.72-3.84c-.24-1.08-.36-2.28-.6-3.48.24,1.2.36,2.28.6,3.48Zm-.72-4.08c-.24-1.2-.36-2.4-.6-3.6.24,1.2.36,2.4.6,3.6Zm-.72-4.32c-.24-1.2-.36-2.4-.6-3.6.24,1.2.48,2.4.6,3.6Zm-.6-3.84c-.24-1.2-.36-2.52-.6-3.72.24,1.32.48,2.52.6,3.72Zm-.6-4.44c-.12-1.2-.36-2.52-.48-3.72.12,1.32.24,2.52.48,3.72Zm-.6-4.32c-.12-1.2-.36-2.4-.48-3.6.12,1.2.24,2.4.48,3.6Zm-.6-4.08c-.12-1.32-.36-2.64-.48-3.96.24,1.44.36,2.64.48,3.96Zm-.6-4.68c-.12-1.32-.36-2.64-.48-3.96.24,1.32.36,2.64.48,3.96Zm-.48-4.44c-.12-1.2-.24-2.52-.48-3.72.24,1.2.36,2.52.48,3.72Zm-.48-4.32c-.12-1.32-.24-2.64-.48-3.96.24,1.32.36,2.64.48,3.96Zm-.48-4.92c-.12-1.32-.24-2.76-.48-4.2.12,1.44.36,2.88.48,4.2Zm-98.88,187.08c.84.36,1.8.6,2.64.96-.96-.24-1.8-.6-2.64-.96Zm2.76,1.08c.48.12.84.36,1.32.48-.48-.24-.84-.36-1.32-.48Zm1.32.48c.48.12.84.36,1.32.48-.48-.12-.84-.36-1.32-.48Zm1.44.48c.36.12.84.36,1.2.48-.36-.12-.72-.24-1.2-.48Zm1.32.6c.48.12.84.36,1.2.48l-1.2-.48Zm1.32.48c.36.12.84.36,1.2.48-.36-.12-.72-.24-1.2-.48Zm1.44.6l1.08.48c-.36-.12-.72-.36-1.08-.48Zm1.32.6c.36.12.72.36,1.2.48-.48-.24-.84-.36-1.2-.48Zm1.32.48c.36.12.72.36,1.2.48l-1.2-.48Zm1.32.6l.96.48c-.36-.12-.72-.36-.96-.48Zm1.08.48c.36.12.72.36,1.08.48-.36-.12-.72-.24-1.08-.48Zm1.32.6c.36.12.72.36,1.08.48-.36-.12-.72-.24-1.08-.48Zm1.32.6c.36.12.72.36.96.48l-.96-.48Zm1.08.6c.36.12.72.36,1.08.48-.36-.12-.72-.24-1.08-.48Zm1.2.6c.36.24.72.36,1.08.6-.36-.24-.72-.48-1.08-.6Zm1.2.6c.36.24.72.36,1.08.6-.36-.24-.72-.36-1.08-.6Zm1.2.6c.36.24.72.36,1.08.6-.36-.24-.72-.36-1.08-.6Zm1.08.6c.36.12.6.36.96.48-.24-.12-.6-.24-.96-.48Zm1.2.72c.36.12.6.36.96.6-.36-.24-.6-.48-.96-.6Zm1.2.6c.36.24.6.36.96.6-.36-.24-.72-.36-.96-.6Zm1.08.72c.36.24.72.36.96.6-.36-.24-.6-.48-.96-.6Zm1.08.6c.36.24.72.48,1.08.6-.48-.24-.72-.36-1.08-.6Zm.96.6c.36.24.6.36.96.6-.24-.12-.6-.36-.96-.6Zm1.2.72c.36.24.6.36.96.6-.36-.12-.72-.36-.96-.6Zm1.08.72c.36.24.6.36.96.6-.36-.12-.6-.36-.96-.6Zm.96.72c.36.24.6.48.96.6-.36-.24-.6-.36-.96-.6Zm1.08.72c.36.24.6.48.96.72-.36-.36-.72-.6-.96-.72Zm.96.72c.36.24.6.48.96.72-.36-.36-.6-.48-.96-.72Zm1.08.72c.24.24.6.48.84.72-.24-.24-.48-.48-.84-.72Zm.96.72c.24.24.6.48.84.72-.24-.24-.48-.48-.84-.72Zm.96.84c.24.24.6.48.84.72-.24-.36-.48-.48-.84-.72Zm1.08.72c.24.24.6.48.84.72-.36-.24-.6-.48-.84-.72Zm.96.84c.24.24.6.48.84.72-.24-.24-.6-.48-.84-.72Zm7.68,76.08c-.84-1.56-3.24-1.32-4.56,1.56-8.4,19.44-28.44,53.28-46.44,73.68-32.52,36.96-69.36,69.6-81.84,79.68-89.28,72.36-195.6,109.56-330,92.52l-61.08-11.04c-22.56-5.28-57.96-17.28-79.68-26.88-6.84-3-18.72-8.76-25.2-10.68,33.12,22.92,131.64,61.92,174.24,75.72,8.04,2.64,20.28,5.4,27.36,8.28.12,8.28,3,9.48,8.88,12.48l41.4,20.52c155.28,71.88,342.36,25.32,433.08-120.84,4.32-6.84,15.6-18.6,9.36-28.2-2.28-3.36-8.16-7.08-14.16-3.96-25.44,25.68-104.04,198.84-344.88,156.24-11.52-2.52-21.6-6.36-30.48-10.32l13.68-2.4c140.76-6.24,272.64-113.76,310.2-217.32,6.96-24.72,14.76-61.56.12-89.04h0Z"/><path class="ai" d="m423.28,270.11c2.88,16.56.84,32.76,27.72,38.64-28.68,3.12-27.36,38.64-27.6,38.64-2.4-29.88-18.48-38.64-32.52-38.64,30,0,30-30.96,32.4-38.64Z"/><path class="ai" d="m423.28,270.11c2.88,16.56.84,32.76,27.72,38.64-28.68,3.12-27.36,38.64-27.6,38.64-2.4-29.88-18.48-38.64-32.52-38.64,30,0,30-30.96,32.4-38.64Z"/><path class="ai" d="m356.92,304.31c1.44,6.48.36,12.72,14.04,15.12-14.52,1.2-13.92,15-14.04,15-1.2-11.64-9.36-15-16.44-15,15.36,0,15.36-12,16.44-15.12Z"/><path class="ai" d="m356.92,304.31c1.44,6.48.36,12.72,14.04,15.12-14.52,1.2-13.92,15-14.04,15-1.2-11.64-9.36-15-16.44-15,15.36,0,15.36-12,16.44-15.12Z"/><path class="ai" d="m340.12,351.23c1.8,8.28.6,16.32,18.12,19.32-18.6,1.56-17.76,19.32-18,19.32-1.56-14.88-12-19.32-21.12-19.32,19.44,0,19.44-15.48,21-19.32h0Z"/><path class="ai" d="m340.12,351.23c1.8,8.28.6,16.32,18.12,19.32-18.6,1.56-17.76,19.32-18,19.32-1.56-14.88-12-19.32-21.12-19.32,19.44,0,19.44-15.48,21-19.32h0Z"/><path class="ai" d="m291.88,399.35c1.8,8.28.6,16.32,18,19.32-18.6,1.56-17.76,19.32-18,19.32-1.56-14.88-12-19.32-21.12-19.32,19.56,0,19.56-15.48,21.12-19.32h0Z"/><path class="ai" d="m291.88,399.35c1.8,8.28.6,16.32,18,19.32-18.6,1.56-17.76,19.32-18,19.32-1.56-14.88-12-19.32-21.12-19.32,19.56,0,19.56-15.48,21.12-19.32h0Z"/><path class="ai" d="m673.12,730.91c.96,4.2.24,8.16,9,9.72-9.36.72-8.88,9.6-9,9.6-.84-7.44-6-9.72-10.56-9.6,9.84-.12,9.84-7.8,10.56-9.72h0Z"/><path class="ai" d="m673.12,730.91c.96,4.2.24,8.16,9,9.72-9.36.72-8.88,9.6-9,9.6-.84-7.44-6-9.72-10.56-9.6,9.84-.12,9.84-7.8,10.56-9.72h0Z"/><path class="ai" d="m786.76,614.39c1.08,4.8.36,9.48,10.44,11.16-10.8.84-10.32,11.16-10.32,11.16-.96-8.64-6.96-11.16-12.24-11.16,11.16,0,11.16-9,12.12-11.16h0Z"/><path class="ai" d="m786.76,614.39c1.08,4.8.36,9.48,10.44,11.16-10.8.84-10.32,11.16-10.32,11.16-.96-8.64-6.96-11.16-12.24-11.16,11.16,0,11.16-9,12.12-11.16h0Z"/><path class="ai" d="m880.48,477.23c3.6,16.2,1.08,31.92,35.28,37.8-36.36,3-34.8,37.68-35.16,37.68-3.12-29.16-23.4-37.68-41.28-37.68,38.16,0,38.16-30.24,41.16-37.8Z"/><path class="ai" d="m880.48,477.23c3.6,16.2,1.08,31.92,35.28,37.8-36.36,3-34.8,37.68-35.16,37.68-3.12-29.16-23.4-37.68-41.28-37.68,38.16,0,38.16-30.24,41.16-37.8Z"/><path class="ai" d="m912.4,601.79c2.28,10.44.72,20.64,22.8,24.36-23.52,1.92-22.44,24.36-22.68,24.36-2.04-18.84-15.12-24.36-26.64-24.36,24.72,0,24.72-19.44,26.52-24.36Z"/><path class="ai" d="m912.4,601.79c2.28,10.44.72,20.64,22.8,24.36-23.52,1.92-22.44,24.36-22.68,24.36-2.04-18.84-15.12-24.36-26.64-24.36,24.72,0,24.72-19.44,26.52-24.36Z"/><path class="ai" d="m879.4,665.87c2.28,11.52.72,22.68,22.8,26.88-23.52,2.16-22.44,26.76-22.68,26.76-2.04-20.64-15.12-26.76-26.64-26.76,24.6-.12,24.6-21.6,26.52-26.88Z"/><path class="ai" d="m879.4,665.87c2.28,11.52.72,22.68,22.8,26.88-23.52,2.16-22.44,26.76-22.68,26.76-2.04-20.64-15.12-26.76-26.64-26.76,24.6-.12,24.6-21.6,26.52-26.88Z"/><path class="ai" d="m816.52,747.59c2.28,13.2.72,26.16,22.8,30.96-23.52,2.52-22.44,30.84-22.68,30.84-2.04-23.88-15.12-30.96-26.64-30.84,24.6,0,24.6-24.84,26.52-30.96Z"/><path class="ai" d="m816.52,747.59c2.28,13.2.72,26.16,22.8,30.96-23.52,2.52-22.44,30.84-22.68,30.84-2.04-23.88-15.12-30.96-26.64-30.84,24.6,0,24.6-24.84,26.52-30.96Z"/><path class="ai" d="m835.12,565.31c2.04,11.52.6,22.68,19.68,26.88-20.4,2.16-19.44,26.76-19.68,26.76-1.68-20.64-13.08-26.76-23.16-26.76,21.48-.12,21.48-21.6,23.16-26.88Z"/><path class="ai" d="m835.12,565.31c2.04,11.52.6,22.68,19.68,26.88-20.4,2.16-19.44,26.76-19.68,26.76-1.68-20.64-13.08-26.76-23.16-26.76,21.48-.12,21.48-21.6,23.16-26.88Z"/><path class="ai" d="m525.52,215.63c3.12,17.52.84,34.56,30,40.8-30.96,3.24-29.64,40.68-29.88,40.68-2.64-31.44-19.92-40.8-35.16-40.68,32.52,0,32.52-32.64,35.04-40.8h0Z"/><path class="ai" d="m525.52,215.63c3.12,17.52.84,34.56,30,40.8-30.96,3.24-29.64,40.68-29.88,40.68-2.64-31.44-19.92-40.8-35.16-40.68,32.52,0,32.52-32.64,35.04-40.8h0Z"/><circle class="ai" cx="255.76" cy="450.83" r="3.96"/><circle class="ai" cx="255.76" cy="450.83" r="3.96"/><circle class="ai" cx="459.04" cy="252.23" r="8.04"/><circle class="ai" cx="459.04" cy="252.23" r="8.04"/><circle class="ai" cx="713.2" cy="700.19" r="8.04"/><circle class="ai" cx="713.2" cy="700.19" r="8.04"/><circle class="ai" cx="628.48" cy="764.99" r="5.16"/><circle class="ai" cx="628.48" cy="764.99" r="5.16"/><circle class="ai" cx="761.44" cy="787.91" r="5.16"/><circle class="ai" cx="761.44" cy="787.91" r="5.16"/><circle class="ai" cx="833.44" cy="724.67" r="5.16"/><circle class="ai" cx="833.44" cy="724.67" r="5.16"/><path class="ai" d="m660.4,364.31c12.12.48,45.12,9.48,57.24,13.68,18.12,6.24,31.8,12.96,43.32,22.92l54.84-37.56-155.4.96h0Z"/><path class="ai" d="m660.4,364.31c12.12.48,45.12,9.48,57.24,13.68,18.12,6.24,31.8,12.96,43.32,22.92l54.84-37.56-155.4.96h0Z"/><path class="ai" d="m815.8,363.47l-1.56,188.16,16.56-69.84c11.04-44.04,25.32-79.08,68.52-98.64,13.68-6.24,49.44-18,64.56-19.32l-148.08-.36h0Z"/><path class="ai" d="m815.8,363.47l-1.56,188.16,16.56-69.84c11.04-44.04,25.32-79.08,68.52-98.64,13.68-6.24,49.44-18,64.56-19.32l-148.08-.36h0Z"/><path class="ai" d="m866.8,323.87c-31.8-29.28-41.52-74.76-47.64-136.08-.36-5.76.84-1.08-.72-2.28-2.52-1.92.12-1.92-1.68-.12.12,5.52-.96,10.92.6,15.6-2.28,4.44-1.56,21.24-1.68,39-.24,39.12,1.32,85.44.12,123.24l51-39.36h0Z"/><path class="ai" d="m866.8,323.87c-31.8-29.28-41.52-74.76-47.64-136.08-.36-5.76.84-1.08-.72-2.28-2.52-1.92.12-1.92-1.68-.12.12,5.52-.96,10.92.6,15.6-2.28,4.44-1.56,21.24-1.68,39-.24,39.12,1.32,85.44.12,123.24l51-39.36h0Z"/></g></svg>