<?xml version="1.0" encoding="UTF-8"?><svg xmlns="http://www.w3.org/2000/svg" viewBox="0 0 500 500"><defs><style>.r,.s,.t,.u,.v,.w,.x,.y,.z,.aa,.ab,.ac,.ad,.ae,.af,.ag,.ah,.ai,.aj,.ak,.al{stroke-width:0px;}.r,.s,.am{opacity:.4;}.r,.y,.ae{fill:#fff;}.an{opacity:.6;}.t{fill:#e6e6e6;}.v{opacity:.3;}.w{fill:#37474f;}.x{fill:#e0e0e0;}.y,.ai{opacity:.5;}.z{opacity:.7;}.aa{fill:#f0f0f0;}.ab{opacity:.2;}.ac{fill:#ffa8a7;}.ad{fill:#27debf;}.af{fill:#fafafa;}.ag{fill:#f28f8f;}.ah{fill:#263238;}.ao{fill:none;stroke:#000;stroke-miterlimit:10;}.ao,.aj{opacity:.15;}.ak{fill:#455a64;}.al{opacity:.1;}</style></defs><g id="a"><ellipse id="b" class="aa" cx="249.05" cy="350.02" rx="235.61" ry="136.03"/></g><g id="c"><path id="d" class="x" d="m384.36,397.22c-15.45-8.92-15.45-23.38,0-32.3,15.45-8.92,40.5-8.92,55.95,0,15.45,8.92,15.45,23.38,0,32.3-15.45,8.92-40.5,8.92-55.95,0Z"/><path id="e" class="x" d="m70.12,398.46l-40.64-23.46c-2.29-1.32-2.29-3.47,0-4.79l236.39-136.48c2.29-1.32,6.01-1.32,8.3,0l40.64,23.46c2.29,1.32,2.29,3.47,0,4.79l-236.39,136.48c-2.29,1.32-6.01,1.32-8.3,0Z"/></g><g id="f"><g id="g"><path class="ad" d="m216.2,356.64l34.94-20.2c3.6-2.08,5.4-4.8,5.4-7.53,0-2.73.02-4.86.02-4.86l-36.25-20.44c-1.92-1.11-3.48-3.81-3.48-6.02v-43.07l-61.02,35.26v43.07c0,2.22,1.55,4.91,3.48,6.02l30.84,17.77c7.2,4.16,18.88,4.16,26.08,0Z"/><g class="an"><path class="u" d="m216.2,356.64l34.94-20.2c3.6-2.08,5.4-4.8,5.4-7.53,0-2.73.02-4.86.02-4.86l-36.25-20.44c-1.92-1.11-3.48-3.81-3.48-6.02v-43.07l-61.02,35.26v43.07c0,2.22,1.55,4.91,3.48,6.02l30.84,17.77c7.2,4.16,18.88,4.16,26.08,0Z"/></g><path class="v" d="m170.45,340.48v4.84l-11.18-6.45c-1.91-1.1-3.47-3.8-3.47-6.02v-43.07l11.63-6.71c.24,2.95.5,6,.74,8.98l-8.15,4.72v33.65c0,2.23,1.55,4.92,3.47,6.02l6.97,4.04Z"/><path class="ad" d="m160.01,330.43c0,2.22,1.56,4.91,3.48,6.02l26.62,15.33c7.2,4.16,18.88,4.16,26.09,0l34.95-20.2c7.2-4.16,7.2-10.9,0-15.06l-26.64-15.35c-1.92-1.11-3.48-3.81-3.48-6.02v-33.66s-61.02,35.26-61.02,35.26v33.66Z"/><path class="v" d="m160.01,330.43c0,2.22,1.56,4.91,3.48,6.02l26.62,15.33c7.2,4.16,18.88,4.16,26.09,0l34.95-20.2c7.2-4.16,7.2-10.9,0-15.06l-26.64-15.35c-1.92-1.11-3.48-3.81-3.48-6.02v-33.66s-61.02,35.26-61.02,35.26v33.66Z"/><path class="ai" d="m231.6,305.28h0s-7.08-4.09-7.08-4.09c-1.92-1.11-3.48-3.81-3.48-6.02v-33.66s-61.02,35.26-61.02,35.26v33.66c0,2.22,1.56,4.91,3.48,6.02l6.96,4.02,61.15-35.19Z"/><path class="ad" d="m256.55,324.06v4.86c0,2.73-1.81,5.44-5.4,7.53l-34.94,20.19c-3.45,2.01-7.93,3.01-12.45,3.09v-4.84c4.52-.06,9-1.1,12.45-3.09l34.94-20.21c3.59-2.07,5.4-4.8,5.4-7.53Z"/><path class="ai" d="m256.55,324.06v4.86c0,2.73-1.81,5.44-5.4,7.53l-34.94,20.19c-3.45,2.01-7.93,3.01-12.45,3.09v-4.84c4.52-.06,9-1.1,12.45-3.09l34.94-20.21c3.59-2.07,5.4-4.8,5.4-7.53Z"/><path class="ad" d="m62.03,372.26c2.25,1.3,6.02,1.23,8.43-.16,30-17.32,206-118.93,236-136.25,2.4-1.39,4.35-4.76,4.35-7.53V37.41c0-2.77-1.83-6.07-4.08-7.37-2.25-1.3-6.02-1.23-8.43.16L62.3,166.45c-2.4,1.39-4.35,4.76-4.35,7.53v190.91c0,2.77,1.82,6.07,4.08,7.37Z"/><path class="ad" d="m70.46,372.1l236-136.25c2.4-1.39,4.35-4.76,4.35-7.53V37.41c0-2.77-1.95-3.9-4.35-2.51L70.46,171.15c-2.4,1.39-4.35,4.76-4.35,7.53v190.91c0,2.77,1.94,3.9,4.34,2.51Z"/><path class="ai" d="m70.46,372.1l236-136.25c2.4-1.39,4.35-4.76,4.35-7.53V37.41c0-2.77-1.95-3.9-4.35-2.51L70.46,171.15c-2.4,1.39-4.35,4.76-4.35,7.53v190.91c0,2.77,1.94,3.9,4.34,2.51Z"/><path class="ad" d="m69.82,377.06c-2.41,1.06-5.74,1.02-7.79-.16-2.25-1.31-4.08-4.6-4.08-7.39v-17.38l8.15,4.72v17.38c0,2.53,1.61,3.67,3.71,2.83Z"/><path class="ai" d="m69.82,377.06c-2.41,1.06-5.74,1.02-7.79-.16-2.25-1.31-4.08-4.6-4.08-7.39v-17.38l8.15,4.72v17.38c0,2.53,1.61,3.67,3.71,2.83Z"/><path class="ad" d="m66.1,356.85v17.38c0,2.77,1.95,3.9,4.35,2.51l236-136.25c2.4-1.39,4.35-4.76,4.35-7.53v-17.41l-244.7,141.31Z"/><path class="v" d="m66.11,356.81v17.41c0,2.77,1.95,3.9,4.35,2.51l236-136.25c2.4-1.39,4.35-4.76,4.35-7.53v-17.41l-244.69,141.27Z"/><path class="ad" d="m74.26,335.04v-153.66c0-1.66,1.17-3.69,2.61-4.52L300.03,48.03c1.44-.83,2.61-.16,2.61,1.51v153.66c0,1.66-1.16,3.69-2.6,4.52l-223.17,128.84c-1.44.83-2.61.16-2.61-1.51Z"/><path class="ah" d="m74.26,335.04v-153.66c0-1.66,1.17-3.69,2.61-4.52L300.03,48.03c1.44-.83,2.61-.16,2.61,1.51v153.66c0,1.66-1.16,3.69-2.6,4.52l-223.17,128.84c-1.44.83-2.61.16-2.61-1.51Z"/><path class="ad" d="m188.45,291.73c-2.25,1.3-4.08,4.46-4.08,7.07s1.83,3.66,4.08,2.35c2.25-1.3,4.08-4.46,4.08-7.07,0-2.6-1.83-3.66-4.08-2.35Z"/><path class="z" d="m67.39,174.38c-.78,1.37-1.26,2.91-1.28,4.3v178.17l-8.15-4.72v-178.16c0-1.39.5-2.93,1.28-4.3l8.15,4.7Z"/><path class="v" d="m310.76,36.69c-.31-2.24-2.12-3.05-4.31-1.8L70.46,171.15c-1.19.69-2.27,1.86-3.07,3.23l-8.15-4.71c.79-1.35,1.87-2.54,3.07-3.23L298.3,30.2c2.41-1.39,6.17-1.46,8.43-.15,2.06,1.18,3.75,4.05,4.03,6.65Z"/></g></g><g id="h"><g id="i"><g id="j"><g id="k"><path class="ad" d="m323.49,60.19c-.57-.34-1.34-.33-2.22.18L98.59,188.95c-1.68.97-3.05,3.33-3.05,5.27v152.72c0,1.18.51,2.23,1.29,2.65.5.27,3.11,1.79,3.89,2.21.5.27,1.11.28,1.77-.1l222.68-128.64c1.68-.97,3.05-3.33,3.05-5.27V64.33c0-1-.36-1.7-.94-2-.55-.29-3.21-1.8-3.78-2.14Z"/><path class="af" d="m101.48,351.49c-.85,0-1.54-1.05-1.54-2.34v-152.72c0-1.75,1.28-3.97,2.8-4.84L325.42,63c.4-.23.78-.35,1.11-.35.74,0,1.19.63,1.19,1.67v153.46c0,1.75-1.28,3.97-2.8,4.84l-222.68,128.64c-.26.15-.52.23-.76.23Z"/><path class="x" d="m326.53,63.15h0c.6,0,.69.74.69,1.17v153.46c0,1.59-1.17,3.61-2.55,4.41l-222.68,128.64c-.19.11-.36.16-.51.16-.56,0-1.04-.86-1.04-1.84v-152.72c0-1.59,1.17-3.61,2.55-4.41L325.67,63.44c.4-.23.69-.28.86-.28m0-1c-.41,0-.87.13-1.36.42L102.48,191.16c-1.68.97-3.05,3.33-3.05,5.28v152.72c0,1.54.85,2.84,2.04,2.84.32,0,.65-.09,1.01-.29l222.68-128.64c1.68-.97,3.05-3.33,3.05-5.27V64.33c0-1.38-.69-2.18-1.69-2.17h0Z"/><path class="aa" d="m96.82,349.59c.33.18,2.7,1.53,3.74,2.12-.7-.5-1.07-1.36-1.12-2.56v-142.75l-3.9-2.28v142.83c0,1.18.51,2.23,1.28,2.64Z"/><path class="ad" d="m328.21,64.3c-.01-1.92-1.37-2.7-3.04-1.74L102.48,191.16c-1.68.97-3.05,3.33-3.05,5.28v9.96s228.78-132.09,228.78-132.09v-10Z"/><g class="am"><path class="ae" d="m325.17,62.57L102.48,191.15c-.83.49-1.6,1.31-2.15,2.26l-3.87-2.24c.55-.94,1.3-1.76,2.12-2.22L321.27,60.36c.87-.51,1.65-.52,2.21-.18.55.34,3.08,1.77,3.72,2.12-.54-.26-1.26-.18-2.04.27Z"/></g><path class="aj" d="m95.54,204.13v-9.9c0-.99.36-2.08.93-3.05l3.88,2.23c-.57.96-.91,2.04-.91,3.03v9.96l-3.9-2.27Z"/></g></g><path class="ad" d="m281.25,179.42l-133.37,77c-1.23.71-2.23,2.44-2.23,3.86v38.24c0,1.42,1,3.14,2.23,3.85l3.9,2.24c1.23.71,3.22.71,4.45,0l133.36-76.99c1.23-.71,2.23-2.44,2.23-3.86l.02-38.25c0-1.42-1-3.14-2.23-3.85l-3.9-2.24c-1.23-.71-3.22-.71-4.45,0Z"/><path class="y" d="m291.81,185.15c-.15-1.15-1.09-1.57-2.21-.93l-133.37,77c-.62.35-1.17.97-1.57,1.67l-8.35-4.82c.4-.69.96-1.3,1.56-1.64l133.38-77c1.22-.71,3.22-.72,4.45-.01l3.9,2.24c1.13.65,2.07,2.16,2.21,3.5Z"/><path class="ah" d="m155.85,304.79c-1.23.52-2.96.46-4.07-.17l-3.9-2.24c-1.23-.71-2.23-2.44-2.23-3.86v-38.23c0-.72.26-1.51.66-2.21l8.35,4.82c-.41.7-.66,1.48-.66,2.19v38.24c0,1.27.8,1.86,1.85,1.46Z"/><path class="ad" d="m156.23,261.23l133.37-77c1.23-.71,2.23-.13,2.22,1.29l-.02,38.25c0,1.42-1,3.15-2.23,3.86l-133.36,76.99c-1.23.71-2.23.13-2.23-1.29v-38.24c0-1.42,1-3.15,2.23-3.86Z"/><path class="ak" d="m245.89,199.84l-98.02,56.59c-.61.35-1.16.96-1.56,1.64l8.35,4.82c.4-.7.96-1.32,1.57-1.67l98-56.58-8.33-4.81Z"/><path class="w" d="m254.23,204.65l-98,56.58c-1.23.71-2.23,2.44-2.23,3.86v38.24c0,1.42,1,1.99,2.23,1.29l98-56.58v-43.38Z"/><path class="ad" d="m178.83,256.57l50.57-29.2c2.1-1.21,3.8-.35,3.8,1.92,0,2.27-1.7,5.09-3.8,6.3l-50.56,29.19c-2.1,1.21-3.8.35-3.8-1.92s1.7-5.09,3.79-6.3Z"/><path class="ak" d="m277.87,224.4l-9.71,5.61,1.51-13.62c-1.16-.61-1.9-2.13-1.9-4.3,0-3.87,2.35-8.36,5.25-10.04,2.9-1.68,5.25.1,5.25,3.97,0,2.17-.74,4.54-1.9,6.49l1.51,11.89Z"/><polygon class="w" points="277.87 224.4 269.33 219.47 268.16 230.01 277.87 224.4"/><path class="w" d="m273.02,202.05c-1.9,1.1-3.56,3.4-4.48,5.95l7.83,4.52h0c1.16-1.96,1.9-4.32,1.9-6.5,0-3.87-2.35-5.65-5.25-3.97Z"/><path class="ad" d="m225.8,156.7c-3.32-1.92-7.91-1.65-12.99,1.28-10.14,5.85-18.36,20.09-18.36,31.8,0,5.87,2.07,9.99,5.42,11.9.87.5,5.59,3.24,6.47,3.75,3.32,1.92,7.91,1.65,12.98-1.28,10.14-5.85,18.36-20.09,18.36-31.8,0-5.85-2.05-9.96-5.37-11.88"/><path class="ad" d="m219.32,161.75c-10.14,5.86-18.36,20.09-18.36,31.8,0,11.71,8.22,16.45,18.36,10.6,10.14-5.85,18.37-20.09,18.36-31.8-.01-11.71-8.23-16.45-18.36-10.6Z"/><path class="ad" d="m229.45,187.73v1.34c-2.61,4.46-6.19,8.35-10.14,10.62-3.95,2.28-7.52,2.53-10.14,1.07v-2.77c0-5.35,3.63-11.63,8.26-14.31l2.67-1.53c2.37-1.37,4.66-1.54,6.46-.5,1.84,1.06,2.88,3.27,2.88,6.08Z"/><path class="r" d="m225.8,156.7l6.51,3.77c-3.32-1.92-7.91-1.65-12.98,1.28-6.64,3.84-12.45,11.27-15.68,19.23l-6.51-3.77c3.22-7.96,9.04-15.39,15.68-19.22,5.07-2.93,9.66-3.2,12.98-1.28Z"/><path class="ab" d="m206.1,205.29c-1.15-.66-5.42-3.15-6.23-3.61-3.34-1.91-5.42-6.03-5.42-11.9l6.51,3.77c0,5.71,1.96,9.76,5.13,11.74Z"/><path class="al" d="m197.13,177.21l6.51,3.77c-1.7,4.2-2.68,8.54-2.68,12.57h0s-6.51-3.77-6.51-3.77c0-4.04.98-8.39,2.68-12.58Z"/><path class="ae" d="m217.01,181.52c-.64,0-1.23-.15-1.77-.46-1.24-.71-1.92-2.13-1.92-3.98,0-3.39,2.3-7.38,5.24-9.08h0c1.6-.93,3.16-1.05,4.41-.33,1.24.71,1.92,2.13,1.92,3.98,0,3.39-2.3,7.38-5.24,9.08-.91.53-1.81.79-2.64.79Z"/><path class="ae" d="m226.57,181.65c-1.8-1.04-4.1-.87-6.46.5l-2.67,1.53c-4.63,2.68-8.26,8.97-8.26,14.31v2.77c2.61,1.45,6.19,1.2,10.14-1.07,3.94-2.27,7.52-6.16,10.14-10.62v-1.34c0-2.81-1.04-5.02-2.88-6.08Z"/></g></g><g id="l"><g id="m"><path class="ad" d="m432.15,354.65s1.33-11.68,7.14-20.74c5.81-9.06,13.79-14.72,21.24-15.31s13.46,6.26,5.49,10.97c-7.97,4.71-22.13,9.51-28.64,27.11l-5.23-2.02Z"/><path class="al" d="m432.15,354.65s1.33-11.68,7.14-20.74c5.81-9.06,13.79-14.72,21.24-15.31s13.46,6.26,5.49,10.97c-7.97,4.71-22.13,9.51-28.64,27.11l-5.23-2.02Z"/><path class="ae" d="m434.34,351.61s-.05-.01-.08-.02c-.2-.08-.3-.31-.22-.52,7.86-19.36,22.82-27.44,29.64-29.01.21-.05.43.08.48.3.05.21-.08.43-.3.48-6.68,1.54-21.34,9.48-29.08,28.53-.07.18-.26.28-.44.24Z"/><path class="ad" d="m474.12,351.84c-.67,1.52-2.33,2.31-3.88,2.93-1.54.62-3.22,1.29-4.05,2.73-1.68,2.9,1.08,6.99-.73,9.81-.76,1.19-2.17,1.81-3.55,2.06-1.15.22-2.32.21-3.49.31-.56-.01-1.12-.05-1.66-.13-1.6-.23-3.34-.31-4.8.51-2.31,1.3-3.02,4.21-4.42,6.46-1.68,2.69-4.65,4.45-7.77,4.88-1.04.14-2.97.32-4.02-.27-.08-.05-.15-.09-.22-.14,0,0-.01-.01-.02-.02-.15-.16-.33-.37-.41-.49-.02-.02-.03-.04-.04-.07-.41-1.51.26-3.07.29-4.63,0-.1,0-.19,0-.28-.06-1.81-.12-3.61-.16-5.41-.08-3.32-.12-6.64-.1-9.96.02-2.16-.24-4.52.68-6.55,1.01-2.23,3.52-2.28,4.47-4.48.38-.87.58-1.81.95-2.69,1.1-2.59,3.76-4.46,6.58-4.59,4.39-.22,8.32,3.33,12.71,3.01,1.13-.09,2.24-.43,3.36-.64,3.55-.67,7.66.35,9.66,3.35.84,1.26,1.24,2.91.63,4.29Z"/><path class="ae" d="m434.7,373.52s-.02,0-.03,0c-.2-.05-.32-.26-.26-.46,6.06-22.74,30.03-26.03,35.63-25.63.2.02.36.19.35.4-.01.21-.19.36-.4.35-5.48-.4-28.92,2.82-34.86,25.07-.05.19-.24.31-.43.27Z"/><path class="ae" d="m461.33,361.99c-.07-.01-.14-.05-.2-.1-.06-.06-6.17-6.09-16.31-4.59-.2.03-.4-.11-.43-.32-.03-.2.11-.39.32-.43,10.53-1.55,16.89,4.74,16.95,4.81.15.15.14.38,0,.53-.09.09-.22.12-.33.1Z"/></g></g><g id="n"><g id="o"><path class="t" d="m377.12,80.01l3.18,1.22v-7.01c0-5.56,4.43-6.89,9.25-4.11h0c4.81,2.78,8.71,9.54,8.71,15.09v1.02c1.09-.44,2.5-.27,4.04.62h0c3.46,2,6.27,6.86,6.27,10.86v.46l4.44,2.56c2.28,1.32,4.13,4.52,4.13,7.15s-1.85,3.7-4.13,2.38l-35.9-20.72c-2.28-1.32-4.13-4.52-4.13-7.15s1.85-3.7,4.13-2.38Z"/><path class="t" d="m419.71,74.46l5.77,3.33c-.03-.26-.05-.51-.05-.76v-1.67c0-2.97,2.09-4.18,4.66-2.69,1.04.6,2,1.56,2.78,2.67.42-3.74,3.36-5.13,6.92-3.08,3.85,2.22,6.98,7.64,6.98,12.09v2.5c0,1.15-.21,2.12-.59,2.9l4.79,2.77c1.43.83,2.59,2.83,2.59,4.48s-1.16,2.32-2.59,1.49l-31.26-18.05c-1.43-.82-2.59-2.83-2.59-4.48s1.16-2.32,2.59-1.49Z"/></g></g><g id="p"><g id="q"><path class="ac" d="m397.37,226.23c-4.2,7.1-8.24,13.27-11.08,16.23-5.39,2.51-18.05,6.36-23,7-.88.11-1.76-.11-2.49-.59-1.95-1.28-3.45-1.48-5.51-2.19-1.61-.56-2.29-1.32-2.59-1.03-.39.38-.81,1.44.17,2.55.49.56,1.39,1.16,2.54,1.9,0,0-3.54.94-6.7.11-4.29-1.13-6.31.94-3.41,5.59,1.04,1.67,5.13,4.34,13.41,3.62,2.39-.21,5.83-.41,8.8-1.04,7.95-1.7,16.78-3.34,22.21-4.96,1.37-.41,3.82-1.99,5.27-3.66,9.13-10.41,12.16-17.83,16.16-24.57l-.35-11.02c-6.47-.2-9.93,6.11-13.45,12.06Z"/><path class="ak" d="m411.93,213.98s-5.65-1.2-9.9,4.23c-4.45,5.69-12.31,19.35-12.31,19.35,0,0,2.58,6.85,9.52,7.98l11.15-15.06s5.28-10.42,1.54-16.51Z"/><rect class="ac" x="428.77" y="367.54" width="7.27" height="12.96"/><polygon class="ac" points="410.84 366.84 403.58 367.1 403.21 353.39 410.84 353.13 410.84 366.84"/><path class="w" d="m437.06,255.35c0,7.23-1.06,65.4-1.06,65.4.17,2.08,2.04,5.91,1.64,13.9-.55,10.85-1.28,39.37-1.28,39.37,0,0-3.53,2.15-8.09.17,0,0-5.89-39.96-7.19-50.71-1.14-9.39-4.05-40.52-4.05-40.52l-3.94,36.74s1.34,5.6.9,12.03c-.34,4.97-2.68,30.88-2.68,30.88,0,0-3.42,2.42-8.39.67,0,0-4.13-39.01-4.22-43.58-.1-5.2,2.42-64.42,2.42-64.42l35.95.08Z"/><path class="ah" d="m428.77,376.76v-1.08c-.7.32-2.31,6.74-5.19,9.47-2.29,2.18-5.42,4.69-6.21,7.12-.83,2.53,4.35,3.92,6.5,3.52,2.49-.46,6.8-2.28,7.88-3.98,1.08-1.69,1.59-4.19,2.47-5.43.88-1.24,2.91-2.62,3.38-4.06.26-.79-.05-2.51-.42-3.97-.34-1.34-.7-2.81-1.14-2.68,0,.16,0,.83,0,.83-.53.61-1.99,1.21-3.63,1.28-1.06.04-3.64-.18-3.63-1.02Z"/><path class="ah" d="m403.5,364.77c-.38.01-.68.57-1.52,1.51-1.01,1.13-2.65,2.36-4.28,3.2-2.72,1.42-8.01,3.6-10.41,4.72-1.5.7-1.43,2.58.12,3.65s5.28,1.84,9.76.8c2.44-.57,5.62-2.92,7.63-2.79,2.01.13,5.78.1,7.26-.97,1.49-1.07.89-3.34.47-5.3-.46-2.14-1.03-5.47-1.71-5.32v.74c-.87,1.38-5.38,1.94-7.3.92l-.04-1.17Z"/><path class="ah" d="m417.01,282.95s-5.81-1.7-10.12-6.04c0,0,1.95,3.81,7.76,7.35l-1.24,32.81,3.6-34.12Z"/><path class="ad" d="m432.99,215.06s5.98,1.38,5.57,12.22l-1.26,17.26.03,25.9c-5.34,6.06-29.04,5.61-37.15-.48,0,0,.92-30.65,1.47-42.44.39-8.38,2.32-12.61,10.56-13.53l10.13.45,10.64.64Z"/><path class="ah" d="m425.36,192.54c0,6.22-4.84,11.27-10.82,11.27-5.98,0-9.51-5.18-10.82-11.27-2.39-11.13,4.84-11.27,10.82-11.27s10.82,5.05,10.82,11.27Z"/><path class="ah" d="m430.88,197.09s-1.66,8.12-2.32,9.45c-.67,1.33-2.04,1.71-2.04,1.71l.12-5.71,4.25-5.46Z"/><path class="ah" d="m428.79,185.46s1.19-.3,2.45,1.68c1.08,1.69,1.33,5.5-.37,9.96l-3.13.37,1.04-12.01Z"/><path class="ah" d="m429.94,187.11l3.83.07c.09-1.1-.69-2.01-1.75-2.03s-1.99.86-2.09,1.96Z"/><path class="ah" d="m430.41,186.2l2.84-2.73c-.7-.81-1.9-.86-2.69-.11-.78.75-.85,2.02-.15,2.84Z"/><path class="ac" d="m426.81,197.47c.63.39,1.52-.86,2.29-1.71.77-.84,3.2-1.64,4.46,1.12,1.28,2.82-.89,5.49-2.69,6.39-3.23,1.6-4.25-.73-4.25-.73l-.26,12.86c-4.55,7.03-14.84,6.78-11.14-.34v-3.91s-3.09.49-4.61.25c-2.52-.41-4.1-2.47-4.87-5.31-1.23-4.56-1.69-8.24-.65-17.21,1.14-9.83,12.12-9.93,18.04-6.05,5.93,3.89,3.67,14.63,3.67,14.63Z"/><path class="ah" d="m413.13,187.35c2.62-.26,5.21-.8,7.84-.99.57-.04,1.15-.07,1.7.08,2.01.54,1.75,2.88,2.07,4.52.55,2.82,1.01,7.59,2.07,7.61.32,0,1.51-2.07,2.29-2.8.51-.48.59-1.51.7-2.15.2-1.17.31-2.35.4-3.53.08-1,.18-2.01.17-3.02,0-1.12.02-2.27-.26-3.37-.25-1-.72-1.74-1.4-2.52-.07-.07-.13-.15-.2-.22-1.29-1.39-2.94-2.44-4.69-3.16-2.51-1.04-5.24-1.45-7.94-1.73-2.7-.28-5.43-.43-8.09-.97-.16-.03-.32-.06-.47,0-.23.09-.33.36-.38.6-.24,1.23.32,2.58,1.36,3.29-1.81.14-3.89-.8-5.64-1.27-.29-.08-.63-.15-.89,0-.18.11-.29.31-.35.51-.15.46-.12.97-.05,1.45.19,1.43.68,2.84,1.56,3.98,1.27,1.64,3.35,3.12,5.4,3.53,1.62.33,3.14.33,4.8.16Z"/><path class="ag" d="m415.24,211.16s5.62-1.18,7.59-2.27c1.32-.73,2.4-1.99,2.72-2.8,0,0-.37,1.74-1.54,3.3-1.44,1.91-8.76,3.32-8.76,3.32v-1.56Z"/><path class="ah" d="m416.59,196.01c0,.67.5,1.22,1.13,1.22.62,0,1.13-.55,1.13-1.22s-.5-1.22-1.13-1.22c-.62,0-1.13.55-1.13,1.22Z"/><path class="ah" d="m418.39,191.15l2.41,1.39c.36-.72.1-1.62-.56-2-.67-.38-1.49-.11-1.85.61Z"/><path class="ag" d="m415.74,204.11l-2.57,1c.25.77,1.04,1.16,1.75.89.71-.28,1.08-1.12.82-1.89Z"/><path class="ah" d="m406.25,192.18l2.2-1.76c-.45-.66-1.3-.79-1.91-.31-.61.49-.74,1.41-.29,2.07Z"/><path class="ah" d="m407.22,195.67c0,.67.5,1.22,1.13,1.22.62,0,1.13-.55,1.13-1.22s-.5-1.22-1.13-1.22c-.62,0-1.13.55-1.13,1.22Z"/><polygon class="ag" points="413.25 194.73 413.12 201.84 409.08 200.92 413.25 194.73"/><polyline class="ad" points="317.31 254.28 323.58 250.66 326.06 247.65 319.8 251.27 317.31 254.28"/><polyline class="s" points="317.31 254.28 323.58 250.66 326.06 247.65 319.8 251.27 317.31 254.28"/><polyline class="ad" points="334.36 264.12 340.63 260.5 345.86 255.87 339.6 259.48 334.36 264.12"/><polyline class="s" points="334.36 264.12 340.63 260.5 345.86 255.87 339.6 259.48 334.36 264.12"/><path class="ad" d="m387.62,276.61c1.37,1.75,2.37,4.31,2.59,6.82-1.37-1.75-2.37-4.31-2.59-6.82Zm14.56.19c-2.11-14.35-9.82-28.55-19.01-33.85-4.41-2.55-8.49-2.64-11.76-.73-.96.56-4.5,2.6-5.9,3.4-.11.06-.23.12-.33.2-.26.14-.51.31-.76.48-.47.33-.93.7-1.36,1.12-.06.05-.12.12-.2.18-.19.19-.37.39-.54.6-.22.25-.43.5-.63.77-.41.54-.8,1.13-1.15,1.77-.17.31-.35.64-.51.98l-51.52-29.74-6.26,3.61v3.99l.53.31.49.29v.84l-1.03.6v2.32l7.57,16.02,7.48,4.33,2.49-3.01,6.6,3.95,3.79,6.5,4.17,2.41,5.23-4.64,6.43,3.71,2.16,8.9,10.76,6.21c.54,2.28,1.23,4.51,2.04,6.69.07.23.15.45.25.7,3.58,9.41,9.27,17.46,15.69,21.17.82.47,1.62.86,2.42,1.16.45.19.9.33,1.35.45.4.11.8.21,1.2.27,1.33.24,2.61.23,3.81-.01.17-.04.35-.08.52-.12.25-.05.49-.12.73-.22.18-.07.37-.14.56-.22.2-.07.39-.16.58-.27.18-.08.36-.17.53-.28.09-.05.18-.1.27-.15.04-.01.08-.04.12-.07,1.43-.82,4.96-2.86,5.91-3.4,4.76-2.76,7.84-9.74,7.84-19.6,0-2.51-.2-5.06-.58-7.6Z"/><path class="ad" d="m385.79,288.72c-2.47-1.43-4.47-5.67-4.47-9.47s2-5.73,4.47-4.31c2.47,1.43,4.47,5.67,4.47,9.47s-2,5.73-4.47,4.31Zm10.14-8.31c-2.11-14.34-9.82-28.54-19.01-33.84-4.26-2.46-8.19-2.64-11.4-.95-.11.06-.23.12-.33.2-.26.14-.51.31-.76.48-.47.33-.93.7-1.36,1.12-.06.05-.12.12-.2.18-.19.19-.37.39-.54.6-.22.25-.43.5-.63.77-.41.54-.8,1.13-1.15,1.77-.17.31-.35.64-.51.98-.85,1.75-1.53,3.78-1.98,6.09l-55.79-32.22v3.99l.53.31.49.29v.84l-1.03.6v2.32l7.57,16.02,7.48,4.33,2.49-3.01,6.6,3.95,3.79,6.5,4.17,2.41,5.23-4.64,6.43,3.71,2.16,8.9,10.76,6.21c.54,2.28,1.23,4.51,2.04,6.69.07.23.15.45.25.7,3.58,9.41,9.27,17.46,15.69,21.17.82.47,1.62.86,2.42,1.16.45.19.9.33,1.35.45.4.11.8.21,1.2.27,1.33.24,2.61.23,3.81-.01.17-.04.35-.08.52-.12.25-.05.49-.12.73-.22.18-.07.37-.14.56-.22.2-.07.39-.16.58-.27.18-.08.36-.17.53-.28.09-.05.18-.1.27-.15.04-.01.08-.04.12-.07,4.56-2.88,7.49-9.76,7.49-19.39,0-2.51-.21-5.06-.58-7.61Z"/><path class="s" d="m390.26,284.41c0,3.8-2,5.74-4.47,4.31-2.48-1.43-4.48-5.66-4.48-9.47s2-5.74,4.48-4.31c.66.38,1.29.96,1.83,1.68.22,2.5,1.22,5.07,2.59,6.82.04.33.05.66.05.98Z"/><path class="r" d="m402.76,284.4c0,9.87-3.08,16.85-7.84,19.6-.96.54-4.48,2.58-5.91,3.4,4.56-2.88,7.49-9.76,7.49-19.39,0-2.51-.21-5.06-.58-7.61-2.11-14.34-9.82-28.54-19.01-33.84-4.26-2.46-8.19-2.64-11.4-.95,1.4-.8,4.94-2.85,5.9-3.4,3.27-1.91,7.35-1.82,11.76.73,9.19,5.3,16.9,19.5,19.01,33.85.38,2.54.58,5.09.58,7.6Z"/><path class="ad" d="m396.5,288.02c0,9.63-2.93,16.51-7.49,19.39,1.43-.82,4.96-2.86,5.91-3.4,4.76-2.76,7.84-9.74,7.84-19.6,0-.36-.01-.73-.02-1.1-2.15,1.24-4.33,2.5-6.26,3.61,0,.37.02.74.02,1.1Z"/><path class="al" d="m396.5,288.02c0,9.63-2.93,16.51-7.49,19.39,1.43-.82,4.96-2.86,5.91-3.4,4.76-2.76,7.84-9.74,7.84-19.6,0-.36-.01-.73-.02-1.1-2.15,1.24-4.33,2.5-6.26,3.61,0,.37.02.74.02,1.1Z"/><polygon class="aj" points="358.28 261.92 358.28 263.95 302.26 231.61 303.29 231.02 303.29 230.17 358.28 261.92"/><polygon class="aj" points="358.28 262.76 358.28 263.95 302.26 231.61 303.29 231.02 303.29 231 358.28 262.76"/><ellipse class="ao" cx="376.92" cy="276.71" rx="14.79" ry="27.68" transform="translate(-64.6 122.78) rotate(-17.06)"/><path class="r" d="m360.04,251.72c-.85,1.75-1.53,3.78-1.98,6.09l-55.79-32.22,6.26-3.61,51.52,29.74Z"/><path class="ac" d="m432.51,254.85c2.93-5.53,6.26-17.95,7.92-24.22,2.36-8.9-1.46-14.5-5.79-14.73-2.72.41-11.64,32.89-11.64,32.89-.99.79-14.57,7.67-18.94,9.4-.77.31-1.63.29-2.42,0-2.1-.76-3.52-.62-5.57-.83-1.61-.16-2.42-.73-2.62-.39-.26.44-.38,1.55.79,2.37.59.41,1.56.78,2.8,1.22,0,0-2.32.8-5.41.74-4.19-.09-5.7,1.73-2.45,5.98,2.04,2.66,5.32,3.5,12.7.95,2.13-.74,5.01-2.17,7.69-3.14,5.55-2.02,6.97-2.23,11.23-3.67,6.14-2.07,10.42-4.13,11.72-6.59Z"/><path class="ak" d="m432.99,215.06c2.55.35,5.03.93,6.51,2.99,1.48,2.06,2.72,4.97,1.24,12.96-1.48,7.99-4.54,16.47-4.54,16.47,0,0-5.94,2.54-12.25-3.9l4.34-16.78s.74-10.9,4.71-11.74Z"/></g></g></svg>