<?xml version="1.0" encoding="UTF-8"?><svg xmlns="http://www.w3.org/2000/svg" viewBox="0 0 500 500"><defs><style>.z,.aa{opacity:.7;}.ab,.ac{opacity:.4;}.ab,.ac,.ad,.ae,.af,.ag,.ah,.ai,.aj,.ak,.al,.am,.an,.ao,.ap,.aq,.ar,.as,.at,.au,.aa,.av,.aw,.ax,.ay,.az{stroke-width:0px;}.ab,.aj,.aq,.au,.aa,.az{fill:#fff;}.ad{opacity:.05;}.ae{opacity:.25;}.ag,.az{opacity:.3;}.ah{fill:#37474f;}.ai{fill:#e0e0e0;}.aj{opacity:.5;}.ak{fill:#b16668;}.al{fill:#f5f5f5;}.am{fill:#f0f0f0;}.an{opacity:.2;}.ao{fill:#ffa8a7;}.ap{fill:#27debf;}.ar{fill:#fafafa;}.as{fill:#f28f8f;}.at{fill:#263238;}.ba,.ay{opacity:.1;}.au{opacity:.65;}.bb{opacity:.43;}.av{fill:#ebebeb;}.aw{opacity:.15;}.ax{fill:#455a64;}</style></defs><g id="a"><ellipse id="b" class="al" cx="250" cy="384.61" rx="209.73" ry="94.79"/></g><g id="c"><ellipse id="d" class="ai" cx="352.36" cy="395.73" rx="56.05" ry="32.36"/><path id="e" class="ai" d="m91.71,412.52c-9.53,5.56-9.53,14.58,0,20.15,9.53,5.56,24.98,5.56,34.51,0,9.53-5.56,9.53-14.58,0-20.15-9.53-5.56-24.98-5.56-34.51,0Z"/></g><g id="f"><g id="g"><path class="ai" d="m103.87,225.91v3.46c0,1.09.76,1.53,1.71.99l3.34-1.93v-7.4l-3.34,1.93c-.94.55-1.71,1.87-1.71,2.96Z"/><path class="ai" d="m93.28,222.96v3.46c0,1.09.77,1.53,1.71.99l13.93-8.04v-7.4l-13.93,8.04c-.94.54-1.71,1.87-1.71,2.96Z"/><path class="ai" d="m100.82,262.05l-15.82,9.13c-.94.55-1.71,1.87-1.71,2.96v3.46c0,1.09.77,1.53,1.71.99l15.82-9.13c.94-.54,1.71-1.87,1.71-2.96v-3.46c0-1.09-.77-1.53-1.71-.99Z"/><path class="ai" d="m108.92,302.88l-13.93,8.04c-.94.54-1.71,1.87-1.71,2.96v3.46c0,1.09.77,1.53,1.71.99l13.93-8.04v-7.4Z"/><path class="ai" d="m93.28,186.59v3.46c0,1.09.77,1.53,1.71.99l13.93-8.04v-7.4l-13.93,8.04c-.94.55-1.71,1.87-1.71,2.96Z"/><path class="ai" d="m77.44,295.91v3.46c0,1.09.76,1.53,1.71.99l15.82-9.13c.94-.54,1.71-1.87,1.71-2.96v-3.46c0-1.09-.77-1.53-1.71-.99l-15.82,9.13c-.94.54-1.71,1.87-1.71,2.96Z"/><path class="ai" d="m93.28,259.32v3.46c0,1.09.77,1.53,1.71.99l13.93-8.04v-7.4s-13.93,8.04-13.93,8.04c-.94.55-1.71,1.87-1.71,2.96Z"/><path class="ai" d="m91.94,318.09v-3.46c0-1.09-.77-1.53-1.71-.99l-15.82,9.13c-.94.54-1.71,1.87-1.71,2.96v3.46c0,1.09.76,1.53,1.71.99l15.82-9.13c.94-.55,1.71-1.87,1.71-2.96Z"/><path class="ai" d="m92.02,176.33l-15.82,9.13c-.94.55-1.71,1.87-1.71,2.96v3.46c0,1.09.76,1.53,1.71.99l15.82-9.13c.94-.54,1.71-1.87,1.71-2.96v-3.46c0-1.09-.77-1.53-1.71-.99Z"/><path class="ai" d="m100.82,189.31l-15.82,9.13c-.94.55-1.71,1.87-1.71,2.96v3.46c0,1.09.77,1.53,1.71.99l15.82-9.13c.94-.55,1.71-1.87,1.71-2.96v-3.46c0-1.09-.77-1.53-1.71-.99Z"/><path class="ai" d="m100.82,225.68l-15.82,9.13c-.94.54-1.71,1.87-1.71,2.96v3.46c0,1.09.77,1.53,1.71.99l15.82-9.13c.94-.54,1.71-1.87,1.71-2.96v-3.46c0-1.09-.77-1.53-1.71-.99Z"/><path class="ai" d="m85,333.14l15.82-9.13c.94-.54,1.71-1.87,1.71-2.96v-3.46c0-1.09-.77-1.53-1.71-.99l-15.82,9.13c-.94.55-1.71,1.87-1.71,2.96v3.46c0,1.09.77,1.53,1.71.99Z"/><path class="ai" d="m235.65,161.92v3.46c0,1.09-.76,2.41-1.71,2.96l-3.34,1.93v-7.4l3.34-1.93c.94-.54,1.71-.1,1.71.99Z"/><path class="ai" d="m230.61,281.09l13.93-8.04c.94-.54,1.71-.1,1.71.99v3.46c0,1.09-.77,2.42-1.71,2.96l-13.93,8.04v-7.4Z"/><path class="ai" d="m246.24,146.74v3.46c0,1.09-.77,2.42-1.71,2.96l-13.93,8.04v-7.4l13.93-8.04c.94-.54,1.71-.1,1.71.99Z"/><path class="ai" d="m238.71,194.54l15.82-9.13c.94-.54,1.71-.1,1.71.99v3.46c0,1.09-.77,2.42-1.71,2.96l-15.82,9.13c-.94.54-1.71.1-1.71-.99v-3.46c0-1.09.77-2.42,1.71-2.96Z"/><path class="ai" d="m230.61,244.72l13.93-8.04c.94-.54,1.71-.1,1.71.99v3.46c0,1.09-.77,2.41-1.71,2.96l-13.93,8.04v-7.4Z"/><path class="ai" d="m246.24,110.37v3.46c0,1.09-.77,2.41-1.71,2.96l-13.93,8.04v-7.4l13.93-8.04c.94-.54,1.71-.1,1.71.99Z"/><path class="ai" d="m262.09,201.4v3.46c0,1.09-.76,2.41-1.71,2.96l-15.82,9.13c-.94.55-1.71.1-1.71-.99v-3.46c0-1.09.77-2.42,1.71-2.96l15.82-9.13c.94-.54,1.71-.1,1.71.99Z"/><path class="ai" d="m246.24,183.11v3.46c0,1.09-.77,2.42-1.71,2.96l-13.93,8.04v-7.4s13.93-8.04,13.93-8.04c.94-.54,1.71-.1,1.71.99Z"/><path class="ai" d="m247.59,240.33v-3.46c0-1.09.77-2.42,1.71-2.96l15.82-9.13c.94-.55,1.71-.1,1.71.99v3.46c0,1.09-.76,2.41-1.71,2.96l-15.82,9.13c-.94.54-1.71.1-1.71-.99Z"/><path class="ai" d="m238.71,121.8l15.82-9.13c.94-.54,1.71-.1,1.71.99v3.46c0,1.09-.77,2.41-1.71,2.96l-15.82,9.13c-.94.54-1.71.1-1.71-.99v-3.46c0-1.09.77-2.42,1.71-2.96Z"/><path class="ai" d="m238.71,158.17l15.82-9.13c.94-.55,1.71-.1,1.71.99v3.46c0,1.09-.77,2.41-1.71,2.96l-15.82,9.13c-.94.54-1.71.1-1.71-.99v-3.46c0-1.09.77-2.42,1.71-2.96Z"/><path class="ai" d="m254.53,247.36l-15.82,9.13c-.94.54-1.71.1-1.71-.99v-3.46c0-1.09.77-2.42,1.71-2.96l15.82-9.13c.94-.54,1.71-.1,1.71.99v3.46c0,1.09-.77,2.41-1.71,2.96Z"/><path class="ai" d="m230.61,299.27l13.93-8.04c.94-.54,1.71-.1,1.71.99v3.46c0,1.09-.77,2.42-1.71,2.96l-13.93,8.04v-7.4Z"/></g><g id="h"><g id="i"><path class="ah" d="m108.92,413.02v-247.58c0-3.45,2.42-7.65,5.42-9.38l107.13-61.85c1.49-.86,2.85-.94,3.83-.38.98.57,2.7,1.57,3.68,2.12.99.56,1.6,1.78,1.6,3.51v247.58l-7.81,4.51-6.34-3.67-95.99,55.42v7.33l-7.81,4.51-3.7-2.13Z"/><path class="at" d="m134.28,395.32l-13.85,7.99v7.33l-7.81,4.51-3.7-2.13v-247.58c0-1.73.61-3.65,1.6-5.35l23.59,13.62.17,221.61Z"/><path class="ax" d="m112.62,167.59v247.56l7.81-4.5v-7.33l95.99-55.42,6.34,3.67,7.81-4.5V99.48c0-3.47-2.44-4.84-5.41-3.13l-107.14,61.86c-2.97,1.72-5.41,5.91-5.41,9.38Z"/><polygon class="ap" points="120.43 168.9 120.43 406.38 219.1 349.41 219.1 111.95 120.43 168.9"/><polygon class="aa" points="120.43 168.9 120.43 406.38 219.1 349.41 219.1 111.95 120.43 168.9"/><g class="bb"><path class="ap" d="m137.25,377.26v-198.64l65.04-37.54v198.63l-65.04,37.55Zm2.73-197.07v192.34l59.58-34.4v-192.34l-59.58,34.39Z"/><path class="ay" d="m137.25,178.61v198.64l65.04-37.55v-198.63l-65.04,37.54Zm62.31,159.52l-59.58,34.4v-192.34l59.58-34.39v192.34Z"/></g><polygon class="at" points="219.1 349.41 219.1 111.95 222.75 109.83 222.76 351.57 219.1 349.41"/><polygon class="ai" points="120.43 410.64 222.76 351.57 219.1 349.41 120.43 406.38 120.43 410.64"/></g><g id="j"><polygon class="ai" points="122.34 258.22 124.31 259.36 124.32 292.09 122.34 290.95 122.34 258.22"/><polygon class="ar" points="124.31 259.36 134.95 253.22 134.95 285.95 124.32 292.09 124.31 259.36"/><path class="ad" d="m134.95,262.23l-4.65,2.69v5.32c0,.49.53.79.95.55l3.7-2.14v-6.42Z"/><polygon class="av" points="134.95 253.22 132.97 252.08 122.34 258.22 124.31 259.36 134.95 253.22"/><path class="ai" d="m128.39,263.82l4.88,2.82,1.95-3.38-4.88-2.82h0c-.25-.14-.59-.12-.98.1-.76.44-1.38,1.51-1.38,2.39,0,.44.15.75.4.89Z"/><polygon class="ay" points="130.29 264.91 132.06 265.94 132.06 263.61 133.95 262.52 132.18 261.5 130.29 262.59 130.29 264.91"/><polygon class="ar" points="132.65 263.98 132.65 269.09 152.15 257.84 152.15 252.73 132.65 263.98"/><polygon class="ai" points="132.65 263.98 130.88 262.95 130.88 268.07 132.65 269.09 132.65 263.98"/><polygon class="av" points="152.15 252.73 150.38 251.7 130.88 262.95 132.65 263.98 152.15 252.73"/><path class="ax" d="m127.84,278.23c0-1.14.8-2.53,1.79-3.1.99-.57,1.79-.11,1.79,1.03,0,.85-.45,1.84-1.08,2.52v3.34c0,.39-.27.86-.61,1.05l-.21.12c-.33.19-.61.04-.61-.35v-3.34c-.64.05-1.08-.42-1.08-1.27Z"/></g><g id="k"><path class="aw" d="m155.5,200.16l30.07-17.36c1.79-1.04,3.25-.2,3.25,1.88v20.65c0,2.07-1.45,4.59-3.25,5.63l-30.07,17.36c-1.79,1.04-3.25.2-3.25-1.88v-20.65c0-2.07,1.45-4.59,3.25-5.63Z"/><path class="ax" d="m156.65,201.03l30.07-17.36c1.79-1.04,3.25-.2,3.25,1.88v20.65c0,2.07-1.45,4.59-3.25,5.63l-30.07,17.36c-1.79,1.04-3.25.2-3.25-1.88v-20.65c0-2.07,1.45-4.59,3.25-5.63Z"/><path class="at" d="m165.59,198.03s-.05,0-.08-.01c-.2-.04-.33-.25-.29-.45l6.1-26.69c.04-.16.18-.29.35-.29h.02c.16,0,.31.11.36.26l6.1,19.65c.06.2-.05.41-.25.47-.19.07-.41-.05-.47-.25l-5.68-18.32-5.78,25.33c-.04.17-.2.29-.37.29Z"/><path class="ar" d="m157.66,220.88c-.06-.06-.09-.21-.09-.44v-10.81c0-.23.03-.41.09-.55.06-.13.16-.24.29-.31l3.28-1.89c.1-.06.18-.04.22.05.04.1.07.27.07.52v.45c0,.25-.02.45-.07.6-.05.15-.12.25-.22.31l-2.17,1.25v3l1.93-1.11c.11-.06.18-.04.22.05.05.09.07.27.07.52v.45c0,.25-.02.45-.07.6-.04.15-.12.25-.22.31l-1.93,1.11v3.28l2.18-1.26c.1-.06.17-.04.21.05.04.09.07.27.07.53v.45c0,.26-.02.47-.07.61-.05.14-.12.24-.21.3l-3.29,1.9c-.13.08-.23.09-.29.02Z"/><path class="ar" d="m162.78,217.6v-10.98c0-.22.03-.4.1-.54.06-.14.16-.25.3-.33l1.81-1.04c1.5-.87,2.25-.21,2.25,1.98,0,1.37-.35,2.55-1.05,3.53v.07c.3.08.55.56.76,1.44l.67,2.94s.01.06.02.1c0,.04.01.07.01.11,0,.26-.2.51-.61.75l-.33.19c-.35.2-.55.18-.58-.06l-.62-2.96c-.09-.34-.19-.55-.31-.63-.12-.08-.29-.06-.53.08l-.42.24v4.27c0,.33-.2.62-.59.84l-.3.17c-.39.22-.58.17-.58-.16Zm2.28-7.69c.2-.12.37-.37.52-.76.14-.39.21-.85.21-1.37,0-.55-.07-.92-.21-1.1-.14-.18-.33-.2-.57-.06l-.76.44v3.32l.81-.47Z"/><path class="ar" d="m168.65,214.21v-10.98c0-.22.03-.4.1-.54.06-.14.16-.25.3-.33l1.81-1.04c1.5-.87,2.25-.21,2.25,1.98,0,1.37-.35,2.55-1.06,3.53v.07c.3.08.55.56.76,1.44l.67,2.94s.02.06.02.1c0,.04.01.07.01.11,0,.26-.2.51-.61.75l-.33.19c-.35.2-.55.18-.58-.06l-.62-2.96c-.09-.34-.19-.55-.31-.63-.12-.08-.29-.06-.53.08l-.41.24v4.27c0,.33-.2.62-.6.84l-.3.17c-.39.22-.58.17-.58-.16Zm2.28-7.69c.2-.12.37-.37.52-.76.14-.39.21-.85.21-1.37,0-.55-.07-.92-.21-1.1-.14-.18-.33-.2-.57-.06l-.76.44v3.32l.81-.47Z"/><path class="ar" d="m174.29,205.36c0-4.1.96-6.71,2.89-7.82,1.92-1.11,2.88.38,2.88,4.48s-.96,6.74-2.88,7.85c-1.93,1.11-2.89-.39-2.89-4.51Zm3.93,1.01c.22-.78.34-1.94.34-3.47s-.11-2.55-.33-3.07c-.22-.51-.56-.63-1.03-.36-.47.27-.82.79-1.04,1.56-.22.77-.34,1.92-.34,3.45s.11,2.56.34,3.08c.22.52.57.64,1.04.37.46-.26.8-.78,1.02-1.56Z"/><path class="ar" d="m181.35,206.88v-10.98c0-.22.03-.4.09-.54.06-.14.16-.25.3-.33l1.81-1.04c1.5-.87,2.25-.21,2.25,1.98,0,1.37-.35,2.55-1.05,3.53v.07c.3.08.55.56.76,1.44l.67,2.94s.02.06.02.1c0,.04.01.07.01.11,0,.26-.2.51-.61.75l-.33.19c-.35.2-.55.18-.58-.06l-.62-2.96c-.09-.34-.19-.55-.31-.63-.12-.08-.29-.06-.53.08l-.42.24v4.27c0,.33-.2.61-.59.84l-.3.18c-.39.22-.58.17-.58-.17Zm2.28-7.69c.2-.12.37-.37.52-.76s.21-.85.21-1.37c0-.55-.07-.92-.21-1.1-.14-.18-.33-.2-.57-.06l-.76.44v3.32l.81-.47Z"/></g></g><g id="l"><polygon class="an" points="112.53 369.86 108.83 367.75 108.84 380.2 112.53 382.31 112.53 369.86"/><polygon class="ap" points="112.53 366.54 108.35 364.09 108.36 376.55 112.53 378.99 112.53 366.54"/><polygon class="an" points="112.53 366.54 108.35 364.09 108.36 376.55 112.53 378.99 112.53 366.54"/><polygon class="ae" points="230.53 215.01 112.53 369.86 112.54 382.31 230.53 227.47 230.53 215.01"/><polygon class="ap" points="230.53 211.7 112.53 366.54 112.54 378.99 230.53 224.15 230.53 211.7"/><polygon class="ax" points="230.53 224.13 230.53 218.48 224.68 219.37 219.81 225.77 230.53 224.13"/><polygon class="ax" points="215.94 243.32 205.18 244.97 200.3 251.37 211.07 249.71 215.94 243.32"/><polygon class="ax" points="225.7 230.52 214.93 232.17 210.05 238.57 220.82 236.92 225.7 230.52"/><polygon class="ax" points="206.19 256.11 195.43 257.77 190.55 264.16 201.32 262.51 206.19 256.11"/><polygon class="ax" points="196.44 268.91 185.67 270.56 180.8 276.96 191.56 275.31 196.44 268.91"/><polygon class="ax" points="186.69 281.71 175.92 283.36 171.05 289.76 181.81 288.1 186.69 281.71"/><polygon class="ax" points="176.94 294.5 166.17 296.16 161.29 302.55 172.06 300.9 176.94 294.5"/><polygon class="ax" points="167.18 307.3 156.42 308.95 151.54 315.35 162.31 313.7 167.18 307.3"/><polygon class="ax" points="157.43 320.1 146.67 321.75 141.79 328.15 152.56 326.49 157.43 320.1"/><polygon class="ax" points="147.68 332.89 136.91 334.55 132.04 340.94 142.8 339.29 147.68 332.89"/><polygon class="ax" points="137.93 345.69 127.16 347.34 122.29 353.74 133.05 352.09 137.93 345.69"/><polygon class="ax" points="128.18 358.49 117.41 360.14 112.53 366.54 123.3 364.89 128.18 358.49"/><polygon class="ax" points="118.41 371.29 112.54 372.19 112.53 378.99 113.53 377.68 118.41 371.29"/><polygon class="ae" points="112.53 283.52 230.53 298.93 230.53 311.38 112.54 295.97 112.53 283.52"/><polygon class="ap" points="112.53 281.42 230.53 296.82 230.53 309.27 112.54 293.87 112.53 281.42"/><polygon class="an" points="112.53 283.52 108.83 281.35 108.84 293.81 112.53 295.97 112.53 283.52"/><polygon class="ap" points="112.53 281.42 108.35 278.97 108.36 291.43 112.53 293.87 112.53 281.42"/><polygon class="an" points="112.53 281.42 108.35 278.97 108.36 291.43 112.53 293.87 112.53 281.42"/><path class="ah" d="m117.8,284.78s.06.04.07.1c.01.06.02.13,0,.21l-.17,1.15c-.01.08-.03.15-.07.2-.03.05-.06.08-.1.08l-1.34-.17-.22,1.49,1.25.16s.06.04.07.1c.01.06.02.13,0,.21l-.17,1.15c-.01.08-.03.15-.07.2-.03.06-.06.08-.1.08l-1.25-.16-.34,2.35c-.01.08-.03.15-.07.2-.03.05-.06.08-.1.08l-.59-.08s-.06-.04-.07-.1c-.01-.06-.02-.13,0-.21l1.02-7.02c.01-.08.03-.15.07-.2.03-.05.06-.08.1-.08l2.05.26Z"/><path class="ah" d="m118.2,287.72c.07-.41.16-.78.28-1.13.12-.35.25-.65.41-.9.16-.25.33-.44.52-.57.19-.13.4-.19.62-.16.22.03.4.13.55.31.15.18.26.41.34.69.08.28.13.6.14.97.01.37,0,.75-.06,1.16-.04.31-.08.64-.13.98-.05.34-.1.66-.15.96-.07.4-.16.78-.28,1.13-.12.35-.25.65-.41.9-.16.25-.33.44-.52.58-.19.13-.4.18-.62.15-.22-.03-.41-.13-.55-.3-.15-.17-.26-.4-.34-.69-.08-.28-.12-.61-.14-.97-.01-.37,0-.75.06-1.16.04-.3.08-.62.13-.96s.1-.67.15-.98Zm1.7,2.13c.02-.13.05-.27.07-.43.03-.16.05-.32.08-.49.02-.17.05-.33.07-.49.02-.16.04-.3.05-.42.02-.18.03-.35.03-.51,0-.15-.02-.29-.05-.41-.03-.12-.08-.21-.13-.29-.06-.07-.13-.12-.23-.13-.09-.01-.18.01-.26.07-.08.06-.15.14-.21.24-.06.11-.12.23-.17.38-.05.15-.09.31-.12.49-.02.12-.05.26-.07.42-.02.16-.05.32-.07.48-.02.17-.05.33-.07.49-.02.16-.04.31-.05.44-.04.36-.03.67.02.92.06.25.18.39.36.41.19.03.34-.08.47-.31.12-.23.22-.52.29-.88Z"/><path class="ah" d="m123.63,285.52c.2.03.37.1.51.22.14.12.25.29.33.51.08.22.13.49.14.81.01.32-.01.7-.07,1.12-.08.54-.19.99-.34,1.34-.15.35-.32.6-.51.77l.18,2.66s0,.08,0,.12c0,.06-.03.12-.05.17-.03.04-.05.06-.08.06l-.61-.08c-.06,0-.1-.05-.11-.11-.02-.07-.03-.14-.03-.2l-.16-2.39-.41-.05-.34,2.33c-.01.08-.03.15-.07.2-.03.06-.06.08-.1.08l-.59-.08s-.06-.04-.07-.1c-.02-.06-.02-.13,0-.21l1.02-7.02c.01-.08.03-.15.07-.2.03-.05.07-.08.1-.08l1.22.16Zm-.99,3.23l.51.06c.13.02.24-.03.34-.13.1-.11.17-.31.22-.61s.03-.52-.03-.65c-.06-.13-.16-.2-.29-.21l-.51-.07-.23,1.61Z"/><path class="ah" d="m124.75,293.42s-.06-.04-.07-.1c-.02-.06-.02-.13,0-.21l1.02-7.02c.01-.08.03-.15.07-.2.03-.06.06-.08.1-.08l1.44.19c.2.03.36.11.48.27.12.15.2.34.25.56.05.22.08.48.07.75,0,.28-.03.55-.06.82-.03.21-.07.39-.11.54-.04.15-.08.28-.13.39-.04.11-.08.2-.12.26-.04.07-.07.11-.09.15.09.21.14.45.15.71,0,.26-.01.58-.06.94-.04.3-.1.59-.18.86-.08.28-.17.52-.29.73-.11.21-.25.37-.4.49-.15.12-.32.16-.51.14l-1.54-.2Zm.95-1.59l.74.09c.09.01.17-.04.24-.16.07-.12.12-.27.15-.46.03-.19.02-.35-.01-.48-.03-.13-.1-.21-.19-.22l-.74-.09-.19,1.33Zm1.5-3.5c.03-.19.03-.34,0-.46-.03-.12-.09-.18-.18-.2l-.7-.09-.18,1.24.7.09c.09.01.16-.04.23-.14.06-.11.11-.25.14-.44Z"/><path class="ah" d="m128.27,293.87s-.06-.04-.07-.1c-.01-.06-.02-.13,0-.21l1.02-7.02c.01-.08.03-.15.07-.2.03-.05.06-.08.1-.08l.59.08s.06.04.07.1c.02.06.02.13,0,.21l-1.02,7.02c-.01.08-.03.15-.07.2-.03.06-.07.08-.1.08l-.59-.08Z"/><path class="ah" d="m132.37,286.64c.21.03.38.12.53.3.15.17.27.4.35.68.09.28.14.62.15,1,.02.38,0,.8-.06,1.24-.02.15-.04.29-.06.42s-.04.25-.05.36c-.02.12-.03.24-.05.36-.02.12-.04.26-.06.4-.07.45-.17.85-.3,1.22-.12.36-.26.67-.42.92-.16.25-.33.44-.52.57-.19.13-.39.18-.59.15l-1.21-.16s-.06-.04-.07-.1c-.01-.06-.02-.13,0-.21l1.02-7.02c.01-.08.03-.15.07-.2.03-.06.06-.08.1-.08l1.19.15Zm.15,3.07c.1-.84-.04-1.28-.43-1.33l-.46-.06-.6,4.13.48.06c.38.05.63-.34.77-1.17.02-.15.05-.29.07-.43.02-.13.04-.26.06-.39.02-.13.04-.26.06-.39.02-.13.04-.27.06-.42Z"/><path class="ah" d="m135.96,287.1c.21.03.38.13.53.3.15.17.26.4.35.68.09.28.14.62.15,1,.02.38,0,.79-.06,1.24-.02.15-.04.29-.06.42-.02.13-.04.25-.05.36-.02.12-.03.24-.05.36-.02.12-.04.26-.06.4-.07.45-.17.85-.29,1.21-.12.36-.26.67-.43.92-.16.25-.33.44-.52.57-.19.13-.39.18-.59.15l-1.21-.15s-.06-.04-.07-.1c-.01-.06-.02-.13,0-.21l1.02-7.02c.01-.08.03-.15.07-.2.03-.06.07-.08.1-.08l1.19.15Zm.15,3.07c.1-.84-.04-1.28-.43-1.33l-.46-.06-.6,4.13.48.06c.38.05.63-.34.77-1.17.03-.15.05-.29.07-.43.02-.13.04-.26.06-.39.02-.13.04-.26.06-.38.02-.13.04-.27.06-.43Z"/><path class="ah" d="m139.62,293.55s.06.04.07.1c.01.06.02.13,0,.21l-.17,1.15c-.01.08-.03.15-.07.2-.03.05-.06.08-.1.08l-2.13-.27s-.06-.04-.07-.1c-.01-.06-.02-.13,0-.21l1.02-7.02c.01-.08.03-.15.07-.2.03-.06.06-.08.1-.08l2.09.27s.06.04.07.1c.02.06.02.13,0,.21l-.17,1.15c-.01.08-.03.15-.07.2s-.07.08-.1.08l-1.38-.18-.17,1.17,1.28.16s.06.04.07.1c.01.06.02.13,0,.21l-.17,1.15c-.01.08-.03.15-.07.2-.03.05-.06.08-.1.08l-1.28-.16-.18,1.22,1.42.18Z"/><path class="ah" d="m142.39,295.67c-.05,0-.09-.04-.11-.11-.02-.07-.03-.12-.04-.16l-.49-3.85-.53,3.67c-.01.08-.03.15-.07.2-.03.06-.06.08-.1.08l-.59-.08s-.06-.04-.07-.1c-.01-.06-.02-.13,0-.21l1.02-7.02c.01-.08.03-.15.07-.2.03-.05.06-.08.1-.08l.47.06c.05,0,.09.04.11.11.02.07.03.12.04.16l.49,3.85.53-3.68c.01-.08.03-.15.07-.2.03-.05.07-.08.1-.08l.59.07s.06.04.07.1c.01.06.02.13,0,.21l-1.02,7.02c-.01.08-.03.15-.07.2-.03.05-.06.08-.1.08l-.47-.06Z"/><path class="ah" d="m146.72,296.22s-.06-.04-.07-.1c-.01-.06-.02-.13,0-.21l.16-1.11-1.41-.18s-.06-.04-.07-.1c-.02-.06-.02-.13,0-.21l.17-1.15c.03-.19.07-.34.13-.46l1.94-3.93c.04-.08.07-.13.1-.15s.06-.03.1-.03l.68.09s.06.04.07.1c.02.06.02.13,0,.21l-.61,4.18.38.05s.06.04.07.1c.02.06.02.13,0,.21l-.17,1.15c-.01.08-.03.15-.07.2-.03.05-.06.08-.1.08l-.39-.05-.16,1.11c-.01.08-.03.15-.07.2-.03.05-.06.08-.1.08l-.59-.08Zm.36-3.16l.29-2-.95,1.92.65.08Z"/><path class="ah" d="m151.09,288.92c.22.03.41.13.54.31.14.18.24.41.31.69.07.28.1.6.1.97s-.02.74-.07,1.14c-.04.31-.08.64-.13.98-.05.34-.1.66-.15.96-.07.39-.15.76-.26,1.11-.1.35-.23.66-.37.91-.15.25-.31.45-.49.59-.19.14-.39.19-.61.17-.22-.03-.41-.13-.54-.31-.14-.18-.24-.41-.31-.69-.07-.28-.1-.6-.1-.97,0-.37.02-.74.07-1.14.04-.3.08-.62.13-.96.05-.34.1-.67.15-.98.07-.39.15-.76.26-1.11.1-.35.23-.66.37-.91.15-.26.31-.45.49-.59.19-.14.39-.19.61-.17Zm-.22,4.89c.1-.61.19-1.22.27-1.83.02-.18.03-.35.04-.51,0-.15,0-.29-.02-.41-.02-.12-.05-.21-.1-.28-.05-.07-.12-.11-.21-.13-.09-.01-.17.01-.24.07-.07.06-.13.14-.18.25-.05.11-.1.24-.14.39-.04.15-.08.32-.1.5-.1.6-.19,1.21-.27,1.83-.02.18-.04.35-.04.5,0,.16,0,.29.02.41.02.12.06.21.11.28.05.07.12.12.21.13.09.01.17-.01.24-.07.07-.06.13-.14.18-.25.05-.11.1-.24.14-.39.04-.15.07-.32.1-.5Z"/><path class="ah" d="m155.51,289.6s.06.04.07.1c.01.06.02.13,0,.21l-.17,1.15c-.01.08-.03.15-.06.21-.03.06-.06.11-.08.16l-.74,1.26c.21.18.37.44.46.81.1.36.1.83.02,1.39-.12.82-.33,1.42-.62,1.8-.29.38-.65.55-1.07.49-.22-.03-.4-.11-.55-.26-.15-.14-.26-.32-.35-.54-.08-.22-.14-.46-.16-.72-.02-.26-.02-.53.02-.8,0-.07.03-.12.05-.17.03-.04.05-.07.08-.06l.56.07c.06,0,.11.05.13.12.02.07.05.15.08.24.03.08.07.17.12.24.05.08.14.12.26.14.14.02.27-.02.38-.13s.19-.28.22-.54c.04-.25.02-.44-.06-.57-.08-.13-.19-.2-.33-.22l-.37-.05s-.06-.04-.07-.1c-.02-.06-.02-.13,0-.21l.14-.93c.01-.08.03-.15.06-.21.03-.06.06-.12.09-.17l.65-1.1-1.17-.15s-.06-.04-.07-.1c-.02-.06-.02-.13,0-.21l.17-1.15c.01-.08.03-.15.07-.2.03-.05.06-.08.1-.08l2.14.27Z"/><path class="ah" d="m160.1,290.18s.06.04.07.1c.01.06.02.13,0,.21l-.17,1.15c-.01.08-.03.15-.07.2-.03.06-.06.08-.1.08l-1.34-.17-.22,1.49,1.25.16s.06.04.07.1c.01.06.02.13,0,.21l-.17,1.15c-.01.08-.03.15-.07.2-.03.05-.06.08-.1.08l-1.25-.16-.34,2.35c-.01.08-.03.15-.07.2-.03.06-.06.08-.1.08l-.59-.08s-.06-.04-.07-.1c-.02-.06-.02-.13,0-.21l1.02-7.02c.01-.08.03-.15.07-.2.03-.05.06-.08.1-.08l2.05.26Z"/><path class="ah" d="m160.47,293.12c.07-.41.16-.78.28-1.13.12-.35.25-.65.41-.9.16-.25.33-.44.52-.57.19-.13.4-.19.62-.16.22.03.4.13.55.31.15.18.26.41.34.69.08.28.13.6.14.97.01.37,0,.75-.06,1.16-.04.31-.08.64-.13.98-.05.34-.1.66-.15.96-.07.4-.16.78-.28,1.13-.12.35-.25.65-.41.91-.16.25-.33.44-.52.58-.19.13-.4.18-.62.15-.22-.03-.41-.13-.55-.3-.15-.17-.26-.4-.34-.69-.08-.28-.13-.61-.14-.98-.01-.37,0-.75.06-1.16.04-.3.08-.62.13-.96.05-.34.1-.67.15-.98Zm1.7,2.13c.02-.13.05-.27.07-.43s.05-.32.08-.49c.02-.17.05-.33.07-.48.02-.16.04-.3.05-.42.02-.18.03-.35.03-.51,0-.15-.02-.29-.05-.41-.03-.12-.08-.21-.13-.29-.06-.07-.14-.12-.23-.13-.09-.01-.18,0-.26.07-.08.06-.15.14-.21.24-.06.11-.12.24-.17.38-.05.15-.09.32-.12.49-.03.12-.05.26-.07.42-.02.15-.05.31-.07.48-.02.17-.05.33-.07.49-.02.16-.04.31-.05.44-.04.36-.03.67.02.92.06.25.18.39.36.41.19.02.34-.08.47-.31.12-.23.22-.52.29-.88Z"/><path class="ah" d="m165.89,290.92c.2.03.37.1.51.22s.25.29.33.51c.08.22.13.49.14.81.01.32-.01.7-.07,1.11-.08.54-.19.99-.34,1.34-.15.35-.32.6-.51.77l.18,2.66s0,.08,0,.12c0,.07-.03.12-.05.17-.03.04-.05.06-.08.06l-.61-.08c-.06,0-.1-.05-.11-.11-.02-.07-.03-.14-.03-.2l-.16-2.39-.41-.05-.34,2.33c-.01.08-.03.15-.07.2-.03.05-.07.08-.1.08l-.59-.08s-.06-.04-.07-.1c-.02-.06-.02-.13,0-.21l1.02-7.02c.01-.08.03-.15.07-.2.03-.05.06-.08.1-.08l1.22.16Zm-.99,3.23l.51.06c.13.02.24-.03.34-.13.1-.11.17-.31.22-.61.04-.31.03-.52-.03-.65-.07-.13-.16-.2-.29-.21l-.51-.07-.23,1.61Z"/><path class="ah" d="m167.02,298.82s-.06-.04-.07-.1c-.01-.06-.02-.13,0-.21l1.02-7.03c.01-.08.03-.15.07-.2.03-.05.06-.08.1-.07l1.44.18c.2.03.36.11.48.27.12.15.2.34.25.56.05.22.08.48.07.75,0,.28-.03.55-.06.82-.03.21-.07.39-.11.55-.04.15-.08.28-.13.39-.04.11-.08.2-.12.26-.04.06-.07.11-.09.15.09.21.14.45.15.71,0,.26-.01.58-.07.94-.04.3-.1.59-.18.86-.08.28-.17.52-.29.73-.11.21-.25.37-.4.49-.15.12-.32.16-.51.14l-1.54-.2Zm.95-1.59l.74.1c.09.01.17-.04.24-.16.07-.12.12-.27.15-.46.03-.19.02-.35-.01-.48-.04-.13-.1-.21-.19-.22l-.74-.09-.19,1.33Zm1.5-3.5c.03-.19.03-.34,0-.46-.03-.12-.09-.18-.18-.19l-.7-.09-.18,1.24.7.09c.09.01.17-.04.23-.14.06-.11.11-.25.13-.44Z"/><path class="ah" d="m170.55,299.27s-.06-.04-.07-.1c-.02-.06-.02-.13,0-.21l1.02-7.02c.01-.08.03-.15.07-.2.03-.06.06-.08.1-.08l.59.08s.06.04.07.1c.01.06.02.13,0,.21l-1.02,7.02c-.01.08-.03.15-.07.2-.03.06-.06.08-.1.08l-.59-.08Z"/><path class="ah" d="m174.66,292.04c.21.03.38.12.53.3.15.17.27.4.35.68.09.28.14.62.15,1,.02.38,0,.8-.06,1.24-.02.15-.04.29-.06.42s-.04.25-.05.36c-.02.12-.03.24-.05.36-.02.12-.04.26-.06.4-.07.45-.17.85-.29,1.21-.12.36-.26.67-.42.92-.16.25-.34.44-.52.57-.19.13-.39.18-.59.15l-1.21-.15s-.06-.04-.07-.1c-.01-.06-.02-.13,0-.21l1.02-7.02c.01-.08.03-.15.07-.2.03-.06.07-.08.1-.08l1.19.15Zm.15,3.06c.1-.84-.04-1.28-.43-1.33l-.46-.06-.6,4.13.48.06c.38.05.63-.34.77-1.18.03-.15.05-.29.07-.43.02-.13.04-.26.06-.39.02-.13.04-.26.06-.38.02-.13.04-.27.06-.43Z"/><path class="ah" d="m178.25,292.5c.21.03.38.12.53.3.15.17.27.4.35.68.09.29.14.62.15,1,.02.38,0,.8-.06,1.24-.02.15-.04.29-.06.42-.02.13-.04.25-.05.36-.02.12-.03.24-.05.36-.02.12-.04.26-.06.4-.07.45-.17.85-.3,1.21-.12.36-.26.67-.42.92-.16.25-.33.44-.52.57-.19.13-.39.18-.59.15l-1.21-.15s-.06-.04-.07-.1c-.01-.06-.02-.13,0-.21l1.02-7.02c.01-.08.03-.15.07-.2.03-.06.06-.08.1-.08l1.19.15Zm.15,3.07c.1-.84-.04-1.28-.43-1.33l-.46-.06-.6,4.13.48.06c.38.05.63-.34.77-1.18.03-.15.05-.29.07-.43.02-.13.04-.26.06-.39.02-.13.04-.26.06-.38.02-.13.04-.27.06-.42Z"/><path class="ah" d="m181.91,298.95s.06.04.07.1c.02.06.02.13,0,.21l-.17,1.15c-.01.08-.03.15-.07.2-.03.06-.07.08-.1.08l-2.13-.27s-.06-.04-.07-.1c-.02-.06-.02-.13,0-.21l1.02-7.03c.01-.08.03-.15.07-.2.03-.05.06-.08.1-.08l2.09.27s.06.04.07.1c.02.06.02.13,0,.21l-.17,1.15c-.01.08-.03.15-.07.2-.03.05-.06.08-.1.08l-1.38-.18-.17,1.17,1.28.16s.06.04.07.1c.01.06.02.13,0,.21l-.17,1.15c-.01.08-.03.15-.07.2-.03.06-.06.08-.1.08l-1.28-.16-.18,1.22,1.42.18Z"/><path class="ah" d="m184.67,301.08c-.05,0-.09-.04-.11-.11-.02-.07-.03-.12-.04-.16l-.49-3.85-.54,3.67c-.01.08-.03.15-.07.2-.03.06-.06.08-.1.08l-.59-.08s-.06-.04-.07-.1c-.02-.06-.02-.13,0-.21l1.02-7.02c.01-.08.03-.15.07-.2.03-.06.06-.08.1-.08l.47.06c.05,0,.09.04.11.11.02.07.03.12.04.16l.49,3.85.54-3.67c.01-.08.03-.15.07-.2.03-.06.06-.08.1-.08l.59.07s.06.04.07.1c.02.06.02.13,0,.21l-1.02,7.02c-.01.08-.03.15-.07.2-.03.05-.07.08-.1.08l-.47-.06Z"/><path class="ah" d="m188.99,301.63s-.06-.04-.07-.1c-.02-.06-.02-.13,0-.21l.16-1.11-1.41-.18s-.06-.04-.07-.1c-.01-.06-.02-.13,0-.21l.17-1.15c.03-.19.07-.34.13-.46l1.94-3.93c.04-.08.07-.13.1-.15.03-.02.06-.03.1-.03l.68.09s.06.04.07.1c.02.06.02.13,0,.21l-.61,4.18.39.05s.06.04.07.1c.02.06.02.13,0,.21l-.17,1.15c-.01.08-.03.15-.07.2-.03.05-.06.08-.1.08l-.39-.05-.16,1.11c-.01.08-.03.15-.07.2-.03.05-.06.08-.1.08l-.59-.08Zm.36-3.16l.29-2-.95,1.92.65.08Z"/><path class="ah" d="m193.37,294.33c.22.03.41.13.54.31.14.18.24.41.31.69.07.28.1.61.1.97,0,.37-.02.74-.07,1.14-.04.31-.08.64-.13.98-.05.34-.1.66-.15.96-.07.39-.15.76-.26,1.11-.1.35-.23.66-.37.91s-.31.45-.49.59c-.18.14-.39.19-.61.17-.22-.03-.4-.13-.54-.31-.14-.18-.24-.41-.31-.69-.07-.28-.1-.61-.1-.97,0-.37.02-.74.07-1.14.04-.3.08-.62.13-.96.05-.34.1-.66.15-.98.07-.39.15-.76.26-1.11.1-.35.23-.66.38-.91.14-.26.31-.45.49-.59.18-.14.39-.19.61-.17Zm-.22,4.89c.1-.61.19-1.22.27-1.83.02-.18.03-.35.04-.5,0-.15,0-.29-.02-.41-.02-.12-.06-.21-.1-.28-.05-.07-.12-.11-.21-.13-.09-.01-.17.01-.24.07-.07.06-.13.14-.18.25-.05.11-.1.24-.14.39-.04.15-.08.32-.1.5-.1.6-.19,1.21-.27,1.83-.02.18-.04.35-.04.5,0,.16,0,.29.02.41.02.12.06.21.11.28.05.07.12.12.21.13.09.01.17-.01.24-.07.07-.06.13-.14.19-.25.05-.11.1-.24.14-.39.04-.15.07-.31.1-.5Z"/><path class="ah" d="m197.78,295s.06.04.07.1c.02.06.02.13,0,.21l-.17,1.15c-.01.08-.03.15-.06.21-.03.06-.06.12-.08.16l-.74,1.26c.21.17.37.44.46.81.1.36.1.83.02,1.39-.12.82-.33,1.42-.62,1.8s-.65.55-1.07.49c-.22-.03-.4-.11-.55-.26-.15-.14-.26-.33-.35-.54-.08-.22-.14-.46-.16-.72-.02-.26-.02-.53.02-.8,0-.07.03-.12.05-.17.03-.04.05-.07.08-.06l.57.07c.06,0,.1.05.13.12.02.07.05.15.08.24.03.09.07.17.13.24.05.08.14.12.26.14.14.02.27-.02.38-.13.11-.1.18-.28.22-.54.04-.25.02-.44-.06-.57-.08-.13-.19-.2-.33-.22l-.37-.05s-.06-.04-.07-.1c-.02-.06-.02-.13,0-.21l.14-.94c.01-.08.03-.15.06-.21.03-.06.06-.12.09-.17l.64-1.1-1.17-.15s-.06-.04-.07-.1c-.02-.06-.02-.13,0-.21l.17-1.15c.01-.08.03-.15.07-.2s.06-.08.1-.08l2.15.27Z"/><path class="ah" d="m202.36,295.59s.06.04.07.1c.01.06.02.13,0,.21l-.17,1.15c-.01.08-.03.15-.07.2-.03.05-.06.08-.1.08l-1.34-.17-.22,1.49,1.25.16s.06.04.07.1c.02.06.02.13,0,.21l-.17,1.15c-.01.08-.03.15-.07.2-.03.05-.06.08-.1.08l-1.25-.16-.34,2.35c-.01.08-.03.15-.07.2-.03.06-.06.08-.1.08l-.59-.08s-.06-.04-.07-.1c-.02-.06-.02-.13,0-.21l1.02-7.02c.01-.08.03-.15.07-.2.03-.06.06-.08.1-.08l2.05.26Z"/><path class="ah" d="m202.76,298.53c.07-.4.16-.78.28-1.13.12-.35.25-.65.41-.9.16-.25.33-.44.52-.58.19-.13.4-.19.62-.16.22.03.4.13.55.31.15.18.26.41.34.69.08.28.13.6.14.97.01.37,0,.75-.06,1.16-.04.31-.08.64-.13.98-.05.34-.1.66-.15.96-.07.41-.16.78-.28,1.13-.12.35-.25.65-.41.9-.16.25-.33.45-.52.58-.19.13-.4.18-.62.15-.22-.03-.41-.13-.55-.3-.15-.17-.26-.4-.34-.69-.08-.28-.12-.61-.14-.98-.01-.37,0-.75.06-1.16.04-.3.08-.62.13-.96.05-.34.1-.67.15-.98Zm1.7,2.13c.02-.13.05-.27.07-.43.03-.16.05-.32.08-.49.02-.17.05-.33.07-.49.02-.16.04-.3.05-.42.02-.18.03-.35.03-.51,0-.16-.02-.29-.05-.41-.03-.12-.07-.21-.13-.29-.06-.07-.14-.12-.23-.13-.09-.01-.18,0-.26.07-.08.06-.15.14-.21.25-.06.11-.12.23-.17.38-.05.15-.09.31-.12.49-.02.12-.05.26-.07.42-.02.15-.05.32-.07.48-.02.17-.05.33-.07.49-.02.16-.04.31-.05.44-.04.36-.03.67.02.92.06.25.18.39.36.41.19.02.34-.08.46-.31.13-.23.22-.52.29-.88Z"/><path class="ah" d="m208.17,296.33c.2.02.37.1.51.22.14.12.25.29.33.51.08.22.12.49.14.81.01.32-.01.7-.07,1.11-.08.54-.19.99-.34,1.34-.15.35-.32.6-.52.77l.18,2.66s0,.08,0,.12c0,.07-.03.12-.05.17-.03.04-.05.06-.08.06l-.61-.08c-.06,0-.1-.05-.11-.11-.02-.07-.03-.14-.03-.2l-.16-2.39-.41-.05-.34,2.33c-.01.08-.03.15-.07.2-.03.05-.06.08-.1.08l-.59-.08s-.06-.04-.07-.1c-.01-.06-.02-.13,0-.21l1.02-7.02c.01-.08.03-.15.07-.2.03-.06.06-.08.1-.08l1.22.15Zm-.99,3.23l.51.07c.13.02.24-.03.34-.14.1-.11.17-.31.22-.61.04-.3.03-.52-.03-.65-.07-.13-.16-.2-.29-.21l-.51-.06-.23,1.61Z"/><path class="ah" d="m209.29,304.22s-.06-.04-.07-.1c-.01-.06-.02-.13,0-.21l1.02-7.02c.01-.08.03-.15.07-.2.03-.06.06-.08.1-.08l1.44.18c.2.03.36.11.48.27.12.15.2.34.25.56.05.22.08.48.07.75,0,.28-.02.55-.06.82-.03.21-.07.39-.11.55-.04.15-.08.28-.13.39-.04.11-.08.2-.12.26-.04.06-.07.11-.09.15.09.21.14.45.15.71,0,.26-.01.58-.07.94-.04.3-.1.59-.18.86-.08.28-.17.52-.29.73-.11.21-.25.37-.4.49-.15.12-.32.16-.51.14l-1.54-.2Zm.95-1.59l.74.1c.09.01.17-.04.24-.16.07-.12.12-.27.15-.46.03-.19.02-.35-.01-.48-.04-.13-.1-.21-.19-.22l-.74-.09-.19,1.33Zm1.5-3.5c.03-.19.03-.34,0-.46-.03-.12-.09-.18-.18-.2l-.7-.09-.18,1.24.7.09c.09.01.17-.04.23-.14.06-.11.11-.25.14-.44Z"/><path class="ah" d="m212.83,304.68s-.06-.04-.07-.1c-.02-.06-.02-.13,0-.21l1.02-7.02c.01-.08.03-.15.07-.2.03-.06.06-.08.1-.08l.59.08s.06.04.07.1c.01.06.02.13,0,.21l-1.02,7.02c-.01.08-.03.15-.07.2-.03.06-.06.08-.1.08l-.59-.08Z"/><path class="ah" d="m216.92,297.45c.21.03.38.13.53.3.15.17.26.4.35.68.08.28.14.62.15,1,.01.38,0,.8-.06,1.24-.02.15-.04.29-.06.42-.02.13-.04.25-.05.36-.02.12-.03.24-.05.36-.02.12-.04.26-.06.4-.07.45-.17.85-.3,1.21-.12.36-.26.67-.42.92-.16.25-.33.44-.52.57-.19.13-.39.18-.59.15l-1.21-.15s-.06-.04-.07-.1c-.01-.06-.02-.13,0-.21l1.02-7.02c.01-.08.03-.15.07-.2.03-.05.06-.08.1-.08l1.19.15Zm.15,3.06c.1-.84-.04-1.28-.43-1.33l-.46-.06-.6,4.13.48.06c.38.05.63-.34.77-1.17.03-.15.05-.3.07-.43.02-.13.04-.26.06-.39.02-.13.04-.26.06-.38.02-.13.04-.27.06-.43Z"/><path class="ah" d="m220.51,297.91c.21.03.38.13.53.3.15.17.26.4.35.68.08.28.14.62.15,1,.02.38,0,.8-.06,1.24-.02.15-.04.29-.06.42-.02.13-.04.25-.05.36-.02.12-.03.24-.05.36-.02.12-.04.26-.06.4-.07.45-.17.85-.3,1.21-.12.36-.26.67-.42.92-.16.25-.33.44-.52.57-.19.13-.39.18-.59.15l-1.21-.15s-.06-.04-.07-.1c-.02-.06-.02-.13,0-.21l1.02-7.02c.01-.08.03-.15.07-.2.03-.06.06-.08.1-.08l1.19.15Zm.15,3.07c.1-.84-.04-1.28-.43-1.33l-.46-.06-.6,4.13.48.06c.38.05.63-.34.77-1.17.03-.15.05-.29.07-.43.02-.13.04-.26.06-.39.02-.13.04-.25.06-.38.02-.13.04-.27.06-.43Z"/><path class="ah" d="m224.18,304.36s.06.04.07.1c.02.06.02.13,0,.21l-.17,1.15c-.01.08-.03.15-.07.2-.03.06-.07.08-.1.08l-2.13-.27s-.06-.04-.07-.1c-.02-.06-.02-.13,0-.21l1.02-7.02c.01-.08.03-.15.07-.2.03-.06.06-.08.1-.08l2.09.27s.06.04.07.1c.02.06.02.13,0,.21l-.17,1.15c-.01.08-.03.15-.06.2-.03.06-.07.08-.1.08l-1.38-.18-.17,1.17,1.28.16s.06.04.07.1c.01.06.02.13,0,.21l-.17,1.15c-.01.08-.03.15-.07.2s-.06.08-.1.08l-1.28-.16-.18,1.22,1.42.18Z"/><path class="ah" d="m226.94,306.48c-.05,0-.09-.04-.11-.11-.02-.07-.03-.12-.04-.16l-.49-3.85-.53,3.67c-.01.08-.03.15-.07.2-.03.05-.07.08-.1.08l-.59-.08s-.06-.04-.07-.1c-.01-.06-.02-.13,0-.21l1.02-7.02c.01-.08.03-.15.07-.2.03-.06.06-.08.1-.08l.47.06c.05,0,.09.04.11.11.02.07.03.12.04.16l.49,3.85.53-3.68c.01-.08.03-.15.07-.2.03-.05.06-.08.1-.08l.59.08s.06.04.07.1c.02.06.02.13,0,.21l-1.02,7.03c-.01.08-.03.15-.07.2-.03.05-.07.08-.1.08l-.47-.06Z"/></g></g><g id="m"><g id="n"><path class="ap" d="m142.21,105.27c-.06-.05-.11-.1-.17-.13-.24-.13-5.26-3.03-5.26-3.03v-24.92c0-.58-.14-1.01-.41-1.27-.05-.05-.11-.09-.17-.13-.24-.14-5.56-3.21-5.62-3.24-.24-.14-.52-.13-.83.05l-7.81,4.51c-.45.26-.8.56-1.06.89-.26.34-.54.88-.85,1.65l-15.47,38.96c-.45,1.16-.67,2.43-.67,3.81v8.44c0,.58.14,1.01.41,1.27.06.05.11.1.18.13.24.13,5.56,3.21,5.62,3.24.24.14.51.12.82-.06l10.67-6.16v1.63c0,.58.14,1.01.41,1.27.05.05.11.09.17.13.24.14,5.57,3.21,5.62,3.25.24.14.51.12.82-.06l6.78-3.91c.38-.22.71-.62.98-1.2.28-.58.41-1.17.41-1.75v-8.12l4.45-2.57c.38-.22.71-.62.98-1.21.28-.58.41-1.17.41-1.75v-8.44c0-.58-.14-1.01-.41-1.28Z"/><path class="aw" d="m126.47,81.24l-.03.1c-.24.34-.51.86-.79,1.56l-15.46,38.96c-.2.51-.35,1.05-.46,1.6l-5.67-3.27c.11-.55.26-1.07.45-1.58l15.46-38.96c.31-.76.6-1.32.86-1.65,0,0,0,0,0,0l5.62,3.25Z"/><path class="ag" d="m110.03,135.47c-.64-.37-5.33-3.07-5.55-3.2-.06-.03-.12-.08-.17-.14-.28-.26-.42-.69-.42-1.27v-8.44c0-.78.08-1.51.22-2.22l5.62,3.25c-.15.7-.21,1.44-.21,2.22v8.44c0,.58.14,1,.41,1.27.03.03.07.06.1.09Z"/><polygon class="ag" points="127.47 98.5 127.47 113.15 122.73 110.42 127.47 98.5"/><polygon class="ac" points="127.47 113.15 119.92 117.51 122.73 110.42 127.47 113.15"/><path class="ag" d="m127.62,135.44s.06.06.1.08c-.63-.36-5.33-3.07-5.55-3.2-.06-.03-.12-.08-.17-.13-.28-.26-.42-.69-.42-1.27v-1.63l5.62-3.25v8.12c0,.58.14,1.01.42,1.27Z"/><path class="aw" d="m141.97,105.11c-.22-.1-.47-.07-.74.09l-4.45,2.57v-5.66s4.58,2.64,5.19,3Z"/><path class="ab" d="m136.16,75.77c-.23-.12-.49-.09-.78.08l-7.8,4.51c-.45.26-.8.55-1.06.89l-5.62-3.25c.26-.33.61-.62,1.05-.89l7.81-4.51c.31-.18.58-.19.82-.05.06.03,5.06,2.92,5.58,3.22Z"/><path class="ap" d="m128.61,135.51c-.38.22-.71.2-.98-.07-.28-.27-.41-.69-.41-1.27v-8.12l-16.3,9.41c-.38.22-.71.2-.98-.07-.28-.27-.41-.69-.41-1.27v-8.44c0-1.38.22-2.65.67-3.81l15.47-38.96c.31-.76.6-1.31.85-1.65.26-.33.61-.63,1.06-.89l7.81-4.51c.38-.22.71-.19.98.07.28.27.41.69.41,1.27v30.58l4.45-2.57c.38-.22.71-.19.98.07.28.27.41.69.41,1.28v8.44c0,.58-.14,1.17-.41,1.75-.28.59-.6.99-.98,1.21l-4.45,2.57v8.12c0,.59-.14,1.17-.41,1.75-.28.58-.6.99-.98,1.2l-6.78,3.91Zm-1.14-22.36v-14.65l-7.55,19.01,7.55-4.36Z"/><path class="ap" d="m181.49,70.02c-.1-2.81-.46-5.35-1.06-7.63-.6-2.28-1.52-4.05-2.74-5.31-.43-.44-.9-.81-1.41-1.11-.94-.55-5.12-2.95-5.64-3.25-.94-.55-2.01-.85-3.21-.91-1.86-.09-4.09.61-6.67,2.1-2.59,1.49-4.81,3.36-6.67,5.61-1.86,2.24-3.41,4.7-4.63,7.37-1.22,2.67-2.14,5.5-2.74,8.47-.6,2.98-.96,5.93-1.06,8.86-.07,2.32-.1,4.73-.1,7.23s.03,4.81.1,6.95c.1,2.81.46,5.35,1.06,7.63.6,2.28,1.52,4.05,2.74,5.31.43.44.89.81,1.4,1.11.94.55,5.18,3,5.72,3.3.92.52,1.96.81,3.13.86,1.86.09,4.09-.61,6.67-2.1,2.59-1.49,4.81-3.36,6.67-5.61,1.86-2.24,3.41-4.7,4.63-7.37,1.22-2.67,2.14-5.49,2.74-8.47.6-2.98.96-5.93,1.06-8.86.07-2.22.1-4.57.1-7.07s-.04-4.86-.1-7.11Zm-20.44,28.3c-.11-.79-.17-1.66-.2-2.61-.17-4.41-.17-8.87,0-13.38.03-1.35.15-2.64.36-3.87.21-1.23.52-2.38.93-3.45.41-1.06.97-2.03,1.66-2.91.61-.78,1.37-1.44,2.25-1.99.11.79.2,1.65.25,2.58.14,4.33.14,8.79,0,13.38-.04,1.35-.15,2.63-.34,3.86-.19,1.22-.5,2.37-.93,3.44-.43,1.07-.99,2.05-1.68,2.92-.62.79-1.39,1.46-2.3,2.03Z"/><path class="aw" d="m156.43,115.65c-.94-.53-4.7-2.7-5.58-3.21-.51-.3-.97-.67-1.4-1.11-1.23-1.26-2.14-3.03-2.74-5.3-.6-2.28-.96-4.83-1.06-7.63-.07-2.14-.1-4.45-.1-6.95s.03-4.91.1-7.23c.1-2.93.46-5.88,1.06-8.86.42-2.1,1-4.11,1.75-6.06l5.62,3.25c-.73,1.94-1.31,3.96-1.73,6.05-.61,2.98-.96,5.93-1.07,8.86-.07,2.32-.1,4.73-.1,7.23s.03,4.81.1,6.95c.1,2.8.46,5.35,1.07,7.63.6,2.28,1.52,4.05,2.74,5.3.41.42.87.78,1.35,1.07Z"/><path class="ab" d="m176.06,55.85c-.89-.47-1.89-.73-3.01-.8-1.86-.09-4.09.61-6.68,2.1-2.58,1.5-4.81,3.37-6.67,5.61s-3.41,4.7-4.63,7.37c-.19.4-.36.81-.53,1.23-.16.39-.31.79-.46,1.19h0l-5.62-3.25c.13-.35.27-.71.42-1.05.19-.46.37-.91.58-1.36,1.23-2.67,2.77-5.12,4.63-7.38,1.86-2.24,4.09-4.11,6.68-5.6,2.58-1.5,4.81-2.19,6.68-2.1,1.2.06,2.27.36,3.21.91.48.28,4.18,2.41,5.42,3.14Z"/><path class="ag" d="m171.92,89.32c-.03,1.34-.15,2.63-.34,3.86-.19,1.23-.5,2.37-.93,3.44-.19.46-.4.91-.64,1.34l-5.62-3.25c.24-.43.45-.88.64-1.34.43-1.07.74-2.22.93-3.44.19-1.23.3-2.51.33-3.86.14-4.59.14-9.05,0-13.38-.05-.93-.13-1.79-.24-2.58,0,0,.15-.1.33-.21,1.03-.62,1.9-.85,2.59-.78.69.08,1.24.42,1.66,1,.42.58.71,1.38.91,2.38.19,1,.32,2.15.39,3.44.13,4.33.13,8.79,0,13.38Z"/><path class="ac" d="m170.01,97.97c-.31.56-.65,1.09-1.04,1.58-.69.88-1.55,1.61-2.59,2.21-1.03.6-1.89.86-2.58.78-.69-.08-1.25-.4-1.68-.98-.43-.57-.74-1.36-.93-2.37-.06-.28-.1-.57-.14-.87.9-.56,1.68-1.23,2.29-2.02.39-.49.74-1.02,1.05-1.58l5.62,3.25Z"/><path class="ap" d="m166.38,57.16c2.59-1.49,4.81-2.19,6.67-2.1,1.86.09,3.41.77,4.63,2.03,1.22,1.26,2.14,3.03,2.74,5.31.6,2.28.96,4.82,1.06,7.63.07,2.25.1,4.61.1,7.11s-.04,4.85-.1,7.07c-.1,2.93-.46,5.88-1.06,8.86-.6,2.98-1.52,5.8-2.74,8.47-1.22,2.67-2.77,5.13-4.63,7.37-1.86,2.24-4.09,4.11-6.67,5.61-2.59,1.49-4.81,2.19-6.67,2.1-1.86-.09-3.41-.77-4.63-2.03-1.22-1.26-2.14-3.03-2.74-5.31-.6-2.28-.96-4.82-1.06-7.63-.07-2.14-.1-4.45-.1-6.95s.03-4.9.1-7.23c.1-2.93.46-5.88,1.06-8.86.6-2.98,1.52-5.8,2.74-8.47,1.22-2.67,2.77-5.13,4.63-7.37,1.86-2.24,4.09-4.11,6.67-5.61Zm5.53,32.17c.14-4.59.14-9.05,0-13.38-.07-1.29-.2-2.43-.39-3.44-.19-1.01-.49-1.8-.91-2.38-.41-.58-.97-.92-1.66-1-.69-.08-1.55.18-2.59.78-1.03.6-1.9,1.33-2.59,2.21-.69.88-1.24,1.85-1.66,2.91-.41,1.06-.72,2.21-.93,3.45-.21,1.24-.33,2.53-.36,3.87-.17,4.51-.17,8.97,0,13.38.03,1.31.15,2.46.34,3.47.19,1.01.5,1.8.93,2.37.43.57.99.9,1.68.98.69.08,1.55-.18,2.59-.78,1.03-.6,1.9-1.33,2.59-2.21.69-.88,1.25-1.85,1.68-2.92.43-1.07.74-2.22.93-3.44.19-1.22.3-2.51.34-3.86Z"/><path class="ap" d="m219.68,55.99c-.36-.33-.75-.62-1.16-.85-.24-.14-.5-.24-.76-.34.2.08.4.14.59.24-1.19-.68-4.27-2.48-4.27-2.48h0s5.3-11.29,5.3-11.29c.2-.43.42-.95.66-1.56.24-.61.36-1.2.36-1.78v-8.33c0-.58-.14-.99-.41-1.26-.08-.07-.16-.12-.24-.16h0c-.64-.37-5.44-3.15-5.49-3.19-.23-.12-.51-.1-.79.07l-24.41,14.09c-.33.19-.6.51-.84.94-.05.08-.1.16-.14.25-.27.59-.41,1.16-.41,1.74v8.32c0,.59.14,1,.41,1.26.07.07.14.11.21.15.19.1,4.55,2.63,5.41,3.12-.01-.03-.04-.04-.05-.05h0c.27.26.6.28.97.07l3.61-2.08-1.26,2.72c-.25.51-.48,1.05-.71,1.67-.05.14-.1.26-.14.4-.04.14-.08.26-.11.4,0,.02,0,.03,0,.05-.02.08-.02.17-.04.25,0,.03,0,.06-.01.08-.04.21-.05.41-.05.6v6.76c0,.58.14,1,.4,1.26.07.05.15.11.22.15.21.11,4.83,2.78,5.46,3.15-.02-.02-.05-.04-.08-.07.26.23.57.25.93.04l4.24-2.45h.01c-.18,1.35-.68,2.6-1.52,3.72-1.07,1.47-2.42,2.67-4.05,3.6-1.37.79-2.41,1.15-3.14,1.07-.23-.02-.45-.06-.66-.1h-.01s-2.42-1.4-2.44-1.42c-.1-.06-.22-.09-.34-.11-.33-.04-.74.07-1.23.35l-6.44,3.72c-.3.18-.56.49-.79.96-.01.04-.03.07-.04.11h0c-.09.22-.17.44-.21.65-.05.22-.08.43-.08.65.04,1.93.4,3.61,1.1,5.07.7,1.47,1.7,2.56,3,3.27.82.47,4.08,2.38,5.34,3.09-.18-.11-.34-.24-.5-.36.23.17.47.34.72.48,1.29.72,2.89.98,4.77.78,1.89-.2,4.06-1.01,6.51-2.42,4.77-2.75,8.48-6.39,11.13-10.91,2.66-4.52,3.98-9.74,3.98-15.67,0-4.09-.83-6.9-2.5-8.42Z"/><path class="aw" d="m188.18,40.22s.01-.04.03-.07c-.05.08-.1.16-.14.25-.27.59-.41,1.16-.41,1.74v8.32c0,.59.14,1,.41,1.26.07.07.14.11.21.15.19.1,4.55,2.63,5.41,3.12-.01-.03-.04-.04-.05-.05h.01c-.27-.26-.41-.68-.41-1.26v-8.34c0-.58.14-1.15.41-1.73.09-.18.18-.31.28-.46-.06.09-.13.17-.18.28l-5.56-3.22Z"/><path class="aw" d="m201.46,62.06l-5.56-3.21c0,.05-.02.11-.02.16v6.76c0,.58.14,1,.4,1.26.07.05.15.11.22.15.21.11,4.83,2.78,5.46,3.15-.01-.01-.04-.04-.07-.07-.01,0-.03-.01-.04-.03-.27-.26-.41-.67-.41-1.25v-6.76c0-.06.02-.11.02-.17Z"/><path class="ag" d="m201.8,60.45c.25-.62.48-1.16.73-1.67l5.41-11.54-9.72,5.61-1.26,2.71c-.25.51-.48,1.05-.71,1.67-.05.14-.1.26-.14.4-.04.14-.08.26-.11.4v.05c-.01.08-.03.16-.04.25,0,.03,0,.05-.01.08-.03.15-.03.29-.04.44l5.56,3.21c.02-.52.13-1.06.34-1.61Z"/><path class="aw" d="m186.45,79.66s-.03.07-.04.11h.01c-.1.22-.18.44-.22.66-.05.22-.08.44-.08.64.04,1.93.4,3.61,1.1,5.07.7,1.47,1.7,2.56,3,3.27.82.47,4.08,2.38,5.34,3.09-.04-.03-.08-.05-.11-.08-1.14-.71-2.01-1.73-2.66-3.07-.7-1.45-1.07-3.15-1.1-5.07,0-.47.11-.94.33-1.41.08-.17.18-.31.27-.44l-5.57-3.2c-.09.13-.19.26-.27.43Z"/><path class="ag" d="m197.71,76.16h-.02s-2.42-1.41-2.44-1.42c-.1-.05-.22-.08-.34-.11-.33-.04-.74.08-1.23.36l-6.44,3.72c-.19.11-.36.3-.52.53l5.57,3.2c.16-.23.33-.42.52-.53l6.44-3.71c.71-.41,1.26-.48,1.63-.19l-3.17-1.85h0Z"/><path class="ac" d="m203.92,79.47c.74.08,1.78-.27,3.15-1.07,1.63-.94,2.98-2.14,4.05-3.6,1.07-1.45,1.62-3.11,1.62-4.94s-.55-2.86-1.62-3.08c-1.07-.22-2.42.15-4.05,1.1-.18,1.36-.68,2.59-1.52,3.71-1.07,1.47-2.42,2.67-4.05,3.6-1.37.79-2.41,1.15-3.14,1.07-.23-.01-.45-.06-.65-.1l3.17,1.85c.38.27.79.57,1.26.89.45.31,1.05.51,1.78.58Z"/><path class="ab" d="m214.07,52.55s3.08,1.79,4.27,2.48c-.04-.03-.08-.04-.14-.05-.05-.04-.1-.05-.15-.07-1.37-.67-3-.82-4.86-.48l.88-1.88Z"/><path class="ab" d="m216.76,26.52c-1.29-.74-2.49-1.45-2.52-1.47-.23-.12-.51-.1-.79.07l-24.41,14.09c-.33.19-.6.51-.83.94-.01.03-.01.04-.03.07l5.56,3.22c.06-.11.12-.19.18-.28.06-.1.12-.21.19-.3.15-.18.31-.33.49-.44l24.41-14.09c.26-.15.49-.19.71-.11-.33-.19-1.68-.97-2.96-1.71Z"/><path class="ap" d="m219.01,28.26c.37-.22.7-.19.97.07.27.26.41.68.41,1.26v8.33c0,.58-.12,1.17-.36,1.78-.24.61-.46,1.13-.66,1.56l-5.3,11.28-.88,1.87c2.08-.38,3.85-.14,5.33.71.41.24.79.52,1.16.85,1.67,1.53,2.5,4.34,2.5,8.42,0,5.92-1.33,11.14-3.98,15.67-2.66,4.52-6.37,8.16-11.13,10.91-2.45,1.42-4.62,2.22-6.51,2.42-1.89.2-3.48-.06-4.77-.78-1.29-.72-2.29-1.81-2.99-3.27-.7-1.46-1.06-3.15-1.1-5.07,0-.47.11-.94.33-1.41.22-.47.48-.79.79-.97l6.43-3.72c.72-.41,1.26-.48,1.63-.2.37.28.79.58,1.25.89s1.05.5,1.79.58c.73.08,1.78-.28,3.14-1.07,1.63-.94,2.99-2.14,4.06-3.6,1.07-1.46,1.61-3.1,1.61-4.94s-.54-2.86-1.61-3.08c-1.07-.22-2.43.14-4.06,1.09l-4.24,2.45c-.38.22-.7.19-.97-.07-.27-.26-.41-.68-.41-1.26v-6.76c0-.58.12-1.17.36-1.78.24-.61.48-1.17.72-1.67l5.41-11.54-13.33,7.7c-.37.22-.7.19-.97-.07-.27-.26-.41-.68-.41-1.26v-8.33c0-.58.14-1.15.41-1.73.27-.58.6-.97.97-1.19l24.41-14.09Z"/></g></g><g id="o"><g id="p"><path class="as" d="m414.41,218.19l7.08-.31,4.58,8.68s-2.86,1.48-13.05,1.6l1.38-9.97Z"/><path class="ap" d="m369.6,197.3c2.7,1.27,4.17,2.73,7.07,5.1,3.58,2.92,15.93,11.31,18.58,12.05,8.08,1.79,15.12,2.87,21.36,3.44,0,0-1.15,6.96.34,10.45-6.34.29-22.51.83-28.15-.5-6.03-1.42-12.65-4.8-17.77-7.77-5.12-2.97-3.98-20.24-1.43-22.76Z"/><g class="z"><path class="aq" d="m369.6,197.3c2.7,1.27,4.17,2.73,7.07,5.1,3.58,2.92,15.93,11.31,18.58,12.05,8.08,1.79,15.12,2.87,21.36,3.44,0,0-1.15,6.96.34,10.45-6.34.29-22.51.83-28.15-.5-6.03-1.42-12.65-4.8-17.77-7.77-5.12-2.97-3.98-20.24-1.43-22.76Z"/></g><path class="ay" d="m371.03,220.06c5.12,2.97,11.74,6.35,17.77,7.77,4.08.96,13.68.95,21.08.75-6.28-.43-16.13-2.13-19.04-3.06-1.11-.35-8.23-3.69-11.76-6.2-3.34-2.37-3.53-6.62-5.23-12.77-2.26-8.17-4.25-9.26-4.25-9.26-2.55,2.52-3.69,19.79,1.43,22.76Z"/><path class="ap" d="m409.89,228.59s-1.3-3.6.31-8.69c0,0-2.06,2.04-1.62,8.72l1.31-.03Z"/><path class="ay" d="m409.89,228.59s-1.3-3.6.31-8.69c0,0-2.06,2.04-1.62,8.72l1.31-.03Z"/><path class="ao" d="m424.39,226.71c6.01-.21,8.23-3.25,9.07-8.52.84-5.27.7-12.16.76-13.98.07-1.84-.47-2.45-1.2-2.56-.27-.04-1.43.26-1.56,2.21-.24,3.55-.33,5.74-1.01,5.72-.67-.02-.57-2.66-.51-6.25.04-2.42-.04-4.46-1.39-4.46-1.44,0-1.79,1.44-1.87,4.72-.07,3.28.02,5.7-.86,5.76-.7.05-.56-3.42-.71-5.66-.16-2.26-.15-3.58-1.55-3.55-1.27.03-1.61,1.83-1.56,4.03.05,2.04,0,8.25-.23,9.02-.39,1.3-1.73-1.89-2.71-3.2-1.61-2.15-3.57-1.16-2.78.79.79,1.95,1.71,4.74,2.18,7.4.42,2.41,1.44,8.56,5.94,8.54Z"/><path class="as" d="m424.36,215.82s3.62,3.77,2.31,7.8c0,0,1.97-2.3.65-5.4-.9-2.1-2.96-2.4-2.96-2.4Z"/><path class="at" d="m345.39,404.83c-.13,1.14-.28,4.33-6.07,5.13-5.79.8-9.44-1.12-10.98-3.9-1.54-2.78-1.19-5.05-1.44-7.63-.25-2.58-2.38-3.95-2.99-5.28-.9-1.96.42-5,.42-5l21.06,16.69Z"/><path class="at" d="m387.63,395.77c.21.17.27,1.99-.38,2.8-.45.56-4.47,3.25-9.28,2.48-4.81-.77-7.12-2.12-9.82-3.85-2.76-1.77-4.7-2.09-7.58-2.18-2.78-.1-4.82-.71-5.03-1.45-.37-1.28-.37-2.1.24-2.06l31.84,4.25Z"/><path class="ax" d="m344.97,402.2c-.51-.95-2-2.32-2.66-3.18-3.43-4.48-5.6-9.69-6.02-15.35-.02-.31-.06-.91-.37-1.1-.33-.2-.62.07-.96.22,0,0-.01-.01-.02-.02,0,0,0,.02,0,.02-.41.18-.99.38-1.79.47-2.05.23-4.32-.26-4.83-.19-.4.05-.52,1.29-.49,2.62-.73-.46-.97-1.38-1.62-1.91-.35-.29-.51-.3-.5-.77,0-.31.02-.59.03-.9-.53-.15-.97,1.86-1.4,3.4-.5,1.78-1.13,3.8-.42,5.61.39,1.01,1.04,1.89,1.63,2.8,1.02,1.56,1.92,3.27,2.1,5.12.08.81.02,1.64.13,2.45.4,2.82,2.33,5.03,5.05,5.88,3.53,1.1,8.83.93,11.94-1.54,1.09-.86.72-2.68.21-3.63Z"/><path class="ax" d="m385.29,392.04c-.77-.25-1.53-.52-2.28-.82-2.1-.84-4.13-1.86-6.06-3.03-.86-.51-1.69-1.06-2.51-1.63-.86-.6-1.66-1.27-2.47-1.93-.43-.35-.83-.83-1.18-1.26-.7-.86-1.28-1.81-1.74-2.81-.1-.22-.21-.47-.44-.58-.26-.12-.58,0-.82.17-.21.15-.4.33-.64.43-.22.1-.46.19-.68.28-.73.3-1.5.49-2.28.56-2.94.26-3.03-.33-3.16.62-.03.23-.04.61-.02,1.06-1.55-.26-2.77-.76-2.84-1.35l-.19-1.88c-2.3-.32-2.08,2.38-2.35,5.35-.24,2.54-.82,4.73-.13,6.58,2.34,2.04,6.46,1.55,8.81,1.93,3.32.55,4.88,3.01,9.5,4.61,7.45,2.58,12.15-.4,13.55-1.69.92-1.65,1.11-3.6-2.07-4.62Z"/><path class="at" d="m329.2,250.14c-.93,9.02-1.91,22.55-2.29,33.11-.7,19.86-.43,44.69-.43,44.69,0,0-1.93,7.1-2.14,12.73-.47,12.69-.38,44.1-.38,44.1,0,0,5.26,5.3,13.13,1.14,0,0,6.97-42.87,8.92-55.38,1.86-11.93,5.49-37.98,5.49-37.98l1.64,36.06s-1.93,6.9-1.24,16.26c.43,5.81,3.74,37.44,3.74,37.44,3.02,2.84,11.84,1.29,13.77-.96,0,0,3.09-45.34,3.43-51.47.74-13.26,1.02-63.83.04-71.5-.99-7.67-43.7-8.24-43.7-8.24Z"/><path class="af" d="m351.51,292.56l2.31-15.28s6.35-1.2,10.99-4.64c0,0-1.8,4.08-8.82,7l-2.28,14.23-.55,34.76-1.64-36.06Z"/><path class="at" d="m340.01,155.33s-.21.03-.54.11c.23-1.16-.28-2.33-1.33-2.81-1.26-.58-2.81.06-3.45,1.42l3.76,1.72c-1,.4-2.23,1.13-2.87,2.44-1.03,2.12.33,6.64,1.7,12.22,1.38,5.58,2.12,7.99,3.04,10.34.63,1.62,1.77,1.68,1.77,1.68v-5.57s-.24-4.62-.24-4.62c0,0,2.96-4.05,3.29-7.36.42-4.27-.48-6.01-.48-6.01l-4.65-3.57Z"/><path class="ao" d="m342.03,171.54c-1.11.97-2.02-1.53-2.96-2.51-.94-.97-3.99-2.3-5.5.91-1.54,3.27,1.4,7.71,3.68,8.77,3.34,1.55,4.84-1.82,4.84-1.82v13.93c3.52,6.34,11.3,6.14,14.89,7.02.65-2.57.23-4.82-.14-6.25l-.03-4.54s2.77.53,4.6.25c3.04-.48,4.67-2.98,5.58-6.28,1.46-5.29,1.77-14.18-.27-24.45-3.4-2.63-14.92-2.21-22.07,2.32.52,9.11-1.52,11.67-2.63,12.64Z"/><path class="as" d="m356.82,187.06s-6.79-1.35-9.17-2.6c-1.59-.84-2.9-2.3-3.29-3.24,0,0,.45,2.01,1.88,3.82,1.74,2.21,10.59,3.82,10.59,3.82v-1.81Z"/><path class="at" d="m353.73,169.64c0,.8-.65,1.45-1.45,1.45s-1.45-.65-1.45-1.45.65-1.45,1.45-1.45,1.45.65,1.45,1.45Z"/><path class="at" d="m365.24,168.58c0,.8-.65,1.45-1.45,1.45s-1.45-.65-1.45-1.45.65-1.45,1.45-1.45,1.45.65,1.45,1.45Z"/><path class="at" d="m351.77,165.78l-3.04,1.59c-.42-.87-.09-1.93.75-2.37.84-.44,1.86-.09,2.28.78Z"/><path class="ak" d="m354.48,178.6l5.09,1.32c-.34,1.45-1.75,2.34-3.16,1.97-1.41-.36-2.27-1.84-1.94-3.29Z"/><path class="as" d="m354.97,179.67c-.18,0-.35.02-.52.05.18,1.03.92,1.91,1.96,2.18.44.11.88.09,1.29-.02-.27-1.26-1.39-2.21-2.73-2.21Z"/><path class="at" d="m366.44,166.06l-3.12-1.48c.38-.88,1.38-1.27,2.25-.86.86.41,1.25,1.46.87,2.34Z"/><polygon class="as" points="358.23 167.93 359.14 177.23 363.79 175.15 358.23 167.93"/><path class="ap" d="m336.08,190.82c-6.18,2.21-10.77,4.37-15.06,8.05,0,0,4.44,19.27,7.22,29.88,2.53,9.67.17,29.36.17,29.36,0,0,3.88,5.88,26.02,5.24,12.48-.36,18.53-4.35,18.53-4.35,0,0,1.06-21.73.58-39.9-.38-14.62-1.45-18.15-3.93-21.81-1.8-1.22-11.75-4.91-11.75-4.91,0,0-.86,3.18-.86,5.45-3.63-5.67-20.91-7.03-20.91-7.03Z"/><path class="az" d="m336.08,190.82c-6.18,2.21-10.77,4.37-15.06,8.05,0,0,4.44,19.27,7.22,29.88,2.53,9.67.17,29.36.17,29.36,0,0,3.88,5.88,26.02,5.24,12.48-.36,18.53-4.35,18.53-4.35,0,0,1.06-21.73.58-39.9-.38-14.62-1.45-18.15-3.93-21.81-1.8-1.22-11.75-4.91-11.75-4.91,0,0-.86,3.18-.86,5.45-3.63-5.67-20.91-7.03-20.91-7.03Z"/><path class="ay" d="m333.15,240.67c-.26-6.52-1.67-18.85-1.56-28.2l-4.42-6.7-2.57,8.32c1.22,5.1,2.55,10.53,3.63,14.66,2.53,9.67.17,29.36.17,29.36,0,0,3.88,5.88,26.02,5.24.14,0,.27-.01.4-.02-3.04-.33-7.68-1.26-11.9-3.34-6.87-3.4-9.52-12.81-9.78-19.33Z"/><path class="ap" d="m342.1,184.93v1.09c.21,1.04,2.25,3.45,7.42,5.77,5.26,2.36,7.48,6.06,7.48,6.06,0,0-1.76-2.71-3.93-1.28-2.08,1.38-4.37,5.04-5.49,5.01-1.09-.03-4.86-3.57-7.79-6.64-2.46-2.58-3.71-4.13-3.71-4.13,0,0,4.01-5.87,6.02-5.89Z"/><path class="ap" d="m356.99,197.85c1.57-3.76,4.4-.54,4.58-.53.82.06-1.79-6.86-4.73-8.76v3.05s.15,6.25.15,6.25Z"/><path class="au" d="m342.1,184.93v1.09c.21,1.04,2.25,3.45,7.42,5.77,5.26,2.36,7.48,6.06,7.48,6.06,0,0-1.76-2.71-3.93-1.28-2.08,1.38-4.37,5.04-5.49,5.01-1.09-.03-4.86-3.57-7.79-6.64-2.46-2.58-3.71-4.13-3.71-4.13,0,0,4.01-5.87,6.02-5.89Z"/><path class="au" d="m356.99,197.85c1.57-3.76,4.4-.54,4.58-.53.82.06-1.79-6.86-4.73-8.76v3.05s.15,6.25.15,6.25Z"/><path class="ap" d="m361.11,262.77c.26-13.86.62-49.46-4.12-64.92,0,0,4.47,32.91,2.05,65.19.72-.08,1.41-.17,2.07-.27Z"/><path class="ay" d="m361.11,262.77c.26-13.86.62-49.46-4.12-64.92,0,0,4.47,32.91,2.05,65.19.72-.08,1.41-.17,2.07-.27Z"/><path class="ap" d="m338.56,214.48c7.02.69,14.08-1.7,14.08-1.7l.23,2.71s-6.89,2.38-14.04,1.46l-.27-2.48Z"/><path class="ay" d="m338.56,214.48c7.02.69,14.08-1.7,14.08-1.7l.23,2.71s-6.89,2.38-14.04,1.46l-.27-2.48Z"/><g id="q"><path class="av" d="m373.17,208.11c0-.11-.02-.18-.06-.2,0,0,0,0,0,0h0c-.05-.03-.38-.24-.43-.27,0,0,0,0,0,0h0c-.05-.03-.13-.01-.22.06-.93.66-2.18.79-3.12.34-.13-.1-.24-.22-.35-.35,0,0-.01-.01-.02-.02h0s-.06-.06-.09-.08c0,0-.41-.25-.44-.27h-.02c-.1-.06-.2-.01-.26.13-.93,2.11-2.84,4.22-4.09,4.72-.09.04-.18.1-.25.17-.09.1-.15.22-.15.35-.09,2.75,1.26,7.2,4.07,8.77.17.12.34.22.51.32,4.07-3.92,4.8-10.39,4.91-13.65Z"/><path class="ai" d="m367.74,221.45c-2.8-1.57-4.16-6.01-4.06-8.76,0-.07.02-.15.05-.21l.43.27c-.03.07-.05.14-.05.21-.09,2.6,1.12,6.73,3.63,8.49Z"/><path class="ar" d="m373.17,208.11c-.11,3.26-.84,9.73-4.91,13.65-2.86-1.53-4.24-6.03-4.15-8.81,0-.13.06-.25.15-.35.07-.07.15-.13.25-.17,1.24-.5,3.15-2.61,4.09-4.72.07-.15.16-.2.26-.14h.02s.06.05.09.09h0s.01.01.02.02c.88,1.1,2.67,1.16,3.91.28.09-.07.17-.09.22-.06h0s0,0,0,0c.05.03.07.1.06.2Z"/><path class="am" d="m368.85,207.58c-.1-.05-.19,0-.26.14-.93,2.11-2.84,4.22-4.09,4.72-.09.04-.18.1-.25.17-.09.1-.15.22-.15.35-.09,2.78,1.29,7.28,4.15,8.81,2.21-7.49.6-14.19.6-14.19Z"/></g><path class="at" d="m346.57,160.89s9.31,4.54,19.31.6c10.27-4.04,1.27-6.92,1.27-6.92l-20.58,6.31Z"/><path class="ax" d="m367.42,140.95c-7.76-1.72-16.22-2.63-26.4,1.53-10.17,4.16-12.73,10.41-12.73,10.41,0,0,9.86,3.37,18.19,1.55,8.33-1.83,20.94-13.49,20.94-13.49Z"/><path class="ah" d="m334.13,158.62s-5.45-4.44-5.83-5.73c0,0,5.14.51,11.82-1.45,6.68-1.96,13.93-8.7,21.41-10.26,7.48-1.55,10.4,2.01,10.4,2.01,0,0-1.98,5.33-4.74,8.65,0,0-2.61,5.09-11.41,6.75-8.8,1.66-21.65.02-21.65.02Z"/><path class="ap" d="m334.13,158.62s.19,1.11.42,1.74c.23.63.81,1.47.81,1.47,3.11.6,10.62,1.1,20.51-1.27,6.2-1.48,9.06-3.21,10.24-4.45,1.15-1.22,1.28-2.03,1.2-2.9l-.12-1.37s-2.06,2.73-12.2,5.26c-10.14,2.53-20.86,1.51-20.86,1.51Z"/><path class="ad" d="m334.13,158.62s.19,1.11.42,1.74c.23.63.81,1.47.81,1.47,3.11.6,10.62,1.1,20.51-1.27,6.2-1.48,9.06-3.21,10.24-4.45,1.15-1.22,1.28-2.03,1.2-2.9l-.12-1.37s-2.06,2.73-12.2,5.26c-10.14,2.53-20.86,1.51-20.86,1.51Z"/><path class="ao" d="m339.53,295.16c-1.03-1.45-3.31-2.77-4.17-3.64-1.52-1.54-3.75-4.79-3.41-5.38.34-.6,1.25.17,3.2.17,2.97,0,3.82-1.18,3.79-2.29-.03-.86-1.83-.7-3.99-1.18-1.92-.61-4.21-2.77-5.46-4.45-1.25-1.68-2.26-6.11-2.26-6.11,0,0-6.49.09-10.97,3.16,0,0,1.29,6.7,2.77,11.46,1.66,5.33,5.39,11.2,11.08,12.53,2.35.55,4.85.35,7.16-.37.68-.21,1.36-.47,1.9-.93,1.18-.99,1.04-2.01.35-2.98Z"/><path class="ap" d="m321.02,198.87s-1-.2-2.67,3.66c-1.67,3.87-2.6,8.32-3.27,11.53-.67,3.21-3.87,20.13-3.87,27.4s2.17,21.88,4.96,34.32c3.48.36,9.46-.54,11.46-2.83-1.31-12.42-2.41-18.8-2.1-28.58,1.98-14.5,7.87-29.69,8.12-31.38.55-3.71-5.31-15.37-12.62-14.13Z"/><path class="au" d="m321.02,198.87s-1-.2-2.67,3.66c-1.67,3.87-2.6,8.32-3.27,11.53-.67,3.21-3.87,20.13-3.87,27.4s2.17,21.88,4.96,34.32c3.48.36,9.46-.54,11.46-2.83-1.31-12.42-2.41-18.8-2.1-28.58,1.98-14.5,7.87-29.69,8.12-31.38.55-3.71-5.31-15.37-12.62-14.13Z"/><path class="ay" d="m316.27,260c-1.74-8.5-4.59-25.14-2.64-38.23-1.12,6.43-2.43,15.04-2.43,19.69,0,7.27,2.17,21.88,4.96,34.32,1.18.12,2.65.09,4.15-.08-1.2-4.11-2.97-10.47-4.04-15.71Z"/><path class="ap" d="m314.94,269.69c2.84.18,7.9-.63,9.97-1.98,0,0-3.68,1.63-10.19.7l.23,1.29Z"/><path class="ay" d="m314.94,269.69c2.84.18,7.9-.63,9.97-1.98,0,0-3.68,1.63-10.19.7l.23,1.29Z"/><g id="r"><path class="av" d="m364.79,145.63c0-.08-.01-.13-.05-.15,0,0,0,0,0,0h0s-.29-.18-.32-.2c0,0,0,0,0,0h0s-.09,0-.16.04c-.7.5-1.63.59-2.33.25-.1-.08-.18-.16-.26-.26,0,0,0-.01-.01-.01h0s-.04-.05-.07-.06c0,0-.3-.19-.33-.2h-.01c-.07-.05-.15-.01-.2.1-.7,1.58-2.12,3.15-3.05,3.52-.07.03-.13.07-.18.13-.07.07-.11.16-.11.26-.07,2.05.94,5.38,3.04,6.55.12.09.25.17.38.24,3.04-2.93,3.59-7.76,3.67-10.2Z"/><path class="ai" d="m360.74,155.59c-2.09-1.17-3.1-4.49-3.03-6.54,0-.06.02-.11.04-.16l.32.2s-.04.1-.04.16c-.07,1.94.84,5.02,2.71,6.34Z"/><path class="ar" d="m364.79,145.63c-.08,2.43-.63,7.27-3.67,10.2-2.13-1.14-3.17-4.51-3.1-6.58,0-.1.04-.19.11-.26.05-.06.12-.1.18-.13.93-.37,2.35-1.95,3.05-3.52.05-.11.12-.15.2-.11h.01s.04.04.07.07h0s0,0,.01.01c.66.82,2,.86,2.92.21.07-.05.13-.06.16-.05h0s0,0,0,0c.04.02.05.07.05.15Z"/><path class="am" d="m361.57,145.23c-.07-.04-.15,0-.2.11-.7,1.58-2.12,3.15-3.05,3.52-.07.03-.13.07-.18.13-.07.07-.11.16-.11.26-.07,2.07.96,5.44,3.1,6.58,1.65-5.59.45-10.59.45-10.59Z"/></g></g></g><g id="s"><g id="t"><g id="u"><path class="ap" d="m349.86,129.95l-5.46-12.44,4.39-12.67v-7.76l-13.44,7.76v7.76l5.78,12.18c.1.17.24.28.39.35h0s8.34,4.82,8.34,4.82Z"/><path class="an" d="m349.86,129.95l-5.46-12.44,4.39-12.67v-7.76l-13.44,7.76v7.76l5.78,12.18c.1.17.24.28.39.35h0s8.34,4.82,8.34,4.82Z"/><path class="ap" d="m390.07,55.14c0-2.57-1.8-5.69-4.03-6.98l-3.28-1.89c-2.22-1.28-5.83-1.28-8.06,0l-77.09,44.59c-2.22,1.28-4.03,4.41-4.03,6.98v30.77c0,2.57,1.8,5.69,4.03,6.98l3.28,1.89c2.22,1.28,5.83,1.28,8.06,0l34.84-19.99,5.77,12.16c.37.64,1.32.55,1.56-.15l6.09-19.76,28.83-16.85c2.23-1.28,4.03-4.41,4.03-6.98v-30.77Z"/><path class="an" d="m293.58,128.6c0,2.57,1.8,5.69,4.03,6.98l3.28,1.89c2.01,1.16,5.14,1.26,7.37.32-1.9.72-3.34-.35-3.34-2.65v-30.77c0-1.28.45-2.71,1.18-3.97l-11.34-6.55c-.73,1.26-1.18,2.69-1.18,3.97v30.77Z"/><path class="aj" d="m389.94,53.99c-.47-1.71-2.03-2.26-3.89-1.18l-77.1,44.6c-1.11.64-2.12,1.73-2.84,3.01l-11.33-6.54c.73-1.28,1.73-2.37,2.84-3.01l77.08-44.6c2.24-1.28,5.84-1.28,8.06,0l3.29,1.9c1.9,1.09,3.5,3.53,3.89,5.83Z"/></g><path class="ax" d="m310.48,123.13v-16.25c0-.36.05-.65.15-.87.1-.22.26-.39.47-.52l4.61-2.66c.17-.1.29-.06.37.1.08.16.12.46.12.91v.8c0,.45-.04.8-.12,1.05-.08.25-.2.43-.37.52l-2.61,1.51v3.77l2.46-1.42c.17-.1.29-.07.37.1.08.16.12.47.12.91v.8c0,.45-.04.8-.12,1.05-.08.25-.2.43-.37.52l-2.46,1.42v6.76c0,.55-.32,1.01-.97,1.39l-.67.39c-.65.37-.97.29-.97-.26Z"/><path class="ax" d="m317.25,110.96c0-6.16,1.46-10.08,4.39-11.77,1.43-.83,2.52-.7,3.26.36.74,1.07,1.11,3.18,1.11,6.35s-.37,5.71-1.11,7.64c-.74,1.92-1.83,3.3-3.26,4.13-2.93,1.69-4.39-.54-4.39-6.7Zm5.38,2.23c.24-.48.43-1.19.55-2.11.12-.92.18-2.14.18-3.65s-.06-2.63-.18-3.41c-.12-.78-.31-1.27-.55-1.47-.25-.2-.57-.19-.97.05-.4.23-.73.59-.98,1.08-.25.49-.44,1.2-.57,2.12-.13.93-.19,2.14-.19,3.63s.06,2.64.19,3.42c.13.79.32,1.28.57,1.48.25.2.58.18.98-.05.4-.23.73-.59.97-1.08Z"/><path class="ax" d="m327.56,113.27v-16.25c0-.36.05-.65.16-.88.11-.23.28-.41.51-.54l2.8-1.62c1.03-.59,1.85-.68,2.48-.26.63.42.94,1.55.94,3.37,0,2.01-.53,3.77-1.59,5.28v.1c.25.06.47.28.67.64.2.37.35.79.45,1.29l.99,4.38.05.28c0,.46-.35.89-1.04,1.29l-.59.34c-.59.34-.93.3-1.01-.12l-.89-4.39c-.1-.32-.22-.52-.34-.6-.13-.08-.33-.04-.61.12l-.4.23v5.83c0,.55-.33,1.02-1,1.41l-.57.33c-.67.39-1.01.31-1.01-.24Zm3.52-11.63c.24-.14.46-.45.63-.93.17-.48.26-1.08.26-1.8s-.09-1.2-.26-1.44c-.17-.24-.4-.27-.68-.11l-.89.51v4.31l.94-.54Z"/><path class="ax" d="m336.35,108.72c-.1-.1-.15-.34-.15-.7v-16.02c0-.34.05-.63.15-.85.1-.22.26-.39.47-.52l3-1.73c2.35-1.36,3.52-.58,3.52,2.33,0,1.93-.5,3.64-1.51,5.13l.02.1c.57-.07,1.02.17,1.34.72.32.55.49,1.38.49,2.48,0,1.53-.32,2.95-.96,4.25-.64,1.3-1.59,2.31-2.84,3.03l-3.05,1.76c-.21.12-.37.13-.47.03Zm3.48-12.47c.36-.21.62-.54.8-.99.17-.45.26-1.06.26-1.81s-.08-1.22-.24-1.45c-.16-.23-.42-.23-.78-.03l-1.19.69v4.26l1.16-.67Zm.12,7.52c.41-.24.72-.59.91-1.07s.29-1.12.29-1.95-.1-1.3-.28-1.53c-.19-.23-.5-.22-.92.03l-1.27.73v4.51l1.27-.73Z"/><path class="ax" d="m345.15,103.11v-16.51c0-.57.32-1.04.97-1.41l.7-.41c.64-.37.95-.27.95.3v16.51c0,.57-.32,1.04-.95,1.4l-.7.41c-.65.37-.97.28-.97-.29Z"/><path class="ax" d="m349.78,100.97c-.1-.1-.15-.34-.15-.7v-16c0-.36.05-.65.15-.87.1-.22.26-.39.47-.52l3.18-1.84c1.45-.84,2.52-.71,3.21.39.69,1.1,1.03,3.16,1.03,6.19s-.34,5.48-1.03,7.38c-.69,1.89-1.76,3.26-3.21,4.1l-3.18,1.84c-.21.12-.37.13-.47.03Zm3.57-5.19c.59-.34,1.02-1.01,1.27-2.01.26-1,.39-2.53.39-4.59s-.13-3.45-.39-4.15c-.26-.7-.68-.88-1.27-.54l-1.07.62v11.3l1.07-.62Z"/><path class="ax" d="m359.44,95.39c-.1-.11-.15-.34-.15-.7v-16c0-.36.05-.65.15-.87.1-.22.26-.39.47-.52l3.18-1.84c1.45-.84,2.52-.71,3.21.39.69,1.1,1.03,3.16,1.03,6.19s-.34,5.48-1.03,7.38c-.69,1.89-1.76,3.26-3.21,4.1l-3.18,1.84c-.21.12-.37.13-.47.03Zm3.57-5.2c.59-.34,1.02-1.01,1.27-2.01.26-1,.39-2.53.39-4.6s-.13-3.45-.39-4.15c-.26-.7-.68-.88-1.27-.54l-1.07.62v11.3l1.07-.62Z"/><path class="ax" d="m369.11,89.81c-.1-.1-.15-.34-.15-.7v-16c0-.36.05-.65.15-.87s.26-.39.47-.52l4.94-2.85c.17-.1.29-.06.37.1.08.16.12.47.12.91v.8c0,.45-.04.8-.12,1.05-.08.25-.2.42-.37.52l-2.95,1.7v3.74l2.61-1.51c.17-.1.29-.06.37.1.08.16.12.46.12.91v.8c0,.45-.04.8-.12,1.05-.08.25-.2.43-.37.52l-2.61,1.51v4.18l2.97-1.71c.17-.1.29-.06.36.1.07.17.11.47.11.92v.8c0,.45-.04.79-.11,1.04-.07.25-.19.42-.36.52l-4.96,2.86c-.21.12-.37.13-.47.03Z"/><path class="ax" d="m376.53,84.99v-16.51c0-.55.32-1.01.97-1.39l.44-.25c.22-.13.4-.18.54-.17.13.02.24.15.34.39l3.01,6.67c.16.36.35.92.57,1.68l.07-.09c-.09-.84-.14-1.5-.14-1.96v-8.23c0-.55.32-1.01.97-1.39l.4-.23c.65-.37.97-.29.97.26v16.51c0,.55-.32,1.01-.97,1.39l-.32.18c-.22.13-.41.19-.55.18s-.26-.14-.35-.38l-3.2-6.92c-.1-.2-.25-.66-.45-1.39l-.08.12c.09.74.13,1.3.13,1.68v8.49c0,.55-.32,1.01-.97,1.39l-.4.23c-.65.38-.97.29-.97-.26Z"/></g></g><g id="v"><g id="w"><g id="x"><path class="ax" d="m124.7,425.24c8.42-8.68,13.36-44.02,5.15-50.91h-41.76c-8.21,6.89-3.27,42.21,5.14,50.9.07.08.15.16.23.24.1.1.19.19.29.29.24.23.49.46.76.68.07.06.13.11.2.16.21.16.41.33.64.49.36.26.72.5,1.09.7,6.92,4.04,18.15,4.04,25.07,0h0s0,0,0,0c.37-.21.73-.45,1.1-.71.21-.15.4-.3.59-.45.08-.07.17-.13.25-.2.26-.22.5-.44.73-.66.11-.11.22-.22.33-.33.06-.07.13-.13.19-.2Z"/><path class="ax" d="m91.71,371.55c-9.53,5.56-9.53,14.58,0,20.15,9.53,5.56,24.98,5.56,34.51,0,9.53-5.56,9.53-14.58,0-20.15-9.53-5.56-24.98-5.56-34.51,0Z"/><g class="ba"><path class="aq" d="m91.71,371.55c-9.53,5.56-9.53,14.58,0,20.15,9.53,5.56,24.98,5.56,34.51,0,9.53-5.56,9.53-14.58,0-20.15-9.53-5.56-24.98-5.56-34.51,0Z"/></g><path class="at" d="m96.29,374.23c-7,4.09-7,10.71,0,14.8,7,4.09,18.34,4.09,25.34,0,7-4.09,7-10.71,0-14.8-7-4.09-18.34-4.09-25.34,0Z"/><path class="al" d="m121.63,381.25c-7-4.09-18.34-4.09-25.34,0-1.94,1.14-3.33,2.47-4.19,3.89.86,1.42,2.25,2.75,4.19,3.89,7,4.09,18.34,4.09,25.34,0,1.94-1.14,3.33-2.47,4.19-3.89-.86-1.42-2.25-2.75-4.19-3.89Z"/></g><g id="y"><path class="ap" d="m85.81,305.77l16.7,11.43-15.79-5.98s-.13,5.52,3.12,12.13c0,0,10.43,5.07,16.1,10.4l-13.89-4.37s-.75,2.96.43,7.26c.09.32.19.65.3.99.74,2.22,1.78,6.42,3.56,11.4t0,0c1.39,3.91,3.24,8.3,5.74,12.56,1.13,1.93,2.39,3.82,3.82,5.64.08.12.17.22.26.34,2.57-1.72,5.26-3.41,8.04-5.05,1.61-4.1,3.37-14.06,3.69-22.14,1.21-30.93-23.24-46.89-42.31-51.47,0,0,6.98,7.59,10.22,16.86Z"/><path class="ag" d="m85.81,305.77l16.7,11.43-15.79-5.98s-.13,5.52,3.12,12.13c0,0,10.43,5.07,16.1,10.4l-13.89-4.37s-.75,2.96.43,7.26c.09.32.19.65.3.99.74,2.22,1.78,6.42,3.56,11.4t0,0c1.39,3.91,3.24,8.3,5.74,12.56,1.13,1.93,2.39,3.82,3.82,5.64.08.12.17.22.26.34,2.57-1.72,5.26-3.41,8.04-5.05,1.61-4.1,3.37-14.06,3.69-22.14,1.21-30.93-23.24-46.89-42.31-51.47,0,0,6.98,7.59,10.22,16.86Z"/><path class="ar" d="m99.13,306.12c1.76,1.46,3.1,3.34,4.34,5.23,1.15,1.96,2.2,3.99,3.05,6.09,1.74,4.2,2.96,8.61,3.74,13.08,1.58,8.94,1.19,18.25-1.47,26.89h0c-.07.25.06.49.29.57.24.07.48-.06.56-.29,0,0,0,0,0,0,2.57-8.85,2.79-18.26,1.06-27.23-.86-4.49-2.16-8.9-3.98-13.09-.89-2.1-1.98-4.12-3.16-6.07-1.28-1.88-2.65-3.74-4.44-5.17Z"/><path class="ap" d="m157.52,321.57s0,.01-.02.02c-.38.49-6.29,5.64-15.36,21.07l-18.39,4.62,14.97,1.35-6.88,12.02-15.69,3.89,12.43,1.53s-2.96,12.19-11.61,17.56c-4.77,2.96-7.15,3.48-8.66,2.14-1.06-.93-1.53-6.71-2.58-11.84-1.05-5.13-1.45-13.52,3.03-23.83,1.19-2.74,2.82-5.29,4.78-7.64,11.2-13.49,33.07-20.63,44.01-20.89Z"/><path class="aw" d="m157.52,321.57s0,.01-.02.02c-.38.49-6.29,5.64-15.36,21.07l-18.39,4.62,14.97,1.35-6.88,12.02-15.69,3.89,12.43,1.53s-2.96,12.19-11.61,17.56c-4.77,2.96-7.15,3.48-8.66,2.14-1.06-.93-1.53-6.71-2.58-11.84-1.05-5.13-1.45-13.52,3.03-23.83,1.19-2.74,2.82-5.29,4.78-7.64,11.2-13.49,33.07-20.63,44.01-20.89Z"/><path class="ay" d="m112.17,355.34s0,.01,0,.01t0,.02c-1.84,4.49-2.75,9.22-3.17,13.44,0,0,0,.01,0,.01h0c-.26,2.63-.25,12.41.22,17.46-.33-.12-.64-.27-.91-.51-1.06-.93-1.53-6.71-2.58-11.84-1.05-5.13-1.45-13.52,3.03-23.83,1.19-2.74,2.82-5.29,4.78-7.64,11.2-13.49,33.07-20.63,44-20.89-16.68,3.4-34.29,15.26-42.7,28.6-1.05,1.66-1.91,3.39-2.65,5.18Z"/><path class="ar" d="m140.91,327.48c-8.17,3.97-15.84,9.28-21.76,16.31-2.95,3.5-5.49,7.4-7.22,11.67-1.71,4.26-2.75,8.79-2.99,13.35,0,.02.02.05.04.05.02,0,.04-.02.05-.04.74-4.49,1.89-8.88,3.72-13.01,1.79-4.13,4.1-8.04,6.94-11.56,2.84-3.51,6.16-6.65,9.76-9.41,3.59-2.77,7.46-5.18,11.5-7.28.02-.01.03-.04.02-.06-.01-.02-.04-.03-.06-.02Z"/><path class="ap" d="m60.05,333.25h0c1.2-.09,2.57-.11,4.05-.04,4.46.21,10.01,1.15,15.67,2.91,1.89.59,3.78,1.26,5.65,2.03.94.38,1.86.79,2.78,1.23,4.59,2.16,8.89,4.91,12.34,8.3,1.7,1.67,3.18,3.51,4.4,5.5.16.26.33.51.48.78,0,0,0,0,0,0,.38.69.73,1.36,1.06,2.03,3.84,7.53,4.43,12.88,4.54,18.83.09,4.62-1.19,9.98-2.04,10.89-.12.13-.25.23-.38.32-1.27.91-3.38.54-7.41-1.43-8.07-3.94-11.76-14.87-11.76-14.87l10.78-2.45-14.13-2.01-6.17-8.54,10.34-2.48-14.31-1.4c-9.34-12.74-15.5-19.2-15.87-19.6-.02,0-.02-.02-.02-.02h0Z"/><path class="ad" d="m64.1,333.22c4.46.21,10.01,1.15,15.67,2.91,1.89.59,3.78,1.26,5.65,2.03.94.38,1.86.79,2.78,1.23,4.59,2.16,8.89,4.91,12.34,8.3,1.7,1.67,3.18,3.51,4.4,5.5.16.26.33.51.48.78,0,0,0,0,0,0,.38.69.73,1.36,1.06,2.03,3.84,7.53,4.43,12.88,4.54,18.83.09,4.62-1.19,9.98-2.04,10.89-.12.13-.25.23-.38.32-.24.17-.53.29-.84.36.57-7.2-3.95-25.13-9.69-32.29-5.97-7.45-19.73-17.97-38-20.85v-.02c1.21-.09,2.56-.1,4.03-.04Z"/><path class="ar" d="m107.81,386.41c.09-5.3-.63-10.6-1.9-15.75-1.33-5.13-3.2-10.18-6.07-14.7-1.44-2.27-3.24-4.27-5.13-6.15-1.9-1.88-3.97-3.56-6.14-5.12-4.35-3.07-9.08-5.62-14.07-7.41-.02,0-.05,0-.06.03,0,.02,0,.05.02.06,4.78,2.26,9.37,4.89,13.58,8.05,2.11,1.56,4.15,3.23,6.05,5.03,1.9,1.8,3.7,3.73,5.15,5.9,2.89,4.37,4.83,9.35,6.24,14.42,1.38,5.09,2.22,10.35,2.24,15.64,0,.02.02.04.04.04.02,0,.04-.02.04-.04Z"/></g></g></g></svg>