<?xml version="1.0" encoding="UTF-8"?><svg xmlns="http://www.w3.org/2000/svg" viewBox="0 0 500 500"><defs><style>.n,.o{opacity:.6;}.p,.q,.r,.s,.t,.u,.v,.w,.o,.x,.y,.z,.aa,.ab,.ac{stroke-width:0px;}.ad{opacity:.2;}.q{fill:#37474f;}.r{fill:#e0e0e0;}.s{fill:#b16668;}.t{fill:#f0f0f0;}.u{fill:#ffa8a7;}.ae,.aa{opacity:.15;}.v{fill:#27debf;}.w,.o{fill:#fff;}.x{fill:#fafafa;}.y{fill:#f28f8f;}.z{fill:#263238;}.ab{fill:#455a64;}.ac{opacity:.1;}</style></defs><g id="a"><ellipse id="b" class="t" cx="250" cy="341.91" rx="235.59" ry="136.02"/></g><g id="c"><ellipse id="d" class="r" cx="201.25" cy="398.08" rx="81.24" ry="46.9"/></g><g id="e"><g id="f"><path class="v" d="m432.28,339.4l-9.53-5.5s-2.33-20.4-.78-36.2c2.18-22.2,16.52-48.92,33.63-42.64,17.11,6.27-7.84,28.88-13.4,47.72-5.55,18.83-9.92,36.63-9.92,36.63Z"/><path class="aa" d="m432.28,339.4l-9.53-5.5s-2.33-20.4-.78-36.2c2.18-22.2,16.52-48.92,33.63-42.64,17.11,6.27-7.84,28.88-13.4,47.72-5.55,18.83-9.92,36.63-9.92,36.63Z"/><path class="w" d="m427.27,337.09h.02c.32-.01.57-.28.56-.6-1.67-49.33,22.88-74.15,23.13-74.39.23-.22.23-.59,0-.82-.23-.23-.59-.23-.82,0-.25.25-25.17,25.42-23.48,75.25.01.31.27.56.58.56Z"/><path class="v" d="m438.27,342.83l-6.78-3.91s-1.15-14,5.71-31.01c5.98-14.81,20.8-27.09,28.26-24.51,7.46,2.58,7.27,7.87,3.64,13.42-3.64,5.55-25.75,18.77-30.83,46.01Z"/><path class="w" d="m434.69,341.35h0c.32,0,.58-.26.57-.58-.13-31.19,29.15-52.27,29.45-52.48.26-.18.32-.54.14-.8-.18-.26-.54-.32-.8-.14-.3.21-30.07,21.64-29.94,53.43,0,.32.26.57.58.57Z"/></g><g id="g"><path class="v" d="m79.66,327.15l8.8-5.94s3.87-23.05.27-43.29c-5.06-28.46-24.69-37.93-31.69-34.96-7,2.97-8.5,11.46,4.57,27.71,7.71,9.59,17.78,29.97,18.05,56.47Z"/><g class="ae"><path class="p" d="m79.66,327.15l8.8-5.94s3.87-23.05.27-43.29c-5.06-28.46-24.69-37.93-31.69-34.96-7,2.97-8.5,11.46,4.57,27.71,7.71,9.59,17.78,29.97,18.05,56.47Z"/></g><path class="w" d="m82.68,315.75s-.06,0-.09,0c-.35-.04-.6-.36-.56-.71,3.18-26.8-8.14-55.87-20.44-67.44-.26-.24-.27-.64-.03-.9.24-.25.64-.27.9-.03,12.53,11.78,24.06,41.33,20.83,68.52-.04.32-.31.56-.62.56Z"/><path class="v" d="m56.62,342.69c-1.4.84-5.48-2.19-6.61-2.92-1.93-1.24-3.51-3.03-4.58-5.06-1.24-2.36-1.59-4.92-1.27-7.56.17-1.37.53-2.71.88-4.05.35-1.31.7-2.62,1.05-3.94.35-1.29.69-2.63.5-3.96-.39-2.67-2.81-4.5-5-6.08-2.42-1.74-4.96-4.06-5.01-7.28-.04-2.49,1.21-4.82,2.71-6.8,1.5-1.98,3.3-3.74,4.65-5.83.97-1.5,1.72-3.26,1.53-5.04-.12-1.11-.6-2.14-1.15-3.11-1.18-2.08-2.72-3.97-3.55-6.21-.83-2.24-.77-5.05.96-6.69,1.42-1.35,3.56-1.58,5.52-1.49,1.81.08,3.59.87,5.19,1.72,5.17,2.75,8.21,8.75,13.68,10.84,2.11.8,4.41.94,6.6,1.48,2.19.53,4.44,1.61,5.49,3.61,2.07,3.94-1.53,8.92-.05,13.12,1.31,3.72,4.97,5.08,7.08,8.41.92,1.46,1.16,3.16,1.05,4.88-.19,2.91-.57,5.05-1.9,8.31-1.1,2.69-4.37,7.87-4.37,7.87,0,0-23.19,15.66-23.41,15.79Z"/><path class="w" d="m70.14,334.4s-.02,0-.02,0c-.36,0-.64-.3-.63-.65.56-25.32-11.89-53.01-20.72-60.96-.26-.24-.28-.64-.05-.9.24-.26.64-.28.9-.05,9,8.11,21.71,36.26,21.14,61.94,0,.34-.29.62-.63.62Z"/><path class="w" d="m65.47,303.55c-.06,0-.13,0-.19-.03-8.18-2.36-18.31-2.6-18.42-2.6-.35,0-.63-.3-.62-.65,0-.35.27-.63.65-.62.1,0,10.4.25,18.74,2.66.34.1.53.45.44.79-.08.28-.33.46-.6.46Z"/></g></g><g id="h"><g id="i"><path class="ab" d="m301.16,309.74l-3.79-2.19c-1.2-.69-2.16-2.37-2.16-3.75v-157.52c0-1.38.97-3.06,2.16-3.75l105.35-60.82c1.2-.69,3.13-.69,4.33,0l3.79,2.19c1.2.69,2.17,2.37,2.17,3.75v157.52c0,1.38-.97,3.06-2.17,3.75l-105.35,60.83c-1.2.69-3.13.69-4.33,0Z"/><path class="ab" d="m412.98,87.3c-.15-1.12-1.06-1.53-2.15-.9l-105.34,60.83c-.6.35-1.13.93-1.53,1.61l-8.13-4.69c.39-.68.93-1.27,1.53-1.62l105.35-60.82c1.19-.69,3.13-.69,4.33,0l3.79,2.19c1.1.63,2.01,2.1,2.15,3.4Z"/><path class="z" d="m305.12,309.92c-1.2.51-2.88.45-3.96-.17l-3.8-2.2c-1.19-.69-2.16-2.37-2.16-3.75v-157.52c0-.69.24-1.45.63-2.13l8.13,4.69c-.4.68-.64,1.45-.64,2.14v157.52c0,1.24.78,1.81,1.8,1.42Z"/><path class="q" d="m303.32,150.98v157.52c0,1.38.97,1.94,2.17,1.25l105.35-60.83c1.2-.69,2.17-2.37,2.17-3.75V87.65c0-1.38-.97-1.94-2.17-1.25l-105.35,60.83c-1.2.69-2.17,2.37-2.17,3.75Z"/><path class="ab" d="m278.72,211.02c-1.36-.81-7.67-4.4-8-4.59-1-.61-1.36-2.09-.43-3.09l24.91-26.72,8.12,4.66-24.9,26.73c-.9.96-.61,2.35.3,3.01Z"/><path class="q" d="m303.32,181.29l-24.91,26.72c-1.25,1.34-.19,3.51,1.63,3.36l23.27-1.92v-28.17Z"/><path class="v" d="m358.16,133.2c12.28-7.09,22.23-1.34,22.23,12.83s-9.95,31.42-22.23,38.5c-12.28,7.09-22.23,1.34-22.23-12.84s9.95-31.42,22.23-38.5Z"/><path class="w" d="m358.01,144.36c3.98-2.3,7.21-.44,7.21,4.16s-3.23,10.19-7.21,12.49c-3.98,2.3-7.21.44-7.21-4.16s3.23-10.19,7.21-12.49Z"/><path class="w" d="m372.22,168.88c0-7.56-5.31-10.62-11.85-6.84l-4.09,2.36c-6.54,3.78-11.85,12.97-11.85,20.52v2.06c1.18.39,2.46.59,3.82.59,2.98,0,6.35-.98,9.91-3.04,5.33-3.08,10.23-8.08,14.06-13.91v-1.75Z"/><path class="v" d="m344.08,254.73l28.17-16.26c1.2-.69,2.17-.13,2.17,1.25v9.07c0,1.38-.97,3.06-2.17,3.75l-28.17,16.26c-1.2.69-2.17.13-2.17-1.25v-9.07c0-1.38.97-3.06,2.16-3.75Z"/><path class="x" d="m330.29,234.47l55.73-32.18c1.43-.83,2.6-.16,2.6,1.5v3.38c0,1.66-1.16,3.67-2.6,4.5l-55.73,32.18c-1.43.83-2.6.16-2.6-1.5v-3.38c0-1.66,1.16-3.67,2.6-4.5Z"/><path class="x" d="m336.81,211.18c.76-.44,1.35-.5,1.77-.2.42.31.63.99.63,2.05s-.21,1.99-.63,2.8c-.42.8-1.01,1.42-1.77,1.86l-1.5.87v3.23c0,.11-.03.21-.08.32-.05.11-.11.18-.18.22l-.76.44c-.07.04-.13.04-.18-.01-.05-.05-.08-.12-.08-.23v-9.35c0-.11.03-.21.08-.32.05-.11.11-.18.18-.22l2.52-1.46Zm-1.5,5.57l1.46-.84c.36-.21.64-.48.86-.82.21-.34.32-.78.32-1.32s-.11-.85-.32-.94c-.21-.08-.5-.02-.86.18l-1.46.84v2.9Z"/><path class="x" d="m343.4,207.37c.1-.06.18-.06.23,0,.05.05.09.15.13.29l2.3,7.82s0,.06,0,.1c0,.11-.03.21-.08.32-.05.11-.11.18-.18.22l-.68.39c-.12.07-.21.08-.26.03-.05-.05-.08-.11-.1-.18l-.4-1.37-2.97,1.72-.4,1.84c-.02.09-.05.19-.1.3-.05.11-.14.2-.26.28l-.68.39c-.07.04-.13.04-.18-.01-.05-.05-.08-.12-.08-.23,0-.04,0-.07,0-.11l2.3-10.48c.04-.19.08-.33.13-.45.05-.11.12-.2.23-.25l1.03-.6Zm.52,6.06l-1.03-3.53-1.03,4.72,2.07-1.19Z"/><path class="x" d="m349.57,203.66c.42-.24.79-.37,1.11-.38.32-.01.59.05.8.19.21.14.37.33.48.58.11.25.17.51.18.78,0,.11-.02.22-.07.32-.05.1-.12.17-.18.21l-.66.38c-.11.06-.19.08-.24.04-.05-.03-.1-.09-.15-.17-.09-.19-.24-.32-.43-.38-.19-.07-.48,0-.85.22-.16.09-.32.21-.46.35-.15.14-.28.29-.39.45-.11.16-.2.34-.26.52-.06.18-.09.36-.09.55,0,.22.03.39.09.49.06.11.16.17.3.19.14.02.33,0,.56-.04.23-.05.52-.11.87-.2.38-.09.7-.13.97-.12.27.01.49.09.67.22.17.14.3.34.39.6.09.26.13.59.13.98,0,.43-.06.87-.19,1.32-.12.44-.3.87-.54,1.26-.23.4-.52.77-.86,1.12-.34.35-.72.65-1.14.89-.35.2-.69.33-1.01.38-.32.05-.6.03-.85-.07-.25-.1-.45-.29-.6-.55-.15-.26-.23-.6-.25-1.01,0-.11.02-.22.07-.32.05-.1.11-.17.18-.21l.66-.38c.11-.06.19-.08.24-.05.06.03.1.09.14.18.04.1.1.2.16.29.06.09.15.15.25.19.11.04.24.04.4,0,.16-.03.36-.11.6-.25.19-.11.37-.23.55-.38.17-.14.33-.31.46-.48.13-.18.24-.36.32-.56.08-.2.12-.41.12-.63,0-.21-.04-.36-.13-.44-.09-.09-.22-.12-.4-.12-.18,0-.4.04-.66.11-.26.06-.57.13-.91.19-.31.07-.59.09-.82.06-.24-.02-.43-.11-.58-.25-.15-.14-.27-.35-.34-.62s-.11-.62-.11-1.06.06-.87.19-1.31c.12-.44.3-.85.52-1.24.22-.39.48-.74.79-1.07.3-.33.63-.59.98-.79Z"/><path class="x" d="m356.14,199.88c.42-.24.79-.37,1.11-.38.32-.01.59.05.8.19.21.14.37.33.48.58.11.25.17.51.18.78,0,.11-.02.22-.07.32-.05.1-.12.17-.18.21l-.66.38c-.11.06-.19.08-.24.04-.05-.03-.1-.09-.15-.17-.09-.19-.24-.32-.43-.38-.19-.07-.47,0-.85.22-.16.09-.32.21-.46.35-.15.14-.28.29-.39.45-.11.16-.2.34-.26.52-.06.18-.09.36-.09.55,0,.22.03.39.09.49.06.11.16.17.3.19.14.02.33,0,.56-.04.23-.05.52-.11.87-.2.38-.09.7-.13.97-.12.27.01.5.08.67.22.17.14.3.34.39.6.08.26.13.59.13.98,0,.43-.06.87-.19,1.32-.12.44-.3.87-.54,1.26-.23.4-.52.77-.86,1.12-.34.35-.72.65-1.14.89-.35.2-.69.33-1.01.39-.32.05-.6.03-.85-.07-.25-.1-.45-.28-.6-.55-.15-.26-.24-.6-.25-1.01,0-.11.02-.22.07-.32.05-.1.11-.17.18-.21l.66-.38c.11-.06.19-.08.24-.05.06.02.1.08.14.18.04.1.1.2.16.29.06.09.15.15.25.19.11.04.24.04.4,0,.16-.03.36-.11.6-.25.19-.11.37-.23.54-.38.17-.14.33-.3.46-.48.13-.18.24-.36.32-.56.08-.2.12-.41.12-.63s-.04-.36-.13-.45c-.09-.08-.22-.12-.4-.12-.18,0-.4.04-.66.11-.26.07-.57.13-.91.19-.31.06-.59.09-.82.06-.23-.02-.43-.11-.58-.25-.15-.14-.27-.35-.34-.62-.08-.27-.11-.62-.11-1.06s.06-.87.19-1.31c.12-.44.3-.85.52-1.24.22-.39.48-.74.79-1.07s.63-.59.98-.79Z"/><path class="x" d="m363.43,201.13l-.81,4.8c-.03.16-.07.3-.12.42-.05.12-.12.21-.21.26l-.76.44c-.09.05-.17.05-.22-.01-.05-.06-.09-.16-.11-.29l-1.21-8.44s0-.08,0-.11c0-.11.03-.21.08-.32.05-.11.11-.18.18-.22l.7-.4c.06-.04.12-.04.18-.02.06.03.09.1.11.24l.79,5.68.7-4.27c.01-.08.04-.18.09-.31.05-.13.13-.23.24-.3l.77-.45c.11-.07.19-.06.24.02s.08.15.09.21l.7,3.46.79-6.59c.02-.16.06-.28.11-.37.06-.09.12-.15.18-.19l.7-.4c.07-.04.13-.04.18.01.05.05.08.12.08.23,0,.03,0,.07,0,.12l-1.2,9.83c-.02.16-.05.29-.11.42-.05.12-.13.21-.22.27l-.76.44c-.09.05-.17.05-.21-.01-.05-.07-.09-.16-.12-.29l-.81-3.86Z"/><path class="x" d="m368.11,196.89c.02-.55.09-1.1.2-1.64s.29-1.06.51-1.54.51-.93.85-1.33c.34-.4.74-.74,1.21-1.01.46-.26.86-.39,1.19-.39.34,0,.62.12.85.35.23.23.4.54.52.95.12.41.19.88.21,1.42,0,.18.01.38.01.6,0,.22,0,.45,0,.68s0,.47,0,.69c0,.22,0,.43-.01.62-.02.55-.09,1.1-.2,1.64-.12.54-.29,1.06-.51,1.54s-.51.92-.85,1.32c-.34.4-.74.73-1.2,1-.46.27-.87.4-1.21.39-.34,0-.62-.12-.85-.34-.23-.22-.4-.54-.51-.95-.12-.41-.18-.88-.2-1.41,0-.18-.01-.38-.01-.6,0-.22,0-.45,0-.68s0-.47,0-.69c0-.22,0-.43.01-.62Zm4.26-2.39c-.03-.68-.17-1.13-.44-1.36-.27-.23-.62-.21-1.06.04-.44.25-.79.65-1.06,1.18-.27.54-.41,1.16-.44,1.87-.01.37-.02.79-.02,1.24s0,.85.02,1.21c.02.68.17,1.13.44,1.35.27.22.62.21,1.06-.05.44-.25.79-.65,1.06-1.17.27-.53.41-1.15.44-1.86.01-.37.02-.79.02-1.23s0-.85-.02-1.21Z"/><path class="x" d="m378.03,187.38c.78-.45,1.38-.52,1.79-.19.41.33.61.98.61,1.98,0,.71-.1,1.37-.31,1.98-.21.62-.52,1.17-.93,1.64l1.3,2.83s.03.09.03.14c0,.09-.02.17-.06.26-.04.09-.09.14-.15.18l-.8.46c-.12.07-.22.08-.28.02-.06-.06-.1-.12-.13-.18l-1.23-2.66-1.25.72v3.37c0,.11-.03.21-.08.32-.05.11-.11.18-.18.22l-.76.44c-.07.04-.13.04-.18-.01-.05-.05-.08-.12-.08-.23v-9.35c0-.11.02-.21.08-.32.05-.11.11-.18.18-.22l2.43-1.4Zm-1.41,5.38l1.36-.79c.36-.21.64-.47.86-.78.21-.32.32-.74.32-1.29s-.11-.84-.32-.9c-.21-.06-.5.01-.86.22l-1.36.79v2.75Z"/><path class="x" d="m384.7,183.53c.46-.27.87-.41,1.21-.42.34,0,.63.09.86.31.23.21.4.53.53.96.12.42.2.93.22,1.52.03.7.03,1.41,0,2.14-.03.62-.1,1.22-.22,1.78-.12.56-.3,1.08-.52,1.56-.23.48-.51.91-.84,1.29-.34.38-.73.7-1.18.96l-2.37,1.37c-.07.04-.13.04-.18-.01-.05-.05-.08-.12-.08-.23v-9.35c0-.11.03-.21.08-.32.05-.11.11-.18.18-.22l2.32-1.34Zm1.54,3.11c-.01-.3-.05-.57-.12-.79-.07-.23-.16-.4-.29-.53-.13-.12-.29-.18-.48-.18-.2,0-.43.08-.7.24l-1.26.73v6.52l1.31-.75c.26-.15.48-.33.67-.55.19-.22.34-.46.47-.73.12-.27.22-.55.29-.86.07-.31.1-.62.12-.94.02-.73.02-1.44,0-2.14Z"/></g></g><g id="j"><g id="k"><path class="v" d="m247.38,38.39c1.75.39,3.4,1.01,4.94,1.86,1.55.85,2.86,1.89,3.93,3.12,1.07,1.23,1.85,2.63,2.32,4.2.47,1.57.51,3.26.1,5.08-.33,1.49-.85,2.73-1.55,3.72-.71.99-1.52,1.85-2.44,2.56s-1.89,1.34-2.9,1.87c-1.02.54-1.98,1.05-2.88,1.53-.91.48-1.73,1.01-2.46,1.59-.73.58-1.25,1.27-1.54,2.06-.17.39-.41.71-.74.95-.33.24-.69.31-1.1.22l-4.24-.94c-.41-.09-.74-.32-.99-.69-.25-.37-.31-.75-.18-1.15.4-1.43.98-2.64,1.77-3.62.78-.98,1.65-1.82,2.61-2.52.96-.7,1.95-1.31,2.98-1.83,1.03-.51,1.99-1.01,2.88-1.5.89-.49,1.64-1,2.27-1.54.63-.54,1.03-1.21,1.2-1.99.31-1.41-.02-2.71-1.01-3.88-.99-1.17-2.47-1.98-4.44-2.42-3.16-.7-5.83.37-8.02,3.2-.28.37-.54.63-.79.79-.25.16-.62.19-1.1.08l-4.52-1c-.33-.07-.6-.25-.79-.53-.19-.28-.25-.6-.17-.97.32-1.29,1.02-2.53,2.08-3.72,1.06-1.19,2.36-2.19,3.88-3,1.53-.81,3.23-1.38,5.12-1.7,1.89-.32,3.81-.27,5.78.17Zm-4.78,32.17c.41.09.73.32.96.68.23.36.3.75.21,1.16l-1.09,4.91c-.09.41-.32.73-.68.96-.36.23-.75.3-1.16.21l-4.8-1.06c-.41-.09-.73-.32-.96-.68-.23-.36-.3-.75-.21-1.16l1.09-4.91c.09-.41.32-.73.68-.96.36-.23.75-.3,1.16-.21l4.8,1.06Z"/><path class="v" d="m252.72,85.3c1.22-.2,2.43-.23,3.64-.08,1.21.15,2.32.48,3.32.99,1,.52,1.86,1.22,2.56,2.1.71.88,1.16,1.96,1.37,3.23.17,1.04.15,1.97-.05,2.79-.2.82-.5,1.57-.91,2.27-.41.69-.87,1.34-1.38,1.94-.51.6-1,1.17-1.46,1.72-.46.54-.85,1.09-1.17,1.65-.32.56-.47,1.13-.46,1.71,0,.3-.08.56-.23.8-.15.24-.37.38-.65.43l-2.96.48c-.29.05-.56-.02-.81-.19-.25-.17-.39-.4-.41-.69-.11-1.02-.04-1.94.21-2.77.25-.83.59-1.59,1.02-2.29.43-.7.91-1.34,1.44-1.93.53-.59,1.02-1.16,1.46-1.7.44-.54.8-1.06,1.06-1.57.26-.51.35-1.04.26-1.58-.16-.98-.71-1.73-1.64-2.23-.93-.5-2.09-.64-3.46-.41-2.2.36-3.65,1.73-4.32,4.1-.08.31-.18.54-.3.71-.12.17-.35.28-.68.33l-3.15.52c-.23.04-.45,0-.64-.13-.19-.13-.31-.32-.35-.58-.12-.91,0-1.88.38-2.92.38-1.03.95-2.01,1.72-2.92.77-.91,1.72-1.71,2.84-2.4,1.13-.69,2.38-1.15,3.75-1.37Zm5.17,21.85c.29-.05.55.02.79.19.24.17.38.4.43.69l.56,3.43c.05.29-.02.55-.19.79-.17.24-.4.38-.69.43l-3.35.55c-.29.05-.55-.02-.79-.19-.24-.17-.39-.4-.43-.69l-.56-3.43c-.05-.28.02-.55.19-.79.17-.24.4-.39.69-.43l3.35-.55Z"/><g class="ad"><path class="p" d="m252.72,85.3c1.22-.2,2.43-.23,3.64-.08,1.21.15,2.32.48,3.32.99,1,.52,1.86,1.22,2.56,2.1.71.88,1.16,1.96,1.37,3.23.17,1.04.15,1.97-.05,2.79-.2.82-.5,1.57-.91,2.27-.41.69-.87,1.34-1.38,1.94-.51.6-1,1.17-1.46,1.72-.46.54-.85,1.09-1.17,1.65-.32.56-.47,1.13-.46,1.71,0,.3-.08.56-.23.8-.15.24-.37.38-.65.43l-2.96.48c-.29.05-.56-.02-.81-.19-.25-.17-.39-.4-.41-.69-.11-1.02-.04-1.94.21-2.77.25-.83.59-1.59,1.02-2.29.43-.7.91-1.34,1.44-1.93.53-.59,1.02-1.16,1.46-1.7.44-.54.8-1.06,1.06-1.57.26-.51.35-1.04.26-1.58-.16-.98-.71-1.73-1.64-2.23-.93-.5-2.09-.64-3.46-.41-2.2.36-3.65,1.73-4.32,4.1-.08.31-.18.54-.3.71-.12.17-.35.28-.68.33l-3.15.52c-.23.04-.45,0-.64-.13-.19-.13-.31-.32-.35-.58-.12-.91,0-1.88.38-2.92.38-1.03.95-2.01,1.72-2.92.77-.91,1.72-1.71,2.84-2.4,1.13-.69,2.38-1.15,3.75-1.37Zm5.17,21.85c.29-.05.55.02.79.19.24.17.38.4.43.69l.56,3.43c.05.29-.02.55-.19.79-.17.24-.4.38-.69.43l-3.35.55c-.29.05-.55-.02-.79-.19-.24-.17-.39-.4-.43-.69l-.56-3.43c-.05-.28.02-.55.19-.79.17-.24.4-.39.69-.43l3.35-.55Z"/></g><path class="v" d="m280.99,90.69c.28.2.45.47.51.82.06.35-.01.66-.21.94l-2.38,3.35c-.2.28-.47.45-.82.51-.35.06-.66-.01-.94-.21l-3.27-2.33c-.28-.2-.45-.47-.51-.82-.06-.35.01-.66.21-.94l2.38-3.35c.2-.28.47-.45.82-.51.35-.06.66.01.94.21l3.27,2.33Zm13.85-22.71c1.19.85,2.24,1.84,3.13,2.97.89,1.13,1.55,2.33,1.97,3.6.42,1.27.55,2.57.41,3.9-.14,1.33-.66,2.62-1.54,3.86-.72,1.02-1.51,1.79-2.36,2.31-.85.52-1.73.91-2.65,1.15-.92.25-1.85.41-2.78.49-.94.08-1.82.16-2.66.23-.84.07-1.62.21-2.36.42-.74.2-1.34.56-1.81,1.06-.25.24-.54.4-.86.48-.32.08-.62.02-.9-.18l-2.89-2.06c-.28-.2-.46-.48-.53-.83-.07-.36,0-.66.23-.93.76-.95,1.58-1.67,2.48-2.16.9-.49,1.82-.84,2.77-1.07.94-.23,1.89-.37,2.83-.43.94-.06,1.82-.13,2.64-.21.82-.08,1.56-.23,2.2-.44.64-.21,1.16-.58,1.54-1.11.69-.96.84-2.05.47-3.25-.37-1.2-1.23-2.28-2.57-3.23-2.16-1.53-4.51-1.58-7.06-.15-.33.19-.61.3-.85.34-.24.04-.52-.06-.85-.29l-3.09-2.19c-.23-.16-.37-.38-.43-.65-.06-.27,0-.53.19-.79.66-.87,1.57-1.59,2.75-2.14,1.18-.56,2.47-.9,3.88-1.02,1.41-.13,2.87-.01,4.4.35,1.52.36,2.96,1.01,4.3,1.97Z"/><g class="n"><path class="w" d="m280.99,90.69c.28.2.45.47.51.82.06.35-.01.66-.21.94l-2.38,3.35c-.2.28-.47.45-.82.51-.35.06-.66-.01-.94-.21l-3.27-2.33c-.28-.2-.45-.47-.51-.82-.06-.35.01-.66.21-.94l2.38-3.35c.2-.28.47-.45.82-.51.35-.06.66.01.94.21l3.27,2.33Zm13.85-22.71c1.19.85,2.24,1.84,3.13,2.97.89,1.13,1.55,2.33,1.97,3.6.42,1.27.55,2.57.41,3.9-.14,1.33-.66,2.62-1.54,3.86-.72,1.02-1.51,1.79-2.36,2.31-.85.52-1.73.91-2.65,1.15-.92.25-1.85.41-2.78.49-.94.08-1.82.16-2.66.23-.84.07-1.62.21-2.36.42-.74.2-1.34.56-1.81,1.06-.25.24-.54.4-.86.48-.32.08-.62.02-.9-.18l-2.89-2.06c-.28-.2-.46-.48-.53-.83-.07-.36,0-.66.23-.93.76-.95,1.58-1.67,2.48-2.16.9-.49,1.82-.84,2.77-1.07.94-.23,1.89-.37,2.83-.43.94-.06,1.82-.13,2.64-.21.82-.08,1.56-.23,2.2-.44.64-.21,1.16-.58,1.54-1.11.69-.96.84-2.05.47-3.25-.37-1.2-1.23-2.28-2.57-3.23-2.16-1.53-4.51-1.58-7.06-.15-.33.19-.61.3-.85.34-.24.04-.52-.06-.85-.29l-3.09-2.19c-.23-.16-.37-.38-.43-.65-.06-.27,0-.53.19-.79.66-.87,1.57-1.59,2.75-2.14,1.18-.56,2.47-.9,3.88-1.02,1.41-.13,2.87-.01,4.4.35,1.52.36,2.96,1.01,4.3,1.97Z"/></g></g></g><g id="l"><g id="m"><path class="z" d="m206.53,179.21h-35.53v-86.09c0-15.57,12.62-28.19,28.19-28.19h3.28c15.57,0,28.19,12.62,28.19,28.19v61.95c0,13.33-10.8,24.13-24.13,24.13Z"/><path class="z" d="m167.54,386.44c-.29,2.16-.91,4.69-1.03,10.8-.12,6.56-1.33,8.89-1.49,14.27-.18,6.15.88,8.45,3.38,11.91,2.5,3.46,9.05,6.59,11.81.75,2.8-5.91,2.41-9.67,1.53-15.7-.92-6.24-1.03-9.68-1.56-14.44-.47-4.19-1.03-7.38-1.03-7.38l-11.61-.21Z"/><path class="u" d="m186.16,342.87l-21.6-.39c.32,14.42,2.61,30.43,2.99,43.96.07,2.55-.06,19.79.9,25.03,1.44,7.87,10.79,6.81,11.29,2.1.5-4.71-.6-24.85-.57-26.92-.08-8.68,3.98-23.33,6.12-38.91.1-.77.79-4.13.89-4.87Z"/><path class="z" d="m213.91,375.22s-.85-.46-1.03.45c-.21,1.08-.52,3.32-.97,5.09-.63,2.47-1.14,6.54-.77,8.55.37,2.01,5.07,4.61,8.12,5.54,4.5,1.38,7.58,3.63,10.04,5.95,3.02,2.84,9.53,5.52,13.97,5.49,5.25-.04,8.91-1.75,10.64-4.56,1.81-2.93-1.58-3.15-7.57-7.04-1.36-.88-2.91-1.88-4.66-3.02-9.5-6.21-12.98-9.53-15.67-15.74l-12.09-.72Z"/><path class="u" d="m226.08,371.37c-.16-4.47,2.9-42.35,2.9-42.35l-20.52,9.35c4.39,26.22,5.33,32.41,5.41,36.7h0c-.03.1-.12.46-.12,1.1.02,5.09,5.77,7.84,10.25,11.24,1.77,1.34,6.92,5.3,12.13,7.92,3.26,1.64,9.88,1.79,10.7-.31-5.46-4.17-13.4-10.41-17.74-15.16-2.07-2.27-2.86-4.02-3.02-8.49Z"/><path class="ab" d="m173.41,202.16c-7.88,17.3-7.88,30.67-6.57,52.74,1.19,20.24,3.1,38.07,3.1,38.07-.31,3.59-5.3,10.6-5.94,26.48-.6,14.84,1.02,33.71,1.02,33.71,0,0,11.21,6.21,19.5-.05,0,0,8-38.19,10.34-56.77,2.05-16.21,5.6-36.93,5.6-36.93l7.53,36.84s-2.86,9.08-3.53,16c-1.06,10.93,5.05,32.39,5.05,32.39,0,0,11.58,3.46,18.65-2.82,0,0,2.65-34.89,3.63-48.05,1.32-17.63-1.46-65.35-3.63-90.62l-54.74-.99Z"/><path class="z" d="m200.45,259.41l3.11-27.73s13.94-1.86,20.26-7.8c0,0-4.74,8.69-16.43,10.38l-4.5,25.81,5.09,36.19-7.53-36.84Z"/><path class="u" d="m256.9,195.34c.87-8.5.83-14.16.76-15.25-.3-4.4-1.09-5.12-7.24-12.91-8.31-10.53-15.4-19.99-22.89-29.4-5.35-6.72-10.98-7.76-16.48-7.45-3.84.21,3.65,18.68,7.43,29.61l21.55,23.18c.66.92.97,2.04.86,3.17l-1.32,19.73,6.45,8.63s9.77-8.43,10.88-19.3Z"/><path class="v" d="m190.28,130.92h0c-4.17.29-11.75.95-11.75.95-4.37,2.44-5.48,4.44-6.29,10.25-.35,2.47,1.67,9.06,3.4,18.43l3.28,17.37-.36,8.62c-1.7,5.26-5.56,11.79-8.95,21.42,16.7,9.32,30.7,9.66,43.4,8.03,9.68-1.24,14.81-3.59,16.52-5.9-.36-9.52-1.03-15.39-1.19-25.33-.07-4.18.18-8.39.34-13.19,6.5-5.34,6.57-14.21,3.03-19.95-8.23-13.33-16.24-21.72-21.54-21.29l-19.88.58Z"/><path class="o" d="m190.28,130.92h0c-4.17.29-11.75.95-11.75.95-4.37,2.44-5.48,4.44-6.29,10.25-.35,2.47,1.67,9.06,3.4,18.43l3.28,17.37-.36,8.62c-1.7,5.26-5.56,11.79-8.95,21.42,16.7,9.32,30.7,9.66,43.4,8.03,9.68-1.24,14.81-3.59,16.52-5.9-.36-9.52-1.03-15.39-1.19-25.33-.07-4.18.18-8.39.34-13.19,6.5-5.34,6.57-14.21,3.03-19.95-8.23-13.33-16.24-21.72-21.54-21.29l-19.88.58Z"/><path class="ac" d="m215.75,171.72s-7.63,5.92-16.33,2.83c-8.7-3.09-9.97-10.69-9.97-10.69,0,0-.92,9.95,10.05,13.34,10.59,3.27,16.25-5.48,16.25-5.48Z"/><path class="u" d="m226.09,103.61c-.33,14.44-5.01,18.01-7.36,19.03-2.35,1.03-6.88.4-11.28-.33v8.66s5.08,5.32,4.7,9.29c-.39,3.98-7.98,4.42-13.68.53-4.16-2.83-7.13-6.07-8.43-7.61-.47-.56-.73-1.26-.73-1.99v-20.39s-2.41,2.55-6.68-.37c-4.26-2.91-4.62-8.35-2.02-11.42,1.86-2.18,6.57-2.34,8.84,1.06,1.27,2.49,1.45,4.99,2.87,3.96,3.8-2.74,1.76-8.96,6.36-12.04.01,0,.01-.01.02-.01,1.37-.74,2.93-1.44,4.68-2.04,8.19-2.83,15.29-5.21,17-10.81,3.23,1.92,6.11,7.44,5.71,24.48Z"/><circle class="s" cx="209.94" cy="114.61" r="1.9"/><path class="z" d="m208.68,101.42c.06,1.14-.79,2.11-1.89,2.17-1.1.05-2.04-.83-2.1-1.98-.06-1.14.79-2.11,1.89-2.17,1.1-.05,2.04.83,2.1,1.98Z"/><path class="z" d="m223.83,101.62c.05,1.04-.72,1.92-1.72,1.97-1.1.05-1.85-.65-1.91-1.8-.05-1.04.72-1.92,1.72-1.97,1-.05,1.86.76,1.91,1.8Z"/><path class="ab" d="m206.11,106.56c-3.59,0-6.5-2.92-6.5-6.5,0-4.42,4.56-4.42,6.5-4.42s6.5,0,6.5,4.42c0,3.59-2.92,6.5-6.5,6.5Zm0-9.9c-3.94,0-5.48.95-5.48,3.4,0,3.02,2.46,5.48,5.48,5.48s5.48-2.46,5.48-5.48c0-2.44-1.54-3.4-5.48-3.4Z"/><path class="ab" d="m222.62,106.56c-3.59,0-6.5-2.92-6.5-6.5,0-4.42,4.56-4.42,6.5-4.42s6.5,0,6.5,4.42c0,3.59-2.92,6.5-6.5,6.5Zm0-9.9c-3.94,0-5.48.95-5.48,3.4,0,3.02,2.46,5.48,5.48,5.48s5.48-2.46,5.48-5.48c0-2.44-1.54-3.4-5.48-3.4Z"/><polygon class="y" points="213.62 97.96 213.94 110.11 220.33 108.13 213.62 97.96"/><path class="y" d="m207.44,122.31c-4.64-.61-14.2-3.35-15.68-7.13,0,0,.5,2.37,3.35,4.82,2.85,2.45,12.33,5.2,12.33,5.2v-2.89Z"/><path class="z" d="m207.67,92.06l-4.24,2.58c-.69-1.22-.31-2.79.86-3.5,1.17-.71,2.68-.3,3.37.92Z"/><path class="z" d="m224.92,94.94l-4.72-1.65c.41-1.33,1.8-2.04,3.1-1.59,1.3.45,2.03,1.9,1.62,3.23Z"/><path class="ab" d="m212.1,100.58c-.28,0-.51-.23-.51-.52,0-.83,1.65-1.37,3.12-1.37s2.43.54,2.43,1.37c0,.28-.23.51-.51.51s-.51-.23-.51-.51c-.05-.09-.52-.34-1.41-.34s-2.05.25-2.1.35c0,.28-.23.51-.51.51Z"/><path class="ab" d="m200.13,100.14s-.04,0-.06,0l-11.43-1.04c-.21-.19-.75-.75-1.87-1.22l13.42,1.24c.28.03.48.29.45.57-.03.26-.25.46-.51.46Z"/><path class="u" d="m153.2,112.06c3.74-4.99,6.29-8.77,9.7-13.05,1.94-2.43,3.18-4.17,5.04-6.66,1.28-1.72,2.03-3.16,3.46-3.7,1.6-.6,3.14-1.78,4.17-2.86.74-.77,1.34-1.66,1.97-2.52,2.14-2.88,4.69-5.45,7.55-7.61,3.01-2.27,6.35-4,9.44-6.16,1.84-1.29,3.82-3.43,1.58-5.43-.67-.6-1.52-.95-2.39-1.14-5.44-1.19-10.19.69-15.51,2.05-2.31.59-4.59,1.33-6.78,2.29-1.06.46-2.12.97-3,1.72-1.37,1.17-2.19,2.84-3.08,4.41-2.39,4.22-7.35,7.94-10.84,11.22-4.09,3.85-7.75,7.38-12.42,11.63-4.2,3.82-8.31,7.35-12.17,11.52-3.19,3.45-2.03,6.16-1.57,7.09,2.6,5.34,5.51,7.26,8.98,10.57,6.02,5.73,26.75,22.23,33.63,27.67,1.47,1.17,2.63,2.68,3.37,4.4l1.31,3.05c7.84,1.44,13.07-10.33,6.58-24.5-1.05-2.3-2.72-4.26-4.77-5.75-8.19-5.97-24.25-18.25-24.25-18.25Z"/><path class="y" d="m153.2,112.06s-3.54,4.74-9.58,6.6c0,0,5,1.28,11.85-4.87l-2.26-1.73Z"/><path class="ab" d="m254.86,184.91h.03s-1.28-1.1-1.28-1.1v.02c-.29-.23-.74-.3-1.32-.15l-13.88,3.78c-1.29.35-2.68,1.66-3.12,2.92l-9.99,28.83c-.23.67-.14,1.18.18,1.47h-.01s1.32,1.14,1.32,1.14v-.02c.29.24.74.32,1.33.16l13.88-3.78c1.29-.35,2.68-1.66,3.12-2.92,1.96-5.67,8.03-23.16,9.99-28.83.25-.71.12-1.24-.25-1.52Z"/><path class="v" d="m226.57,220.3l9.99-28.83c.44-1.26,1.83-2.57,3.12-2.92l13.89-3.78c1.29-.35,1.98.39,1.54,1.65-1.96,5.67-8.03,23.16-9.99,28.83-.44,1.26-1.83,2.57-3.12,2.92l-13.88,3.78c-1.29.35-1.98-.39-1.54-1.65Z"/><path class="q" d="m238.18,189.36c-.72.57-1.34,1.36-1.61,2.12l-10,28.82c-.22.65-.15,1.15.14,1.45l-1.24-1.07h.01c-.33-.3-.42-.81-.19-1.48l10-28.83c.24-.71.81-1.43,1.48-2l1.41,1Z"/><path class="y" d="m251.05,198.05c-.98,2.94-4.47,4.9-10.2,6.26-5.73,1.36-8.91,7.45-7.99,9.3.93,1.85,10.19,3.57,13.9,3.04,3.71-.53,7.44-5.89,8.56-7.55,1.12-1.66,2.43-13.24,1.24-14.83-1.19-1.59-3.7-1.34-3.7-1.34l-1.81,5.12Z"/></g></g></svg>