<?xml version="1.0" encoding="UTF-8"?><svg xmlns="http://www.w3.org/2000/svg" viewBox="0 0 500 500"><defs><style>.e,.f,.g,.h,.i,.j,.k,.l,.m,.n,.o,.p,.q,.r,.s{stroke-width:0px;}.e,.g,.m,.p,.q{fill-rule:evenodd;}.e,.n{fill:#ebebeb;}.f{fill:#263238;}.g,.o{fill:#e0e0e0;}.h,.m{fill:#e8505b;}.i,.p{fill:#455a64;}.j,.t{fill:#000;}.u{opacity:.6;}.k{fill:none;}.v{opacity:.8;}.l,.q{fill:#f5f5f5;}.w{opacity:.3;}.x{letter-spacing:-.01em;}.r{fill:#fff;}.s{fill:#fafafa;}.t{font-family:MyriadPro-Regular, 'Myriad Pro';font-size:32px;}</style></defs><g id="a"><path class="k" d="M373.23,244.02c.47-1.9,1.19-3.7,2.12-5.37l-2.93-4.48,6.16-6.36,4.57,2.78c1.64-.99,3.41-1.76,5.29-2.3l1.1-5.23,8.85-.14,1.27,5.19c1.9.47,3.7,1.19,5.37,2.12l4.48-2.93,6.36,6.16-2.78,4.57c.99,1.64,1.76,3.41,2.3,5.29l5.23,1.1.14,8.85-5.2,1.27c-.47,1.9-1.19,3.7-2.12,5.37l2.93,4.48-6.16,6.36-4.57-2.78c-1.64.99-3.41,1.76-5.29,2.3l-1.1,5.23-8.85.14-1.27-5.2c-1.9-.47-3.7-1.19-5.37-2.12l-4.48,2.93-6.36-6.16,2.78-4.57c-.99-1.64-1.76-3.41-2.3-5.29l-5.23-1.1-.14-8.85,5.2-1.27h0ZM384.9,249.04c.09,5.24,4.41,9.42,9.65,9.34,5.24-.09,9.42-4.41,9.34-9.65-.09-5.24-4.4-9.42-9.65-9.34-5.24.09-9.42,4.41-9.34,9.65Z"/><path class="o" d="M384.9,249.04s-.14-.85.16-2.35c.3-1.47,1.19-3.66,3.35-5.41,1.07-.85,2.44-1.59,4.03-1.91,1.58-.31,3.38-.3,5.11.31.87.28,1.71.72,2.49,1.28.79.55,1.5,1.23,2.1,2.03,1.23,1.57,1.94,3.62,2,5.73.02,2.12-.63,4.18-1.81,5.79-.57.82-1.26,1.53-2.03,2.1-.76.58-1.59,1.05-2.45,1.36-1.71.67-3.51.74-5.1.48-1.6-.27-3-.96-4.09-1.78-2.22-1.67-3.18-3.84-3.53-5.29-.35-1.49-.24-2.34-.24-2.34.07,0,.03.85.43,2.29.4,1.41,1.39,3.48,3.55,5.05,1.07.77,2.41,1.41,3.95,1.65,1.53.23,3.24.15,4.86-.5.82-.3,1.6-.75,2.32-1.3.73-.55,1.38-1.22,1.92-2,1.11-1.53,1.72-3.49,1.7-5.49-.05-2-.72-3.94-1.88-5.43-.56-.76-1.24-1.41-1.98-1.93-.73-.53-1.53-.95-2.36-1.23-1.64-.6-3.35-.62-4.87-.34-1.53.29-2.85.98-3.89,1.78-2.11,1.64-3.03,3.74-3.38,5.16-.35,1.45-.29,2.3-.36,2.3Z"/><path class="o" d="M373.23,244.02s-.1.04-.32.1c-.24.06-.56.15-.98.26-.9.23-2.19.56-3.88.99l.06-.08c.05,2.26.11,5.24.19,8.85l-.1-.13c1.59.33,3.35.69,5.24,1.08l.09.02.03.09c.5,1.73,1.25,3.51,2.3,5.25l.05.09-.05.09c-.86,1.43-1.8,2.97-2.77,4.58l-.03-.23c2.01,1.93,4.14,3.99,6.37,6.14l-.25-.02c1.38-.91,2.91-1.91,4.47-2.94l.11-.07.11.06c1.55.87,3.37,1.62,5.31,2.09l.13.03.03.13c.39,1.61.83,3.39,1.27,5.19l-.23-.18c2.78-.05,5.78-.1,8.85-.15l-.23.19c.34-1.63.71-3.42,1.09-5.23l.03-.15.14-.04c1.72-.49,3.54-1.25,5.23-2.27l.13-.08.13.08c1.43.87,2.99,1.82,4.57,2.78l-.32.04c1.95-2.01,4.04-4.17,6.15-6.36l-.03.32c-.92-1.41-1.92-2.94-2.93-4.48l-.09-.13.08-.14c.89-1.58,1.63-3.4,2.1-5.3h0s.04-.16.04-.16l.15-.04c1.74-.42,3.48-.85,5.2-1.27l-.2.26c-.05-2.99-.1-5.94-.14-8.85l.2.25c-1.76-.37-3.51-.74-5.23-1.1l-.15-.03-.04-.15c-.52-1.86-1.29-3.62-2.27-5.23l-.08-.13.08-.13c.94-1.55,1.87-3.07,2.78-4.57l.04.31c-2.17-2.1-4.29-4.16-6.35-6.16l.3.03c-1.52.99-3.01,1.96-4.48,2.92l-.12.08-.12-.07c-1.7-.95-3.49-1.66-5.31-2.11l-.13-.03-.03-.13c-.43-1.78-.85-3.51-1.26-5.2l.21.17c-3.11.04-6.05.09-8.85.13l.19-.16c-.39,1.84-.76,3.57-1.11,5.23l-.02.11-.11.03c-1.97.55-3.71,1.34-5.26,2.26l-.09.05-.09-.05c-1.66-1.02-3.15-1.93-4.56-2.79l.19-.02c-2.4,2.45-4.44,4.54-6.18,6.33v-.14c1.17,1.8,2.12,3.27,2.91,4.5l.03.04-.02.04c-.96,1.69-1.46,3.06-1.76,3.96-.14.44-.24.78-.32,1.02-.07.24-.11.34-.11.34,0,0,.02-.13.07-.35.06-.23.14-.58.28-1.04.28-.92.76-2.3,1.7-4.02v.09c-.8-1.22-1.77-2.68-2.95-4.46l-.05-.08.07-.07c1.73-1.8,3.75-3.91,6.13-6.39l.08-.09.11.06c1.42.85,2.92,1.76,4.58,2.76h-.18c1.57-.95,3.33-1.76,5.33-2.33l-.13.14c.35-1.67.7-3.39,1.08-5.24l.03-.16h.16c2.8-.05,5.74-.11,8.85-.16h.17s.04.17.04.17c.41,1.69.84,3.41,1.27,5.19l-.16-.17c1.85.46,3.68,1.17,5.43,2.14h-.24c1.47-.95,2.96-1.93,4.47-2.92l.16-.1.14.13c2.07,2,4.19,4.05,6.37,6.15l.14.14-.1.17c-.91,1.5-1.84,3.03-2.78,4.57v-.26c1,1.65,1.79,3.45,2.33,5.35l-.19-.18c1.73.36,3.47.73,5.23,1.09l.2.04v.21c.05,2.91.1,5.86.15,8.85v.21s-.2.05-.2.05c-1.72.42-3.45.84-5.19,1.27l.19-.19h0c-.48,1.95-1.24,3.81-2.15,5.43v-.27c1,1.54,1.99,3.06,2.92,4.48l.11.17-.14.15c-2.12,2.19-4.21,4.34-6.16,6.36l-.14.15-.17-.11c-1.58-.96-3.14-1.91-4.57-2.78h.26c-1.73,1.05-3.59,1.82-5.36,2.32l.17-.19c-.38,1.81-.76,3.6-1.1,5.23l-.04.19h-.19c-3.07.05-6.07.09-8.85.14h-.19s-.04-.18-.04-.18c-.44-1.81-.87-3.59-1.26-5.2l.16.16c-1.98-.49-3.84-1.26-5.42-2.15h.22c-1.57,1.01-3.1,2.01-4.48,2.91l-.14.09-.12-.11c-2.23-2.16-4.35-4.23-6.35-6.17l-.11-.1.08-.13c.98-1.6,1.92-3.14,2.79-4.56v.18c-1.06-1.77-1.81-3.58-2.3-5.34l.12.11c-1.88-.4-3.65-.78-5.23-1.12l-.1-.02v-.1c-.04-3.61-.07-6.59-.1-8.85v-.07s.06-.01.06-.01c1.68-.39,2.97-.69,3.87-.9.43-.1.76-.17,1-.22.23-.05.34-.07.35-.07Z"/><path class="g" d="M114.41,219.61c.53-2.12,1.33-4.14,2.37-6l-3.27-5.01,6.88-7.11,5.11,3.11c1.83-1.1,3.82-1.97,5.92-2.57l1.23-5.85,9.9-.16,1.42,5.81c2.12.53,4.14,1.33,6,2.38l5.01-3.27,7.11,6.88-3.11,5.11c1.1,1.83,1.97,3.82,2.57,5.92l5.85,1.23.16,9.9-5.81,1.42c-.53,2.12-1.33,4.14-2.37,6l3.27,5.01-6.88,7.11-5.11-3.11c-1.83,1.1-3.82,1.97-5.92,2.57l-1.23,5.85-9.9.16-1.42-5.81c-2.12-.53-4.14-1.33-6-2.37l-5.01,3.27-7.11-6.88,3.11-5.11c-1.1-1.83-1.97-3.82-2.57-5.92l-5.85-1.23-.16-9.9,5.81-1.42h0ZM127.46,225.22c.1,5.86,4.93,10.54,10.79,10.44,5.86-.1,10.54-4.93,10.44-10.79-.1-5.86-4.93-10.54-10.79-10.44-5.86.1-10.54,4.93-10.44,10.79Z"/><path class="g" d="M342.47,194.04c.15-.61.38-1.19.69-1.73l-.95-1.45,1.99-2.05,1.48.9c.53-.32,1.1-.57,1.71-.74l.35-1.69,2.86-.05.41,1.68c.61.15,1.19.38,1.73.69l1.45-.95,2.05,1.99-.9,1.48c.32.53.57,1.1.74,1.71l1.69.35.05,2.86-1.68.41c-.15.61-.38,1.19-.69,1.73l.95,1.45-1.99,2.05-1.48-.9c-.53.32-1.1.57-1.71.74l-.35,1.69-2.86.05-.41-1.68c-.61-.15-1.19-.38-1.73-.69l-1.45.94-2.05-1.99.9-1.48c-.32-.53-.57-1.1-.74-1.71l-1.69-.35-.05-2.86,1.68-.41h0ZM346.23,195.66c.03,1.69,1.42,3.04,3.12,3.02,1.69-.03,3.04-1.42,3.02-3.12-.03-1.69-1.42-3.04-3.12-3.02-1.69.03-3.04,1.42-3.02,3.12Z"/><path class="e" d="M48.58,223.62c.21-.85.53-1.65.95-2.4l-1.31-2,2.75-2.84,2.04,1.24c.73-.44,1.53-.79,2.37-1.03l.49-2.34,3.96-.06.57,2.32c.85.21,1.65.53,2.4.95l2-1.31,2.84,2.75-1.24,2.04c.44.73.79,1.53,1.03,2.37l2.34.49.06,3.96-2.32.57c-.21.85-.53,1.65-.95,2.4l1.31,2-2.75,2.84-2.04-1.24c-.73.44-1.52.79-2.37,1.03l-.49,2.34-3.96.06-.57-2.32c-.85-.21-1.65-.53-2.4-.95l-2,1.31-2.84-2.75,1.24-2.04c-.44-.73-.79-1.52-1.03-2.37l-2.34-.49-.06-3.96,2.32-.57h0ZM53.8,225.86c.04,2.34,1.97,4.21,4.31,4.17,2.34-.04,4.21-1.97,4.17-4.31-.04-2.34-1.97-4.21-4.31-4.17-2.34.04-4.21,1.97-4.17,4.31Z"/><path class="e" d="M408.34,159.92c.48-1.94,1.22-3.78,2.17-5.49l-2.99-4.58,6.3-6.51,4.68,2.84c1.67-1.01,3.49-1.8,5.42-2.35l1.12-5.35,9.05-.15,1.3,5.31c1.94.48,3.78,1.22,5.49,2.17l4.58-2.99,6.51,6.3-2.84,4.68c1.01,1.67,1.8,3.49,2.35,5.42l5.35,1.12.15,9.05-5.31,1.3c-.48,1.94-1.22,3.78-2.17,5.49l2.99,4.58-6.3,6.51-4.68-2.84c-1.67,1.01-3.49,1.8-5.41,2.35l-1.12,5.35-9.05.15-1.29-5.31c-1.94-.48-3.78-1.22-5.49-2.17l-4.58,2.99-6.51-6.3,2.84-4.68c-1.01-1.67-1.8-3.49-2.35-5.41l-5.35-1.12-.15-9.05,5.32-1.3h0ZM420.28,165.05c.09,5.36,4.51,9.64,9.87,9.55,5.36-.09,9.64-4.51,9.55-9.87-.09-5.36-4.51-9.64-9.87-9.55-5.36.09-9.64,4.51-9.55,9.87Z"/><path class="q" d="M62.94,310.83c.44-1.76,1.1-3.43,1.97-4.97l-2.71-4.15,5.7-5.89,4.23,2.57c1.51-.91,3.16-1.63,4.9-2.13l1.02-4.85,8.2-.13,1.17,4.81c1.76.44,3.43,1.1,4.97,1.97l4.15-2.71,5.89,5.7-2.57,4.23c.91,1.51,1.63,3.16,2.13,4.9l4.85,1.02.13,8.2-4.81,1.17c-.44,1.76-1.1,3.43-1.97,4.97l2.71,4.15-5.7,5.89-4.23-2.57c-1.51.91-3.16,1.63-4.9,2.13l-1.02,4.85-8.2.13-1.17-4.81c-1.76-.44-3.43-1.1-4.97-1.97l-4.15,2.71-5.89-5.7,2.57-4.23c-.91-1.51-1.63-3.16-2.13-4.9l-4.85-1.02-.13-8.2,4.81-1.17h0ZM73.74,315.47c.08,4.86,4.08,8.73,8.94,8.65,4.86-.08,8.73-4.08,8.65-8.94-.08-4.86-4.08-8.73-8.94-8.65-4.86.08-8.73,4.08-8.65,8.94Z"/><path class="q" d="M234.89,141.28c.19-.77.48-1.49.86-2.16l-1.18-1.81,2.48-2.56,1.84,1.12c.66-.4,1.38-.71,2.13-.93l.44-2.11,3.57-.06.51,2.09c.77.19,1.49.48,2.16.86l1.81-1.18,2.56,2.48-1.12,1.84c.4.66.71,1.38.93,2.13l2.11.44.06,3.57-2.1.51c-.19.77-.48,1.49-.86,2.16l1.18,1.81-2.48,2.56-1.84-1.12c-.66.4-1.38.71-2.13.93l-.44,2.11-3.57.06-.51-2.1c-.77-.19-1.49-.48-2.16-.86l-1.81,1.18-2.56-2.48,1.12-1.84c-.4-.66-.71-1.38-.93-2.13l-2.11-.44-.06-3.57,2.1-.51h0ZM239.59,143.3c.03,2.11,1.78,3.8,3.89,3.77,2.11-.03,3.8-1.78,3.77-3.89s-1.78-3.8-3.89-3.77c-2.11.03-3.8,1.78-3.77,3.89Z"/><path class="n" d="M419.96,390.92c4.5-2.32,9.79-2.62,14.78-1.8,2.68.44,5.48,1.25,7.3,3.26,1.83,2.01,2.17,5.56.08,7.29-1.25,1.03-2.99,1.19-4.61,1.17-3.91-.05-8.24-.73-11.37,1.62-1.78,1.34-2.97,3.57-5.1,4.23-2.08.65-4.44-.58-5.54-2.46-1.1-1.88-1.14-4.23-.63-6.35,0,0,.54-4.62,5.07-6.96Z"/><path class="n" d="M409.66,371.03c2.75,3.93,8.09,2.63,10.57.23,2.48-2.4,3.53-5.87,4.48-9.18,2.18-7.57,4.37-15.51,2.76-23.22-.48-2.3-1.35-4.6-2.97-6.31-1.62-1.71-4.11-2.73-6.39-2.13-2.69.71-4.37,3.35-5.58,5.86-3.56,7.38-5.44,15.56-5.47,23.75-.01,3.83.44,7.84,2.6,11"/><path class="n" d="M402.11,376.67c2.99-3.54,3.55-8.71,2.22-13.15-1.33-4.44-4.33-8.22-7.79-11.3-4.06-3.61-8.82-6.43-13.95-8.23-2.02-.71-4.14-1.27-6.27-1.07-2.13.2-4.27,1.29-5.26,3.18-1.47,2.8-.06,6.2,1.46,8.97,2.68,4.88,5.75,9.55,9.16,13.95,2.75,3.54,5.89,7.03,10.08,8.63,4.18,1.6,8.53,1.41,10.75-1.49"/><path class="o" d="M409.47,430.28c.05,0,.13-.63.25-1.78.13-1.3.29-2.93.47-4.87.23-2.05.53-4.49,1.1-7.14.57-2.65,1.46-5.52,2.6-8.43,1.18-2.89,2.62-5.52,4.31-7.63,1.67-2.11,3.62-3.64,5.44-4.53,1.82-.9,3.45-1.27,4.58-1.43,1.14-.12,1.78-.21,1.78-.26,0-.05-.64-.06-1.81-.03-1.16.08-2.86.37-4.78,1.24-1.93.85-3.99,2.41-5.74,4.56-1.77,2.15-3.26,4.84-4.46,7.78-1.16,2.96-2.04,5.86-2.58,8.57-.54,2.7-.79,5.17-.95,7.23-.15,2.07-.21,3.74-.24,4.9-.03,1.16-.01,1.8.04,1.8Z"/><path class="o" d="M409.81,426.53s.04-.29.05-.83c0-.62,0-1.41,0-2.37,0-2.06,0-5.03.11-8.7.18-7.34.81-15.25,2.04-26.39,1.16-10.48,2.71-22.67,4.35-30.6.35-1.8.71-3.43,1.04-4.85.32-1.42.59-2.65.85-3.65.22-.94.41-1.7.55-2.3.12-.53.17-.81.14-.82-.02,0-.12.26-.29.78-.18.6-.41,1.35-.69,2.27-.31.98-.62,2.2-.97,3.62-.37,1.42-.76,3.03-1.15,4.83-1.62,7.18-3.34,17.23-4.57,28.4-1.22,11.17-1.78,21.34-1.82,28.7-.04,3.68.03,6.66.13,8.72.06.96.11,1.74.14,2.37.04.54.08.82.1.82Z"/><path class="o" d="M409.86,406.92c.05,0,.04-.88-.02-2.47-.09-1.59-.31-3.89-.76-6.7-.47-2.81-1.14-6.14-2.18-9.76-.45-1.66-1.51-5.62-4.08-11.55-3.39-8.03-7.99-14.6-11.99-18.67-.94-1.08-1.98-1.86-2.82-2.62-.43-.37-.82-.73-1.2-1.02-.39-.27-.76-.52-1.09-.75-1.32-.9-2.06-1.38-2.08-1.33-.12.16,2.95,1.97,6.83,6.09,3.86,4.11,8.33,10.64,11.69,18.6,1.87,4.32,3.18,8.18,4.11,11.45,1.07,3.59,1.78,6.89,2.32,9.67.51,2.79.81,5.06.98,6.64.15,1.58.25,2.45.3,2.45Z"/><polygon class="o" points="390.9 441.51 392.86 468.43 427.45 468.43 429.42 441.51 390.9 441.51"/><rect class="o" x="387.56" y="430.9" width="45.98" height="10.61"/><polygon class="n" points="387.56 467.4 387.56 470.34 389.72 470.34 432.78 470.34 432.78 467.4 387.56 467.4"/><polygon class="o" points="391.84 475.52 389.72 470.34 431.14 470.34 428.67 475.52 391.84 475.52"/><path class="l" d="M428.77,450.31s-.05.09-.16.25c-.14.18-.31.41-.52.69-.49.63-1.17,1.49-2.01,2.58l-.09.11-.09-.12c-1.27-1.75-2.96-4.09-4.95-6.85h.28c-1.47,2.08-3.11,4.41-4.87,6.9l-.15.22-.17-.2c-1.8-2.14-3.75-4.46-5.78-6.88h.33c-.1.12-.21.26-.32.4-1.79,2.25-3.53,4.42-5.17,6.48l-.17.22-.16-.22c-1.75-2.48-3.39-4.8-4.88-6.9h.28c-2.4,2.75-4.44,5.07-6,6.86l-.11.12-.08-.14c-.79-1.33-1.42-2.39-1.88-3.16-.2-.34-.36-.62-.48-.84-.11-.19-.16-.29-.15-.3,0,0,.08.09.2.27.14.21.32.48.53.81.48.75,1.14,1.8,1.97,3.1l-.19-.02c1.54-1.8,3.54-4.15,5.91-6.92l.15-.17.13.19c1.5,2.09,3.15,4.4,4.92,6.87h-.33c1.64-2.07,3.37-4.25,5.16-6.5.11-.14.22-.27.32-.4l.16-.21.17.2c2.02,2.42,3.97,4.75,5.76,6.89h-.32c1.78-2.47,3.43-4.78,4.92-6.85l.14-.2.14.2c1.95,2.78,3.61,5.15,4.85,6.92h-.18c.88-1.06,1.58-1.91,2.1-2.52.23-.26.41-.48.56-.65.13-.14.2-.22.21-.21Z"/><path class="l" d="M429.9,441.33c0,.12-8.67.22-19.35.22s-19.36-.1-19.36-.22,8.66-.22,19.36-.22,19.35.1,19.35.22Z"/><path class="l" d="M431.65,470.63c0,.12-9.42.22-21.03.22s-21.04-.1-21.04-.22,9.42-.22,21.04-.22,21.03.1,21.03.22Z"/><path class="n" d="M67.42,169.17s.64-.05,1.79-.04c.58,0,1.28,0,2.1.07.82.05,1.75.08,2.78.21,2.06.19,4.49.57,7.17,1.14,2.67.6,5.57,1.4,8.54,2.48,2.96,1.1,5.7,2.35,8.12,3.61,2.41,1.29,4.52,2.57,6.21,3.75.87.56,1.6,1.14,2.26,1.63.66.48,1.21.93,1.65,1.3.89.74,1.36,1.16,1.34,1.19-.02.03-.54-.34-1.47-1.03-.46-.35-1.02-.77-1.7-1.23-.67-.46-1.42-1.02-2.29-1.56-1.71-1.14-3.82-2.37-6.23-3.63-2.42-1.23-5.14-2.46-8.08-3.55-2.95-1.06-5.82-1.88-8.46-2.5-2.65-.59-5.06-1-7.1-1.24-1.02-.15-1.95-.21-2.76-.29-.81-.09-1.51-.13-2.09-.16-1.15-.07-1.79-.12-1.78-.16Z"/><path class="n" d="M48.89,280.58s.17-.17.54-.45c.41-.31.94-.71,1.6-1.22.69-.53,1.56-1.16,2.6-1.84,1.03-.69,2.19-1.51,3.54-2.3,1.33-.82,2.8-1.71,4.42-2.57,1.6-.91,3.37-1.76,5.23-2.67,3.75-1.74,7.97-3.46,12.52-4.92,4.56-1.43,9-2.46,13.07-3.2,2.04-.32,3.98-.66,5.81-.83,1.82-.24,3.53-.35,5.1-.45,1.56-.13,2.97-.13,4.22-.16,1.24-.04,2.31-.02,3.18.01.83.03,1.5.05,2.01.07.46.02.7.04.7.06,0,.02-.24.03-.7.04-.51,0-1.18.02-2.01.03-.87,0-1.94,0-3.18.08-1.24.06-2.65.08-4.2.24-1.55.12-3.25.26-5.07.51-1.82.19-3.75.54-5.78.87-4.05.76-8.46,1.8-13,3.22-4.52,1.45-8.73,3.15-12.47,4.85-1.85.9-3.63,1.72-5.23,2.62-1.63.84-3.1,1.7-4.44,2.5-1.36.77-2.52,1.56-3.57,2.22-1.05.65-1.93,1.26-2.64,1.77-.69.47-1.24.85-1.66,1.14-.38.26-.59.38-.6.37Z"/><path class="n" d="M120.76,334.33s0-.19.07-.54c.08-.41.18-.91.3-1.53.13-.67.31-1.48.55-2.41.24-.93.48-2,.83-3.16.65-2.34,1.54-5.09,2.67-8.09,1.15-2.99,2.54-6.24,4.19-9.56,1.67-3.31,3.44-6.36,5.15-9.08,1.74-2.7,3.4-5.06,4.89-6.98.72-.98,1.43-1.81,2.04-2.56.6-.75,1.15-1.38,1.6-1.88.42-.47.77-.85,1.05-1.16.24-.26.38-.39.39-.38.01.01-.09.17-.31.45-.26.32-.58.73-.97,1.22-.43.52-.95,1.16-1.53,1.93-.58.76-1.27,1.61-1.97,2.6-1.44,1.94-3.07,4.31-4.77,7.01-1.68,2.72-3.43,5.76-5.09,9.05-1.64,3.3-3.04,6.52-4.2,9.5-1.14,2.98-2.07,5.71-2.76,8.02-.37,1.15-.64,2.21-.9,3.13-.27.92-.47,1.72-.63,2.38-.16.61-.29,1.11-.4,1.51-.1.34-.16.52-.17.52Z"/><path class="n" d="M256.62,59.85s-.12.22-.39.61c-.3.43-.7.99-1.2,1.68-.53.72-1.17,1.61-1.87,2.67-.71,1.06-1.55,2.24-2.39,3.6-.86,1.35-1.81,2.83-2.74,4.46-.98,1.61-1.93,3.38-2.95,5.24-1.97,3.75-3.98,7.95-5.84,12.47-1.83,4.53-3.32,8.95-4.52,13-.57,2.04-1.13,3.97-1.55,5.81-.47,1.82-.83,3.54-1.15,5.11-.35,1.56-.57,3-.8,4.25-.24,1.25-.4,2.33-.53,3.22-.13.85-.24,1.52-.32,2.04-.08.47-.13.71-.15.71-.02,0,0-.25.04-.72.06-.52.13-1.2.22-2.05.09-.89.23-1.98.44-3.24.2-1.26.4-2.7.73-4.27.3-1.58.64-3.3,1.09-5.14.4-1.85.95-3.79,1.51-5.84,1.19-4.08,2.67-8.52,4.5-13.07,1.86-4.54,3.9-8.75,5.9-12.5,1.03-1.86,2-3.63,3-5.23.96-1.63,1.92-3.1,2.81-4.44.86-1.36,1.73-2.52,2.46-3.57.73-1.05,1.39-1.92,1.95-2.63.53-.67.95-1.21,1.28-1.63.3-.37.46-.56.47-.55Z"/><path class="n" d="M346.65,163.74s-.21.06-.6.11c-.45.06-1.02.13-1.73.23-.38.05-.8.1-1.25.15-.46.07-.94.18-1.47.27-1.05.21-2.27.38-3.57.76-.66.17-1.34.35-2.05.53-.71.19-1.43.46-2.19.7-1.52.46-3.08,1.13-4.74,1.8-3.26,1.46-6.73,3.33-10.11,5.68-3.36,2.39-6.29,5.02-8.77,7.59-1.19,1.33-2.36,2.57-3.3,3.85-.48.63-.98,1.21-1.41,1.82-.42.61-.81,1.19-1.2,1.75-.8,1.09-1.37,2.18-1.93,3.1-.27.46-.54.89-.76,1.29-.2.41-.39.78-.57,1.12-.33.63-.59,1.15-.8,1.55-.19.35-.3.53-.31.53-.02,0,.06-.2.22-.57.19-.42.42-.95.71-1.6.16-.35.34-.73.53-1.15.21-.41.46-.85.72-1.32.54-.94,1.09-2.04,1.87-3.16.38-.57.77-1.16,1.18-1.78.41-.62.91-1.21,1.39-1.85.94-1.3,2.1-2.56,3.29-3.91,2.48-2.61,5.43-5.28,8.82-7.69,3.42-2.37,6.93-4.24,10.22-5.69,1.67-.66,3.25-1.33,4.79-1.77.77-.23,1.49-.5,2.21-.68.72-.17,1.41-.34,2.08-.5,1.31-.36,2.54-.5,3.61-.69.53-.08,1.03-.18,1.49-.23.46-.04.88-.07,1.26-.11.71-.05,1.29-.1,1.75-.13.4-.02.61-.03.61-.01Z"/><path class="n" d="M420.18,223.25s-.09-.02-.26-.07c-.2-.07-.45-.15-.75-.26-.69-.25-1.65-.59-2.87-1.03-.63-.23-1.32-.48-2.07-.76-.76-.26-1.6-.51-2.49-.8-1.8-.56-3.82-1.27-6.11-1.85-1.14-.31-2.34-.64-3.58-.98-1.25-.33-2.57-.6-3.92-.91-2.7-.67-5.64-1.16-8.71-1.72-6.18-.98-13.02-1.74-20.24-1.99-7.22-.19-14.1.14-20.33.74-3.11.38-6.06.68-8.8,1.19-1.37.24-2.7.42-3.97.67-1.26.26-2.48.52-3.64.76-2.33.44-4.39,1.03-6.21,1.47-.91.23-1.76.43-2.54.65-.77.23-1.47.44-2.11.63-1.24.36-2.22.65-2.93.85-.31.09-.56.15-.77.21-.17.04-.26.06-.27.05,0,0,.08-.04.25-.11.2-.07.44-.15.75-.26.7-.23,1.67-.55,2.9-.95.64-.2,1.34-.43,2.1-.67.77-.23,1.62-.44,2.53-.69,1.82-.47,3.88-1.09,6.21-1.55,1.16-.25,2.37-.52,3.64-.79,1.27-.27,2.6-.46,3.97-.7,2.74-.52,5.71-.85,8.82-1.24,6.24-.63,13.15-.98,20.39-.79,7.24.25,14.11,1.02,20.3,2.03,3.08.58,6.02,1.09,8.73,1.78,1.36.33,2.68.6,3.92.95,1.25.35,2.44.69,3.58,1.01,2.3.6,4.31,1.34,6.1,1.93.89.3,1.73.57,2.49.85.75.29,1.44.56,2.06.8,1.2.48,2.15.85,2.84,1.12.3.12.54.22.73.3.16.07.25.11.24.12Z"/></g><g id="b"><path class="s" d="M264.75,59.34v28.52c-6.48,6.35-29.85,29.93-29.85,29.93h29.85v22.44c0,7.94,6.4,14.4,14.34,14.48l165.48,1.56c8.05.08,14.62-6.43,14.62-14.48V59.34c0-8-6.48-14.48-14.48-14.48h-165.48c-8,0-14.48,6.48-14.48,14.48Z"/><path class="f" d="M264.75,59.34s0-.55.06-1.62c.13-1.06.39-2.66,1.27-4.57.41-.97,1.06-1.96,1.85-2.99.83-.99,1.84-2,3.11-2.88,1.28-.86,2.79-1.59,4.5-2.04,1.71-.48,3.63-.53,5.6-.5,15.89-.02,38.86-.06,67.24-.1,14.19-.01,29.74-.03,46.43-.04,8.35,0,16.98-.01,25.87-.02,4.45,0,8.96,0,13.53,0,2.29,0,4.59,0,6.9,0,1.16,0,2.32,0,3.49,0,.59.02,1.19.04,1.78.1.59.11,1.19.14,1.76.32,4.67,1.07,8.78,4.63,10.43,9.27.45,1.14.68,2.36.84,3.58.09,1.24.08,2.45.08,3.66,0,2.43,0,4.87,0,7.33,0,9.82,0,19.85,0,30.06,0,10.21,0,20.6,0,31.15,0,2.64,0,5.28,0,7.94,0,1.33,0,2.66,0,3.99-.03,1.36-.21,2.72-.6,4.04-.78,2.61-2.28,5.04-4.36,6.85-1.02.93-2.18,1.7-3.42,2.29-1.23.62-2.58,1.01-3.93,1.26-1.3.24-2.64.22-3.91.21l-3.85-.04c-2.57-.02-5.12-.05-7.67-.07-5.1-.05-10.17-.1-15.2-.14-10.07-.1-19.99-.19-29.75-.29-19.52-.19-38.39-.37-56.4-.55-18.01-.18-35.18-.35-51.3-.51-4.12-.02-8.09-1.88-10.74-4.82-2.71-2.92-4.01-6.92-3.86-10.71,0-7.52.01-14.75.02-21.67l.24.24c-10.86-.01-20.75-.02-29.85-.03h-.5s.35-.35.35-.35c12.1-12.1,22.1-22.09,29.9-29.89l-.04.1c.03-9.26.05-16.38.06-21.21.02-2.4.03-4.22.03-5.46.01-1.23.04-1.85.04-1.85,0,0,.02.62.04,1.85,0,1.24.02,3.06.03,5.46.01,4.83.04,11.95.06,21.21v.06s-.04.04-.04.04c-7.78,7.82-17.74,17.85-29.8,29.98l-.15-.35c9.1-.01,18.99-.02,29.85-.03h.24s0,.24,0,.24c0,6.92.01,14.15.02,21.67-.14,3.71,1.12,7.52,3.74,10.34,2.56,2.84,6.38,4.62,10.35,4.63,16.12.14,33.29.3,51.3.46,18.01.16,36.88.34,56.4.52,9.76.09,19.69.18,29.75.28,5.03.05,10.1.09,15.2.14,2.55.02,5.11.05,7.67.07l3.85.04c1.3,0,2.55.03,3.8-.2,5.25-.84,9.75-4.89,11.2-9.93.37-1.25.54-2.56.58-3.86,0-1.33,0-2.66,0-3.99,0-2.66,0-5.3,0-7.94,0-10.55,0-20.94,0-31.15,0-10.21,0-20.24,0-30.06,0-2.46,0-4.9,0-7.33,0-1.22.01-2.43-.07-3.6-.16-1.17-.37-2.34-.81-3.43-1.58-4.45-5.52-7.86-10-8.9-2.22-.59-4.57-.35-6.89-.4-2.32,0-4.62,0-6.9,0-4.57,0-9.08,0-13.53,0-8.89,0-17.52-.01-25.87-.02-16.69-.01-32.24-.03-46.43-.04-28.38-.04-51.35-.08-67.24-.1-1.99-.03-3.85,0-5.55.47-1.69.44-3.18,1.15-4.45,1.99-1.26.86-2.26,1.85-3.09,2.82-.78,1.01-1.44,1.98-1.86,2.94-1.73,3.83-1.32,6.18-1.45,6.14Z"/><path class="j" d="M303.91,84.5c0-7.87,6.13-13.7,14.49-13.7s14.49,5.79,14.49,13.7-6.17,13.7-14.49,13.7-14.49-5.83-14.49-13.7ZM326.69,84.5c0-5.03-3.56-8.48-8.29-8.48s-8.29,3.44-8.29,8.48,3.56,8.48,8.29,8.48,8.29-3.44,8.29-8.48Z"/><path class="j" d="M335.58,87.56c0-6.13,4.73-10.48,11.2-10.48s11.16,4.35,11.16,10.48-4.69,10.48-11.16,10.48-11.2-4.35-11.2-10.48ZM351.96,87.56c0-3.52-2.23-5.64-5.18-5.64s-5.22,2.12-5.22,5.64,2.27,5.64,5.22,5.64,5.18-2.12,5.18-5.64Z"/><path class="j" d="M384.04,87.56c0,6.39-4.43,10.48-10.14,10.48-2.53,0-4.62-.79-6.13-2.46v9.5h-5.9v-27.7h5.64v2.35c1.48-1.78,3.67-2.65,6.39-2.65,5.71,0,10.14,4.09,10.14,10.48ZM378.06,87.56c0-3.52-2.23-5.64-5.18-5.64s-5.18,2.12-5.18,5.64,2.23,5.64,5.18,5.64,5.18-2.12,5.18-5.64Z"/><path class="j" d="M386,95.85l1.97-4.24c1.82,1.17,4.58,1.97,7.08,1.97,2.72,0,3.75-.72,3.75-1.85,0-3.33-12.3.08-12.3-8.06,0-3.86,3.48-6.58,9.42-6.58,2.8,0,5.9.64,7.83,1.78l-1.97,4.2c-2.01-1.13-4.01-1.51-5.86-1.51-2.65,0-3.78.83-3.78,1.89,0,3.48,12.3.11,12.3,8.14,0,3.78-3.52,6.47-9.61,6.47-3.44,0-6.92-.95-8.82-2.19Z"/><path class="j" d="M407.19,94.6c0-1.93,1.51-3.37,3.63-3.37s3.63,1.44,3.63,3.37-1.51,3.44-3.63,3.44-3.63-1.55-3.63-3.44ZM407.3,71.26h7.04l-1.17,17.29h-4.69l-1.17-17.29Z"/><text class="t" transform="translate(296.76 130.07)"><tspan x="0" y="0">Help m</tspan><tspan class="x" x="96.12" y="0">e</tspan><tspan x="111.77" y="0">...</tspan></text></g><g id="c"><path class="i" d="M175.84,45.12h1.32c7.7,0,13.95,6.25,13.95,13.95v3.77c0,7.7-6.25,13.95-13.95,13.95h-1.32v-31.67h0Z" transform="translate(10.33 146.97) rotate(-44.79)"/><path class="f" d="M189.22,77.6l-.02-.02-22.33-22.49.02-.02.94-.93c2.64-2.62,6.13-4.06,9.85-4.06h.05c3.73.01,7.24,1.48,9.87,4.13l2.66,2.68c2.63,2.65,4.07,6.16,4.06,9.9-.01,3.73-1.48,7.24-4.13,9.87l-.96.95ZM166.94,55.09l22.28,22.44.92-.91c2.64-2.62,4.1-6.11,4.11-9.83.01-3.72-1.42-7.22-4.04-9.86l-2.66-2.68c-2.62-2.64-6.11-4.1-9.83-4.11h-.05c-3.7,0-7.18,1.44-9.81,4.04l-.92.91Z"/><path class="i" d="M97.86,121.34h1.32c7.7,0,13.95,6.25,13.95,13.95v3.77c0,7.7-6.25,13.95-13.95,13.95h-1.32v-31.67h0Z" transform="translate(276.05 166.43) rotate(137.3)"/><path class="f" d="M111.43,148.25c-.19,0-.38,0-.57-.01-3.73-.15-7.18-1.74-9.71-4.49l-2.56-2.77c-2.53-2.74-3.84-6.31-3.69-10.04.15-3.73,1.74-7.18,4.49-9.71l.99-.91.02.02,21.5,23.29-.02.02-.97.9c-2.6,2.4-5.94,3.71-9.46,3.71ZM99.41,121.27c-2.73,2.52-4.32,5.96-4.47,9.67-.15,3.72,1.16,7.27,3.68,10l2.56,2.77c2.52,2.73,5.96,4.32,9.67,4.47.19,0,.38.01.57.01,3.51,0,6.84-1.3,9.43-3.69l.95-.88-21.45-23.24-.95.88Z"/><rect class="i" x="93.19" y="89.53" width="2.5" height="20.69" transform="translate(-42.59 110.68) rotate(-51.11)"/><path class="f" d="M88.22,88.3c2.19,1.77,2.54,4.98.77,7.17-1.77,2.19-4.98,2.54-7.17.77-2.19-1.77-2.54-4.98-.77-7.17,1.77-2.19,4.98-2.54,7.17-.77Z"/><rect class="h" x="102.48" y="70.93" width="99.18" height="74.84" rx="16.5" ry="16.5" transform="translate(-32.18 138.62) rotate(-44.8)"/><polygon class="i" points="150.49 57.18 148.29 48.75 142.54 49.7 140.88 43.61 142.76 43.18 144.07 47.61 149.81 46.83 152.21 55.48 150.49 57.18"/><path class="f" d="M115.75,85.29h57.2c7.71,0,13.96,6.26,13.96,13.96v2.65c0,7.71-6.26,13.96-13.96,13.96h-57.2c-7.71,0-13.96-6.26-13.96-13.96v-2.65c0-7.71,6.26-13.96,13.96-13.96Z" transform="translate(-28.95 130.92) rotate(-44.8)"/><path class="f" d="M177.66,94.96s.12-.16.38-.45c.24-.31.68-.69,1.1-1.32.93-1.18,2.14-3.11,2.93-5.87.38-1.38.64-2.96.66-4.7-.01-1.74-.26-3.63-.9-5.56-.63-1.93-1.65-3.88-3.12-5.65-.39-.43-.78-.86-1.18-1.29-.42-.42-.85-.85-1.28-1.28-.87-.87-1.75-1.75-2.76-2.52-2.02-1.55-4.49-2.71-7.22-3.26-2.73-.49-5.7-.42-8.56.49-1.43.44-2.81,1.1-4.12,1.92-1.3.85-2.48,1.86-3.61,3.02-2.29,2.28-4.64,4.62-7.05,7.02-9.66,9.6-20.28,20.16-31.43,31.24-2.71,2.76-4.55,6.34-4.97,10.1-.23,1.87-.17,3.76.18,5.59.35,1.83,1.04,3.56,1.92,5.15.43.81.97,1.54,1.51,2.26.59.68,1.18,1.36,1.83,2,1.3,1.28,2.5,2.62,3.94,3.62,2.83,2.08,6.26,3.18,9.61,3.28,3.36.1,6.65-.77,9.38-2.41.71-.37,1.32-.88,1.96-1.33.6-.51,1.18-1.02,1.74-1.57,1.11-1.1,2.21-2.18,3.28-3.25,4.31-4.26,8.32-8.23,11.98-11.85,7.32-7.22,13.26-13.07,17.37-17.13,2.05-2,3.64-3.56,4.74-4.64.54-.52.95-.91,1.24-1.2.28-.27.44-.4.44-.4,0,0-.13.15-.4.43-.29.29-.69.7-1.21,1.23-1.08,1.09-2.65,2.67-4.67,4.71-4.09,4.09-9.98,9.98-17.26,17.25-3.65,3.64-7.65,7.62-11.93,11.9-1.07,1.07-2.16,2.16-3.27,3.26-.55.55-1.16,1.08-1.77,1.6-.66.47-1.28.99-2.01,1.37-2.79,1.69-6.18,2.6-9.63,2.5-3.44-.1-6.97-1.22-9.89-3.35-1.5-1.03-2.73-2.4-4.01-3.67-.65-.63-1.26-1.34-1.87-2.04-.56-.75-1.12-1.5-1.56-2.33-.92-1.64-1.62-3.42-1.99-5.3-.36-1.88-.43-3.83-.19-5.75.43-3.87,2.32-7.57,5.12-10.41,11.16-11.07,21.79-21.61,31.46-31.21,2.42-2.4,4.78-4.73,7.07-7,1.12-1.15,2.37-2.21,3.69-3.07,1.35-.83,2.77-1.5,4.23-1.96,2.93-.93,5.98-.99,8.76-.48,2.79.57,5.31,1.78,7.37,3.36,1.04.79,1.93,1.7,2.79,2.57.43.44.86.87,1.27,1.29.4.45.8.89,1.19,1.32,1.49,1.81,2.51,3.81,3.14,5.77.63,1.97.87,3.89.87,5.65-.04,1.77-.32,3.36-.72,4.76-.83,2.78-2.08,4.71-3.04,5.88-.44.62-.89,1-1.14,1.29-.27.28-.42.42-.42.42Z"/><path class="r" d="M125.76,126.43c-.14,0-.32-4.03-.39-9-.07-4.97-.01-9,.13-9,.14,0,.32,4.03.39,9,.07,4.97.01,9-.13,9Z"/><path class="r" d="M134.47,116.72c0,.14-4.02.44-8.99.67-4.97.22-9.01.29-9.01.15,0-.14,4.02-.44,8.99-.67,4.97-.22,9.01-.29,9.01-.15Z"/><path class="r" d="M161.4,90.11c-.14,0-.32-4.03-.39-9-.07-4.97-.01-9,.13-9,.14,0,.32,4.03.39,9,.07,4.97.01,9-.13,9Z"/><path class="r" d="M170.11,80.4c0,.14-4.02.44-8.99.67-4.97.22-9.01.29-9.01.15,0-.14,4.02-.44,8.99-.67,4.97-.22,9.01-.29,9.01-.15Z"/><path class="f" d="M144.26,36.39c1.98,2,1.97,5.23-.03,7.21s-5.23,1.97-7.21-.03c-1.98-2-1.97-5.23.03-7.21,2-1.98,5.23-1.97,7.21.03Z"/><path class="f" d="M156.51,156.68s-.34-.23-.88-.73c-.54-.49-1.32-1.22-2.26-2.12-1.9-1.81-4.49-4.33-7.33-7.14-2.84-2.81-5.38-5.39-7.19-7.28-1.81-1.88-2.9-3.12-2.81-3.17.04,0,.3.25.84.77.61.58,1.35,1.3,2.23,2.15,1.95,1.92,4.49,4.41,7.3,7.17,2.84,2.81,5.39,5.37,7.22,7.25.85.88,1.56,1.63,2.15,2.24.5.54.76.84.74.87Z"/><path class="f" d="M199.82,113.05s-.34-.23-.88-.73c-.54-.49-1.32-1.22-2.26-2.12-1.9-1.81-4.49-4.33-7.33-7.14-2.84-2.81-5.38-5.39-7.19-7.28-1.81-1.88-2.9-3.12-2.81-3.17.04,0,.3.25.84.77.61.58,1.35,1.3,2.23,2.15,1.95,1.92,4.49,4.41,7.3,7.17,2.84,2.81,5.39,5.37,7.22,7.25.85.88,1.56,1.63,2.15,2.24.5.54.76.84.74.87Z"/><rect class="f" x="136.8" y="116.58" width="52.15" height="5.72" transform="translate(-36.5 151.76) rotate(-45.46)"/><path class="f" d="M137.6,142.82c-.02.6-.53,1.07-1.14,1.05-.6-.02-1.07-.53-1.05-1.14.02-.6.53-1.07,1.14-1.05s1.07.53,1.05,1.14Z"/><path class="f" d="M145.94,151.63c-.02.6-.53,1.07-1.14,1.05-.6-.02-1.07-.53-1.05-1.14.02-.6.53-1.07,1.14-1.05s1.07.53,1.05,1.14Z"/><path class="f" d="M186.62,92.91c-.02.6-.53,1.07-1.14,1.05-.6-.02-1.07-.53-1.05-1.14.02-.6.53-1.07,1.14-1.05s1.07.53,1.05,1.14Z"/><path class="f" d="M194.96,101.72c-.02.6-.53,1.07-1.14,1.05-.6-.02-1.07-.53-1.05-1.14.02-.6.53-1.07,1.14-1.05s1.07.53,1.05,1.14Z"/><path class="r" d="M105.45,143.97c-.07.05-.78-.91-2.31-2.05-.75-.59-1.7-1.24-2.67-2.09-.98-.84-1.89-1.99-2.54-3.34-1.32-2.73-1.27-5.6-.78-7.48.22-.95.57-1.67.81-2.16.28-.47.45-.71.48-.7.1.05-.57,1.07-.93,2.93-.38,1.83-.36,4.57.89,7.17,1.21,2.65,3.53,4.11,4.98,5.37,1.5,1.24,2.14,2.31,2.08,2.34Z"/><path class="r" d="M148.92,63.53c.1.1-10.41,10.48-23.48,23.17-13.07,12.7-23.74,22.91-23.84,22.8-.1-.1,10.41-10.48,23.48-23.18,13.07-12.69,23.74-22.9,23.84-22.8Z"/><path class="r" d="M83.92,95.87c-.01.06-.52,0-1.2-.45-.66-.43-1.47-1.32-1.73-2.56-.26-1.24.11-2.38.54-3.05.43-.68.88-.94.91-.9.06.06-.27.41-.59,1.07-.32.65-.58,1.68-.36,2.76.23,1.08.89,1.91,1.45,2.38.56.48,1,.66.97.74Z"/><path class="r" d="M139.46,43.69c-.01.06-.56-.01-1.28-.52-.7-.49-1.53-1.5-1.71-2.85-.17-1.36.38-2.55.93-3.2.56-.67,1.08-.87,1.1-.82.05.07-.37.38-.81,1.04-.44.65-.86,1.73-.71,2.91.16,1.18.84,2.12,1.43,2.63.59.53,1.08.72,1.05.8Z"/><path class="r" d="M177.32,51.71c0,.16-1.95.06-4.11.93-2.17.84-3.52,2.25-3.63,2.14-.11-.06,1.13-1.72,3.44-2.62,2.3-.92,4.34-.57,4.3-.45Z"/><path class="r" d="M135.81,158.46c-.1.1-3.44-3.19-7.46-7.35-4.02-4.16-7.19-7.61-7.09-7.71.1-.1,3.44,3.19,7.46,7.35,4.02,4.16,7.19,7.61,7.09,7.71Z"/><rect class="h" x="208.44" y="398.62" width="42.79" height="60.65"/><path class="f" d="M208.77,458.23h42.14c3.15,0,5.7,2.56,5.7,5.7v.54h-53.55v-.54c0-3.15,2.56-5.7,5.7-5.7Z"/><rect class="h" x="198.18" y="464.47" width="64.99" height="9.88"/><path class="f" d="M251.02,452.61c0,.14-9.49.26-21.18.26s-21.19-.12-21.19-.26,9.48-.26,21.19-.26,21.18.12,21.18.26Z"/><path class="f" d="M251.02,445.39c0,.14-9.49.26-21.18.26s-21.19-.12-21.19-.26,9.48-.26,21.19-.26,21.18.12,21.18.26Z"/><path class="f" d="M251.02,438.31c0,.14-9.49.26-21.18.26s-21.19-.12-21.19-.26,9.48-.26,21.19-.26,21.18.12,21.18.26Z"/><path class="f" d="M251.02,431.1c0,.14-9.49.26-21.18.26s-21.19-.12-21.19-.26,9.48-.26,21.19-.26,21.18.12,21.18.26Z"/><path class="f" d="M251.02,424.01c0,.14-9.49.26-21.18.26s-21.19-.12-21.19-.26,9.48-.26,21.19-.26,21.18.12,21.18.26Z"/><path class="f" d="M251.02,416.8c0,.14-9.49.26-21.18.26s-21.19-.12-21.19-.26,9.48-.26,21.19-.26,21.18.12,21.18.26Z"/><path class="f" d="M251.02,409.72c0,.14-9.49.26-21.18.26s-21.19-.12-21.19-.26,9.48-.26,21.19-.26,21.18.12,21.18.26Z"/><path class="f" d="M251.02,402.51c0,.14-9.49.26-21.18.26s-21.19-.12-21.19-.26,9.48-.26,21.19-.26,21.18.12,21.18.26Z"/><g class="w"><polygon class="j" points="208.44 407.07 251.02 405.89 251.02 399.71 208.06 399.71 208.44 407.07"/></g><rect class="h" x="275.46" y="398.62" width="42.79" height="60.65"/><path class="f" d="M275.79,458.23h42.14c3.15,0,5.7,2.56,5.7,5.7v.54h-53.55v-.54c0-3.15,2.56-5.7,5.7-5.7Z"/><rect class="h" x="265.2" y="464.47" width="64.99" height="9.88"/><path class="f" d="M318.04,452.61c0,.14-9.49.26-21.18.26s-21.19-.12-21.19-.26,9.48-.26,21.19-.26,21.18.12,21.18.26Z"/><path class="f" d="M318.04,445.39c0,.14-9.49.26-21.18.26s-21.19-.12-21.19-.26,9.48-.26,21.19-.26,21.18.12,21.18.26Z"/><path class="f" d="M318.04,438.31c0,.14-9.49.26-21.18.26s-21.19-.12-21.19-.26,9.48-.26,21.19-.26,21.18.12,21.18.26Z"/><path class="f" d="M318.04,431.1c0,.14-9.49.26-21.18.26s-21.19-.12-21.19-.26,9.48-.26,21.19-.26,21.18.12,21.18.26Z"/><path class="f" d="M318.04,424.01c0,.14-9.49.26-21.18.26s-21.19-.12-21.19-.26,9.48-.26,21.19-.26,21.18.12,21.18.26Z"/><path class="f" d="M318.04,416.8c0,.14-9.49.26-21.18.26s-21.19-.12-21.19-.26,9.48-.26,21.19-.26,21.18.12,21.18.26Z"/><path class="f" d="M318.04,409.72c0,.14-9.49.26-21.18.26s-21.19-.12-21.19-.26,9.48-.26,21.19-.26,21.18.12,21.18.26Z"/><path class="f" d="M318.04,402.51c0,.14-9.49.26-21.18.26s-21.19-.12-21.19-.26,9.48-.26,21.19-.26,21.18.12,21.18.26Z"/><g class="w"><polygon class="j" points="275.46 407.07 318.04 405.89 318.04 399.71 275.08 399.71 275.46 407.07"/></g><path class="h" d="M328.17,223.65h4.32c1.01,0,1.83.82,1.83,1.83v17.68h-7.99v-17.68c0-1.01.82-1.83,1.83-1.83Z" transform="translate(23.16 496.55) rotate(-75.83)"/><g class="w"><path class="j" d="M328.17,223.65h4.32c1.01,0,1.83.82,1.83,1.83v17.68h-7.99v-17.68c0-1.01.82-1.83,1.83-1.83Z" transform="translate(23.16 496.55) rotate(-75.83)"/></g><path class="h" d="M323.82,237.7h5.94c1.68,0,3.04,1.36,3.04,3.04v16.47h-12.02v-16.47c0-1.68,1.36-3.04,3.04-3.04Z" transform="translate(6.87 503.72) rotate(-75.83)"/><rect class="h" x="324.34" y="237.02" width="20.39" height="7.7" transform="translate(19.11 506.26) rotate(-75.83)"/><path class="h" d="M345.68,310.42s31.95-1.3,29.3-31.91c-2.02-23.45-36.9-23.67-36.9-23.67l8.92-19.49s40.76,3.55,48.81,33.23c9.09,33.54-11.93,60.89-50.13,60.25v-18.41Z"/><rect class="f" x="334.32" y="230.94" width="12.44" height="27.68" transform="translate(60.85 -67.72) rotate(12.46)"/><path class="i" d="M344.16,256.78c-.03.23-2.75-.24-6.05-.99-3.3-.75-5.94-1.5-5.91-1.64.03-.14,2.73.38,6.02,1.13,1.65.38,3.13.74,4.21,1.01.43.11.85.23,1.27.34.31.08.44.13.46.15Z"/><path class="i" d="M345.23,251.91c-.03.23-2.75-.24-6.05-.99-3.3-.75-5.94-1.5-5.91-1.64.03-.14,2.73.38,6.02,1.13,1.65.38,3.13.74,4.21,1.01.43.11.85.23,1.27.34.31.08.44.13.46.15Z"/><path class="i" d="M346.52,247.04c-.03.23-2.75-.24-6.05-.99-3.3-.75-5.94-1.5-5.91-1.64.03-.14,2.73.38,6.02,1.13,1.65.38,3.13.74,4.21,1.01.43.11.85.23,1.27.34.31.08.44.13.46.15Z"/><path class="i" d="M347.38,242.18c-.03.23-2.75-.24-6.05-.99-3.3-.75-5.94-1.5-5.91-1.64.03-.14,2.73.38,6.02,1.13,1.65.38,3.13.74,4.21,1.01.43.11.85.23,1.27.34.31.08.44.13.46.15Z"/><path class="i" d="M348.63,237.62c-.03.23-2.75-.24-6.05-.99-3.3-.75-5.94-1.5-5.91-1.64.03-.14,2.73.38,6.02,1.13,1.65.38,3.13.74,4.21,1.01.43.11.85.23,1.27.34.31.08.44.13.46.15Z"/><path class="f" d="M352.66,328.63c-.07.01-.33-1.02-.65-2.7-.32-1.68-.7-4.02-.99-6.61-.29-2.6-.45-4.96-.51-6.67-.06-1.71-.04-2.77.03-2.77.07,0,.18,1.05.34,2.75.15,1.7.36,4.05.66,6.63.29,2.59.61,4.92.84,6.61.23,1.69.36,2.74.29,2.76Z"/><path class="f" d="M362.59,327.08c-.14.04-1.44-4.23-2.91-9.54-1.47-5.31-2.55-9.64-2.41-9.68.14-.04,1.44,4.23,2.91,9.54,1.47,5.31,2.55,9.64,2.41,9.68Z"/><path class="f" d="M375.94,322.3c-.06.04-.7-.99-1.7-2.65-1.08-1.8-2.42-4.04-3.9-6.52-1.49-2.47-2.83-4.71-3.92-6.51-1-1.67-1.6-2.71-1.54-2.75.06-.04.77.94,1.85,2.55,1.08,1.62,2.52,3.89,4.05,6.43,1.53,2.55,2.85,4.89,3.77,6.6.92,1.71,1.45,2.8,1.38,2.83Z"/><path class="f" d="M387.17,313.3c-.09.11-4.07-3.04-8.88-7.03-4.81-3.99-8.64-7.32-8.55-7.43.09-.11,4.07,3.04,8.88,7.03,4.81,3.99,8.64,7.32,8.55,7.43Z"/><path class="f" d="M394.4,300.95c-.06.13-4.76-1.7-10.5-4.09-5.75-2.39-10.36-4.44-10.3-4.57.06-.13,4.76,1.7,10.5,4.09,5.75,2.39,10.36,4.44,10.3,4.57Z"/><path class="f" d="M397.94,287.63c-.01.07-1.3-.06-3.37-.31-2.22-.27-5-.62-8.08-1-3.08-.37-5.87-.71-8.09-.97-2.07-.25-3.35-.43-3.34-.5,0-.07,1.3-.02,3.38.14,2.08.16,4.95.44,8.11.82,3.16.39,6.01.81,8.07,1.15,2.06.35,3.32.61,3.31.68Z"/><path class="f" d="M396.29,273.81c.02.07-1.13.47-3.02,1.03-1.89.55-4.52,1.24-7.46,1.86-2.94.62-5.63,1.06-7.58,1.31-1.95.26-3.17.35-3.18.28,0-.07,1.19-.29,3.12-.64,1.93-.35,4.6-.84,7.53-1.46,2.93-.62,5.57-1.24,7.48-1.7,1.91-.46,3.09-.74,3.11-.67Z"/><path class="f" d="M392.27,260.55c.06.13-4.22,2.42-9.57,5.12-5.35,2.7-9.74,4.78-9.81,4.65-.06-.13,4.22-2.42,9.57-5.12,5.35-2.7,9.74-4.78,9.81-4.65Z"/><path class="f" d="M384.03,249.8c.09.11-3.47,3.33-7.96,7.2-4.49,3.87-8.2,6.91-8.3,6.8-.09-.11,3.47-3.33,7.96-7.2,4.49-3.86,8.2-6.91,8.3-6.8Z"/><path class="f" d="M370.13,241.82c.12.07-2.13,4.03-5.03,8.84-2.9,4.81-5.35,8.64-5.47,8.57-.12-.07,2.13-4.03,5.03-8.84,2.9-4.81,5.35-8.64,5.47-8.57Z"/><path class="f" d="M357.68,236.82c.14.04-1.2,4.46-2.98,9.86-1.78,5.4-3.34,9.74-3.47,9.7-.14-.05,1.2-4.46,2.98-9.86,1.78-5.4,3.34-9.74,3.47-9.7Z"/><g class="w"><path class="j" d="M372.68,294.18c-2.87,6.35-7.63,9.86-11.59,11.88-4.49,2.31-7.84,3.05-7.84,3.05,6.11,3.26,14.09,1.31,19.43-3.1,5.35-4.4,8.16-11.42,8.35-18.34.09-3.28-.37-6.62-1.73-9.6s-3.61-6.12-6.58-7.5c0,0,1.19,2,1.86,5.25.94,4.59,1.15,11.6-1.9,18.35Z"/></g><path class="f" d="M137.83,348.12s.38.37.99,1.1c.62.73,1.46,1.82,2.45,3.21,1.99,2.78,4.47,6.82,6.63,11.57,2.14,4.76,3.53,9.3,4.29,12.63.39,1.66.65,3.02.78,3.97.14.94.21,1.47.17,1.47-.04,0-.17-.51-.37-1.44-.2-.93-.51-2.27-.94-3.92-.85-3.29-2.28-7.78-4.41-12.51-2.14-4.72-4.55-8.76-6.45-11.58-.95-1.41-1.74-2.54-2.31-3.3-.56-.77-.86-1.21-.83-1.23Z"/><path class="f" d="M133.58,344.58c.1-.11.57.16,1.06.59.49.43.8.87.71.98-.1.11-.57-.16-1.06-.59-.49-.43-.8-.87-.71-.98Z"/><path class="f" d="M134.56,341.64c.12-.07.62.52,1.1,1.34.49.81.78,1.53.66,1.61-.12.07-.62-.52-1.1-1.34-.49-.81-.78-1.53-.66-1.6Z"/><path class="i" d="M153.06,382.72s.04-.28.15-.8c.13-.57.31-1.33.54-2.28.47-1.98,1.14-4.84,1.91-8.39,1.54-7.1,3.41-16.96,4.78-27.96.73-5.48,1-10.8,2.28-15.49.63-2.34,1.53-4.49,2.68-6.32,1.17-1.82,2.55-3.32,3.99-4.46,2.87-2.32,5.75-3.32,7.73-3.77,1-.22,1.79-.31,2.32-.35.54-.03.82-.04.82-.02,0,.02-.28.06-.81.13-.53.07-1.31.2-2.29.44-1.94.5-4.76,1.54-7.54,3.86-1.39,1.14-2.73,2.62-3.85,4.41-1.11,1.8-1.98,3.91-2.59,6.21-1.24,4.62-1.49,9.93-2.23,15.43-1.37,11.02-3.31,20.89-4.94,27.97-.81,3.54-1.55,6.39-2.07,8.36-.26.94-.47,1.69-.63,2.25-.15.51-.24.78-.26.78Z"/><path class="f" d="M154.25,303.42c.11-.06.6,1.7,2.55,3.72,1.9,2.03,5.39,4.07,9.62,4.68,4.24.59,8.14-.02,10.91-.46,1.31-.23,2.41-.42,3.29-.58.78-.13,1.21-.19,1.22-.16,0,.03-.41.16-1.18.36-.77.19-1.88.46-3.27.74-2.76.54-6.71,1.22-11.05.61-4.35-.62-7.93-2.79-9.81-4.94-.96-1.07-1.56-2.08-1.87-2.81-.32-.73-.43-1.16-.41-1.17Z"/><path class="f" d="M150.45,300.26c.1-.1.58.21,1.07.7.49.49.8.96.7,1.07s-.58-.21-1.07-.7c-.49-.49-.8-.96-.7-1.07Z"/><path class="f" d="M151.58,298.52c.12-.08.57.43,1.01,1.13.44.7.69,1.33.57,1.41-.12.08-.57-.43-1.01-1.13-.44-.7-.69-1.33-.57-1.41Z"/><path class="f" d="M154.71,298.29c.14.02.17.61.05,1.31-.11.7-.32,1.26-.46,1.23s-.17-.61-.05-1.31c.11-.7.32-1.26.46-1.23Z"/><path class="i" d="M164.13,337.34s0,.64-.09,1.78c-.09,1.14-.25,2.79-.49,4.83-.48,4.07-1.31,9.68-2.56,15.81-1.25,6.13-2.69,11.62-3.84,15.55-.58,1.97-1.07,3.55-1.44,4.64-.36,1.09-.58,1.68-.62,1.67-.03-.01.12-.63.42-1.73.32-1.19.76-2.76,1.28-4.68,1.06-3.95,2.43-9.44,3.69-15.56,1.25-6.12,2.13-11.7,2.7-15.75.27-1.96.49-3.59.66-4.8.15-1.14.25-1.76.29-1.76Z"/><path class="i" d="M181.86,314.19c0,.1-1.43.1-3.64.69-2.19.57-5.16,1.85-7.72,4.21-2.56,2.36-4.07,5.22-4.81,7.36-.76,2.16-.88,3.59-.98,3.58-.03,0-.03-.36.04-1.01.07-.64.24-1.57.59-2.68.67-2.22,2.17-5.19,4.81-7.63,2.64-2.43,5.72-3.7,7.99-4.19,1.14-.25,2.07-.35,2.72-.37.65-.02,1.01,0,1.01.04Z"/><path class="i" d="M157.8,382.51s0-.26.04-.75c.05-.49.12-1.22.25-2.15.29-1.83.66-4.62,2.37-7.58.85-1.46,2-2.91,2.94-4.61.45-.85.86-1.78,1.04-2.78.19-1,.18-2.07.09-3.16-.16-2.17-.79-4.51-.31-6.98.23-1.23.86-2.38,1.6-3.39.74-1.02,1.58-1.97,2.25-3.02.68-1.05,1.11-2.21,1.12-3.42.03-1.2-.22-2.4-.48-3.57-.57-2.35-.79-4.74-.57-6.97.39-4.48,2.25-8.27,4.39-10.86,2.15-2.62,4.49-4.16,6.14-5.02.83-.44,1.51-.71,1.97-.89.47-.16.71-.24.72-.22,0,.02-.23.13-.68.32-.45.2-1.11.51-1.92.97-1.61.91-3.88,2.47-5.95,5.08-2.07,2.57-3.84,6.29-4.2,10.67-.19,2.19.02,4.48.6,6.82.26,1.17.53,2.4.5,3.7,0,1.3-.49,2.59-1.2,3.68-.7,1.1-1.55,2.05-2.27,3.05-.73.99-1.3,2.04-1.52,3.19-.47,2.31.13,4.62.29,6.84.09,1.11.09,2.23-.11,3.29-.2,1.06-.63,2.03-1.11,2.9-.99,1.74-2.15,3.16-3,4.59-1.71,2.85-2.14,5.6-2.49,7.42-.14.88-.26,1.59-.35,2.13-.08.49-.13.74-.15.74Z"/><path class="o" d="M183.04,324.55c0,.07-.92-.12-2.46.35-1.52.44-3.61,1.72-5.17,4.13-1.6,2.39-2.31,5.82-2.69,9.6-.37,3.8-.95,7.99-1.83,12.32-1.77,8.67-4.18,16.32-5.96,21.82-.9,2.75-1.66,4.97-2.19,6.49-.26.72-.47,1.3-.63,1.75-.15.4-.24.61-.25.6-.02,0,.04-.22.15-.63.14-.46.32-1.05.53-1.78.5-1.61,1.19-3.83,2.03-6.54,1.69-5.53,4.04-13.17,5.8-21.81.88-4.32,1.46-8.47,1.86-12.27.41-3.79,1.17-7.3,2.86-9.75,1.65-2.45,3.84-3.72,5.42-4.12.79-.22,1.44-.23,1.86-.23.43.03.65.06.65.08Z"/><path class="h" d="M146.29,378.93h19.37s-11.75,93.29-76.61,92.97l.83-18.18s44.13-2.73,56.4-74.79Z"/><path class="h" d="M70.7,442.54h4.32c1.01,0,1.83.82,1.83,1.83v17.68h-7.99v-17.68c0-1.01.82-1.83,1.83-1.83Z" transform="translate(-380.65 517.19) rotate(-88.99)"/><g class="w"><path class="j" d="M70.7,442.54h4.32c1.01,0,1.83.82,1.83,1.83v17.68h-7.99v-17.68c0-1.01.82-1.83,1.83-1.83Z" transform="translate(-380.65 517.19) rotate(-88.99)"/></g><path class="h" d="M69.64,457.02h5.94c1.68,0,3.04,1.36,3.04,3.04v16.47h-12.02v-16.47c0-1.68,1.36-3.04,3.04-3.04Z" transform="translate(-395.38 531.17) rotate(-88.99)"/><rect class="h" x="68.46" y="454.75" width="20.39" height="7.7" transform="translate(-381.26 529.18) rotate(-88.99)"/><rect class="f" x="79.17" y="447.2" width="12.44" height="27.68" transform="translate(-5.62 1.08) rotate(-.7)"/><path class="i" d="M91.64,471.9c.03.23-2.74.4-6.11.42-3.38.02-6.12-.11-6.12-.25,0-.14,2.74-.25,6.12-.27,1.69,0,3.22,0,4.33.03.45.01.88.03,1.31.04.32.01.46.03.48.04Z"/><path class="i" d="M91.58,466.92c.03.23-2.74.4-6.11.42-3.38.02-6.12-.11-6.12-.25,0-.14,2.74-.25,6.12-.27,1.69,0,3.22,0,4.33.03.45.01.88.03,1.31.04.32.01.46.03.48.04Z"/><path class="i" d="M91.72,461.89c.03.23-2.74.4-6.11.42-3.38.02-6.12-.11-6.12-.25,0-.14,2.74-.25,6.12-.27,1.69,0,3.22,0,4.33.03.45.01.88.03,1.31.04.32.01.46.03.48.04Z"/><path class="i" d="M91.46,456.95c.03.23-2.74.4-6.11.42-3.38.02-6.12-.11-6.12-.25,0-.14,2.74-.25,6.12-.27,1.69,0,3.22,0,4.33.03.45.01.88.03,1.31.04.32.01.46.03.48.04Z"/><path class="i" d="M91.64,452.23c.03.23-2.74.4-6.11.42-3.38.02-6.12-.11-6.12-.25,0-.14,2.74-.25,6.12-.27,1.69,0,3.22,0,4.33.03.45.01.88.03,1.31.04.32.01.46.03.48.04Z"/><path class="f" d="M98.44,470.98s.05.16.06.5l.02.58-.18-.57c-.36-1.16-1.21-4.8-1.9-9.16-.43-2.69-.72-5.14-.89-6.91-.16-1.78-.2-2.88-.14-2.89.07,0,.24,1.08.5,2.84.26,1.76.61,4.19,1.04,6.87.69,4.34,1.39,8,1.54,9.2h-.15c.04-.32.07-.48.1-.48Z"/><path class="f" d="M107.64,469.21c-.14.04-1.58-4.18-3.22-9.42-1.64-5.25-2.87-9.53-2.73-9.58.14-.04,1.58,4.17,3.22,9.42,1.64,5.25,2.87,9.53,2.73,9.58Z"/><path class="f" d="M118.51,464.62c-.13.06-2.27-4-4.77-9.07-2.51-5.07-4.43-9.23-4.31-9.3.13-.06,2.27,4,4.77,9.07,2.51,5.07,4.43,9.23,4.31,9.3Z"/><path class="f" d="M128.14,457.42c-.12.09-2.88-3.46-6.18-7.92-3.3-4.46-5.88-8.14-5.76-8.23.12-.09,2.88,3.46,6.18,7.92,3.3,4.46,5.88,8.14,5.76,8.23Z"/><path class="f" d="M136.55,449.44c-.1.1-3.32-2.97-7.19-6.85-3.87-3.89-6.92-7.12-6.82-7.22.1-.1,3.32,2.97,7.19,6.85,3.87,3.89,6.92,7.12,6.82,7.22Z"/><path class="f" d="M143.48,439.86c-.04.06-.99-.46-2.51-1.34-1.66-.97-3.68-2.15-5.91-3.46-2.24-1.3-4.26-2.48-5.92-3.45-1.51-.89-2.44-1.46-2.4-1.52.03-.06,1.02.39,2.58,1.2,1.56.81,3.69,1.97,6,3.33,2.31,1.35,4.37,2.63,5.84,3.6,1.47.96,2.35,1.6,2.31,1.66Z"/><path class="f" d="M148.17,430.16c-.04.07-.95-.37-2.43-1.09-1.47-.72-3.51-1.71-5.77-2.76-2.27-1.05-4.34-1.96-5.84-2.61-1.5-.66-2.43-1.07-2.4-1.14.02-.06,1,.23,2.54.8,1.54.57,3.65,1.43,5.92,2.48,2.28,1.05,4.29,2.1,5.72,2.91,1.43.8,2.29,1.36,2.25,1.42Z"/><path class="f" d="M153.77,420.78c-.02.07-1.08-.1-2.77-.46-1.7-.36-4.03-.94-6.57-1.68-2.54-.74-4.82-1.5-6.45-2.11-1.63-.6-2.61-1.03-2.59-1.1.03-.07,1.05.24,2.71.75,1.65.51,3.94,1.22,6.47,1.96,2.54.74,4.84,1.36,6.51,1.82,1.67.46,2.7.75,2.69.82Z"/><path class="f" d="M156.76,411.32c-.02.14-4.16-.27-9.25-.91-5.09-.65-9.2-1.29-9.18-1.43.02-.14,4.16.27,9.25.91,5.09.65,9.2,1.29,9.18,1.43Z"/><path class="f" d="M159.94,402.07c0,.07-1.03.03-2.69-.08-1.66-.12-3.94-.32-6.47-.57-2.52-.25-4.81-.51-6.45-.72s-2.66-.38-2.65-.45c0-.07,1.04-.03,2.7.09,1.66.12,3.94.32,6.46.57,2.52.25,4.8.51,6.45.72,1.65.21,2.67.38,2.66.45Z"/><path class="f" d="M162.39,393.11c0,.14-4.31.4-9.64.56-5.33.17-9.65.19-9.66.04,0-.14,4.31-.4,9.64-.56,5.33-.17,9.65-.18,9.66-.04Z"/><path class="f" d="M163.4,385.79c0,.07-1,.24-2.64.41-1.64.17-3.91.31-6.43.33-2.51.01-4.79-.11-6.43-.26-1.64-.15-2.65-.32-2.64-.39,0-.08,1.02-.04,2.66.02,1.64.06,3.9.12,6.4.11,2.5-.01,4.76-.1,6.4-.17,1.64-.07,2.66-.12,2.66-.04Z"/><path class="r" d="M147.13,381.7s.02.09.02.25c0,.2,0,.44,0,.74-.02.65.02,1.61-.07,2.84-.1,2.47-.42,6.04-1.23,10.39-.8,4.35-2.17,9.46-4.35,14.89-2.17,5.43-5.21,11.15-9.14,16.65-3.97,5.47-8.44,10.16-12.91,13.93-4.47,3.78-8.88,6.7-12.75,8.83-3.87,2.14-7.16,3.57-9.47,4.45-1.14.47-2.07.74-2.68.96-.28.09-.52.17-.7.23-.16.05-.24.07-.25.06,0,0,.07-.05.23-.11.18-.07.41-.17.68-.28.6-.25,1.51-.55,2.64-1.05,2.28-.93,5.53-2.41,9.36-4.58,3.83-2.16,8.2-5.09,12.62-8.87,4.42-3.77,8.85-8.44,12.8-13.87,3.9-5.46,6.93-11.13,9.11-16.52,2.19-5.39,3.59-10.46,4.43-14.78.85-4.32,1.23-7.87,1.39-10.33.11-1.23.11-2.19.16-2.83.02-.3.03-.54.05-.74.01-.17.02-.25.03-.25Z"/><path class="h" d="M236.92,272.98s-10.73-14.51-35.53-12.36c0,0,25.25-19.4,10.39-39.33,0,0,31.89,9.42,32.25-30.44,0,0,5.8,36.96,35.88,26.45,0,0,2.14,29.37,22.95,23.93-10.07,9.92-19.88,18.65-17.88,31.31"/><g class="v"><path class="r" d="M236.92,272.98s-10.73-14.51-35.53-12.36c0,0,25.25-19.4,10.39-39.33,0,0,31.89,9.42,32.25-30.44,0,0,5.8,36.96,35.88,26.45,0,0,2.14,29.37,22.95,23.93-10.07,9.92-19.88,18.65-17.88,31.31"/></g><path class="h" d="M236.92,272.98s-.25-16.92-20.18-15.19c0,0,18.53-10.69,6.6-26.7,0,0,25.62,7.57,25.91-24.45,0,0,4.66,29.69,28.82,21.25,0,0-2.88,21.54,13.84,17.17-8.09,7.97-11.37,17.03-9.77,27.2"/><g class="u"><path class="r" d="M236.92,272.98s-.25-16.92-20.18-15.19c0,0,18.53-10.69,6.6-26.7,0,0,25.62,7.57,25.91-24.45,0,0,4.66,29.69,28.82,21.25,0,0-2.88,21.54,13.84,17.17-8.09,7.97-11.37,17.03-9.77,27.2"/></g><path class="h" d="M269.65,160.76s-.07.23-.24.63c-.2.45-.46,1.04-.78,1.76-.35.76-.77,1.69-1.22,2.8-.45,1.1-1.01,2.34-1.52,3.74-.54,1.4-1.12,2.93-1.67,4.6-.6,1.66-1.12,3.46-1.71,5.35-1.09,3.8-2.13,8.03-2.95,12.52-.79,4.5-1.29,8.82-1.6,12.76-.11,1.97-.25,3.85-.27,5.61-.07,1.76-.05,3.4-.03,4.89-.01,1.5.08,2.85.12,4.04.03,1.19.1,2.21.17,3.05.05.79.09,1.43.12,1.93.02.44.02.67,0,.68-.02,0-.06-.23-.11-.67-.06-.49-.13-1.13-.22-1.92-.1-.83-.19-1.86-.26-3.05-.07-1.19-.18-2.54-.19-4.05-.04-1.5-.08-3.15-.03-4.91,0-1.77.12-3.65.22-5.63.28-3.96.77-8.31,1.57-12.82.83-4.51,1.88-8.75,3-12.56.6-1.89,1.14-3.7,1.76-5.36.57-1.67,1.18-3.2,1.74-4.59.54-1.4,1.11-2.63,1.59-3.72.47-1.1.92-2.02,1.3-2.77.36-.71.65-1.28.87-1.72.2-.39.32-.59.34-.59Z"/><path class="h" d="M198.07,153.89c-.12.12-2.32-2.54-6-4.49-3.66-1.99-7.1-2.35-7.06-2.52,0-.06.87-.05,2.23.21,1.36.26,3.21.84,5.08,1.84,1.87,1.01,3.37,2.23,4.34,3.21.98.99,1.46,1.7,1.41,1.74Z"/><path class="h" d="M205.75,197.42s.16.12.41.39c.29.31.66.71,1.11,1.19.97,1.04,2.31,2.59,3.91,4.56,1.61,1.96,3.43,4.37,5.36,7.11,1.91,2.76,3.92,5.85,5.86,9.2,1.93,3.36,3.62,6.64,5.06,9.67,1.42,3.04,2.6,5.82,3.5,8.19.91,2.37,1.59,4.3,2.01,5.66.19.63.35,1.15.48,1.56.1.36.15.55.13.55s-.1-.17-.23-.52c-.15-.4-.34-.91-.57-1.53-.48-1.33-1.21-3.25-2.16-5.59-.94-2.35-2.15-5.1-3.59-8.12-1.46-3.01-3.15-6.27-5.07-9.61-1.94-3.33-3.93-6.43-5.81-9.19-1.9-2.75-3.69-5.17-5.25-7.16-1.56-1.99-2.85-3.58-3.77-4.65-.42-.51-.76-.93-1.04-1.26-.23-.29-.35-.45-.34-.46Z"/><path class="h" d="M274.51,202.53s-.06.17-.21.46c-.18.34-.41.75-.68,1.25-.3.54-.67,1.2-1.06,1.99-.39.78-.87,1.66-1.32,2.67-.96,1.99-1.97,4.42-2.97,7.16-.96,2.75-1.89,5.82-2.65,9.11-.73,3.29-1.2,6.46-1.51,9.36-.27,2.9-.4,5.53-.38,7.74-.03,1.1.03,2.1.05,2.98.01.88.06,1.63.1,2.25.03.57.05,1.04.07,1.42.01.33,0,.5,0,.5-.02,0-.05-.17-.09-.49-.05-.38-.1-.85-.17-1.42-.07-.62-.15-1.37-.19-2.25-.05-.88-.13-1.88-.13-2.99-.06-2.22.03-4.86.27-7.79.28-2.92.75-6.12,1.48-9.43.76-3.3,1.71-6.39,2.7-9.16,1.03-2.75,2.08-5.18,3.09-7.16.47-1,.98-1.87,1.4-2.65.41-.78.81-1.43,1.14-1.95.3-.48.56-.88.76-1.21.18-.27.28-.41.3-.4Z"/><path class="h" d="M294.15,206.41c.05.07-.84.72-2.17,1.88-1.33,1.15-3.08,2.85-4.76,4.95-1.67,2.1-2.94,4.19-3.76,5.74-.83,1.56-1.27,2.56-1.34,2.53-.06-.02.26-1.08,1.01-2.7.75-1.62,1.99-3.77,3.68-5.9,1.7-2.13,3.52-3.82,4.93-4.91,1.41-1.1,2.37-1.64,2.4-1.59Z"/><path class="h" d="M210.65,231.91c.03-.05,1,.48,2.45,1.53,1.44,1.05,3.33,2.65,5.16,4.67,1.83,2.03,3.23,4.07,4.12,5.61.9,1.54,1.32,2.56,1.27,2.59-.07.04-.61-.92-1.58-2.4-.96-1.48-2.39-3.46-4.19-5.46-1.8-2-3.63-3.62-5-4.73-1.37-1.11-2.27-1.75-2.22-1.82Z"/><path class="h" d="M205.58,222.61c-.08.14-2.12-1-4.88-1.7-2.75-.72-5.09-.71-5.09-.87-.02-.13,2.38-.38,5.22.37,2.84.72,4.82,2.1,4.75,2.2Z"/><path class="m" d="M185.01,191.31c.15-.59.37-1.14.66-1.66l-.9-1.38,1.9-1.96,1.41.86c.51-.3,1.05-.54,1.63-.71l.34-1.62,2.73-.04.39,1.6c.59.15,1.14.37,1.66.66l1.38-.9,1.96,1.9-.86,1.41c.3.5.54,1.05.71,1.63l1.62.34.04,2.73-1.6.39c-.15.59-.37,1.14-.66,1.66l.9,1.38-1.9,1.96-1.41-.86c-.5.3-1.05.54-1.63.71l-.34,1.62-2.73.04-.39-1.6c-.59-.15-1.14-.37-1.66-.66l-1.38.9-1.96-1.9.86-1.41c-.3-.5-.54-1.05-.71-1.63l-1.62-.34-.04-2.73,1.6-.39h0ZM188.61,192.86c.03,1.62,1.36,2.91,2.98,2.88,1.62-.03,2.91-1.36,2.88-2.98-.03-1.62-1.36-2.91-2.98-2.88-1.62.03-2.91,1.36-2.88,2.98Z"/><path class="p" d="M299.57,265.2c.11-.43.27-.84.48-1.22l-.67-1.02,1.4-1.45,1.04.63c.37-.22.78-.4,1.21-.52l.25-1.19,2.02-.03.29,1.18c.43.11.84.27,1.22.48l1.02-.67,1.45,1.4-.63,1.04c.22.37.4.78.52,1.21l1.19.25.03,2.02-1.18.29c-.11.43-.27.84-.48,1.22l.67,1.02-1.4,1.45-1.04-.63c-.37.22-.78.4-1.21.52l-.25,1.19-2.02.03-.29-1.18c-.43-.11-.84-.27-1.22-.48l-1.02.67-1.45-1.4.63-1.04c-.22-.37-.4-.78-.52-1.21l-1.19-.25-.03-2.02,1.18-.29h0ZM302.23,266.34c.02,1.19,1,2.15,2.2,2.13s2.15-1,2.13-2.2c-.02-1.19-1-2.15-2.2-2.13-1.19.02-2.15,1-2.13,2.2Z"/><rect class="o" x="274.18" y="182.1" width="10.43" height="4.72" transform="translate(-7.11 357.67) rotate(-64.59)"/><path class="f" d="M275.03,188.16s.48.17,1.23.49c.76.32,1.82.78,3.11,1.36l-.25.09c1.12-2.46,2.67-5.79,4.41-9.45-.11-.31.15.42.12.35h0s0,0,0,0h0s0,0,0,0h-.02s-.04-.03-.04-.03l-.07-.03-.14-.07-.28-.13-.55-.26c-.37-.17-.73-.35-1.08-.52-.71-.34-1.4-.67-2.06-.99l.33-.12c-1.29,2.69-2.45,4.98-3.28,6.64-.39.76-.72,1.41-1,1.95-.24.46-.38.71-.41.72-.03,0,.06-.23.25-.68.24-.54.52-1.19.85-1.96.75-1.68,1.83-4.1,3.14-6.89l.1-.22.23.11c.66.31,1.36.64,2.07.97.36.17.72.34,1.09.51l.55.26.28.13.14.07.07.03.04.02h.02s0,.01,0,.01h0s0,0,0,0h0c-.03-.07.23.66.12.35-1.74,3.66-3.34,6.97-4.54,9.39l-.08.17-.17-.08c-1.34-.66-2.41-1.22-3.12-1.6-.72-.38-1.09-.58-1.05-.6Z"/><path class="o" d="M283.35,175.75c-2.17-1.03-4.77-.11-5.8,2.06l7.86,3.73c1.03-2.17.11-4.77-2.06-5.8Z"/><path class="f" d="M283.35,175.75s.18.03.48.18c.29.16.71.43,1.12.9.41.47.82,1.13.99,1.99.19.84.12,1.87-.32,2.84l-.1.22-.22-.1c-1.23-.58-2.55-1.2-3.94-1.85-1.38-.67-2.7-1.3-3.92-1.89l-.22-.11.11-.21c.47-.95,1.22-1.65,2-2.04.77-.4,1.55-.51,2.17-.49.62.02,1.1.18,1.41.3.3.14.45.24.44.26-.03.08-.67-.29-1.85-.27-.58.02-1.29.15-1.98.55-.69.38-1.35,1.03-1.75,1.89l-.11-.32c1.23.58,2.55,1.2,3.94,1.85,1.38.66,2.7,1.3,3.92,1.89l-.32.11c.41-.86.5-1.78.36-2.55-.13-.78-.47-1.42-.82-1.88-.73-.93-1.42-1.19-1.38-1.26Z"/><path class="o" d="M283.45,178.24c.28-.99-.07-2.14-.86-2.8"/><path class="f" d="M282.59,175.44c.07-.13.8.27,1.08,1.2.29.92-.1,1.67-.22,1.6-.14-.05-.04-.7-.28-1.45-.22-.75-.68-1.23-.59-1.35Z"/><path class="f" d="M278.65,180.07c.08-.12,1.06.39,2.29.94,1.23.56,2.26.94,2.22,1.09-.03.14-1.16-.04-2.44-.61-1.28-.57-2.15-1.3-2.07-1.42Z"/><path class="f" d="M278.12,181.17c.08-.12,1.06.39,2.29.94,1.23.56,2.26.94,2.22,1.09-.03.14-1.16-.04-2.44-.61-1.28-.57-2.15-1.3-2.07-1.42Z"/><path class="f" d="M277.6,182.28c.08-.12,1.06.39,2.29.94,1.23.56,2.26.94,2.22,1.09-.03.14-1.16-.04-2.44-.61-1.28-.57-2.15-1.3-2.07-1.42Z"/><path class="f" d="M277.07,183.38c.08-.12,1.06.39,2.29.94,1.23.56,2.26.94,2.22,1.09-.03.14-1.16-.04-2.44-.61-1.28-.57-2.15-1.3-2.07-1.42Z"/><path class="f" d="M276.54,184.49c.08-.12,1.06.39,2.29.94,1.23.56,2.26.94,2.22,1.09-.03.14-1.16-.04-2.44-.61-1.28-.57-2.15-1.3-2.07-1.42Z"/><path class="f" d="M276.02,185.6c.08-.12,1.06.39,2.29.94,1.23.56,2.26.94,2.22,1.09-.03.14-1.16-.04-2.44-.61-1.28-.57-2.15-1.3-2.07-1.42Z"/><path class="f" d="M275.49,186.7c.08-.12,1.06.39,2.29.94,1.23.56,2.26.94,2.22,1.09-.03.14-1.16-.04-2.44-.61-1.28-.57-2.15-1.3-2.07-1.42Z"/><rect class="o" x="171.84" y="261.9" width="10.43" height="4.72" transform="translate(-93.35 96.74) rotate(-24.4)"/><path class="f" d="M182.77,264.25s-.25-.44-.63-1.17c-.37-.73-.89-1.77-1.49-3.05l.25.09c-2.44,1.15-5.78,2.7-9.47,4.37-.12.31.16-.42.13-.34h0s0,0,0,0h0s0,.01,0,.01v.02s.02.04.02.04l.03.07.06.14.13.28.25.56c.17.37.33.73.49,1.09.32.72.63,1.42.94,2.09l-.33-.12c2.72-1.22,5.08-2.23,6.79-2.95.79-.33,1.46-.61,2.02-.84.48-.19.76-.3.78-.29s-.2.13-.63.35c-.53.26-1.17.57-1.92.94-1.66.8-4.04,1.95-6.85,3.24l-.22.1-.1-.23c-.31-.67-.62-1.36-.95-2.08-.16-.36-.33-.72-.5-1.09l-.25-.56-.13-.28-.06-.14-.03-.07-.02-.04v-.02s-.01,0-.01,0h0s0,0,0,0h0c-.03.07.25-.65.13-.35,3.69-1.67,7.05-3.17,9.53-4.24l.18-.08.07.17c.6,1.38,1.05,2.49,1.36,3.24.3.75.45,1.15.42,1.14Z"/><path class="o" d="M168.41,268.36c.99,2.19,3.57,3.16,5.76,2.17l-3.6-7.93c-2.19.99-3.16,3.57-2.17,5.76Z"/><path class="f" d="M168.41,268.36s-.12-.14-.25-.45c-.12-.31-.26-.79-.28-1.41-.01-.62.11-1.4.52-2.16.4-.77,1.11-1.5,2.07-1.96l.22-.1.1.22c.57,1.23,1.18,2.56,1.82,3.95.63,1.4,1.23,2.74,1.78,3.97l.1.22-.22.09c-.97.42-2,.48-2.84.27-.85-.19-1.51-.61-1.97-1.03-.46-.42-.73-.84-.88-1.14-.14-.3-.19-.47-.17-.48.07-.04.32.66,1.24,1.4.46.36,1.08.71,1.87.86.77.16,1.69.08,2.56-.31l-.12.32c-.57-1.23-1.18-2.56-1.82-3.96-.63-1.4-1.22-2.73-1.78-3.97l.32.12c-.87.39-1.53,1.03-1.92,1.72-.41.68-.55,1.39-.58,1.97-.04,1.18.32,1.83.24,1.85Z"/><path class="o" d="M169.94,266.4c-.86.57-1.33,1.68-1.15,2.69"/><path class="f" d="M168.79,269.09c-.13.05-.44-.73-.06-1.61.37-.89,1.15-1.21,1.2-1.08.08.13-.43.56-.72,1.28-.32.71-.28,1.38-.42,1.41Z"/><path class="f" d="M174.79,268.1c-.14.04-.55-.98-1.14-2.2-.58-1.22-1.12-2.18-1-2.27.11-.08.87.78,1.47,2.04.61,1.26.8,2.39.67,2.42Z"/><path class="f" d="M175.9,267.6c-.14.04-.55-.98-1.14-2.2-.58-1.22-1.12-2.18-1-2.27.11-.08.87.78,1.47,2.04.61,1.26.8,2.39.67,2.42Z"/><path class="f" d="M177.02,267.09c-.14.04-.55-.98-1.14-2.2-.58-1.22-1.12-2.18-1-2.27.11-.08.87.78,1.47,2.04.61,1.26.8,2.39.67,2.42Z"/><path class="f" d="M178.13,266.59c-.14.04-.55-.98-1.14-2.2-.58-1.22-1.12-2.18-1-2.27.11-.08.87.78,1.47,2.04.61,1.26.8,2.39.67,2.42Z"/><path class="f" d="M179.25,266.08c-.14.04-.55-.98-1.14-2.2-.58-1.22-1.12-2.18-1-2.27.11-.08.87.78,1.47,2.04.61,1.26.8,2.39.67,2.42Z"/><path class="f" d="M180.36,265.57c-.14.04-.55-.98-1.14-2.2-.58-1.22-1.12-2.18-1-2.27.11-.08.87.78,1.47,2.04.61,1.26.8,2.39.67,2.42Z"/><path class="f" d="M181.48,265.07c-.14.04-.55-.98-1.14-2.2-.58-1.22-1.12-2.18-1-2.27.11-.08.87.78,1.47,2.04.61,1.26.8,2.39.67,2.42Z"/><path class="h" d="M201.52,142.38s12.11,11.97,15.12,19.43c2.87,7.11,4.77,13.73,4.77,13.73,0,0,3.12-5.46,6.63,0,3.51,5.46,20.1,71.77,22.83,96.74h10.57s-4.93-41.73-7.27-46.42c-2.34-4.68-4.29-6.24-4.29-6.24,0,0-2.73-17.55-4.68-20.28-1.95-2.73-4.29-3.9-4.29-3.9,0,0-3.51-19.11-8.58-23.01-5.07-3.9-8.97-1.95-8.97-1.95,0,0-3.23-20.43-21.84-28.09Z"/><path class="i" d="M300.67,230.96c.03.16-3.3.67-7.02,2.38-3.74,1.68-6.31,3.86-6.41,3.72-.04-.05.55-.65,1.63-1.48,1.08-.83,2.67-1.85,4.57-2.72,1.9-.86,3.72-1.39,5.05-1.65,1.34-.27,2.18-.31,2.19-.25Z"/><path class="i" d="M300.26,228.86c.05.16-3.33,1.05-7.05,3.13-3.74,2.05-6.28,4.45-6.39,4.32-.04-.05.53-.7,1.6-1.63,1.07-.93,2.65-2.1,4.54-3.15,1.89-1.05,3.72-1.77,5.07-2.18,1.35-.42,2.22-.56,2.23-.5Z"/><path class="i" d="M298.21,233.97c0,.16-2.21.19-4.79.94-2.59.72-4.49,1.85-4.57,1.72-.08-.1,1.75-1.47,4.43-2.22,2.67-.77,4.95-.57,4.93-.44Z"/><path class="f" d="M274.88,272.17c-1.76-14.01,2.83-30.41,14.03-38.28l2.67,2.17s-13.91,8.28-12.9,36.21"/><path class="i" d="M217.41,252c.04.16-2.6.67-5.37,2.39-2.78,1.69-4.43,3.82-4.55,3.71-.11-.05,1.4-2.4,4.28-4.15,2.86-1.78,5.64-2.07,5.64-1.95Z"/><path class="i" d="M217.13,250.76c.04.14-2.43.98-5.44,2.11-3.02,1.12-5.43,2.11-5.49,1.97-.06-.13,2.28-1.33,5.31-2.46,3.03-1.13,5.59-1.75,5.63-1.62Z"/><path class="f" d="M247.94,275.62l-4.84-1.26c.74-2.83.25-6-1.3-8.48-.63-1-1.43-1.9-2.36-2.65-.5,3.17-2.5,5.96-5.31,7.12-2.07.86-4.56.71-6.65-.41-1.92-1.03-3.25-2.75-3.63-4.73-.59-3.02,1-6.32,3.88-8.02,1.08-.64,2.33-1.06,3.66-1.25-.12-.1-.24-.19-.36-.29-4.21-3.22-10.7-3.4-15.08-.41l-2.82-4.13c6.18-4.22,14.99-3.98,20.93.57,1.91,1.46,3.4,3.27,4.35,5.22,3.11,1.25,5.86,3.49,7.63,6.32,2.27,3.62,2.98,8.25,1.9,12.39ZM233.04,260.83c-1.06,0-2.01.23-2.76.67-1.03.61-1.7,1.82-1.52,2.75.14.71.81,1.13,1.09,1.29.76.41,1.69.49,2.37.2,1.51-.63,2.53-2.64,2.31-4.58,0-.07-.02-.13-.03-.2-.51-.09-1-.13-1.47-.13Z"/><path class="h" d="M207.34,182.76s.49.22,1.34.71c.85.48,2.05,1.24,3.48,2.24,1.44.99,3.09,2.27,4.84,3.77,1.74,1.52,3.58,3.29,5.38,5.26,1.79,1.99,3.36,3.99,4.7,5.88,1.32,1.9,2.43,3.67,3.27,5.2.85,1.53,1.49,2.79,1.88,3.69.4.89.6,1.39.57,1.41-.03.02-.3-.45-.75-1.32-.44-.87-1.13-2.1-2.01-3.59-.88-1.5-2.01-3.23-3.34-5.1-1.35-1.85-2.92-3.84-4.69-5.81-1.78-1.96-3.6-3.72-5.31-5.25-1.73-1.51-3.34-2.81-4.74-3.84-1.4-1.03-2.56-1.83-3.37-2.36-.81-.54-1.25-.85-1.23-.88Z"/><path class="f" d="M190.42,294.18h.85v50.51h-.85c-4.95,0-8.96-4.02-8.96-8.96v-32.58c0-4.95,4.02-8.96,8.96-8.96Z"/><path class="f" d="M335.87,294.18h.94c4.9,0,8.88,3.98,8.88,8.88v32.76c0,4.9-3.98,8.88-8.88,8.88h-.94v-50.51h0Z"/><rect class="h" x="188.69" y="284.32" width="149.39" height="109.99" rx="14.12" ry="14.12"/><path class="r" d="M282.39,296.01c-18.91,0-34.24,15.33-34.24,34.24h68.47c0-18.91-15.33-34.24-34.24-34.24Z"/><path class="o" d="M309.97,328.58c1.44-.01,2.74-.01,3.68,0,.94.02,1.53.05,1.53.1,0,.04-.58.08-1.52.11-.94.03-2.24.04-3.68.04-1.44-.01-2.74-.02-3.68-.03-.47-.01-.85-.02-1.12-.03-.26-.01-.41-.02-.41-.04,0-.01.15-.03.41-.04.26-.01.64-.02,1.12-.04.94-.02,2.24-.04,3.68-.07Z"/><path class="o" d="M307.58,318.23c2.6-1.24,4.76-2.11,4.83-1.96.07.16-2,1.24-4.62,2.42-2.62,1.18-4.79,2.05-4.83,1.95-.04-.1,2.02-1.18,4.62-2.42Z"/><path class="o" d="M301.16,309.77c1.9-2.16,3.54-3.82,3.67-3.71.13.11-1.35,1.93-3.29,4.05-1.94,2.12-3.59,3.78-3.67,3.7-.08-.07,1.39-1.88,3.29-4.04Z"/><path class="o" d="M292,304.36c.98-2.71,1.9-4.85,2.06-4.79.16.06-.55,2.28-1.58,4.97-1.03,2.68-1.95,4.83-2.06,4.79-.1-.04.6-2.26,1.58-4.97Z"/><path class="o" d="M281.51,302.58c-.03-2.88.09-5.21.25-5.21.17,0,.28,2.33.25,5.21-.03,2.87-.14,5.21-.25,5.21-.11,0-.23-2.33-.25-5.21Z"/><path class="o" d="M271.05,304.54c-1.03-2.69-1.74-4.91-1.58-4.97s1.08,2.09,2.06,4.79c.98,2.7,1.68,4.93,1.58,4.97-.1.04-1.02-2.11-2.06-4.79Z"/><path class="o" d="M261.98,310.11c-1.95-2.12-3.42-3.93-3.29-4.05.13-.12,1.77,1.54,3.67,3.7,1.9,2.16,3.37,3.97,3.29,4.04-.08.07-1.72-1.59-3.67-3.7Z"/><path class="o" d="M255.73,318.7c-2.63-1.18-4.69-2.26-4.62-2.42s2.24.72,4.83,1.95c2.59,1.24,4.66,2.32,4.62,2.42-.04.1-2.21-.78-4.83-1.95Z"/><path class="o" d="M253.55,328.83c-1.44,0-2.74-.01-3.68-.04-.94-.03-1.53-.07-1.52-.11,0-.04.58-.08,1.53-.1.94-.02,2.24-.02,3.68,0,1.44.03,2.74.05,3.68.07.47.02.85.03,1.12.04.26.01.41.03.41.04,0,.01-.15.03-.41.04-.26,0-.65.02-1.12.03-.94,0-2.24.02-3.68.03Z"/><path class="r" d="M225.31,302c0,2.51-2.03,4.54-4.54,4.54s-4.54-2.03-4.54-4.54,2.03-4.54,4.54-4.54,4.54,2.03,4.54,4.54Z"/><path class="i" d="M225.31,315.7c0,2.51-2.03,4.54-4.54,4.54s-4.54-2.03-4.54-4.54,2.03-4.54,4.54-4.54,4.54,2.03,4.54,4.54Z"/><path class="f" d="M311.43,384.82s-.01-.3-.02-.85c0-.57-.01-1.39-.02-2.45-.01-2.16-.03-5.32-.05-9.38-.02-8.13-.06-19.85-.1-34.29l.19.19c-24.47.02-57.25.04-93.17.07h0l.26-.26c0,16.57-.01,32.46-.02,46.98l-.25-.25c27.17.05,50.43.09,66.92.12,8.25.03,14.8.05,19.3.07,2.24.01,3.97.02,5.16.03.58,0,1.02.01,1.34.01.3,0,.46.01.46.01,0,0-.14,0-.43.01-.31,0-.74,0-1.31.01-1.18,0-2.89.02-5.11.03-4.49.02-11.03.04-19.25.07-16.53.03-39.85.07-67.08.12h-.25s0-.25,0-.25c0-14.52,0-30.41-.02-46.98v-.26s.26,0,.26,0h0c35.93.03,68.7.05,93.17.07h.19s0,.19,0,.19c-.04,14.5-.08,26.26-.1,34.41-.02,4.04-.04,7.18-.05,9.34,0,1.05-.02,1.86-.02,2.42,0,.54-.02.81-.02.81Z"/><path class="f" d="M204.1,394.09h118.56v.59c0,3.44-2.79,6.23-6.23,6.23h-106.1c-3.44,0-6.23-2.79-6.23-6.23v-.59h0Z"/><g class="w"><path class="j" d="M301.47,344.43c-.18,1.28.71,2.6,1.94,2.98,1.23.38,2.67-.18,3.39-1.24.72-1.07.71-2.56.05-3.66.02.84-.23,1.71-.78,2.34-.55.64-1.42,1.01-2.25.89s-1.58-.81-1.7-1.64"/></g><path class="o" d="M306.81,343.32c0,1.53-1.24,2.76-2.76,2.76s-2.76-1.24-2.76-2.76,1.24-2.76,2.76-2.76,2.76,1.24,2.76,2.76Z"/><path class="f" d="M306.81,343.32s-.06-.25-.18-.65c-.13-.4-.42-.97-1.02-1.4-.58-.43-1.52-.66-2.42-.32-.89.32-1.65,1.27-1.64,2.37,0,1.1.75,2.05,1.64,2.37.9.34,1.84.11,2.42-.32.6-.43.89-1,1.02-1.4.13-.4.14-.65.18-.65.03,0,.09.25.01.7-.07.44-.33,1.11-.99,1.64-.63.53-1.73.86-2.81.48-1.07-.35-2.01-1.48-2-2.82-.01-1.34.93-2.47,2-2.82,1.08-.38,2.17-.06,2.81.48.66.53.92,1.2.99,1.64.08.45.01.7-.01.7Z"/><path class="f" d="M305.32,342.14c.05.14-.61.48-1.21,1.12-.62.63-.93,1.29-1.08,1.25-.14-.03,0-.88.7-1.61.71-.74,1.55-.89,1.58-.76Z"/><path class="f" d="M305.32,344.18c-.12.08-.59-.42-1.26-.87-.67-.46-1.31-.7-1.28-.85.02-.14.8-.11,1.58.42.78.52,1.09,1.24.97,1.31Z"/><g class="w"><path class="j" d="M302.76,378.63c-.18,1.28.71,2.6,1.94,2.98,1.23.38,2.67-.18,3.39-1.24.72-1.07.71-2.56.05-3.66.02.84-.23,1.71-.78,2.34-.55.64-1.42,1.01-2.25.89-.83-.13-1.58-.81-1.7-1.64"/></g><circle class="o" cx="305.35" cy="377.51" r="2.76"/><path class="f" d="M308.11,377.51s-.06-.25-.18-.65c-.13-.4-.42-.97-1.02-1.4-.58-.43-1.52-.66-2.42-.32-.89.32-1.65,1.27-1.64,2.37,0,1.1.75,2.05,1.64,2.37.9.34,1.84.11,2.42-.32.6-.43.89-1,1.02-1.4.13-.4.14-.65.18-.65.03,0,.09.25.01.7-.07.44-.33,1.11-.99,1.64-.63.53-1.73.86-2.81.48-1.07-.35-2.01-1.48-2-2.82-.01-1.34.93-2.47,2-2.82,1.08-.38,2.17-.06,2.81.48.66.53.92,1.2.99,1.64.08.45.01.7-.01.7Z"/><path class="f" d="M306.62,376.33c.05.14-.61.48-1.21,1.12-.62.63-.93,1.29-1.08,1.25-.14-.03,0-.88.7-1.61.71-.74,1.55-.89,1.58-.76Z"/><path class="f" d="M306.62,378.37c-.12.08-.59-.42-1.26-.87-.67-.46-1.31-.7-1.28-.85.02-.14.8-.11,1.57.42.78.52,1.09,1.24.97,1.31Z"/><g class="w"><path class="j" d="M222.38,344.39c-.18,1.28.71,2.6,1.94,2.98,1.23.38,2.67-.18,3.39-1.24s.71-2.56.05-3.66c.02.84-.23,1.71-.78,2.34-.55.64-1.42,1.01-2.25.89-.83-.13-1.58-.81-1.7-1.64"/></g><circle class="o" cx="224.96" cy="343.28" r="2.76"/><path class="f" d="M227.73,343.28s-.06-.25-.18-.65c-.13-.4-.42-.97-1.02-1.4-.58-.43-1.52-.66-2.42-.32-.89.32-1.65,1.27-1.64,2.37,0,1.1.75,2.05,1.64,2.37.9.34,1.84.11,2.42-.32.6-.43.89-1,1.02-1.4.13-.4.14-.65.18-.65.03,0,.09.25.01.7-.07.44-.33,1.11-.99,1.64-.63.53-1.73.86-2.81.48-1.07-.35-2.01-1.48-2-2.82-.01-1.34.93-2.47,2-2.82,1.08-.38,2.17-.06,2.81.48.66.53.92,1.2.99,1.64.08.45.01.7-.01.7Z"/><path class="f" d="M226.24,342.1c.05.14-.61.48-1.21,1.12-.62.63-.93,1.29-1.08,1.25-.14-.03,0-.88.7-1.61.71-.74,1.55-.89,1.58-.76Z"/><path class="f" d="M226.24,344.14c-.12.08-.59-.42-1.26-.87-.67-.46-1.31-.7-1.28-.85.02-.14.8-.11,1.57.42.78.52,1.09,1.24.97,1.31Z"/><g class="w"><path class="j" d="M221.8,378.29c-.18,1.28.71,2.6,1.94,2.98,1.23.38,2.67-.18,3.39-1.24.72-1.07.71-2.56.05-3.66.02.84-.23,1.71-.78,2.34-.55.64-1.42,1.01-2.25.89-.83-.13-1.58-.81-1.7-1.64"/></g><circle class="o" cx="224.38" cy="377.17" r="2.76"/><path class="f" d="M227.14,377.17s-.06-.25-.18-.65c-.13-.4-.42-.97-1.02-1.4-.58-.43-1.52-.66-2.42-.32-.89.32-1.65,1.27-1.64,2.37,0,1.1.75,2.05,1.64,2.37.9.34,1.84.11,2.42-.32.6-.43.89-1,1.02-1.4.13-.4.14-.65.18-.65.03,0,.09.25.01.7-.07.44-.33,1.11-.99,1.64-.63.53-1.73.86-2.81.48-1.07-.35-2.01-1.48-2-2.82-.01-1.34.93-2.47,2-2.82,1.08-.38,2.17-.06,2.81.48.66.53.92,1.2.99,1.64.08.45.01.7-.01.7Z"/><path class="f" d="M225.65,375.99c.05.14-.61.48-1.21,1.12-.62.63-.93,1.29-1.08,1.25-.14-.03,0-.88.7-1.61.71-.74,1.55-.89,1.58-.76Z"/><path class="f" d="M225.65,378.04c-.12.08-.59-.42-1.26-.87-.67-.46-1.31-.7-1.28-.85.02-.14.8-.11,1.58.42.78.52,1.09,1.24.97,1.31Z"/><g class="w"><path class="j" d="M218.25,385.08c10.82,2.35,23.46,2.44,35.15,1.87,5.62-.27,11.79-.63,16.29,2.76.99.74,2.14,1.71,3.3,1.28,1.69-.63,1.75-3.7,3.55-3.77.9-.03,1.58.83,1.88,1.68.29.85.36,1.79.82,2.56.46.77,1.55,1.3,2.27.75,1.14-.87-.17-2.74.26-4.11.45-1.42,2.46-1.53,3.84-.97,1.38.56,2.73,1.53,4.2,1.32,1.06-.16,1.91-.9,2.83-1.45,2.63-1.6,5.88-1.7,8.96-1.75,3.25-.06,6.6-.37,9.85-.42l-93.18.25Z"/></g><path class="f" d="M292.77,349.79s-.17.08-.51.18c-.34.1-.84.22-1.45.48-1.24.47-2.94,1.38-4.88,2.77-1.95,1.36-4.1,3.24-6.83,4.9-1.37.81-2.91,1.54-4.63,1.92-1.72.43-3.54.35-5.34.4-3.65-.04-6.84,1.49-9.6,2.96-2.78,1.49-5.28,2.84-7.25,4.17-1.98,1.32-3.42,2.6-4.35,3.56-.92.96-1.36,1.56-1.4,1.53-.01-.01.08-.17.29-.46.2-.29.52-.7.96-1.21.88-1.01,2.31-2.35,4.29-3.72,1.97-1.38,4.46-2.78,7.23-4.29,1.39-.75,2.88-1.52,4.52-2.11,1.63-.61,3.46-.93,5.29-.95,1.83-.05,3.61.03,5.25-.38,1.65-.36,3.15-1.05,4.49-1.84,2.69-1.61,4.87-3.46,6.87-4.79,1.98-1.36,3.74-2.24,5.02-2.65.63-.23,1.15-.33,1.5-.4.35-.07.53-.09.53-.08Z"/><path class="f" d="M269.06,357.71c-.01.06-1.13-.06-2.9-.45-1.77-.39-4.19-1.07-6.77-2.1-2.57-1.04-4.8-2.21-6.35-3.16-1.55-.95-2.44-1.63-2.41-1.68.04-.07,1,.51,2.59,1.36,1.58.86,3.81,1.97,6.36,3,2.55,1.02,4.93,1.76,6.66,2.23,1.74.48,2.83.73,2.81.8Z"/><path class="h" d="M284.1,325.07c.76-.4,23.23-7.63,23.23-7.63l-21.48,12.04-1.76-4.41Z"/><path class="f" d="M281.76,322.64c-4.2,0-7.6,3.4-7.6,7.6h15.19c0-4.2-3.4-7.6-7.6-7.6Z"/><path class="f" d="M205.35,394.09c-.14,0-.26-24.42-.26-54.54s.12-54.55.26-54.55.26,24.42.26,54.55-.12,54.54-.26,54.54Z"/><path class="f" d="M324.2,394.09c-.14,0-.26-24.42-.26-54.54s.12-54.55.26-54.55.26,24.42.26,54.55-.12,54.54-.26,54.54Z"/><circle class="f" cx="200.36" cy="298.63" r="1.17"/><circle class="f" cx="200.36" cy="320.51" r="1.17"/><circle class="f" cx="200.36" cy="342.4" r="1.17"/><circle class="f" cx="200.36" cy="364.29" r="1.17"/><circle class="f" cx="200.36" cy="386.17" r="1.17"/><circle class="f" cx="330.31" cy="298.63" r="1.17"/><circle class="f" cx="330.31" cy="320.51" r="1.17"/><circle class="f" cx="330.31" cy="342.4" r="1.17"/><circle class="f" cx="330.31" cy="364.29" r="1.17"/><circle class="f" cx="330.31" cy="386.17" r="1.17"/><rect class="i" x="234.3" y="272.27" width="51.1" height="12.04"/><path class="f" d="M237.99,284.32c-.14,0-.26-2.6-.26-5.81s.12-5.81.26-5.81.26,2.6.26,5.81-.12,5.81-.26,5.81Z"/><path class="f" d="M243.23,284.32c-.14,0-.26-2.6-.26-5.81s.12-5.81.26-5.81.26,2.6.26,5.81-.12,5.81-.26,5.81Z"/><path class="f" d="M248.48,284.32c-.14,0-.26-2.6-.26-5.81s.12-5.81.26-5.81.26,2.6.26,5.81-.12,5.81-.26,5.81Z"/><path class="f" d="M253.73,284.32c-.14,0-.26-2.6-.26-5.81s.12-5.81.26-5.81.26,2.6.26,5.81-.12,5.81-.26,5.81Z"/><path class="f" d="M258.97,284.32c-.14,0-.26-2.6-.26-5.81s.12-5.81.26-5.81.26,2.6.26,5.81-.12,5.81-.26,5.81Z"/><path class="f" d="M264.22,284.32c-.14,0-.26-2.6-.26-5.81s.12-5.81.26-5.81.26,2.6.26,5.81-.12,5.81-.26,5.81Z"/><path class="f" d="M269.47,284.32c-.14,0-.26-2.6-.26-5.81s.12-5.81.26-5.81.26,2.6.26,5.81-.12,5.81-.26,5.81Z"/><path class="f" d="M274.71,284.32c-.14,0-.26-2.6-.26-5.81s.12-5.81.26-5.81.26,2.6.26,5.81-.12,5.81-.26,5.81Z"/><path class="f" d="M279.96,284.32c-.14,0-.26-2.6-.26-5.81s.12-5.81.26-5.81.26,2.6.26,5.81-.12,5.81-.26,5.81Z"/><g class="w"><path class="j" d="M345.68,310.42c1.24,6.26,2.38,12.16,3.62,18.42-1.22.15-3.62-.01-3.62-.01-.03-6,.03-12.41,0-18.41"/></g><path class="r" d="M192.15,296.05c.14,0,0,18.68-.34,41.7-.33,23.04-.72,41.7-.86,41.7-.14,0,0-18.67.34-41.71.33-23.03.72-41.7.86-41.7Z"/><path class="r" d="M213.89,382.03c-.14,0-.26-9.3-.26-20.77s.12-20.77.26-20.77.26,9.3.26,20.77-.12,20.77-.26,20.77Z"/><path class="r" d="M312.1,287.68c0,.14-22.92.26-51.2.26s-51.2-.12-51.2-.26,22.92-.26,51.2-.26,51.2.12,51.2.26Z"/></g><g id="d"><path class="f" d="M462.62,475.16c0,.14-95.2.26-212.61.26s-212.63-.12-212.63-.26,95.18-.26,212.63-.26,212.61.12,212.61.26Z"/></g></svg>