<svg width="100%" height="100%" id="svg" viewBox="0 0 1440 590" xmlns="http://www.w3.org/2000/svg" class="transition duration-300 ease-in-out delay-150"><path d="M 0,600 C 0,600 0,200 0,200 C 66.23222260391617,177.19821367227757 132.46444520783234,154.39642734455515 191,138 C 249.53555479216766,121.60357265544485 300.37444177258675,111.612504294057 375,138 C 449.62555822741325,164.387495705943 548.0377877018207,227.15355547921678 614,227 C 679.9622122981793,226.84644452078322 713.4744074201308,163.77327378907594 788,153 C 862.5255925798692,142.22672621092406 978.0645826176572,183.75334936447956 1056,188 C 1133.9354173823428,192.24665063552044 1174.2672621092408,159.21332875300584 1232,155 C 1289.7327378907592,150.78667124699416 1364.8663689453797,175.39333562349708 1440,200 C 1440,200 1440,600 1440,600 Z" stroke="none" stroke-width="0" fill="#0d6efd" fill-opacity="0.53" class="transition-all duration-300 ease-in-out delay-150 path-0"></path><path d="M 0,600 C 0,600 0,400 0,400 C 49.47372037100652,383.3940226726211 98.94744074201304,366.7880453452422 170,384 C 241.05255925798696,401.2119546547578 333.6839574029544,452.24184129165235 416,451 C 498.3160425970456,449.75815870834765 570.3167296461697,396.2445894881484 643,376 C 715.6832703538303,355.7554105118516 789.049124012367,368.779800755754 860,365 C 930.950875987633,361.220199244246 999.4867743043628,340.63620748883545 1059,333 C 1118.5132256956372,325.36379251116455 1169.003778770182,330.67536928890416 1231,344 C 1292.996221229818,357.32463071109584 1366.498110614909,378.6623153555479 1440,400 C 1440,400 1440,600 1440,600 Z" stroke="none" stroke-width="0" fill="#0d6efd" fill-opacity="1" class="transition-all duration-300 ease-in-out delay-150 path-1"></path></svg>